M48
;GenerationSoftware,Autodesk,EAGLE,9.6.2*%
;CreationDate,2021-11-19T00:28:02Z*%
FMAT,2
ICI,OFF
METRIC,TZ,000.000
T4C0.081
T3C0.813
T2C1.050
T1C1.060
%
G90
M71
T1
X15240Y62230
X15240Y76200
X15340Y69850
X15240Y67310
X15240Y64770
X15240Y73660
X15240Y78740
X15340Y81280
T2
X49530Y16510
X52070Y16510
X54610Y16510
X49530Y44450
X59690Y16510
X46990Y30480
X49530Y30480
X52070Y30480
X54610Y30480
X57150Y30480
X59690Y30480
X46990Y44450
X52070Y44450
X54610Y44450
X57150Y44450
X59690Y44450
X46990Y58420
X49530Y58420
X52070Y58420
X54610Y58420
X59690Y58420
X46990Y72390
X49530Y72390
X52070Y72390
X54610Y72390
X57150Y72390
X59690Y72390
X46990Y86360
X57150Y58420
X52070Y86360
X54610Y86360
X57150Y86360
X59690Y86360
X49530Y86360
X57150Y16510
X46990Y16510
T3
X29210Y19050
X29210Y21590
X29210Y67310
X29210Y69850
X29210Y90170
X29210Y92710
X29210Y81280
X29210Y83820
X29210Y11430
X29210Y13970
X29210Y33020
X29210Y35560
X29210Y25400
X29210Y27940
X29210Y46990
X29210Y49530
X29210Y39370
X29210Y41910
X29210Y60960
X29210Y63500
X29210Y53340
X29210Y55880
X29210Y74930
X29210Y77470
T4
X6350Y7620
X7620Y95250
X76200Y95250
X7620Y95250
X76200Y7620
M30