M48
;GenerationSoftware,Autodesk,EAGLE,9.3.0*%
;CreationDate,2019-04-08T18:18:13Z*%
FMAT,2
ICI,OFF
METRIC,TZ,000.000
T5C0.508
T4C0.759
T3C0.813
T2C1.016
T1C3.175
%
G90
M71
T1
X6350Y6350
X80963Y6350
X6350Y85725
X80963Y85725
T2
X80645Y45212
X80645Y42672
X6985Y42672
X6985Y45212
X6985Y47752
X45085Y5842
X42545Y5842
X40005Y5842
X40005Y85852
X42545Y85852
X6985Y50292
X47625Y5842
X45085Y85852
X47625Y85852
X80645Y50292
X80645Y47752
T3
X74295Y38862
X64135Y38862
X51435Y38862
X61595Y38862
X51435Y33782
X61595Y33782
X61595Y64262
X64135Y54102
X74295Y54102
X51435Y54102
X61595Y54102
X74295Y13462
X64135Y13462
X51435Y13462
X61595Y13462
X51435Y8382
X61595Y8382
X36195Y13462
X26035Y13462
X64135Y28702
X51435Y28702
X61595Y28702
X23495Y64262
X13335Y64262
X26035Y64262
X36195Y64262
X36195Y59182
X26035Y59182
X61595Y79502
X51435Y79502
X23495Y79502
X13335Y79502
X36195Y79502
X26035Y79502
X74295Y28702
X36195Y33782
X23495Y38862
X13335Y38862
X26035Y38862
X36195Y38862
X51435Y64262
X26035Y33782
X26035Y28702
X36195Y28702
X23495Y54102
X13335Y54102
X36195Y54102
X26035Y54102
T4
X39846Y76962
X47784Y13462
X39846Y13462
X39846Y16002
X39846Y18542
X39846Y23622
X39846Y71882
X39846Y26162
X39846Y28702
X47784Y54102
X39846Y79502
X39846Y74422
X47784Y51562
X39846Y69342
X39846Y66802
X39846Y64262
X47784Y64262
X47784Y66802
X47784Y69342
X47784Y71882
X47784Y74422
X47784Y76962
X47784Y79502
X39846Y54102
X39846Y51562
X39846Y21082
X39846Y46482
X39846Y43942
X39846Y41402
X39846Y38862
X47784Y38862
X47784Y41402
X47784Y43942
X47784Y46482
X47784Y49022
X47784Y28702
X39846Y49022
X47784Y26162
X47784Y23622
X47784Y21082
X47784Y18542
X47784Y16002
T5
X62865Y71882
X65405Y64262
X67945Y61722
X66675Y36322
X69215Y38862
X70485Y37592
X6985Y62992
X6985Y59182
X66675Y33782
X60325Y74422
M30