G04 EAGLE Gerber RS-274X export*
G75*
%MOMM*%
%FSLAX34Y34*%
%LPD*%
%INTop Copper*%
%IPPOS*%
%AMOC8*
5,1,8,0,0,1.08239X$1,22.5*%
G01*
%ADD10C,0.000000*%
%ADD11R,1.267000X1.267000*%
%ADD12C,1.267000*%
%ADD13P,1.429621X8X202.500000*%
%ADD14P,1.429621X8X22.500000*%
%ADD15C,1.524000*%
%ADD16C,0.304800*%
%ADD17C,0.609600*%
%ADD18C,0.914400*%

G36*
X862223Y10164D02*
X862223Y10164D01*
X862242Y10162D01*
X862344Y10184D01*
X862446Y10200D01*
X862463Y10210D01*
X862483Y10214D01*
X862572Y10267D01*
X862663Y10316D01*
X862677Y10330D01*
X862694Y10340D01*
X862761Y10419D01*
X862833Y10494D01*
X862841Y10512D01*
X862854Y10527D01*
X862893Y10623D01*
X862936Y10717D01*
X862938Y10737D01*
X862946Y10755D01*
X862964Y10922D01*
X862964Y909828D01*
X862961Y909848D01*
X862963Y909867D01*
X862941Y909969D01*
X862925Y910071D01*
X862915Y910088D01*
X862911Y910108D01*
X862858Y910197D01*
X862809Y910288D01*
X862795Y910302D01*
X862785Y910319D01*
X862706Y910386D01*
X862631Y910458D01*
X862613Y910466D01*
X862598Y910479D01*
X862502Y910518D01*
X862408Y910561D01*
X862388Y910563D01*
X862370Y910571D01*
X862203Y910589D01*
X10922Y910589D01*
X10902Y910586D01*
X10883Y910588D01*
X10781Y910566D01*
X10679Y910550D01*
X10662Y910540D01*
X10642Y910536D01*
X10553Y910483D01*
X10462Y910434D01*
X10448Y910420D01*
X10431Y910410D01*
X10364Y910331D01*
X10292Y910256D01*
X10284Y910238D01*
X10271Y910223D01*
X10232Y910127D01*
X10189Y910033D01*
X10187Y910013D01*
X10179Y909995D01*
X10161Y909828D01*
X10161Y10922D01*
X10164Y10902D01*
X10162Y10883D01*
X10184Y10781D01*
X10200Y10679D01*
X10210Y10662D01*
X10214Y10642D01*
X10267Y10553D01*
X10316Y10462D01*
X10330Y10448D01*
X10340Y10431D01*
X10419Y10364D01*
X10494Y10292D01*
X10512Y10284D01*
X10527Y10271D01*
X10623Y10232D01*
X10717Y10189D01*
X10737Y10187D01*
X10755Y10179D01*
X10922Y10161D01*
X862203Y10161D01*
X862223Y10164D01*
G37*
%LPC*%
G36*
X286731Y28701D02*
X286731Y28701D01*
X208089Y107343D01*
X205485Y109947D01*
X205485Y259876D01*
X205484Y259886D01*
X205484Y259890D01*
X205479Y259914D01*
X205471Y259966D01*
X205463Y260057D01*
X205451Y260087D01*
X205446Y260119D01*
X205403Y260200D01*
X205367Y260284D01*
X205341Y260316D01*
X205330Y260336D01*
X205307Y260359D01*
X205262Y260414D01*
X172973Y292704D01*
X172973Y360713D01*
X172959Y360803D01*
X172951Y360894D01*
X172939Y360924D01*
X172934Y360956D01*
X172891Y361036D01*
X172855Y361120D01*
X172829Y361152D01*
X172818Y361173D01*
X172795Y361195D01*
X172750Y361251D01*
X149669Y384332D01*
X149595Y384385D01*
X149526Y384445D01*
X149496Y384457D01*
X149470Y384476D01*
X149383Y384503D01*
X149298Y384537D01*
X149257Y384541D01*
X149235Y384548D01*
X149202Y384547D01*
X149131Y384555D01*
X142533Y384555D01*
X142443Y384541D01*
X142352Y384533D01*
X142322Y384521D01*
X142290Y384516D01*
X142210Y384473D01*
X142126Y384437D01*
X142094Y384411D01*
X142073Y384400D01*
X142051Y384377D01*
X141995Y384332D01*
X137138Y379475D01*
X129562Y379475D01*
X125340Y383697D01*
X125266Y383750D01*
X125197Y383810D01*
X125167Y383822D01*
X125140Y383841D01*
X125053Y383868D01*
X124969Y383902D01*
X124928Y383906D01*
X124905Y383913D01*
X124873Y383912D01*
X124802Y383920D01*
X38829Y383920D01*
X36225Y386524D01*
X20637Y402112D01*
X18033Y404716D01*
X18033Y741512D01*
X171110Y894589D01*
X393873Y894589D01*
X416163Y872299D01*
X416179Y872287D01*
X416192Y872272D01*
X416279Y872216D01*
X416363Y872156D01*
X416382Y872150D01*
X416399Y872139D01*
X416499Y872114D01*
X416598Y872083D01*
X416618Y872084D01*
X416637Y872079D01*
X416740Y872087D01*
X416844Y872090D01*
X416862Y872096D01*
X416882Y872098D01*
X416977Y872138D01*
X417075Y872174D01*
X417090Y872186D01*
X417109Y872194D01*
X417240Y872299D01*
X419694Y874754D01*
X423429Y876301D01*
X427471Y876301D01*
X431206Y874754D01*
X434064Y871896D01*
X435611Y868161D01*
X435611Y848879D01*
X434064Y845144D01*
X431206Y842286D01*
X429985Y841780D01*
X429885Y841719D01*
X429785Y841659D01*
X429781Y841654D01*
X429776Y841651D01*
X429701Y841561D01*
X429625Y841472D01*
X429623Y841466D01*
X429619Y841461D01*
X429577Y841353D01*
X429533Y841244D01*
X429532Y841236D01*
X429531Y841232D01*
X429530Y841213D01*
X429515Y841077D01*
X429515Y780636D01*
X413147Y764268D01*
X413094Y764194D01*
X413034Y764125D01*
X413022Y764095D01*
X413003Y764069D01*
X412976Y763982D01*
X412942Y763897D01*
X412938Y763856D01*
X412931Y763833D01*
X412932Y763801D01*
X412924Y763730D01*
X412924Y763629D01*
X402562Y753267D01*
X402535Y753230D01*
X402501Y753199D01*
X402464Y753131D01*
X402418Y753067D01*
X402405Y753024D01*
X402383Y752983D01*
X402369Y752907D01*
X402346Y752832D01*
X402347Y752786D01*
X402339Y752741D01*
X402350Y752664D01*
X402352Y752586D01*
X402368Y752543D01*
X402375Y752498D01*
X402410Y752429D01*
X402437Y752355D01*
X402466Y752320D01*
X402486Y752279D01*
X402542Y752224D01*
X402591Y752163D01*
X402629Y752139D01*
X402662Y752106D01*
X402782Y752041D01*
X402798Y752030D01*
X402802Y752029D01*
X402809Y752026D01*
X403488Y751744D01*
X405984Y749248D01*
X407336Y745985D01*
X407336Y743414D01*
X407350Y743324D01*
X407358Y743233D01*
X407370Y743204D01*
X407375Y743172D01*
X407418Y743091D01*
X407454Y743007D01*
X407480Y742975D01*
X407491Y742954D01*
X407514Y742932D01*
X407559Y742876D01*
X412212Y738223D01*
X412228Y738211D01*
X412240Y738196D01*
X412328Y738140D01*
X412411Y738080D01*
X412430Y738074D01*
X412447Y738063D01*
X412548Y738038D01*
X412647Y738007D01*
X412666Y738008D01*
X412686Y738003D01*
X412789Y738011D01*
X412892Y738014D01*
X412911Y738020D01*
X412931Y738022D01*
X413026Y738062D01*
X413123Y738098D01*
X413139Y738111D01*
X413157Y738118D01*
X413288Y738223D01*
X459262Y784197D01*
X459315Y784271D01*
X459375Y784341D01*
X459387Y784371D01*
X459406Y784397D01*
X459433Y784484D01*
X459467Y784569D01*
X459471Y784610D01*
X459478Y784632D01*
X459477Y784664D01*
X459485Y784735D01*
X459485Y809404D01*
X474566Y824485D01*
X592234Y824485D01*
X612331Y804388D01*
X612405Y804335D01*
X612474Y804275D01*
X612504Y804263D01*
X612530Y804244D01*
X612617Y804217D01*
X612702Y804183D01*
X612743Y804179D01*
X612766Y804172D01*
X612798Y804173D01*
X612869Y804165D01*
X619738Y804165D01*
X625095Y798808D01*
X625095Y791232D01*
X619738Y785875D01*
X612162Y785875D01*
X606805Y791232D01*
X606805Y798101D01*
X606791Y798191D01*
X606783Y798282D01*
X606771Y798312D01*
X606766Y798344D01*
X606723Y798424D01*
X606687Y798508D01*
X606661Y798540D01*
X606650Y798561D01*
X606627Y798583D01*
X606582Y798639D01*
X589089Y816132D01*
X589015Y816185D01*
X588946Y816245D01*
X588916Y816257D01*
X588890Y816276D01*
X588803Y816303D01*
X588718Y816337D01*
X588677Y816341D01*
X588654Y816348D01*
X588622Y816347D01*
X588551Y816355D01*
X478249Y816355D01*
X478159Y816341D01*
X478068Y816333D01*
X478038Y816321D01*
X478006Y816316D01*
X477926Y816273D01*
X477842Y816237D01*
X477810Y816211D01*
X477789Y816200D01*
X477767Y816177D01*
X477711Y816132D01*
X467838Y806259D01*
X467785Y806185D01*
X467725Y806116D01*
X467713Y806086D01*
X467694Y806060D01*
X467667Y805973D01*
X467633Y805888D01*
X467629Y805847D01*
X467622Y805824D01*
X467623Y805792D01*
X467615Y805721D01*
X467615Y797354D01*
X467630Y797258D01*
X467640Y797161D01*
X467650Y797137D01*
X467654Y797112D01*
X467700Y797026D01*
X467740Y796937D01*
X467757Y796917D01*
X467770Y796894D01*
X467840Y796827D01*
X467906Y796756D01*
X467929Y796743D01*
X467948Y796725D01*
X468036Y796684D01*
X468122Y796637D01*
X468147Y796632D01*
X468171Y796621D01*
X468268Y796611D01*
X468364Y796593D01*
X468390Y796597D01*
X468415Y796594D01*
X468511Y796615D01*
X468607Y796629D01*
X468630Y796641D01*
X468656Y796646D01*
X468739Y796696D01*
X468826Y796741D01*
X468845Y796759D01*
X468867Y796773D01*
X468930Y796847D01*
X468998Y796916D01*
X469014Y796945D01*
X469027Y796960D01*
X469039Y796990D01*
X469079Y797063D01*
X470316Y800048D01*
X472812Y802544D01*
X476075Y803896D01*
X479605Y803896D01*
X482868Y802544D01*
X485364Y800048D01*
X485569Y799555D01*
X485630Y799455D01*
X485690Y799355D01*
X485695Y799351D01*
X485698Y799346D01*
X485788Y799271D01*
X485877Y799195D01*
X485883Y799193D01*
X485888Y799189D01*
X485996Y799147D01*
X486105Y799103D01*
X486113Y799102D01*
X486117Y799101D01*
X486136Y799100D01*
X486272Y799085D01*
X505167Y799085D01*
X505257Y799099D01*
X505348Y799107D01*
X505378Y799119D01*
X505410Y799124D01*
X505490Y799167D01*
X505574Y799203D01*
X505606Y799229D01*
X505627Y799240D01*
X505649Y799263D01*
X505705Y799308D01*
X510562Y804165D01*
X518138Y804165D01*
X523495Y798808D01*
X523495Y791232D01*
X518138Y785875D01*
X510562Y785875D01*
X505705Y790732D01*
X505631Y790785D01*
X505562Y790845D01*
X505532Y790857D01*
X505505Y790876D01*
X505418Y790903D01*
X505334Y790937D01*
X505293Y790941D01*
X505270Y790948D01*
X505238Y790947D01*
X505167Y790955D01*
X486272Y790955D01*
X486157Y790936D01*
X486041Y790919D01*
X486035Y790917D01*
X486029Y790916D01*
X485927Y790861D01*
X485822Y790808D01*
X485817Y790803D01*
X485812Y790800D01*
X485732Y790716D01*
X485650Y790632D01*
X485646Y790626D01*
X485642Y790622D01*
X485635Y790605D01*
X485569Y790485D01*
X485364Y789992D01*
X482868Y787496D01*
X482375Y787291D01*
X482275Y787230D01*
X482175Y787170D01*
X482171Y787165D01*
X482166Y787162D01*
X482091Y787072D01*
X482015Y786983D01*
X482013Y786977D01*
X482009Y786972D01*
X481967Y786863D01*
X481923Y786755D01*
X481922Y786747D01*
X481921Y786743D01*
X481920Y786724D01*
X481905Y786588D01*
X481905Y778052D01*
X481924Y777937D01*
X481941Y777821D01*
X481943Y777815D01*
X481944Y777809D01*
X481999Y777707D01*
X482052Y777602D01*
X482057Y777597D01*
X482060Y777592D01*
X482144Y777512D01*
X482228Y777430D01*
X482234Y777426D01*
X482238Y777422D01*
X482255Y777415D01*
X482375Y777349D01*
X482868Y777144D01*
X485364Y774648D01*
X486716Y771385D01*
X486716Y767855D01*
X485364Y764592D01*
X482868Y762096D01*
X479605Y760744D01*
X476075Y760744D01*
X472812Y762096D01*
X470316Y764592D01*
X468964Y767855D01*
X468964Y771385D01*
X470316Y774648D01*
X472812Y777144D01*
X473305Y777349D01*
X473405Y777410D01*
X473505Y777470D01*
X473509Y777475D01*
X473514Y777478D01*
X473589Y777568D01*
X473665Y777657D01*
X473667Y777663D01*
X473671Y777668D01*
X473713Y777776D01*
X473757Y777885D01*
X473758Y777893D01*
X473759Y777897D01*
X473760Y777916D01*
X473775Y778052D01*
X473775Y786588D01*
X473756Y786703D01*
X473739Y786819D01*
X473737Y786825D01*
X473736Y786831D01*
X473681Y786933D01*
X473628Y787038D01*
X473623Y787043D01*
X473620Y787048D01*
X473536Y787128D01*
X473452Y787210D01*
X473446Y787214D01*
X473442Y787218D01*
X473425Y787225D01*
X473305Y787291D01*
X472812Y787496D01*
X470316Y789992D01*
X469079Y792977D01*
X469028Y793060D01*
X468982Y793146D01*
X468963Y793164D01*
X468950Y793186D01*
X468875Y793248D01*
X468804Y793315D01*
X468780Y793326D01*
X468760Y793343D01*
X468669Y793378D01*
X468581Y793419D01*
X468555Y793422D01*
X468531Y793431D01*
X468433Y793435D01*
X468337Y793446D01*
X468311Y793440D01*
X468285Y793441D01*
X468191Y793414D01*
X468096Y793394D01*
X468074Y793380D01*
X468049Y793373D01*
X467969Y793317D01*
X467885Y793267D01*
X467868Y793247D01*
X467847Y793233D01*
X467788Y793154D01*
X467725Y793080D01*
X467715Y793056D01*
X467700Y793035D01*
X467670Y792943D01*
X467633Y792852D01*
X467630Y792820D01*
X467624Y792801D01*
X467624Y792768D01*
X467615Y792686D01*
X467615Y781053D01*
X417038Y730476D01*
X416985Y730402D01*
X416925Y730332D01*
X416913Y730302D01*
X416894Y730276D01*
X416867Y730189D01*
X416833Y730104D01*
X416829Y730063D01*
X416822Y730041D01*
X416823Y730009D01*
X416815Y729937D01*
X416815Y665920D01*
X402562Y651667D01*
X402535Y651630D01*
X402501Y651599D01*
X402489Y651575D01*
X402475Y651561D01*
X402455Y651519D01*
X402418Y651467D01*
X402405Y651424D01*
X402383Y651383D01*
X402377Y651349D01*
X402372Y651338D01*
X402367Y651302D01*
X402346Y651232D01*
X402347Y651186D01*
X402339Y651141D01*
X402345Y651100D01*
X402344Y651094D01*
X402350Y651070D01*
X402350Y651064D01*
X402352Y650986D01*
X402368Y650943D01*
X402375Y650898D01*
X402396Y650856D01*
X402397Y650853D01*
X402403Y650843D01*
X402410Y650829D01*
X402437Y650755D01*
X402466Y650720D01*
X402486Y650679D01*
X402522Y650644D01*
X402523Y650642D01*
X402528Y650638D01*
X402542Y650624D01*
X402591Y650563D01*
X402629Y650539D01*
X402662Y650506D01*
X402782Y650441D01*
X402798Y650430D01*
X402802Y650429D01*
X402809Y650426D01*
X403488Y650144D01*
X405984Y647648D01*
X407336Y644385D01*
X407336Y640855D01*
X405984Y637592D01*
X403488Y635096D01*
X400225Y633744D01*
X396695Y633744D01*
X393432Y635096D01*
X390936Y637592D01*
X390731Y638085D01*
X390670Y638185D01*
X390610Y638285D01*
X390605Y638289D01*
X390602Y638294D01*
X390512Y638369D01*
X390423Y638445D01*
X390417Y638447D01*
X390412Y638451D01*
X390304Y638493D01*
X390195Y638537D01*
X390187Y638538D01*
X390183Y638539D01*
X390164Y638540D01*
X390028Y638555D01*
X371133Y638555D01*
X371043Y638541D01*
X370952Y638533D01*
X370922Y638521D01*
X370890Y638516D01*
X370810Y638473D01*
X370726Y638437D01*
X370694Y638411D01*
X370673Y638400D01*
X370651Y638377D01*
X370595Y638332D01*
X366238Y633975D01*
X366185Y633901D01*
X366125Y633832D01*
X366113Y633802D01*
X366094Y633775D01*
X366067Y633688D01*
X366033Y633604D01*
X366029Y633563D01*
X366022Y633540D01*
X366023Y633508D01*
X366015Y633437D01*
X366015Y601003D01*
X366029Y600913D01*
X366037Y600822D01*
X366049Y600792D01*
X366054Y600760D01*
X366097Y600680D01*
X366133Y600596D01*
X366159Y600564D01*
X366170Y600543D01*
X366193Y600521D01*
X366238Y600465D01*
X371095Y595608D01*
X371095Y588032D01*
X365738Y582675D01*
X358162Y582675D01*
X352805Y588032D01*
X352805Y595608D01*
X357662Y600465D01*
X357715Y600539D01*
X357775Y600608D01*
X357787Y600638D01*
X357806Y600665D01*
X357833Y600752D01*
X357867Y600836D01*
X357871Y600877D01*
X357878Y600900D01*
X357877Y600932D01*
X357885Y601003D01*
X357885Y633437D01*
X357871Y633527D01*
X357863Y633618D01*
X357851Y633648D01*
X357846Y633680D01*
X357803Y633760D01*
X357767Y633844D01*
X357741Y633876D01*
X357730Y633897D01*
X357707Y633919D01*
X357662Y633975D01*
X352805Y638832D01*
X352805Y646408D01*
X356353Y649956D01*
X356395Y650014D01*
X356444Y650066D01*
X356466Y650113D01*
X356497Y650155D01*
X356518Y650224D01*
X356548Y650289D01*
X356554Y650341D01*
X356569Y650391D01*
X356567Y650462D01*
X356575Y650533D01*
X356564Y650584D01*
X356563Y650636D01*
X356538Y650704D01*
X356523Y650774D01*
X356496Y650819D01*
X356478Y650867D01*
X356433Y650923D01*
X356397Y650985D01*
X356357Y651019D01*
X356325Y651059D01*
X356264Y651098D01*
X356210Y651145D01*
X356161Y651164D01*
X356118Y651192D01*
X356048Y651210D01*
X355982Y651237D01*
X355910Y651245D01*
X355879Y651253D01*
X355856Y651251D01*
X355815Y651255D01*
X325849Y651255D01*
X325759Y651241D01*
X325668Y651233D01*
X325638Y651221D01*
X325606Y651216D01*
X325526Y651173D01*
X325442Y651137D01*
X325410Y651111D01*
X325389Y651100D01*
X325367Y651077D01*
X325311Y651032D01*
X269718Y595439D01*
X269665Y595365D01*
X269605Y595296D01*
X269593Y595266D01*
X269574Y595240D01*
X269547Y595153D01*
X269513Y595068D01*
X269509Y595027D01*
X269502Y595004D01*
X269503Y594972D01*
X269495Y594901D01*
X269495Y588032D01*
X264138Y582675D01*
X256562Y582675D01*
X251205Y588032D01*
X251205Y595608D01*
X256562Y600965D01*
X263431Y600965D01*
X263521Y600979D01*
X263612Y600987D01*
X263642Y600999D01*
X263674Y601004D01*
X263754Y601047D01*
X263838Y601083D01*
X263870Y601109D01*
X263891Y601120D01*
X263913Y601143D01*
X263969Y601188D01*
X322166Y659385D01*
X392705Y659385D01*
X392776Y659396D01*
X392848Y659398D01*
X392897Y659416D01*
X392948Y659424D01*
X393011Y659458D01*
X393079Y659483D01*
X393119Y659515D01*
X393165Y659540D01*
X393215Y659592D01*
X393271Y659636D01*
X393299Y659680D01*
X393335Y659718D01*
X393365Y659783D01*
X393404Y659843D01*
X393416Y659894D01*
X393438Y659941D01*
X393446Y660012D01*
X393464Y660082D01*
X393460Y660134D01*
X393466Y660185D01*
X393450Y660256D01*
X393445Y660327D01*
X393424Y660375D01*
X393413Y660426D01*
X393376Y660487D01*
X393348Y660553D01*
X393304Y660609D01*
X393287Y660637D01*
X393269Y660652D01*
X393244Y660684D01*
X390936Y662992D01*
X390731Y663485D01*
X390670Y663584D01*
X390610Y663685D01*
X390605Y663689D01*
X390602Y663694D01*
X390512Y663769D01*
X390423Y663845D01*
X390417Y663847D01*
X390412Y663851D01*
X390304Y663893D01*
X390195Y663937D01*
X390187Y663938D01*
X390183Y663939D01*
X390164Y663940D01*
X390028Y663955D01*
X287749Y663955D01*
X287659Y663941D01*
X287568Y663933D01*
X287538Y663921D01*
X287506Y663916D01*
X287426Y663873D01*
X287342Y663837D01*
X287310Y663811D01*
X287289Y663800D01*
X287267Y663777D01*
X287211Y663732D01*
X269718Y646239D01*
X269665Y646165D01*
X269605Y646096D01*
X269593Y646066D01*
X269574Y646040D01*
X269547Y645953D01*
X269513Y645868D01*
X269509Y645827D01*
X269502Y645804D01*
X269503Y645772D01*
X269495Y645701D01*
X269495Y638832D01*
X264138Y633475D01*
X256562Y633475D01*
X251705Y638332D01*
X251631Y638385D01*
X251562Y638445D01*
X251532Y638457D01*
X251505Y638476D01*
X251418Y638503D01*
X251334Y638537D01*
X251293Y638541D01*
X251270Y638548D01*
X251238Y638547D01*
X251167Y638555D01*
X244133Y638555D01*
X244043Y638541D01*
X243952Y638533D01*
X243922Y638521D01*
X243890Y638516D01*
X243810Y638473D01*
X243726Y638437D01*
X243694Y638411D01*
X243673Y638400D01*
X243651Y638377D01*
X243595Y638332D01*
X238738Y633475D01*
X231162Y633475D01*
X225805Y638832D01*
X225805Y646408D01*
X231162Y651765D01*
X238738Y651765D01*
X243595Y646908D01*
X243669Y646855D01*
X243738Y646795D01*
X243768Y646783D01*
X243795Y646764D01*
X243882Y646737D01*
X243966Y646703D01*
X244007Y646699D01*
X244030Y646692D01*
X244062Y646693D01*
X244133Y646685D01*
X251167Y646685D01*
X251257Y646699D01*
X251348Y646707D01*
X251378Y646719D01*
X251410Y646724D01*
X251490Y646767D01*
X251574Y646803D01*
X251606Y646829D01*
X251627Y646840D01*
X251649Y646863D01*
X251705Y646908D01*
X256562Y651765D01*
X263431Y651765D01*
X263521Y651779D01*
X263612Y651787D01*
X263642Y651799D01*
X263674Y651804D01*
X263754Y651847D01*
X263838Y651883D01*
X263870Y651909D01*
X263891Y651920D01*
X263913Y651943D01*
X263969Y651988D01*
X284066Y672085D01*
X390028Y672085D01*
X390143Y672104D01*
X390259Y672121D01*
X390265Y672123D01*
X390271Y672124D01*
X390373Y672179D01*
X390478Y672232D01*
X390483Y672237D01*
X390488Y672240D01*
X390568Y672324D01*
X390650Y672408D01*
X390654Y672414D01*
X390658Y672418D01*
X390665Y672435D01*
X390731Y672555D01*
X390936Y673048D01*
X393432Y675544D01*
X396695Y676896D01*
X400225Y676896D01*
X403488Y675544D01*
X405984Y673048D01*
X407221Y670063D01*
X407272Y669980D01*
X407318Y669894D01*
X407337Y669876D01*
X407350Y669854D01*
X407425Y669792D01*
X407496Y669725D01*
X407520Y669714D01*
X407540Y669697D01*
X407631Y669662D01*
X407719Y669621D01*
X407745Y669618D01*
X407769Y669609D01*
X407867Y669605D01*
X407963Y669594D01*
X407989Y669600D01*
X408015Y669599D01*
X408109Y669626D01*
X408204Y669646D01*
X408226Y669660D01*
X408251Y669667D01*
X408331Y669723D01*
X408415Y669773D01*
X408432Y669793D01*
X408453Y669807D01*
X408512Y669886D01*
X408575Y669960D01*
X408585Y669984D01*
X408600Y670005D01*
X408630Y670097D01*
X408667Y670188D01*
X408670Y670220D01*
X408676Y670239D01*
X408676Y670272D01*
X408685Y670354D01*
X408685Y691601D01*
X408677Y691650D01*
X408679Y691699D01*
X408658Y691770D01*
X408646Y691844D01*
X408623Y691887D01*
X408609Y691934D01*
X408565Y691996D01*
X408530Y692061D01*
X408495Y692095D01*
X408467Y692135D01*
X408406Y692179D01*
X408352Y692231D01*
X408308Y692251D01*
X408268Y692280D01*
X408197Y692303D01*
X408129Y692334D01*
X408080Y692340D01*
X408034Y692355D01*
X407959Y692353D01*
X407885Y692362D01*
X407837Y692351D01*
X407788Y692350D01*
X407717Y692325D01*
X407644Y692309D01*
X407602Y692284D01*
X407556Y692268D01*
X407497Y692221D01*
X407433Y692183D01*
X407401Y692146D01*
X407363Y692116D01*
X407322Y692053D01*
X407273Y691996D01*
X407255Y691951D01*
X407228Y691910D01*
X407190Y691790D01*
X407181Y691768D01*
X407180Y691759D01*
X407177Y691750D01*
X406995Y690831D01*
X406326Y689216D01*
X405354Y687762D01*
X404118Y686526D01*
X402664Y685554D01*
X401049Y684885D01*
X399983Y684673D01*
X399983Y692658D01*
X399980Y692678D01*
X399982Y692697D01*
X399960Y692799D01*
X399943Y692901D01*
X399934Y692918D01*
X399930Y692938D01*
X399877Y693027D01*
X399828Y693118D01*
X399814Y693132D01*
X399804Y693149D01*
X399725Y693216D01*
X399650Y693287D01*
X399632Y693296D01*
X399617Y693309D01*
X399521Y693347D01*
X399427Y693391D01*
X399407Y693393D01*
X399389Y693401D01*
X399222Y693419D01*
X398459Y693419D01*
X398459Y693421D01*
X399222Y693421D01*
X399242Y693424D01*
X399261Y693422D01*
X399363Y693444D01*
X399465Y693461D01*
X399482Y693470D01*
X399502Y693474D01*
X399591Y693527D01*
X399682Y693576D01*
X399696Y693590D01*
X399713Y693600D01*
X399780Y693679D01*
X399851Y693754D01*
X399860Y693772D01*
X399873Y693787D01*
X399912Y693883D01*
X399955Y693977D01*
X399957Y693997D01*
X399965Y694015D01*
X399983Y694182D01*
X399983Y702167D01*
X401049Y701955D01*
X402664Y701286D01*
X404118Y700314D01*
X405354Y699078D01*
X406326Y697624D01*
X406995Y696009D01*
X407177Y695090D01*
X407195Y695044D01*
X407203Y694996D01*
X407237Y694930D01*
X407264Y694860D01*
X407295Y694822D01*
X407318Y694779D01*
X407372Y694727D01*
X407419Y694669D01*
X407460Y694643D01*
X407496Y694609D01*
X407564Y694578D01*
X407627Y694538D01*
X407675Y694526D01*
X407719Y694506D01*
X407793Y694497D01*
X407866Y694480D01*
X407915Y694484D01*
X407963Y694478D01*
X408036Y694494D01*
X408111Y694501D01*
X408156Y694520D01*
X408204Y694531D01*
X408268Y694569D01*
X408337Y694599D01*
X408373Y694632D01*
X408415Y694657D01*
X408464Y694714D01*
X408519Y694764D01*
X408543Y694806D01*
X408575Y694844D01*
X408603Y694913D01*
X408639Y694978D01*
X408648Y695026D01*
X408667Y695072D01*
X408681Y695196D01*
X408685Y695220D01*
X408684Y695229D01*
X408685Y695239D01*
X408685Y716486D01*
X408670Y716582D01*
X408660Y716679D01*
X408650Y716703D01*
X408646Y716728D01*
X408600Y716814D01*
X408560Y716903D01*
X408543Y716923D01*
X408530Y716946D01*
X408460Y717013D01*
X408394Y717084D01*
X408371Y717097D01*
X408352Y717115D01*
X408264Y717156D01*
X408178Y717203D01*
X408153Y717208D01*
X408129Y717219D01*
X408032Y717229D01*
X407936Y717247D01*
X407910Y717243D01*
X407885Y717246D01*
X407789Y717225D01*
X407693Y717211D01*
X407670Y717199D01*
X407644Y717194D01*
X407561Y717144D01*
X407474Y717099D01*
X407455Y717081D01*
X407433Y717067D01*
X407370Y716993D01*
X407302Y716924D01*
X407286Y716895D01*
X407273Y716880D01*
X407261Y716850D01*
X407221Y716777D01*
X405984Y713792D01*
X403488Y711296D01*
X400225Y709944D01*
X396695Y709944D01*
X393432Y711296D01*
X391720Y713008D01*
X391646Y713061D01*
X391576Y713121D01*
X391546Y713133D01*
X391520Y713152D01*
X391433Y713179D01*
X391348Y713213D01*
X391307Y713217D01*
X391285Y713224D01*
X391253Y713223D01*
X391181Y713231D01*
X288380Y713231D01*
X288290Y713217D01*
X288199Y713209D01*
X288169Y713197D01*
X288137Y713192D01*
X288057Y713149D01*
X287973Y713113D01*
X287941Y713087D01*
X287920Y713076D01*
X287898Y713053D01*
X287842Y713008D01*
X182899Y608065D01*
X181220Y606386D01*
X179166Y605535D01*
X66384Y605535D01*
X66294Y605521D01*
X66203Y605513D01*
X66173Y605501D01*
X66142Y605496D01*
X66061Y605453D01*
X65977Y605417D01*
X65945Y605391D01*
X65924Y605380D01*
X65902Y605357D01*
X65846Y605312D01*
X47722Y587188D01*
X47669Y587114D01*
X47609Y587045D01*
X47597Y587014D01*
X47578Y586988D01*
X47551Y586901D01*
X47517Y586816D01*
X47513Y586776D01*
X47506Y586753D01*
X47507Y586721D01*
X47499Y586650D01*
X47499Y419190D01*
X47513Y419100D01*
X47521Y419009D01*
X47533Y418979D01*
X47538Y418948D01*
X47581Y418867D01*
X47617Y418783D01*
X47643Y418751D01*
X47654Y418730D01*
X47677Y418708D01*
X47722Y418652D01*
X52892Y413482D01*
X52966Y413429D01*
X53035Y413369D01*
X53065Y413357D01*
X53092Y413338D01*
X53179Y413311D01*
X53264Y413277D01*
X53304Y413273D01*
X53327Y413266D01*
X53359Y413267D01*
X53430Y413259D01*
X181452Y413259D01*
X183506Y412408D01*
X185185Y410729D01*
X196388Y399525D01*
X196404Y399514D01*
X196417Y399498D01*
X196504Y399442D01*
X196588Y399382D01*
X196607Y399376D01*
X196624Y399365D01*
X196724Y399340D01*
X196823Y399309D01*
X196843Y399310D01*
X196862Y399305D01*
X196965Y399313D01*
X197069Y399316D01*
X197088Y399323D01*
X197108Y399324D01*
X197202Y399365D01*
X197300Y399400D01*
X197316Y399413D01*
X197334Y399421D01*
X197465Y399525D01*
X267497Y469558D01*
X269551Y470409D01*
X391181Y470409D01*
X391271Y470423D01*
X391362Y470431D01*
X391392Y470443D01*
X391424Y470448D01*
X391505Y470491D01*
X391589Y470527D01*
X391621Y470553D01*
X391641Y470564D01*
X391664Y470587D01*
X391720Y470632D01*
X393432Y472344D01*
X396695Y473696D01*
X400225Y473696D01*
X403488Y472344D01*
X405984Y469848D01*
X407221Y466863D01*
X407272Y466780D01*
X407318Y466694D01*
X407337Y466676D01*
X407350Y466654D01*
X407425Y466592D01*
X407496Y466525D01*
X407520Y466514D01*
X407540Y466497D01*
X407631Y466462D01*
X407719Y466421D01*
X407745Y466418D01*
X407769Y466409D01*
X407867Y466405D01*
X407963Y466394D01*
X407989Y466400D01*
X408015Y466399D01*
X408109Y466426D01*
X408204Y466446D01*
X408226Y466460D01*
X408251Y466467D01*
X408331Y466523D01*
X408415Y466573D01*
X408432Y466593D01*
X408453Y466607D01*
X408512Y466686D01*
X408575Y466760D01*
X408585Y466784D01*
X408600Y466805D01*
X408630Y466897D01*
X408667Y466988D01*
X408670Y467020D01*
X408676Y467039D01*
X408676Y467072D01*
X408685Y467154D01*
X408685Y475521D01*
X408671Y475611D01*
X408663Y475702D01*
X408651Y475732D01*
X408646Y475764D01*
X408603Y475844D01*
X408567Y475928D01*
X408541Y475960D01*
X408530Y475981D01*
X408507Y476003D01*
X408462Y476059D01*
X402672Y481849D01*
X402578Y481917D01*
X402484Y481987D01*
X402478Y481989D01*
X402473Y481993D01*
X402362Y482027D01*
X402250Y482063D01*
X402244Y482063D01*
X402238Y482065D01*
X402121Y482062D01*
X402004Y482061D01*
X401997Y482059D01*
X401992Y482059D01*
X401974Y482052D01*
X401843Y482014D01*
X400225Y481344D01*
X396695Y481344D01*
X393432Y482696D01*
X390936Y485192D01*
X389584Y488455D01*
X389584Y491985D01*
X390936Y495248D01*
X390943Y495255D01*
X390984Y495313D01*
X391034Y495365D01*
X391056Y495412D01*
X391086Y495454D01*
X391107Y495523D01*
X391137Y495588D01*
X391143Y495640D01*
X391158Y495689D01*
X391157Y495761D01*
X391165Y495832D01*
X391153Y495883D01*
X391152Y495935D01*
X391128Y496003D01*
X391112Y496073D01*
X391086Y496118D01*
X391068Y496166D01*
X391023Y496222D01*
X390986Y496284D01*
X390947Y496318D01*
X390914Y496358D01*
X390854Y496397D01*
X390799Y496444D01*
X390751Y496463D01*
X390707Y496491D01*
X390638Y496509D01*
X390571Y496536D01*
X390500Y496544D01*
X390469Y496552D01*
X390445Y496550D01*
X390404Y496554D01*
X192952Y496554D01*
X192861Y496540D01*
X192771Y496532D01*
X192741Y496520D01*
X192709Y496515D01*
X192628Y496472D01*
X192544Y496436D01*
X192512Y496410D01*
X192491Y496399D01*
X192469Y496376D01*
X192413Y496331D01*
X121341Y425259D01*
X118737Y422655D01*
X87293Y422655D01*
X87178Y422636D01*
X87062Y422619D01*
X87056Y422617D01*
X87050Y422616D01*
X86948Y422561D01*
X86843Y422508D01*
X86838Y422503D01*
X86833Y422500D01*
X86753Y422416D01*
X86670Y422332D01*
X86667Y422326D01*
X86663Y422322D01*
X86656Y422305D01*
X86590Y422185D01*
X86084Y420964D01*
X83226Y418106D01*
X79491Y416559D01*
X60209Y416559D01*
X56474Y418106D01*
X53616Y420964D01*
X52069Y424699D01*
X52069Y428741D01*
X53616Y432476D01*
X56474Y435334D01*
X60209Y436881D01*
X79491Y436881D01*
X83226Y435334D01*
X86084Y432476D01*
X86590Y431255D01*
X86651Y431155D01*
X86711Y431055D01*
X86716Y431051D01*
X86719Y431046D01*
X86810Y430971D01*
X86898Y430895D01*
X86904Y430893D01*
X86909Y430889D01*
X87017Y430847D01*
X87126Y430803D01*
X87134Y430802D01*
X87138Y430801D01*
X87157Y430800D01*
X87293Y430785D01*
X115055Y430785D01*
X115145Y430799D01*
X115236Y430807D01*
X115265Y430819D01*
X115297Y430824D01*
X115378Y430867D01*
X115462Y430903D01*
X115494Y430929D01*
X115515Y430940D01*
X115537Y430963D01*
X115593Y431008D01*
X186665Y502080D01*
X189269Y504684D01*
X404451Y504684D01*
X407055Y502080D01*
X410320Y498815D01*
X412924Y496211D01*
X412924Y496110D01*
X412938Y496020D01*
X412946Y495929D01*
X412958Y495899D01*
X412963Y495867D01*
X413006Y495787D01*
X413042Y495703D01*
X413068Y495671D01*
X413079Y495650D01*
X413102Y495628D01*
X413147Y495572D01*
X435103Y473616D01*
X435103Y335821D01*
X435117Y335731D01*
X435125Y335640D01*
X435137Y335610D01*
X435142Y335578D01*
X435185Y335498D01*
X435221Y335414D01*
X435247Y335382D01*
X435258Y335361D01*
X435281Y335339D01*
X435326Y335283D01*
X474752Y295857D01*
X474847Y295788D01*
X474941Y295719D01*
X474947Y295717D01*
X474952Y295713D01*
X475063Y295679D01*
X475174Y295642D01*
X475181Y295642D01*
X475187Y295641D01*
X475303Y295644D01*
X475420Y295645D01*
X475428Y295647D01*
X475433Y295647D01*
X475450Y295653D01*
X475581Y295691D01*
X476075Y295896D01*
X479605Y295896D01*
X482868Y294544D01*
X485364Y292048D01*
X485569Y291555D01*
X485630Y291455D01*
X485690Y291355D01*
X485695Y291351D01*
X485698Y291346D01*
X485788Y291271D01*
X485877Y291195D01*
X485883Y291193D01*
X485888Y291189D01*
X485996Y291147D01*
X486105Y291103D01*
X486113Y291102D01*
X486117Y291101D01*
X486136Y291100D01*
X486272Y291085D01*
X505167Y291085D01*
X505257Y291099D01*
X505348Y291107D01*
X505378Y291119D01*
X505410Y291124D01*
X505490Y291167D01*
X505574Y291203D01*
X505606Y291229D01*
X505627Y291240D01*
X505649Y291263D01*
X505705Y291308D01*
X510562Y296165D01*
X518138Y296165D01*
X523495Y290808D01*
X523495Y283232D01*
X519947Y279684D01*
X519905Y279626D01*
X519856Y279574D01*
X519834Y279527D01*
X519803Y279485D01*
X519782Y279416D01*
X519752Y279351D01*
X519746Y279299D01*
X519731Y279249D01*
X519733Y279178D01*
X519725Y279107D01*
X519736Y279056D01*
X519737Y279004D01*
X519762Y278936D01*
X519777Y278866D01*
X519804Y278821D01*
X519822Y278773D01*
X519867Y278717D01*
X519903Y278655D01*
X519943Y278621D01*
X519975Y278581D01*
X520036Y278542D01*
X520090Y278495D01*
X520139Y278476D01*
X520182Y278448D01*
X520252Y278430D01*
X520318Y278403D01*
X520390Y278395D01*
X520421Y278387D01*
X520444Y278389D01*
X520485Y278385D01*
X575851Y278385D01*
X575941Y278399D01*
X576032Y278407D01*
X576062Y278419D01*
X576094Y278424D01*
X576174Y278467D01*
X576258Y278503D01*
X576290Y278529D01*
X576311Y278540D01*
X576333Y278563D01*
X576389Y278608D01*
X659414Y361633D01*
X659467Y361707D01*
X659527Y361776D01*
X659539Y361806D01*
X659558Y361832D01*
X659585Y361919D01*
X659619Y362004D01*
X659623Y362045D01*
X659630Y362068D01*
X659629Y362100D01*
X659637Y362171D01*
X659637Y364635D01*
X660720Y367249D01*
X662721Y369250D01*
X665335Y370333D01*
X668165Y370333D01*
X670779Y369250D01*
X672780Y367249D01*
X673863Y364635D01*
X673863Y361805D01*
X672780Y359191D01*
X670779Y357190D01*
X668165Y356107D01*
X665701Y356107D01*
X665611Y356093D01*
X665520Y356085D01*
X665490Y356073D01*
X665458Y356068D01*
X665378Y356025D01*
X665294Y355989D01*
X665262Y355963D01*
X665241Y355952D01*
X665219Y355929D01*
X665163Y355884D01*
X579534Y270255D01*
X483595Y270255D01*
X483524Y270244D01*
X483452Y270242D01*
X483403Y270224D01*
X483352Y270216D01*
X483289Y270182D01*
X483221Y270157D01*
X483181Y270125D01*
X483135Y270100D01*
X483085Y270048D01*
X483029Y270004D01*
X483001Y269960D01*
X482965Y269922D01*
X482935Y269857D01*
X482896Y269797D01*
X482884Y269746D01*
X482862Y269699D01*
X482854Y269628D01*
X482836Y269558D01*
X482840Y269506D01*
X482834Y269455D01*
X482850Y269384D01*
X482855Y269313D01*
X482876Y269265D01*
X482887Y269214D01*
X482924Y269153D01*
X482952Y269087D01*
X482996Y269031D01*
X483013Y269003D01*
X483031Y268988D01*
X483056Y268956D01*
X485364Y266648D01*
X485569Y266155D01*
X485630Y266055D01*
X485690Y265955D01*
X485695Y265951D01*
X485698Y265946D01*
X485788Y265871D01*
X485877Y265795D01*
X485883Y265793D01*
X485888Y265789D01*
X485996Y265747D01*
X486105Y265703D01*
X486113Y265702D01*
X486117Y265701D01*
X486136Y265700D01*
X486272Y265685D01*
X588551Y265685D01*
X588641Y265699D01*
X588732Y265707D01*
X588762Y265719D01*
X588794Y265724D01*
X588874Y265767D01*
X588958Y265803D01*
X588990Y265829D01*
X589011Y265840D01*
X589033Y265863D01*
X589089Y265908D01*
X606582Y283401D01*
X606635Y283475D01*
X606695Y283544D01*
X606707Y283574D01*
X606726Y283600D01*
X606753Y283687D01*
X606787Y283772D01*
X606791Y283813D01*
X606798Y283836D01*
X606797Y283868D01*
X606805Y283939D01*
X606805Y290808D01*
X612162Y296165D01*
X619738Y296165D01*
X624595Y291308D01*
X624669Y291255D01*
X624738Y291195D01*
X624768Y291183D01*
X624795Y291164D01*
X624882Y291137D01*
X624966Y291103D01*
X625007Y291099D01*
X625030Y291092D01*
X625062Y291093D01*
X625133Y291085D01*
X632167Y291085D01*
X632257Y291099D01*
X632348Y291107D01*
X632378Y291119D01*
X632410Y291124D01*
X632490Y291167D01*
X632574Y291203D01*
X632606Y291229D01*
X632627Y291240D01*
X632649Y291263D01*
X632705Y291308D01*
X637562Y296165D01*
X645138Y296165D01*
X650495Y290808D01*
X650495Y288664D01*
X650506Y288593D01*
X650508Y288522D01*
X650526Y288473D01*
X650534Y288421D01*
X650568Y288358D01*
X650593Y288291D01*
X650625Y288250D01*
X650650Y288204D01*
X650702Y288155D01*
X650746Y288099D01*
X650790Y288070D01*
X650828Y288035D01*
X650893Y288004D01*
X650953Y287966D01*
X651004Y287953D01*
X651051Y287931D01*
X651122Y287923D01*
X651192Y287906D01*
X651244Y287910D01*
X651295Y287904D01*
X651366Y287919D01*
X651437Y287925D01*
X651485Y287945D01*
X651536Y287956D01*
X651597Y287993D01*
X651663Y288021D01*
X651719Y288066D01*
X651747Y288082D01*
X651762Y288100D01*
X651794Y288126D01*
X662462Y298794D01*
X662515Y298868D01*
X662575Y298937D01*
X662587Y298967D01*
X662606Y298994D01*
X662633Y299081D01*
X662667Y299165D01*
X662671Y299206D01*
X662678Y299229D01*
X662677Y299261D01*
X662685Y299332D01*
X662685Y331510D01*
X662671Y331601D01*
X662663Y331691D01*
X662651Y331721D01*
X662646Y331753D01*
X662603Y331834D01*
X662567Y331918D01*
X662541Y331950D01*
X662530Y331971D01*
X662507Y331993D01*
X662462Y332049D01*
X660720Y333791D01*
X659637Y336405D01*
X659637Y339235D01*
X660720Y341849D01*
X662721Y343850D01*
X665335Y344933D01*
X668165Y344933D01*
X670779Y343850D01*
X672780Y341849D01*
X673863Y339235D01*
X673863Y336405D01*
X672780Y333791D01*
X671038Y332049D01*
X670985Y331975D01*
X670925Y331905D01*
X670913Y331875D01*
X670894Y331849D01*
X670867Y331762D01*
X670833Y331677D01*
X670829Y331636D01*
X670822Y331614D01*
X670823Y331582D01*
X670815Y331510D01*
X670815Y295649D01*
X620021Y244855D01*
X483595Y244855D01*
X483524Y244844D01*
X483452Y244842D01*
X483403Y244824D01*
X483352Y244816D01*
X483289Y244782D01*
X483221Y244757D01*
X483181Y244725D01*
X483135Y244700D01*
X483085Y244648D01*
X483029Y244604D01*
X483001Y244560D01*
X482965Y244522D01*
X482935Y244457D01*
X482896Y244397D01*
X482884Y244346D01*
X482862Y244299D01*
X482854Y244228D01*
X482836Y244158D01*
X482840Y244106D01*
X482834Y244055D01*
X482850Y243984D01*
X482855Y243913D01*
X482876Y243865D01*
X482887Y243814D01*
X482924Y243753D01*
X482952Y243687D01*
X482996Y243631D01*
X483013Y243603D01*
X483031Y243588D01*
X483056Y243556D01*
X485364Y241248D01*
X486716Y237985D01*
X486716Y234455D01*
X485364Y231192D01*
X482868Y228696D01*
X479605Y227344D01*
X476075Y227344D01*
X474457Y228014D01*
X474344Y228041D01*
X474230Y228069D01*
X474224Y228069D01*
X474218Y228070D01*
X474101Y228059D01*
X473985Y228050D01*
X473979Y228048D01*
X473973Y228047D01*
X473865Y227999D01*
X473759Y227954D01*
X473753Y227949D01*
X473748Y227947D01*
X473734Y227935D01*
X473628Y227849D01*
X467838Y222059D01*
X467785Y221985D01*
X467725Y221916D01*
X467713Y221886D01*
X467694Y221860D01*
X467667Y221773D01*
X467633Y221688D01*
X467629Y221647D01*
X467622Y221624D01*
X467623Y221592D01*
X467615Y221521D01*
X467615Y213154D01*
X467630Y213058D01*
X467640Y212961D01*
X467650Y212937D01*
X467654Y212912D01*
X467700Y212826D01*
X467740Y212737D01*
X467757Y212717D01*
X467770Y212694D01*
X467840Y212627D01*
X467906Y212556D01*
X467929Y212543D01*
X467948Y212525D01*
X468036Y212484D01*
X468122Y212437D01*
X468147Y212432D01*
X468171Y212421D01*
X468268Y212411D01*
X468364Y212393D01*
X468390Y212397D01*
X468415Y212394D01*
X468511Y212415D01*
X468607Y212429D01*
X468630Y212441D01*
X468656Y212446D01*
X468739Y212496D01*
X468826Y212541D01*
X468845Y212559D01*
X468867Y212573D01*
X468930Y212647D01*
X468998Y212716D01*
X469014Y212745D01*
X469027Y212760D01*
X469039Y212790D01*
X469079Y212863D01*
X470316Y215848D01*
X472812Y218344D01*
X476075Y219696D01*
X479605Y219696D01*
X482868Y218344D01*
X485342Y215870D01*
X485416Y215817D01*
X485486Y215757D01*
X485516Y215745D01*
X485542Y215726D01*
X485629Y215699D01*
X485714Y215665D01*
X485755Y215661D01*
X485777Y215654D01*
X485809Y215655D01*
X485881Y215647D01*
X605039Y215647D01*
X605129Y215661D01*
X605220Y215669D01*
X605249Y215681D01*
X605281Y215686D01*
X605362Y215729D01*
X605446Y215765D01*
X605478Y215791D01*
X605499Y215802D01*
X605521Y215825D01*
X605577Y215870D01*
X679226Y289519D01*
X679279Y289593D01*
X679339Y289662D01*
X679351Y289693D01*
X679370Y289719D01*
X679397Y289806D01*
X679431Y289891D01*
X679435Y289932D01*
X679442Y289954D01*
X679441Y289986D01*
X679449Y290057D01*
X679449Y367702D01*
X679435Y367792D01*
X679427Y367883D01*
X679415Y367913D01*
X679410Y367944D01*
X679367Y368025D01*
X679331Y368109D01*
X679305Y368141D01*
X679294Y368162D01*
X679271Y368184D01*
X679226Y368240D01*
X588458Y459008D01*
X588384Y459061D01*
X588315Y459121D01*
X588284Y459133D01*
X588258Y459152D01*
X588171Y459179D01*
X588086Y459213D01*
X588046Y459217D01*
X588023Y459224D01*
X587991Y459223D01*
X587920Y459231D01*
X485119Y459231D01*
X485029Y459217D01*
X484938Y459209D01*
X484908Y459197D01*
X484876Y459192D01*
X484795Y459149D01*
X484711Y459113D01*
X484679Y459087D01*
X484659Y459076D01*
X484636Y459053D01*
X484580Y459008D01*
X482868Y457296D01*
X479605Y455944D01*
X476075Y455944D01*
X472812Y457296D01*
X470316Y459792D01*
X469079Y462777D01*
X469028Y462860D01*
X468982Y462946D01*
X468963Y462964D01*
X468950Y462986D01*
X468875Y463048D01*
X468804Y463115D01*
X468780Y463126D01*
X468760Y463143D01*
X468669Y463178D01*
X468581Y463219D01*
X468555Y463222D01*
X468531Y463231D01*
X468433Y463235D01*
X468337Y463246D01*
X468311Y463240D01*
X468285Y463241D01*
X468191Y463214D01*
X468096Y463194D01*
X468074Y463180D01*
X468049Y463173D01*
X467969Y463117D01*
X467885Y463067D01*
X467868Y463048D01*
X467847Y463033D01*
X467788Y462954D01*
X467725Y462880D01*
X467715Y462856D01*
X467700Y462835D01*
X467670Y462743D01*
X467633Y462652D01*
X467630Y462620D01*
X467624Y462601D01*
X467624Y462568D01*
X467615Y462486D01*
X467615Y441239D01*
X467623Y441190D01*
X467621Y441141D01*
X467642Y441070D01*
X467654Y440996D01*
X467677Y440953D01*
X467691Y440906D01*
X467735Y440844D01*
X467770Y440778D01*
X467805Y440745D01*
X467833Y440705D01*
X467894Y440661D01*
X467948Y440609D01*
X467992Y440588D01*
X468032Y440560D01*
X468103Y440537D01*
X468171Y440505D01*
X468220Y440500D01*
X468266Y440485D01*
X468341Y440487D01*
X468415Y440478D01*
X468463Y440489D01*
X468512Y440490D01*
X468583Y440515D01*
X468656Y440531D01*
X468698Y440556D01*
X468744Y440572D01*
X468803Y440618D01*
X468867Y440657D01*
X468899Y440694D01*
X468937Y440724D01*
X468978Y440787D01*
X469027Y440844D01*
X469045Y440889D01*
X469072Y440930D01*
X469110Y441050D01*
X469119Y441072D01*
X469120Y441081D01*
X469123Y441090D01*
X469305Y442009D01*
X469974Y443624D01*
X470946Y445078D01*
X472182Y446314D01*
X473636Y447286D01*
X475251Y447955D01*
X476317Y448167D01*
X476317Y440182D01*
X476320Y440162D01*
X476318Y440143D01*
X476340Y440041D01*
X476357Y439939D01*
X476366Y439922D01*
X476370Y439902D01*
X476423Y439813D01*
X476472Y439722D01*
X476486Y439708D01*
X476496Y439691D01*
X476575Y439624D01*
X476650Y439553D01*
X476668Y439544D01*
X476683Y439531D01*
X476779Y439493D01*
X476873Y439449D01*
X476893Y439447D01*
X476911Y439439D01*
X477078Y439421D01*
X477841Y439421D01*
X477841Y439419D01*
X477078Y439419D01*
X477058Y439416D01*
X477039Y439418D01*
X476937Y439396D01*
X476835Y439379D01*
X476818Y439370D01*
X476798Y439366D01*
X476709Y439313D01*
X476618Y439264D01*
X476604Y439250D01*
X476587Y439240D01*
X476520Y439161D01*
X476449Y439086D01*
X476440Y439068D01*
X476427Y439053D01*
X476388Y438957D01*
X476345Y438863D01*
X476343Y438843D01*
X476335Y438825D01*
X476317Y438658D01*
X476317Y430673D01*
X475251Y430885D01*
X473636Y431554D01*
X472182Y432526D01*
X470946Y433762D01*
X469974Y435216D01*
X469305Y436831D01*
X469123Y437750D01*
X469105Y437796D01*
X469097Y437844D01*
X469063Y437910D01*
X469036Y437980D01*
X469005Y438018D01*
X468982Y438062D01*
X468928Y438113D01*
X468881Y438171D01*
X468840Y438197D01*
X468804Y438231D01*
X468736Y438262D01*
X468673Y438302D01*
X468625Y438314D01*
X468581Y438335D01*
X468507Y438343D01*
X468434Y438360D01*
X468385Y438356D01*
X468337Y438362D01*
X468264Y438346D01*
X468189Y438339D01*
X468144Y438320D01*
X468096Y438309D01*
X468032Y438271D01*
X467963Y438241D01*
X467927Y438208D01*
X467885Y438183D01*
X467836Y438126D01*
X467781Y438076D01*
X467757Y438034D01*
X467725Y437996D01*
X467697Y437927D01*
X467661Y437862D01*
X467652Y437814D01*
X467633Y437768D01*
X467619Y437644D01*
X467615Y437620D01*
X467616Y437611D01*
X467615Y437601D01*
X467615Y416354D01*
X467630Y416258D01*
X467640Y416161D01*
X467650Y416137D01*
X467654Y416112D01*
X467700Y416026D01*
X467740Y415937D01*
X467757Y415917D01*
X467770Y415894D01*
X467840Y415827D01*
X467906Y415756D01*
X467929Y415743D01*
X467948Y415725D01*
X468036Y415684D01*
X468122Y415637D01*
X468147Y415632D01*
X468171Y415621D01*
X468268Y415611D01*
X468364Y415593D01*
X468390Y415597D01*
X468415Y415594D01*
X468511Y415615D01*
X468607Y415629D01*
X468630Y415641D01*
X468656Y415646D01*
X468739Y415696D01*
X468826Y415741D01*
X468845Y415759D01*
X468867Y415773D01*
X468930Y415847D01*
X468998Y415916D01*
X469014Y415945D01*
X469027Y415960D01*
X469039Y415990D01*
X469079Y416063D01*
X470316Y419048D01*
X472812Y421544D01*
X476075Y422896D01*
X479605Y422896D01*
X482868Y421544D01*
X485364Y419048D01*
X485569Y418555D01*
X485630Y418455D01*
X485690Y418355D01*
X485695Y418351D01*
X485698Y418346D01*
X485788Y418271D01*
X485877Y418195D01*
X485883Y418193D01*
X485888Y418189D01*
X485996Y418147D01*
X486105Y418103D01*
X486113Y418102D01*
X486117Y418101D01*
X486136Y418100D01*
X486272Y418085D01*
X592234Y418085D01*
X612331Y397988D01*
X612405Y397935D01*
X612474Y397875D01*
X612504Y397863D01*
X612530Y397844D01*
X612617Y397817D01*
X612702Y397783D01*
X612743Y397779D01*
X612766Y397772D01*
X612798Y397773D01*
X612869Y397765D01*
X619738Y397765D01*
X624595Y392908D01*
X624669Y392855D01*
X624738Y392795D01*
X624768Y392783D01*
X624795Y392764D01*
X624882Y392737D01*
X624966Y392703D01*
X625007Y392699D01*
X625030Y392692D01*
X625062Y392693D01*
X625133Y392685D01*
X632167Y392685D01*
X632257Y392699D01*
X632348Y392707D01*
X632378Y392719D01*
X632410Y392724D01*
X632490Y392767D01*
X632574Y392803D01*
X632606Y392829D01*
X632627Y392840D01*
X632649Y392863D01*
X632705Y392908D01*
X637562Y397765D01*
X645138Y397765D01*
X650495Y392408D01*
X650495Y384832D01*
X645138Y379475D01*
X637562Y379475D01*
X632705Y384332D01*
X632631Y384385D01*
X632562Y384445D01*
X632532Y384457D01*
X632505Y384476D01*
X632418Y384503D01*
X632334Y384537D01*
X632293Y384541D01*
X632270Y384548D01*
X632238Y384547D01*
X632167Y384555D01*
X625133Y384555D01*
X625043Y384541D01*
X624952Y384533D01*
X624922Y384521D01*
X624890Y384516D01*
X624810Y384473D01*
X624726Y384437D01*
X624694Y384411D01*
X624673Y384400D01*
X624651Y384377D01*
X624595Y384332D01*
X619738Y379475D01*
X612162Y379475D01*
X606805Y384832D01*
X606805Y391701D01*
X606791Y391791D01*
X606783Y391882D01*
X606771Y391912D01*
X606766Y391944D01*
X606723Y392024D01*
X606687Y392108D01*
X606661Y392140D01*
X606650Y392161D01*
X606627Y392183D01*
X606582Y392239D01*
X589089Y409732D01*
X589015Y409785D01*
X588946Y409845D01*
X588916Y409857D01*
X588890Y409876D01*
X588803Y409903D01*
X588718Y409937D01*
X588677Y409941D01*
X588654Y409948D01*
X588622Y409947D01*
X588551Y409955D01*
X486272Y409955D01*
X486157Y409936D01*
X486041Y409919D01*
X486035Y409917D01*
X486029Y409916D01*
X485927Y409861D01*
X485822Y409808D01*
X485817Y409803D01*
X485812Y409800D01*
X485732Y409716D01*
X485650Y409632D01*
X485646Y409626D01*
X485642Y409622D01*
X485635Y409605D01*
X485569Y409485D01*
X485364Y408992D01*
X483056Y406684D01*
X483015Y406626D01*
X482965Y406574D01*
X482943Y406527D01*
X482913Y406485D01*
X482892Y406416D01*
X482862Y406351D01*
X482856Y406299D01*
X482841Y406249D01*
X482842Y406178D01*
X482834Y406107D01*
X482846Y406056D01*
X482847Y406004D01*
X482872Y405936D01*
X482887Y405866D01*
X482913Y405821D01*
X482931Y405773D01*
X482976Y405717D01*
X483013Y405655D01*
X483052Y405621D01*
X483085Y405581D01*
X483145Y405542D01*
X483200Y405495D01*
X483248Y405476D01*
X483292Y405448D01*
X483361Y405430D01*
X483428Y405403D01*
X483499Y405395D01*
X483530Y405387D01*
X483554Y405389D01*
X483595Y405385D01*
X554134Y405385D01*
X612331Y347188D01*
X612405Y347135D01*
X612474Y347075D01*
X612504Y347063D01*
X612530Y347044D01*
X612617Y347017D01*
X612702Y346983D01*
X612743Y346979D01*
X612766Y346972D01*
X612798Y346973D01*
X612869Y346965D01*
X619738Y346965D01*
X625095Y341608D01*
X625095Y334032D01*
X619738Y328675D01*
X612162Y328675D01*
X606805Y334032D01*
X606805Y340901D01*
X606791Y340991D01*
X606783Y341082D01*
X606771Y341112D01*
X606766Y341144D01*
X606723Y341224D01*
X606687Y341308D01*
X606661Y341340D01*
X606650Y341361D01*
X606627Y341383D01*
X606582Y341439D01*
X550989Y397032D01*
X550915Y397085D01*
X550846Y397145D01*
X550816Y397157D01*
X550790Y397176D01*
X550703Y397203D01*
X550618Y397237D01*
X550577Y397241D01*
X550554Y397248D01*
X550522Y397247D01*
X550451Y397255D01*
X520485Y397255D01*
X520414Y397244D01*
X520343Y397242D01*
X520294Y397224D01*
X520242Y397216D01*
X520179Y397182D01*
X520112Y397157D01*
X520071Y397125D01*
X520025Y397100D01*
X519976Y397048D01*
X519920Y397004D01*
X519891Y396960D01*
X519856Y396922D01*
X519825Y396857D01*
X519787Y396797D01*
X519774Y396746D01*
X519752Y396699D01*
X519744Y396628D01*
X519727Y396558D01*
X519731Y396506D01*
X519725Y396455D01*
X519740Y396384D01*
X519746Y396313D01*
X519766Y396265D01*
X519777Y396214D01*
X519814Y396153D01*
X519842Y396087D01*
X519887Y396031D01*
X519903Y396003D01*
X519921Y395988D01*
X519947Y395956D01*
X523495Y392408D01*
X523495Y384832D01*
X518638Y379975D01*
X518585Y379901D01*
X518525Y379832D01*
X518513Y379802D01*
X518494Y379775D01*
X518467Y379688D01*
X518433Y379604D01*
X518429Y379563D01*
X518422Y379540D01*
X518423Y379508D01*
X518415Y379437D01*
X518415Y347003D01*
X518429Y346913D01*
X518437Y346822D01*
X518449Y346792D01*
X518454Y346760D01*
X518497Y346680D01*
X518533Y346596D01*
X518559Y346564D01*
X518570Y346543D01*
X518593Y346521D01*
X518638Y346465D01*
X523495Y341608D01*
X523495Y334032D01*
X518138Y328675D01*
X510562Y328675D01*
X505205Y334032D01*
X505205Y341608D01*
X510062Y346465D01*
X510115Y346539D01*
X510175Y346608D01*
X510187Y346638D01*
X510206Y346665D01*
X510233Y346752D01*
X510267Y346836D01*
X510271Y346877D01*
X510278Y346900D01*
X510277Y346932D01*
X510285Y347003D01*
X510285Y379437D01*
X510271Y379527D01*
X510263Y379618D01*
X510251Y379648D01*
X510246Y379680D01*
X510203Y379760D01*
X510167Y379844D01*
X510141Y379876D01*
X510130Y379897D01*
X510107Y379919D01*
X510062Y379975D01*
X505705Y384332D01*
X505631Y384385D01*
X505562Y384445D01*
X505532Y384457D01*
X505505Y384476D01*
X505418Y384503D01*
X505334Y384537D01*
X505293Y384541D01*
X505270Y384548D01*
X505238Y384547D01*
X505167Y384555D01*
X486272Y384555D01*
X486157Y384536D01*
X486041Y384519D01*
X486035Y384517D01*
X486029Y384516D01*
X485927Y384461D01*
X485822Y384408D01*
X485817Y384403D01*
X485812Y384400D01*
X485732Y384316D01*
X485650Y384232D01*
X485646Y384226D01*
X485642Y384222D01*
X485635Y384205D01*
X485569Y384085D01*
X485364Y383592D01*
X482868Y381096D01*
X479605Y379744D01*
X476075Y379744D01*
X472812Y381096D01*
X470316Y383592D01*
X468964Y386855D01*
X468964Y390385D01*
X470316Y393648D01*
X472812Y396144D01*
X473491Y396426D01*
X473530Y396450D01*
X473573Y396466D01*
X473634Y396514D01*
X473700Y396555D01*
X473729Y396591D01*
X473765Y396619D01*
X473807Y396685D01*
X473857Y396745D01*
X473873Y396788D01*
X473898Y396826D01*
X473917Y396902D01*
X473945Y396974D01*
X473947Y397020D01*
X473958Y397065D01*
X473952Y397142D01*
X473955Y397220D01*
X473943Y397264D01*
X473939Y397310D01*
X473909Y397381D01*
X473887Y397456D01*
X473861Y397494D01*
X473843Y397536D01*
X473757Y397643D01*
X473747Y397658D01*
X473743Y397661D01*
X473738Y397667D01*
X459485Y411920D01*
X459485Y477614D01*
X469003Y487132D01*
X469072Y487227D01*
X469141Y487321D01*
X469143Y487326D01*
X469147Y487332D01*
X469181Y487443D01*
X469218Y487554D01*
X469218Y487561D01*
X469219Y487567D01*
X469216Y487683D01*
X469215Y487800D01*
X469213Y487808D01*
X469213Y487813D01*
X469207Y487830D01*
X469169Y487961D01*
X468964Y488455D01*
X468964Y491985D01*
X470316Y495248D01*
X472812Y497744D01*
X473491Y498026D01*
X473530Y498050D01*
X473573Y498066D01*
X473634Y498114D01*
X473700Y498155D01*
X473729Y498191D01*
X473765Y498219D01*
X473807Y498285D01*
X473857Y498345D01*
X473873Y498388D01*
X473898Y498426D01*
X473917Y498502D01*
X473945Y498574D01*
X473947Y498620D01*
X473958Y498665D01*
X473952Y498742D01*
X473955Y498820D01*
X473943Y498864D01*
X473939Y498910D01*
X473909Y498981D01*
X473887Y499056D01*
X473861Y499094D01*
X473843Y499136D01*
X473757Y499243D01*
X473747Y499258D01*
X473743Y499261D01*
X473738Y499267D01*
X463376Y509629D01*
X463376Y521611D01*
X471849Y530084D01*
X512437Y530084D01*
X512527Y530098D01*
X512618Y530106D01*
X512648Y530118D01*
X512680Y530123D01*
X512760Y530166D01*
X512844Y530202D01*
X512876Y530228D01*
X512897Y530239D01*
X512907Y530249D01*
X512908Y530249D01*
X512922Y530264D01*
X512975Y530307D01*
X513244Y530576D01*
X513286Y530634D01*
X513335Y530686D01*
X513357Y530733D01*
X513388Y530775D01*
X513409Y530844D01*
X513439Y530909D01*
X513445Y530961D01*
X513460Y531011D01*
X513458Y531082D01*
X513466Y531153D01*
X513455Y531204D01*
X513454Y531256D01*
X513429Y531324D01*
X513414Y531394D01*
X513387Y531439D01*
X513369Y531487D01*
X513325Y531543D01*
X513288Y531605D01*
X513248Y531639D01*
X513216Y531679D01*
X513155Y531718D01*
X513101Y531765D01*
X513052Y531784D01*
X513009Y531812D01*
X512939Y531830D01*
X512873Y531857D01*
X512801Y531865D01*
X512770Y531873D01*
X512747Y531871D01*
X512706Y531875D01*
X510562Y531875D01*
X505705Y536732D01*
X505631Y536785D01*
X505562Y536845D01*
X505532Y536857D01*
X505505Y536876D01*
X505418Y536903D01*
X505334Y536937D01*
X505293Y536941D01*
X505270Y536948D01*
X505238Y536947D01*
X505167Y536955D01*
X486272Y536955D01*
X486157Y536936D01*
X486041Y536919D01*
X486035Y536917D01*
X486029Y536916D01*
X485927Y536861D01*
X485822Y536808D01*
X485817Y536803D01*
X485812Y536800D01*
X485732Y536716D01*
X485650Y536632D01*
X485646Y536626D01*
X485642Y536622D01*
X485635Y536605D01*
X485569Y536485D01*
X485364Y535992D01*
X482868Y533496D01*
X479605Y532144D01*
X476075Y532144D01*
X472812Y533496D01*
X470316Y535992D01*
X468964Y539255D01*
X468964Y542785D01*
X469169Y543279D01*
X469195Y543392D01*
X469224Y543506D01*
X469223Y543512D01*
X469225Y543518D01*
X469214Y543634D01*
X469205Y543751D01*
X469202Y543757D01*
X469202Y543763D01*
X469154Y543871D01*
X469108Y543977D01*
X469104Y543983D01*
X469102Y543988D01*
X469089Y544002D01*
X469003Y544108D01*
X450979Y562132D01*
X450905Y562185D01*
X450836Y562245D01*
X450806Y562257D01*
X450780Y562276D01*
X450693Y562303D01*
X450608Y562337D01*
X450567Y562341D01*
X450544Y562348D01*
X450512Y562347D01*
X450441Y562355D01*
X211549Y562355D01*
X211459Y562341D01*
X211368Y562333D01*
X211338Y562321D01*
X211306Y562316D01*
X211226Y562273D01*
X211142Y562237D01*
X211110Y562211D01*
X211089Y562200D01*
X211067Y562177D01*
X211011Y562132D01*
X122334Y473455D01*
X87293Y473455D01*
X87178Y473436D01*
X87062Y473419D01*
X87056Y473417D01*
X87050Y473416D01*
X86948Y473361D01*
X86843Y473308D01*
X86838Y473303D01*
X86833Y473300D01*
X86753Y473216D01*
X86670Y473132D01*
X86667Y473126D01*
X86663Y473122D01*
X86656Y473105D01*
X86590Y472985D01*
X86084Y471764D01*
X83226Y468906D01*
X79491Y467359D01*
X60209Y467359D01*
X56474Y468906D01*
X53616Y471764D01*
X52069Y475499D01*
X52069Y479541D01*
X53616Y483276D01*
X56474Y486134D01*
X60209Y487681D01*
X79491Y487681D01*
X83226Y486134D01*
X86084Y483276D01*
X86590Y482055D01*
X86651Y481955D01*
X86711Y481855D01*
X86716Y481851D01*
X86719Y481846D01*
X86810Y481771D01*
X86898Y481695D01*
X86904Y481693D01*
X86909Y481689D01*
X87017Y481647D01*
X87126Y481603D01*
X87134Y481602D01*
X87138Y481601D01*
X87157Y481600D01*
X87293Y481585D01*
X118651Y481585D01*
X118741Y481599D01*
X118832Y481607D01*
X118862Y481619D01*
X118894Y481624D01*
X118974Y481667D01*
X119058Y481703D01*
X119090Y481729D01*
X119111Y481740D01*
X119133Y481763D01*
X119189Y481808D01*
X207866Y570485D01*
X454124Y570485D01*
X474752Y549857D01*
X474847Y549788D01*
X474941Y549719D01*
X474947Y549717D01*
X474952Y549713D01*
X475063Y549679D01*
X475174Y549642D01*
X475181Y549642D01*
X475187Y549641D01*
X475303Y549644D01*
X475420Y549645D01*
X475428Y549647D01*
X475433Y549647D01*
X475450Y549653D01*
X475581Y549691D01*
X476075Y549896D01*
X479605Y549896D01*
X482868Y548544D01*
X485364Y546048D01*
X485569Y545555D01*
X485630Y545455D01*
X485690Y545355D01*
X485695Y545351D01*
X485698Y545346D01*
X485788Y545271D01*
X485877Y545195D01*
X485883Y545193D01*
X485888Y545189D01*
X485996Y545147D01*
X486105Y545103D01*
X486113Y545102D01*
X486117Y545101D01*
X486136Y545100D01*
X486272Y545085D01*
X505167Y545085D01*
X505257Y545099D01*
X505348Y545107D01*
X505378Y545119D01*
X505410Y545124D01*
X505490Y545167D01*
X505574Y545203D01*
X505606Y545229D01*
X505627Y545240D01*
X505649Y545263D01*
X505705Y545308D01*
X510562Y550165D01*
X518138Y550165D01*
X523495Y544808D01*
X523495Y542664D01*
X523506Y542593D01*
X523508Y542522D01*
X523526Y542473D01*
X523534Y542421D01*
X523568Y542358D01*
X523593Y542291D01*
X523625Y542250D01*
X523650Y542204D01*
X523702Y542155D01*
X523746Y542099D01*
X523790Y542070D01*
X523828Y542035D01*
X523893Y542004D01*
X523953Y541966D01*
X524004Y541953D01*
X524051Y541931D01*
X524122Y541923D01*
X524192Y541906D01*
X524244Y541910D01*
X524295Y541904D01*
X524366Y541919D01*
X524437Y541925D01*
X524485Y541945D01*
X524536Y541956D01*
X524597Y541993D01*
X524663Y542021D01*
X524719Y542066D01*
X524747Y542082D01*
X524762Y542100D01*
X524794Y542126D01*
X610900Y628232D01*
X610953Y628306D01*
X611013Y628375D01*
X611025Y628405D01*
X611044Y628432D01*
X611071Y628519D01*
X611105Y628603D01*
X611109Y628644D01*
X611116Y628667D01*
X611115Y628699D01*
X611123Y628770D01*
X611123Y634199D01*
X611109Y634289D01*
X611101Y634380D01*
X611089Y634410D01*
X611084Y634442D01*
X611041Y634522D01*
X611005Y634606D01*
X610979Y634638D01*
X610968Y634659D01*
X610945Y634681D01*
X610900Y634737D01*
X606805Y638832D01*
X606805Y646408D01*
X612162Y651765D01*
X619738Y651765D01*
X625095Y646408D01*
X625095Y638832D01*
X619616Y633353D01*
X619554Y633320D01*
X619540Y633306D01*
X619523Y633296D01*
X619456Y633217D01*
X619384Y633142D01*
X619376Y633124D01*
X619363Y633109D01*
X619324Y633013D01*
X619281Y632919D01*
X619279Y632899D01*
X619271Y632881D01*
X619253Y632714D01*
X619253Y625087D01*
X516120Y521954D01*
X485896Y521954D01*
X485825Y521943D01*
X485753Y521941D01*
X485704Y521923D01*
X485653Y521915D01*
X485590Y521881D01*
X485522Y521856D01*
X485482Y521824D01*
X485436Y521799D01*
X485386Y521747D01*
X485330Y521703D01*
X485302Y521659D01*
X485266Y521621D01*
X485236Y521556D01*
X485197Y521496D01*
X485185Y521445D01*
X485163Y521398D01*
X485155Y521327D01*
X485137Y521257D01*
X485141Y521205D01*
X485135Y521154D01*
X485151Y521083D01*
X485156Y521012D01*
X485177Y520964D01*
X485188Y520913D01*
X485225Y520852D01*
X485253Y520786D01*
X485297Y520730D01*
X485314Y520702D01*
X485332Y520687D01*
X485357Y520655D01*
X485364Y520648D01*
X485569Y520155D01*
X485630Y520055D01*
X485690Y519955D01*
X485695Y519951D01*
X485698Y519946D01*
X485788Y519871D01*
X485877Y519795D01*
X485883Y519793D01*
X485888Y519789D01*
X485996Y519747D01*
X486105Y519703D01*
X486113Y519702D01*
X486117Y519701D01*
X486136Y519700D01*
X486272Y519685D01*
X588551Y519685D01*
X588641Y519699D01*
X588732Y519707D01*
X588762Y519719D01*
X588794Y519724D01*
X588874Y519767D01*
X588958Y519803D01*
X588990Y519829D01*
X589011Y519840D01*
X589033Y519863D01*
X589089Y519908D01*
X606582Y537401D01*
X606635Y537475D01*
X606695Y537544D01*
X606707Y537574D01*
X606726Y537600D01*
X606753Y537687D01*
X606787Y537772D01*
X606791Y537813D01*
X606798Y537835D01*
X606797Y537868D01*
X606805Y537939D01*
X606805Y544808D01*
X612162Y550165D01*
X619738Y550165D01*
X624595Y545308D01*
X624669Y545255D01*
X624738Y545195D01*
X624768Y545183D01*
X624795Y545164D01*
X624882Y545137D01*
X624966Y545103D01*
X625007Y545099D01*
X625030Y545092D01*
X625062Y545093D01*
X625133Y545085D01*
X632167Y545085D01*
X632257Y545099D01*
X632348Y545107D01*
X632378Y545119D01*
X632410Y545124D01*
X632490Y545167D01*
X632574Y545203D01*
X632606Y545229D01*
X632627Y545240D01*
X632649Y545263D01*
X632705Y545308D01*
X637562Y550165D01*
X645138Y550165D01*
X650495Y544808D01*
X650495Y537232D01*
X645138Y531875D01*
X637562Y531875D01*
X632705Y536732D01*
X632631Y536785D01*
X632562Y536845D01*
X632532Y536857D01*
X632505Y536876D01*
X632418Y536903D01*
X632334Y536937D01*
X632293Y536941D01*
X632270Y536948D01*
X632238Y536947D01*
X632167Y536955D01*
X625133Y536955D01*
X625043Y536941D01*
X624952Y536933D01*
X624922Y536921D01*
X624890Y536916D01*
X624810Y536873D01*
X624726Y536837D01*
X624694Y536811D01*
X624673Y536800D01*
X624664Y536791D01*
X624649Y536775D01*
X624595Y536732D01*
X619738Y531875D01*
X612869Y531875D01*
X612779Y531861D01*
X612688Y531853D01*
X612658Y531841D01*
X612626Y531836D01*
X612546Y531793D01*
X612462Y531757D01*
X612430Y531731D01*
X612409Y531720D01*
X612387Y531697D01*
X612331Y531652D01*
X592234Y511555D01*
X486272Y511555D01*
X486157Y511536D01*
X486041Y511519D01*
X486035Y511517D01*
X486029Y511516D01*
X485927Y511461D01*
X485822Y511408D01*
X485817Y511403D01*
X485812Y511400D01*
X485732Y511316D01*
X485650Y511232D01*
X485646Y511226D01*
X485642Y511222D01*
X485635Y511205D01*
X485569Y511085D01*
X485364Y510592D01*
X482868Y508096D01*
X479605Y506744D01*
X479595Y506744D01*
X479525Y506733D01*
X479453Y506731D01*
X479404Y506713D01*
X479353Y506705D01*
X479289Y506671D01*
X479222Y506646D01*
X479181Y506614D01*
X479135Y506589D01*
X479086Y506537D01*
X479030Y506493D01*
X479002Y506449D01*
X478966Y506411D01*
X478936Y506346D01*
X478897Y506286D01*
X478884Y506235D01*
X478862Y506188D01*
X478854Y506117D01*
X478837Y506047D01*
X478841Y505995D01*
X478835Y505944D01*
X478851Y505873D01*
X478856Y505802D01*
X478876Y505754D01*
X478888Y505703D01*
X478924Y505642D01*
X478952Y505576D01*
X478997Y505520D01*
X479014Y505492D01*
X479031Y505477D01*
X479057Y505445D01*
X482380Y502122D01*
X482380Y498455D01*
X482399Y498340D01*
X482416Y498224D01*
X482418Y498219D01*
X482419Y498212D01*
X482474Y498109D01*
X482527Y498005D01*
X482532Y498001D01*
X482535Y497995D01*
X482619Y497915D01*
X482703Y497833D01*
X482709Y497829D01*
X482713Y497826D01*
X482730Y497818D01*
X482850Y497752D01*
X482868Y497744D01*
X485364Y495248D01*
X486716Y491985D01*
X486716Y488455D01*
X485364Y485192D01*
X482868Y482696D01*
X479605Y481344D01*
X476075Y481344D01*
X475581Y481549D01*
X475468Y481575D01*
X475354Y481604D01*
X475348Y481603D01*
X475342Y481605D01*
X475226Y481594D01*
X475109Y481585D01*
X475103Y481582D01*
X475097Y481582D01*
X474989Y481534D01*
X474883Y481488D01*
X474877Y481484D01*
X474872Y481482D01*
X474858Y481469D01*
X474752Y481383D01*
X467838Y474469D01*
X467785Y474395D01*
X467725Y474326D01*
X467713Y474296D01*
X467694Y474270D01*
X467667Y474183D01*
X467633Y474098D01*
X467629Y474057D01*
X467622Y474034D01*
X467623Y474002D01*
X467615Y473931D01*
X467615Y467154D01*
X467630Y467058D01*
X467640Y466961D01*
X467650Y466937D01*
X467654Y466912D01*
X467700Y466826D01*
X467740Y466737D01*
X467757Y466717D01*
X467770Y466694D01*
X467840Y466627D01*
X467906Y466556D01*
X467929Y466543D01*
X467948Y466525D01*
X468036Y466484D01*
X468122Y466437D01*
X468147Y466432D01*
X468171Y466421D01*
X468268Y466411D01*
X468364Y466393D01*
X468390Y466397D01*
X468415Y466394D01*
X468511Y466415D01*
X468607Y466429D01*
X468630Y466441D01*
X468656Y466446D01*
X468739Y466496D01*
X468826Y466541D01*
X468845Y466559D01*
X468867Y466573D01*
X468930Y466647D01*
X468998Y466716D01*
X469014Y466745D01*
X469027Y466760D01*
X469039Y466790D01*
X469079Y466863D01*
X470316Y469848D01*
X472812Y472344D01*
X476075Y473696D01*
X479605Y473696D01*
X482868Y472344D01*
X484580Y470632D01*
X484654Y470579D01*
X484724Y470519D01*
X484754Y470507D01*
X484780Y470488D01*
X484867Y470461D01*
X484952Y470427D01*
X484993Y470423D01*
X485015Y470416D01*
X485047Y470417D01*
X485119Y470409D01*
X587920Y470409D01*
X588010Y470423D01*
X588101Y470431D01*
X588131Y470443D01*
X588162Y470448D01*
X588243Y470491D01*
X588327Y470527D01*
X588359Y470553D01*
X588380Y470564D01*
X588402Y470587D01*
X588458Y470632D01*
X660176Y542350D01*
X660229Y542424D01*
X660289Y542493D01*
X660301Y542524D01*
X660320Y542550D01*
X660347Y542637D01*
X660381Y542722D01*
X660385Y542762D01*
X660392Y542785D01*
X660391Y542817D01*
X660399Y542888D01*
X660399Y637073D01*
X660388Y637143D01*
X660386Y637215D01*
X660368Y637264D01*
X660360Y637315D01*
X660326Y637379D01*
X660301Y637446D01*
X660269Y637487D01*
X660244Y637533D01*
X660192Y637582D01*
X660148Y637638D01*
X660104Y637666D01*
X660066Y637702D01*
X660001Y637732D01*
X659941Y637771D01*
X659890Y637784D01*
X659843Y637806D01*
X659772Y637814D01*
X659702Y637831D01*
X659650Y637827D01*
X659599Y637833D01*
X659528Y637818D01*
X659457Y637812D01*
X659409Y637792D01*
X659358Y637781D01*
X659297Y637744D01*
X659231Y637716D01*
X659175Y637671D01*
X659147Y637654D01*
X659132Y637637D01*
X659100Y637611D01*
X658079Y636590D01*
X655465Y635507D01*
X652635Y635507D01*
X650021Y636590D01*
X648020Y638591D01*
X646937Y641205D01*
X646937Y643669D01*
X646923Y643759D01*
X646915Y643850D01*
X646903Y643880D01*
X646898Y643912D01*
X646855Y643992D01*
X646819Y644076D01*
X646793Y644108D01*
X646782Y644129D01*
X646759Y644151D01*
X646714Y644207D01*
X601789Y689132D01*
X601715Y689185D01*
X601646Y689245D01*
X601616Y689257D01*
X601590Y689276D01*
X601503Y689303D01*
X601418Y689337D01*
X601377Y689341D01*
X601354Y689348D01*
X601322Y689347D01*
X601251Y689355D01*
X486272Y689355D01*
X486157Y689336D01*
X486041Y689319D01*
X486035Y689317D01*
X486029Y689316D01*
X485927Y689261D01*
X485822Y689208D01*
X485817Y689203D01*
X485812Y689200D01*
X485732Y689116D01*
X485650Y689032D01*
X485646Y689026D01*
X485642Y689022D01*
X485635Y689005D01*
X485569Y688885D01*
X485364Y688392D01*
X482868Y685896D01*
X479605Y684544D01*
X476075Y684544D01*
X472812Y685896D01*
X470316Y688392D01*
X468964Y691655D01*
X468964Y695185D01*
X470316Y698448D01*
X472812Y700944D01*
X476075Y702296D01*
X479605Y702296D01*
X482868Y700944D01*
X485364Y698448D01*
X485569Y697955D01*
X485631Y697855D01*
X485690Y697755D01*
X485695Y697751D01*
X485698Y697746D01*
X485788Y697671D01*
X485877Y697595D01*
X485883Y697593D01*
X485888Y697589D01*
X485996Y697547D01*
X486105Y697503D01*
X486113Y697502D01*
X486117Y697501D01*
X486136Y697500D01*
X486272Y697485D01*
X604934Y697485D01*
X652463Y649956D01*
X652537Y649903D01*
X652606Y649843D01*
X652636Y649831D01*
X652662Y649812D01*
X652749Y649785D01*
X652834Y649751D01*
X652875Y649747D01*
X652898Y649740D01*
X652930Y649741D01*
X653001Y649733D01*
X655465Y649733D01*
X658079Y648650D01*
X659100Y647629D01*
X659158Y647587D01*
X659210Y647538D01*
X659257Y647516D01*
X659299Y647486D01*
X659368Y647465D01*
X659433Y647434D01*
X659485Y647429D01*
X659535Y647413D01*
X659606Y647415D01*
X659677Y647407D01*
X659728Y647418D01*
X659780Y647420D01*
X659848Y647444D01*
X659918Y647459D01*
X659963Y647486D01*
X660011Y647504D01*
X660067Y647549D01*
X660129Y647586D01*
X660163Y647625D01*
X660203Y647658D01*
X660242Y647718D01*
X660289Y647773D01*
X660308Y647821D01*
X660336Y647865D01*
X660354Y647934D01*
X660381Y648001D01*
X660389Y648072D01*
X660397Y648103D01*
X660395Y648127D01*
X660399Y648167D01*
X660399Y653452D01*
X660385Y653542D01*
X660377Y653633D01*
X660365Y653663D01*
X660360Y653694D01*
X660317Y653775D01*
X660281Y653859D01*
X660255Y653891D01*
X660244Y653912D01*
X660221Y653934D01*
X660176Y653990D01*
X601158Y713008D01*
X601084Y713061D01*
X601015Y713121D01*
X600984Y713133D01*
X600958Y713152D01*
X600871Y713179D01*
X600786Y713213D01*
X600746Y713217D01*
X600723Y713224D01*
X600691Y713223D01*
X600620Y713231D01*
X485119Y713231D01*
X485029Y713217D01*
X484938Y713209D01*
X484908Y713197D01*
X484876Y713192D01*
X484795Y713149D01*
X484711Y713113D01*
X484679Y713087D01*
X484659Y713076D01*
X484636Y713053D01*
X484580Y713008D01*
X482868Y711296D01*
X479605Y709944D01*
X476075Y709944D01*
X472812Y711296D01*
X470316Y713792D01*
X468964Y717055D01*
X468964Y720585D01*
X470316Y723848D01*
X472812Y726344D01*
X476075Y727696D01*
X479605Y727696D01*
X482868Y726344D01*
X484580Y724632D01*
X484654Y724579D01*
X484724Y724519D01*
X484754Y724507D01*
X484780Y724488D01*
X484867Y724461D01*
X484952Y724427D01*
X484993Y724423D01*
X485015Y724416D01*
X485047Y724417D01*
X485119Y724409D01*
X600620Y724409D01*
X600710Y724423D01*
X600801Y724431D01*
X600831Y724443D01*
X600862Y724448D01*
X600943Y724491D01*
X601027Y724527D01*
X601059Y724553D01*
X601080Y724564D01*
X601102Y724587D01*
X601158Y724632D01*
X646206Y769680D01*
X646259Y769754D01*
X646319Y769823D01*
X646331Y769854D01*
X646350Y769880D01*
X646377Y769967D01*
X646411Y770052D01*
X646415Y770092D01*
X646422Y770115D01*
X646421Y770147D01*
X646429Y770218D01*
X646429Y796809D01*
X646415Y796899D01*
X646407Y796990D01*
X646395Y797019D01*
X646390Y797051D01*
X646347Y797132D01*
X646311Y797216D01*
X646285Y797248D01*
X646274Y797269D01*
X646251Y797291D01*
X646206Y797347D01*
X597957Y845596D01*
X597883Y845649D01*
X597813Y845709D01*
X597783Y845721D01*
X597757Y845740D01*
X597670Y845767D01*
X597585Y845801D01*
X597544Y845805D01*
X597522Y845812D01*
X597490Y845811D01*
X597419Y845819D01*
X485652Y845819D01*
X485537Y845800D01*
X485421Y845783D01*
X485415Y845781D01*
X485409Y845780D01*
X485307Y845725D01*
X485202Y845672D01*
X485197Y845667D01*
X485192Y845664D01*
X485112Y845580D01*
X485030Y845496D01*
X485026Y845490D01*
X485023Y845486D01*
X485015Y845469D01*
X484949Y845349D01*
X484864Y845144D01*
X482006Y842286D01*
X478271Y840739D01*
X474229Y840739D01*
X470494Y842286D01*
X467636Y845144D01*
X466089Y848879D01*
X466089Y868161D01*
X467636Y871896D01*
X470494Y874754D01*
X474229Y876301D01*
X478271Y876301D01*
X482006Y874754D01*
X484864Y871896D01*
X486411Y868161D01*
X486411Y857758D01*
X486414Y857738D01*
X486412Y857719D01*
X486434Y857617D01*
X486450Y857515D01*
X486460Y857498D01*
X486464Y857478D01*
X486517Y857389D01*
X486566Y857298D01*
X486580Y857284D01*
X486590Y857267D01*
X486669Y857200D01*
X486744Y857128D01*
X486762Y857120D01*
X486777Y857107D01*
X486873Y857068D01*
X486967Y857025D01*
X486987Y857023D01*
X487005Y857015D01*
X487172Y856997D01*
X601161Y856997D01*
X603215Y856146D01*
X655077Y804284D01*
X656756Y802605D01*
X657607Y800551D01*
X657607Y766476D01*
X656756Y764422D01*
X611692Y719358D01*
X611680Y719342D01*
X611665Y719330D01*
X611609Y719242D01*
X611548Y719159D01*
X611543Y719140D01*
X611532Y719123D01*
X611506Y719022D01*
X611476Y718923D01*
X611477Y718904D01*
X611472Y718884D01*
X611480Y718781D01*
X611482Y718678D01*
X611489Y718659D01*
X611491Y718639D01*
X611531Y718544D01*
X611567Y718447D01*
X611579Y718431D01*
X611587Y718413D01*
X611692Y718282D01*
X669047Y660927D01*
X670726Y659248D01*
X671577Y657194D01*
X671577Y620626D01*
X671592Y620530D01*
X671602Y620433D01*
X671612Y620409D01*
X671616Y620383D01*
X671662Y620297D01*
X671702Y620208D01*
X671719Y620189D01*
X671732Y620166D01*
X671802Y620099D01*
X671868Y620027D01*
X671891Y620014D01*
X671910Y619996D01*
X671998Y619955D01*
X672084Y619908D01*
X672109Y619904D01*
X672133Y619893D01*
X672230Y619882D01*
X672326Y619865D01*
X672352Y619868D01*
X672377Y619866D01*
X672473Y619886D01*
X672569Y619900D01*
X672592Y619912D01*
X672618Y619918D01*
X672701Y619968D01*
X672788Y620012D01*
X672807Y620031D01*
X672829Y620044D01*
X672892Y620118D01*
X672960Y620187D01*
X672976Y620216D01*
X672989Y620231D01*
X673001Y620262D01*
X673041Y620334D01*
X673420Y621249D01*
X675421Y623250D01*
X678035Y624333D01*
X680865Y624333D01*
X683479Y623250D01*
X685480Y621249D01*
X686563Y618635D01*
X686563Y616171D01*
X686577Y616081D01*
X686585Y615990D01*
X686597Y615960D01*
X686602Y615928D01*
X686645Y615848D01*
X686681Y615764D01*
X686707Y615732D01*
X686718Y615711D01*
X686741Y615689D01*
X686786Y615633D01*
X731711Y570708D01*
X731785Y570655D01*
X731854Y570595D01*
X731884Y570583D01*
X731910Y570564D01*
X731997Y570537D01*
X732082Y570503D01*
X732123Y570499D01*
X732146Y570492D01*
X732178Y570493D01*
X732249Y570485D01*
X749561Y570485D01*
X765811Y554235D01*
X765811Y524223D01*
X765825Y524133D01*
X765833Y524042D01*
X765845Y524012D01*
X765850Y523980D01*
X765893Y523900D01*
X765929Y523816D01*
X765955Y523784D01*
X765966Y523763D01*
X765989Y523741D01*
X766034Y523685D01*
X787370Y502349D01*
X787428Y502307D01*
X787480Y502257D01*
X787527Y502235D01*
X787569Y502205D01*
X787638Y502184D01*
X787703Y502154D01*
X787755Y502148D01*
X787805Y502133D01*
X787876Y502135D01*
X787947Y502127D01*
X787998Y502138D01*
X788050Y502139D01*
X788118Y502164D01*
X788188Y502179D01*
X788233Y502206D01*
X788281Y502224D01*
X788337Y502268D01*
X788399Y502305D01*
X788433Y502345D01*
X788473Y502377D01*
X788512Y502438D01*
X788559Y502492D01*
X788578Y502540D01*
X788606Y502584D01*
X788624Y502654D01*
X788651Y502720D01*
X788659Y502792D01*
X788667Y502823D01*
X788665Y502846D01*
X788669Y502887D01*
X788669Y504941D01*
X790216Y508676D01*
X793074Y511534D01*
X796809Y513081D01*
X801624Y513081D01*
X801644Y513084D01*
X801663Y513082D01*
X801765Y513104D01*
X801867Y513120D01*
X801884Y513130D01*
X801904Y513134D01*
X801993Y513187D01*
X802084Y513236D01*
X802098Y513250D01*
X802115Y513260D01*
X802182Y513339D01*
X802254Y513414D01*
X802262Y513432D01*
X802275Y513447D01*
X802314Y513543D01*
X802357Y513637D01*
X802359Y513657D01*
X802367Y513675D01*
X802385Y513842D01*
X802385Y539021D01*
X802371Y539111D01*
X802363Y539202D01*
X802351Y539232D01*
X802346Y539264D01*
X802303Y539344D01*
X802267Y539428D01*
X802241Y539460D01*
X802230Y539481D01*
X802207Y539503D01*
X802162Y539559D01*
X630237Y711484D01*
X630163Y711537D01*
X630094Y711597D01*
X630064Y711609D01*
X630038Y711628D01*
X629951Y711655D01*
X629866Y711689D01*
X629825Y711693D01*
X629802Y711700D01*
X629770Y711699D01*
X629699Y711707D01*
X627235Y711707D01*
X624621Y712790D01*
X622620Y714791D01*
X621537Y717405D01*
X621537Y720235D01*
X622620Y722849D01*
X624621Y724850D01*
X627235Y725933D01*
X630065Y725933D01*
X632679Y724850D01*
X634680Y722849D01*
X635763Y720235D01*
X635763Y717771D01*
X635777Y717681D01*
X635785Y717590D01*
X635797Y717560D01*
X635802Y717528D01*
X635845Y717448D01*
X635881Y717364D01*
X635907Y717332D01*
X635918Y717311D01*
X635941Y717289D01*
X635986Y717233D01*
X810515Y542704D01*
X810515Y513842D01*
X810518Y513822D01*
X810516Y513803D01*
X810538Y513701D01*
X810554Y513599D01*
X810564Y513582D01*
X810568Y513562D01*
X810621Y513473D01*
X810670Y513382D01*
X810684Y513368D01*
X810694Y513351D01*
X810773Y513284D01*
X810848Y513212D01*
X810866Y513204D01*
X810881Y513191D01*
X810977Y513152D01*
X811071Y513109D01*
X811091Y513107D01*
X811109Y513099D01*
X811276Y513081D01*
X816091Y513081D01*
X819826Y511534D01*
X822684Y508676D01*
X824231Y504941D01*
X824231Y500899D01*
X822684Y497164D01*
X819826Y494306D01*
X816091Y492759D01*
X798797Y492759D01*
X798726Y492748D01*
X798654Y492746D01*
X798606Y492728D01*
X798554Y492720D01*
X798491Y492686D01*
X798423Y492661D01*
X798383Y492629D01*
X798337Y492604D01*
X798287Y492552D01*
X798231Y492508D01*
X798203Y492464D01*
X798167Y492426D01*
X798137Y492361D01*
X798098Y492301D01*
X798086Y492250D01*
X798064Y492203D01*
X798056Y492132D01*
X798038Y492062D01*
X798042Y492010D01*
X798037Y491959D01*
X798052Y491888D01*
X798058Y491817D01*
X798078Y491769D01*
X798089Y491718D01*
X798126Y491657D01*
X798154Y491591D01*
X798199Y491535D01*
X798215Y491507D01*
X798233Y491492D01*
X798259Y491460D01*
X801815Y487904D01*
X801889Y487851D01*
X801958Y487791D01*
X801988Y487779D01*
X802014Y487760D01*
X802102Y487733D01*
X802186Y487699D01*
X802227Y487695D01*
X802250Y487688D01*
X802282Y487689D01*
X802353Y487681D01*
X816091Y487681D01*
X819826Y486134D01*
X822684Y483276D01*
X824231Y479541D01*
X824231Y475499D01*
X822684Y471764D01*
X819826Y468906D01*
X816091Y467359D01*
X796809Y467359D01*
X793074Y468906D01*
X790216Y471764D01*
X788669Y475499D01*
X788669Y479541D01*
X790216Y483276D01*
X792043Y485102D01*
X792054Y485118D01*
X792070Y485131D01*
X792126Y485218D01*
X792186Y485302D01*
X792192Y485321D01*
X792203Y485338D01*
X792228Y485438D01*
X792259Y485537D01*
X792258Y485557D01*
X792263Y485576D01*
X792255Y485679D01*
X792252Y485783D01*
X792245Y485802D01*
X792244Y485822D01*
X792204Y485916D01*
X792168Y486014D01*
X792155Y486030D01*
X792148Y486048D01*
X792043Y486179D01*
X760285Y517936D01*
X757681Y520540D01*
X757681Y550552D01*
X757667Y550642D01*
X757659Y550733D01*
X757647Y550763D01*
X757642Y550795D01*
X757599Y550875D01*
X757563Y550959D01*
X757537Y550991D01*
X757526Y551012D01*
X757503Y551034D01*
X757458Y551090D01*
X746416Y562132D01*
X746342Y562185D01*
X746273Y562245D01*
X746243Y562257D01*
X746216Y562276D01*
X746129Y562303D01*
X746045Y562337D01*
X746004Y562341D01*
X745981Y562348D01*
X745949Y562347D01*
X745878Y562355D01*
X728566Y562355D01*
X681037Y609884D01*
X680963Y609937D01*
X680894Y609997D01*
X680864Y610009D01*
X680838Y610028D01*
X680751Y610055D01*
X680666Y610089D01*
X680625Y610093D01*
X680602Y610100D01*
X680570Y610099D01*
X680499Y610107D01*
X678035Y610107D01*
X675421Y611190D01*
X673420Y613191D01*
X673041Y614106D01*
X672990Y614189D01*
X672944Y614274D01*
X672926Y614292D01*
X672912Y614315D01*
X672836Y614377D01*
X672766Y614444D01*
X672742Y614455D01*
X672722Y614471D01*
X672631Y614506D01*
X672543Y614547D01*
X672517Y614550D01*
X672493Y614560D01*
X672395Y614564D01*
X672299Y614574D01*
X672273Y614569D01*
X672247Y614570D01*
X672153Y614543D01*
X672058Y614522D01*
X672036Y614509D01*
X672011Y614502D01*
X671931Y614446D01*
X671847Y614396D01*
X671830Y614376D01*
X671809Y614361D01*
X671750Y614283D01*
X671687Y614209D01*
X671677Y614185D01*
X671662Y614164D01*
X671632Y614071D01*
X671595Y613981D01*
X671592Y613949D01*
X671586Y613930D01*
X671586Y613897D01*
X671577Y613814D01*
X671577Y539146D01*
X670726Y537092D01*
X598992Y465358D01*
X598980Y465342D01*
X598965Y465330D01*
X598909Y465242D01*
X598848Y465159D01*
X598843Y465140D01*
X598832Y465123D01*
X598806Y465022D01*
X598776Y464923D01*
X598777Y464904D01*
X598772Y464884D01*
X598780Y464781D01*
X598782Y464678D01*
X598789Y464659D01*
X598791Y464639D01*
X598831Y464544D01*
X598867Y464447D01*
X598879Y464431D01*
X598887Y464413D01*
X598992Y464282D01*
X689776Y373498D01*
X690627Y371444D01*
X690627Y286315D01*
X689776Y284261D01*
X688097Y282582D01*
X615476Y209961D01*
X615464Y209945D01*
X615449Y209933D01*
X615392Y209845D01*
X615332Y209762D01*
X615326Y209743D01*
X615316Y209726D01*
X615290Y209625D01*
X615260Y209526D01*
X615260Y209507D01*
X615256Y209487D01*
X615264Y209384D01*
X615266Y209281D01*
X615273Y209262D01*
X615275Y209242D01*
X615315Y209147D01*
X615351Y209050D01*
X615363Y209034D01*
X615371Y209016D01*
X615476Y208885D01*
X667777Y156584D01*
X669456Y154905D01*
X670307Y152851D01*
X670307Y103689D01*
X669456Y101635D01*
X622265Y54444D01*
X620211Y53593D01*
X487172Y53593D01*
X487152Y53590D01*
X487133Y53592D01*
X487031Y53570D01*
X486929Y53554D01*
X486912Y53544D01*
X486892Y53540D01*
X486803Y53487D01*
X486712Y53438D01*
X486698Y53424D01*
X486681Y53414D01*
X486614Y53335D01*
X486542Y53260D01*
X486534Y53242D01*
X486521Y53227D01*
X486482Y53131D01*
X486439Y53037D01*
X486437Y53017D01*
X486429Y52999D01*
X486411Y52832D01*
X486411Y48779D01*
X484864Y45044D01*
X482006Y42186D01*
X478271Y40639D01*
X474229Y40639D01*
X470494Y42186D01*
X467636Y45044D01*
X466089Y48779D01*
X466089Y68061D01*
X467636Y71796D01*
X470494Y74654D01*
X474229Y76201D01*
X478271Y76201D01*
X482006Y74654D01*
X484864Y71796D01*
X486411Y68061D01*
X486411Y65532D01*
X486414Y65512D01*
X486412Y65493D01*
X486434Y65391D01*
X486450Y65289D01*
X486460Y65272D01*
X486464Y65252D01*
X486517Y65163D01*
X486566Y65072D01*
X486580Y65058D01*
X486590Y65041D01*
X486669Y64974D01*
X486744Y64902D01*
X486762Y64894D01*
X486777Y64881D01*
X486873Y64842D01*
X486967Y64799D01*
X486987Y64797D01*
X487005Y64789D01*
X487172Y64771D01*
X616469Y64771D01*
X616559Y64785D01*
X616650Y64793D01*
X616679Y64805D01*
X616711Y64810D01*
X616792Y64853D01*
X616876Y64889D01*
X616908Y64915D01*
X616929Y64926D01*
X616951Y64949D01*
X617007Y64994D01*
X658906Y106893D01*
X658959Y106967D01*
X659019Y107037D01*
X659031Y107067D01*
X659050Y107093D01*
X659077Y107180D01*
X659111Y107265D01*
X659115Y107306D01*
X659122Y107328D01*
X659121Y107360D01*
X659129Y107431D01*
X659129Y149109D01*
X659115Y149199D01*
X659107Y149290D01*
X659095Y149319D01*
X659090Y149351D01*
X659047Y149432D01*
X659011Y149516D01*
X658985Y149548D01*
X658974Y149569D01*
X658951Y149591D01*
X658906Y149647D01*
X604307Y204246D01*
X604233Y204299D01*
X604163Y204359D01*
X604133Y204371D01*
X604107Y204390D01*
X604020Y204417D01*
X603935Y204451D01*
X603894Y204455D01*
X603872Y204462D01*
X603840Y204461D01*
X603769Y204469D01*
X484357Y204469D01*
X484267Y204455D01*
X484176Y204447D01*
X484146Y204435D01*
X484114Y204430D01*
X484033Y204387D01*
X483949Y204351D01*
X483917Y204325D01*
X483897Y204314D01*
X483874Y204291D01*
X483818Y204246D01*
X482868Y203296D01*
X479605Y201944D01*
X476075Y201944D01*
X472812Y203296D01*
X470316Y205792D01*
X469079Y208777D01*
X469028Y208860D01*
X468982Y208946D01*
X468963Y208964D01*
X468950Y208986D01*
X468875Y209048D01*
X468804Y209115D01*
X468780Y209126D01*
X468760Y209143D01*
X468669Y209178D01*
X468581Y209219D01*
X468555Y209222D01*
X468531Y209231D01*
X468433Y209235D01*
X468337Y209246D01*
X468311Y209240D01*
X468285Y209241D01*
X468191Y209214D01*
X468096Y209194D01*
X468074Y209180D01*
X468049Y209173D01*
X467969Y209117D01*
X467885Y209067D01*
X467868Y209047D01*
X467847Y209033D01*
X467788Y208954D01*
X467725Y208880D01*
X467715Y208856D01*
X467700Y208835D01*
X467670Y208743D01*
X467633Y208652D01*
X467630Y208620D01*
X467624Y208601D01*
X467624Y208568D01*
X467615Y208486D01*
X467615Y187239D01*
X467623Y187190D01*
X467621Y187141D01*
X467642Y187070D01*
X467654Y186996D01*
X467677Y186953D01*
X467691Y186906D01*
X467735Y186844D01*
X467770Y186779D01*
X467805Y186745D01*
X467833Y186705D01*
X467894Y186661D01*
X467948Y186609D01*
X467992Y186589D01*
X468032Y186560D01*
X468103Y186537D01*
X468171Y186506D01*
X468220Y186500D01*
X468266Y186485D01*
X468341Y186487D01*
X468415Y186478D01*
X468463Y186489D01*
X468512Y186490D01*
X468583Y186515D01*
X468656Y186531D01*
X468698Y186556D01*
X468744Y186572D01*
X468803Y186619D01*
X468867Y186657D01*
X468899Y186694D01*
X468937Y186724D01*
X468978Y186787D01*
X469027Y186844D01*
X469045Y186889D01*
X469072Y186930D01*
X469110Y187050D01*
X469119Y187072D01*
X469120Y187081D01*
X469123Y187090D01*
X469305Y188009D01*
X469974Y189624D01*
X470946Y191078D01*
X472182Y192314D01*
X473636Y193286D01*
X475251Y193955D01*
X476317Y194167D01*
X476317Y186182D01*
X476320Y186162D01*
X476318Y186143D01*
X476340Y186041D01*
X476357Y185939D01*
X476366Y185922D01*
X476370Y185902D01*
X476423Y185813D01*
X476472Y185722D01*
X476486Y185708D01*
X476496Y185691D01*
X476575Y185624D01*
X476650Y185553D01*
X476668Y185544D01*
X476683Y185531D01*
X476779Y185493D01*
X476873Y185449D01*
X476893Y185447D01*
X476911Y185439D01*
X477078Y185421D01*
X477841Y185421D01*
X477841Y185419D01*
X477078Y185419D01*
X477058Y185416D01*
X477039Y185418D01*
X476937Y185396D01*
X476835Y185379D01*
X476818Y185370D01*
X476798Y185366D01*
X476709Y185313D01*
X476618Y185264D01*
X476604Y185250D01*
X476587Y185240D01*
X476520Y185161D01*
X476449Y185086D01*
X476440Y185068D01*
X476427Y185053D01*
X476388Y184957D01*
X476345Y184863D01*
X476343Y184843D01*
X476335Y184825D01*
X476317Y184658D01*
X476317Y176673D01*
X475251Y176885D01*
X473636Y177554D01*
X472182Y178526D01*
X470946Y179762D01*
X469974Y181216D01*
X469305Y182831D01*
X469123Y183750D01*
X469105Y183796D01*
X469097Y183844D01*
X469063Y183910D01*
X469036Y183980D01*
X469005Y184018D01*
X468982Y184061D01*
X468928Y184113D01*
X468881Y184171D01*
X468840Y184197D01*
X468804Y184231D01*
X468736Y184262D01*
X468673Y184302D01*
X468625Y184314D01*
X468581Y184334D01*
X468507Y184343D01*
X468434Y184360D01*
X468385Y184356D01*
X468337Y184362D01*
X468264Y184346D01*
X468189Y184339D01*
X468144Y184320D01*
X468096Y184309D01*
X468032Y184271D01*
X467963Y184241D01*
X467927Y184208D01*
X467885Y184183D01*
X467836Y184126D01*
X467781Y184076D01*
X467757Y184034D01*
X467725Y183996D01*
X467697Y183927D01*
X467661Y183862D01*
X467652Y183814D01*
X467633Y183768D01*
X467619Y183644D01*
X467615Y183620D01*
X467616Y183611D01*
X467615Y183601D01*
X467615Y162354D01*
X467630Y162258D01*
X467640Y162161D01*
X467650Y162137D01*
X467654Y162112D01*
X467700Y162026D01*
X467740Y161937D01*
X467757Y161917D01*
X467770Y161894D01*
X467840Y161827D01*
X467906Y161756D01*
X467929Y161743D01*
X467948Y161725D01*
X468036Y161684D01*
X468122Y161637D01*
X468147Y161632D01*
X468171Y161621D01*
X468268Y161611D01*
X468364Y161593D01*
X468390Y161597D01*
X468415Y161594D01*
X468511Y161615D01*
X468607Y161629D01*
X468630Y161641D01*
X468656Y161646D01*
X468739Y161696D01*
X468826Y161741D01*
X468845Y161759D01*
X468867Y161773D01*
X468930Y161847D01*
X468998Y161916D01*
X469014Y161945D01*
X469027Y161960D01*
X469039Y161990D01*
X469079Y162063D01*
X470316Y165048D01*
X472812Y167544D01*
X476075Y168896D01*
X479605Y168896D01*
X482868Y167544D01*
X485364Y165048D01*
X485569Y164555D01*
X485630Y164455D01*
X485690Y164355D01*
X485695Y164351D01*
X485698Y164346D01*
X485788Y164271D01*
X485877Y164195D01*
X485883Y164193D01*
X485888Y164189D01*
X485996Y164147D01*
X486105Y164103D01*
X486113Y164102D01*
X486117Y164101D01*
X486136Y164100D01*
X486272Y164085D01*
X592234Y164085D01*
X594838Y161481D01*
X612331Y143988D01*
X612405Y143935D01*
X612474Y143875D01*
X612504Y143863D01*
X612530Y143844D01*
X612617Y143817D01*
X612702Y143783D01*
X612743Y143779D01*
X612765Y143772D01*
X612798Y143773D01*
X612869Y143765D01*
X619738Y143765D01*
X624595Y138908D01*
X624669Y138855D01*
X624738Y138795D01*
X624768Y138783D01*
X624795Y138764D01*
X624882Y138737D01*
X624966Y138703D01*
X625007Y138699D01*
X625030Y138692D01*
X625062Y138693D01*
X625133Y138685D01*
X632167Y138685D01*
X632257Y138699D01*
X632348Y138707D01*
X632378Y138719D01*
X632410Y138724D01*
X632490Y138767D01*
X632574Y138803D01*
X632606Y138829D01*
X632627Y138840D01*
X632649Y138863D01*
X632705Y138908D01*
X637562Y143765D01*
X645138Y143765D01*
X650495Y138408D01*
X650495Y130832D01*
X645138Y125475D01*
X637562Y125475D01*
X632705Y130332D01*
X632631Y130385D01*
X632562Y130445D01*
X632532Y130457D01*
X632505Y130476D01*
X632418Y130503D01*
X632334Y130537D01*
X632293Y130541D01*
X632270Y130548D01*
X632238Y130547D01*
X632167Y130555D01*
X625133Y130555D01*
X625043Y130541D01*
X624952Y130533D01*
X624922Y130521D01*
X624890Y130516D01*
X624810Y130473D01*
X624726Y130437D01*
X624694Y130411D01*
X624673Y130400D01*
X624651Y130377D01*
X624595Y130332D01*
X619738Y125475D01*
X612162Y125475D01*
X606805Y130832D01*
X606805Y137701D01*
X606791Y137791D01*
X606783Y137882D01*
X606771Y137912D01*
X606766Y137944D01*
X606723Y138024D01*
X606687Y138108D01*
X606661Y138140D01*
X606650Y138161D01*
X606627Y138183D01*
X606582Y138239D01*
X589089Y155732D01*
X589015Y155785D01*
X588946Y155845D01*
X588916Y155857D01*
X588890Y155876D01*
X588803Y155903D01*
X588718Y155937D01*
X588677Y155941D01*
X588654Y155948D01*
X588622Y155947D01*
X588551Y155955D01*
X486272Y155955D01*
X486157Y155936D01*
X486041Y155919D01*
X486035Y155917D01*
X486029Y155916D01*
X485927Y155861D01*
X485822Y155808D01*
X485817Y155803D01*
X485812Y155800D01*
X485732Y155716D01*
X485650Y155632D01*
X485646Y155626D01*
X485642Y155622D01*
X485635Y155605D01*
X485569Y155485D01*
X485364Y154992D01*
X484087Y153715D01*
X484046Y153657D01*
X483996Y153605D01*
X483974Y153558D01*
X483944Y153516D01*
X483923Y153447D01*
X483893Y153382D01*
X483887Y153330D01*
X483872Y153280D01*
X483873Y153209D01*
X483865Y153138D01*
X483877Y153087D01*
X483878Y153035D01*
X483903Y152967D01*
X483918Y152897D01*
X483944Y152852D01*
X483962Y152804D01*
X484007Y152748D01*
X484044Y152686D01*
X484083Y152652D01*
X484116Y152612D01*
X484176Y152573D01*
X484231Y152526D01*
X484279Y152507D01*
X484323Y152479D01*
X484392Y152461D01*
X484459Y152434D01*
X484530Y152426D01*
X484561Y152418D01*
X484585Y152420D01*
X484626Y152416D01*
X553103Y152416D01*
X555707Y149812D01*
X612331Y93188D01*
X612405Y93135D01*
X612474Y93075D01*
X612504Y93063D01*
X612530Y93044D01*
X612617Y93017D01*
X612702Y92983D01*
X612743Y92979D01*
X612765Y92972D01*
X612798Y92973D01*
X612869Y92965D01*
X619738Y92965D01*
X625095Y87608D01*
X625095Y80032D01*
X619738Y74675D01*
X612162Y74675D01*
X606805Y80032D01*
X606805Y86901D01*
X606791Y86991D01*
X606783Y87082D01*
X606771Y87112D01*
X606766Y87144D01*
X606723Y87224D01*
X606687Y87308D01*
X606661Y87340D01*
X606650Y87361D01*
X606627Y87383D01*
X606582Y87439D01*
X549958Y144063D01*
X549884Y144116D01*
X549815Y144176D01*
X549785Y144188D01*
X549759Y144207D01*
X549672Y144234D01*
X549587Y144268D01*
X549546Y144272D01*
X549523Y144279D01*
X549491Y144278D01*
X549420Y144286D01*
X519454Y144286D01*
X519383Y144275D01*
X519312Y144273D01*
X519263Y144255D01*
X519211Y144247D01*
X519148Y144213D01*
X519081Y144188D01*
X519040Y144156D01*
X518994Y144131D01*
X518945Y144079D01*
X518889Y144035D01*
X518860Y143991D01*
X518825Y143953D01*
X518794Y143888D01*
X518756Y143828D01*
X518743Y143777D01*
X518721Y143730D01*
X518713Y143659D01*
X518696Y143589D01*
X518700Y143537D01*
X518694Y143486D01*
X518709Y143415D01*
X518715Y143344D01*
X518735Y143296D01*
X518746Y143245D01*
X518783Y143184D01*
X518811Y143118D01*
X518856Y143062D01*
X518872Y143034D01*
X518890Y143019D01*
X518916Y142987D01*
X523495Y138408D01*
X523495Y130832D01*
X518638Y125975D01*
X518585Y125901D01*
X518525Y125832D01*
X518513Y125802D01*
X518494Y125775D01*
X518467Y125688D01*
X518433Y125604D01*
X518429Y125563D01*
X518422Y125540D01*
X518423Y125508D01*
X518415Y125437D01*
X518415Y93003D01*
X518429Y92913D01*
X518437Y92822D01*
X518449Y92792D01*
X518454Y92760D01*
X518497Y92680D01*
X518533Y92596D01*
X518559Y92564D01*
X518570Y92543D01*
X518593Y92521D01*
X518638Y92465D01*
X523495Y87608D01*
X523495Y80032D01*
X518138Y74675D01*
X510562Y74675D01*
X505205Y80032D01*
X505205Y87608D01*
X510062Y92465D01*
X510115Y92539D01*
X510175Y92608D01*
X510187Y92638D01*
X510206Y92665D01*
X510233Y92752D01*
X510267Y92836D01*
X510271Y92877D01*
X510278Y92900D01*
X510277Y92932D01*
X510285Y93003D01*
X510285Y125437D01*
X510271Y125527D01*
X510263Y125618D01*
X510251Y125648D01*
X510246Y125680D01*
X510203Y125760D01*
X510167Y125844D01*
X510141Y125876D01*
X510130Y125897D01*
X510107Y125919D01*
X510062Y125975D01*
X505705Y130332D01*
X505631Y130385D01*
X505562Y130445D01*
X505532Y130457D01*
X505505Y130476D01*
X505418Y130503D01*
X505334Y130537D01*
X505293Y130541D01*
X505270Y130548D01*
X505238Y130547D01*
X505167Y130555D01*
X486272Y130555D01*
X486157Y130536D01*
X486041Y130519D01*
X486035Y130517D01*
X486029Y130516D01*
X485927Y130461D01*
X485822Y130408D01*
X485817Y130403D01*
X485812Y130400D01*
X485732Y130316D01*
X485650Y130232D01*
X485646Y130226D01*
X485642Y130222D01*
X485635Y130205D01*
X485569Y130085D01*
X485364Y129592D01*
X482868Y127096D01*
X479605Y125744D01*
X476075Y125744D01*
X472812Y127096D01*
X470316Y129592D01*
X468964Y132855D01*
X468964Y136385D01*
X470316Y139648D01*
X472812Y142144D01*
X474447Y142822D01*
X474530Y142873D01*
X474616Y142919D01*
X474634Y142937D01*
X474656Y142951D01*
X474719Y143027D01*
X474786Y143097D01*
X474797Y143121D01*
X474813Y143141D01*
X474848Y143232D01*
X474889Y143320D01*
X474892Y143346D01*
X474901Y143370D01*
X474906Y143468D01*
X474916Y143564D01*
X474911Y143590D01*
X474912Y143616D01*
X474885Y143710D01*
X474864Y143805D01*
X474851Y143827D01*
X474843Y143852D01*
X474788Y143932D01*
X474738Y144016D01*
X474718Y144033D01*
X474703Y144054D01*
X474625Y144113D01*
X474551Y144176D01*
X474527Y144186D01*
X474506Y144201D01*
X474413Y144231D01*
X474323Y144268D01*
X474290Y144271D01*
X474272Y144277D01*
X474239Y144277D01*
X474156Y144286D01*
X473119Y144286D01*
X470515Y146890D01*
X464088Y153317D01*
X464072Y153329D01*
X464060Y153344D01*
X463972Y153400D01*
X463889Y153460D01*
X463870Y153466D01*
X463853Y153477D01*
X463752Y153502D01*
X463653Y153533D01*
X463634Y153532D01*
X463614Y153537D01*
X463511Y153529D01*
X463408Y153526D01*
X463389Y153520D01*
X463369Y153518D01*
X463274Y153478D01*
X463177Y153442D01*
X463161Y153429D01*
X463143Y153422D01*
X463012Y153317D01*
X415358Y105663D01*
X283558Y105663D01*
X263969Y125252D01*
X263895Y125305D01*
X263826Y125365D01*
X263796Y125377D01*
X263770Y125396D01*
X263683Y125423D01*
X263598Y125457D01*
X263557Y125461D01*
X263535Y125468D01*
X263502Y125467D01*
X263431Y125475D01*
X256562Y125475D01*
X251205Y130832D01*
X251205Y138408D01*
X256562Y143765D01*
X264138Y143765D01*
X269495Y138408D01*
X269495Y131539D01*
X269509Y131449D01*
X269517Y131358D01*
X269529Y131328D01*
X269534Y131296D01*
X269577Y131215D01*
X269613Y131132D01*
X269639Y131100D01*
X269650Y131079D01*
X269673Y131057D01*
X269718Y131001D01*
X286703Y114016D01*
X286777Y113963D01*
X286846Y113903D01*
X286876Y113891D01*
X286902Y113872D01*
X286989Y113845D01*
X287074Y113811D01*
X287115Y113807D01*
X287138Y113800D01*
X287170Y113801D01*
X287241Y113793D01*
X411675Y113793D01*
X411766Y113807D01*
X411856Y113815D01*
X411886Y113827D01*
X411918Y113832D01*
X411999Y113875D01*
X412083Y113911D01*
X412115Y113937D01*
X412136Y113948D01*
X412158Y113971D01*
X412214Y114016D01*
X459262Y161064D01*
X459315Y161138D01*
X459375Y161208D01*
X459387Y161238D01*
X459406Y161264D01*
X459433Y161351D01*
X459467Y161436D01*
X459471Y161477D01*
X459478Y161499D01*
X459477Y161531D01*
X459485Y161603D01*
X459485Y225204D01*
X468741Y234460D01*
X468794Y234534D01*
X468854Y234603D01*
X468866Y234633D01*
X468885Y234659D01*
X468912Y234746D01*
X468946Y234831D01*
X468950Y234872D01*
X468957Y234894D01*
X468956Y234927D01*
X468964Y234998D01*
X468964Y237985D01*
X470316Y241248D01*
X472624Y243556D01*
X472665Y243614D01*
X472715Y243666D01*
X472737Y243713D01*
X472767Y243755D01*
X472788Y243824D01*
X472818Y243889D01*
X472824Y243941D01*
X472839Y243991D01*
X472838Y244062D01*
X472846Y244133D01*
X472834Y244184D01*
X472833Y244236D01*
X472808Y244304D01*
X472793Y244374D01*
X472767Y244419D01*
X472749Y244467D01*
X472704Y244523D01*
X472667Y244585D01*
X472628Y244619D01*
X472595Y244659D01*
X472535Y244698D01*
X472480Y244745D01*
X472432Y244764D01*
X472388Y244792D01*
X472319Y244810D01*
X472252Y244837D01*
X472181Y244845D01*
X472150Y244853D01*
X472126Y244851D01*
X472085Y244855D01*
X463959Y244855D01*
X463869Y244841D01*
X463778Y244833D01*
X463748Y244821D01*
X463716Y244816D01*
X463636Y244773D01*
X463552Y244737D01*
X463520Y244711D01*
X463499Y244700D01*
X463477Y244677D01*
X463421Y244632D01*
X407297Y188508D01*
X407228Y188413D01*
X407159Y188319D01*
X407157Y188313D01*
X407153Y188308D01*
X407119Y188197D01*
X407082Y188086D01*
X407082Y188079D01*
X407081Y188073D01*
X407084Y187957D01*
X407085Y187840D01*
X407087Y187832D01*
X407087Y187827D01*
X407093Y187810D01*
X407131Y187679D01*
X407336Y187185D01*
X407336Y183655D01*
X405984Y180392D01*
X403488Y177896D01*
X400225Y176544D01*
X396695Y176544D01*
X393432Y177896D01*
X390936Y180392D01*
X389584Y183655D01*
X389584Y187185D01*
X390936Y190448D01*
X393432Y192944D01*
X396695Y194296D01*
X400225Y194296D01*
X400719Y194091D01*
X400832Y194065D01*
X400946Y194036D01*
X400952Y194037D01*
X400958Y194035D01*
X401074Y194046D01*
X401191Y194055D01*
X401197Y194058D01*
X401203Y194058D01*
X401311Y194106D01*
X401417Y194152D01*
X401423Y194156D01*
X401428Y194158D01*
X401442Y194171D01*
X401548Y194257D01*
X457672Y250381D01*
X460276Y252985D01*
X472085Y252985D01*
X472156Y252996D01*
X472228Y252998D01*
X472277Y253016D01*
X472328Y253024D01*
X472391Y253058D01*
X472459Y253083D01*
X472499Y253115D01*
X472545Y253140D01*
X472595Y253192D01*
X472651Y253236D01*
X472679Y253280D01*
X472715Y253318D01*
X472745Y253383D01*
X472784Y253443D01*
X472796Y253494D01*
X472818Y253541D01*
X472826Y253612D01*
X472844Y253682D01*
X472840Y253734D01*
X472846Y253785D01*
X472830Y253856D01*
X472825Y253927D01*
X472804Y253975D01*
X472793Y254026D01*
X472756Y254087D01*
X472728Y254153D01*
X472684Y254209D01*
X472667Y254237D01*
X472655Y254247D01*
X472652Y254252D01*
X472644Y254259D01*
X472624Y254284D01*
X470316Y256592D01*
X468964Y259855D01*
X468964Y263385D01*
X470316Y266648D01*
X472624Y268956D01*
X472665Y269014D01*
X472715Y269066D01*
X472737Y269113D01*
X472767Y269155D01*
X472788Y269224D01*
X472818Y269289D01*
X472824Y269341D01*
X472839Y269391D01*
X472838Y269462D01*
X472846Y269533D01*
X472834Y269584D01*
X472833Y269636D01*
X472808Y269704D01*
X472793Y269774D01*
X472767Y269819D01*
X472749Y269867D01*
X472704Y269923D01*
X472667Y269985D01*
X472628Y270019D01*
X472595Y270059D01*
X472535Y270098D01*
X472480Y270145D01*
X472432Y270164D01*
X472388Y270192D01*
X472319Y270210D01*
X472252Y270237D01*
X472181Y270245D01*
X472150Y270253D01*
X472126Y270251D01*
X472085Y270255D01*
X438559Y270255D01*
X438469Y270241D01*
X438378Y270233D01*
X438348Y270221D01*
X438316Y270216D01*
X438236Y270173D01*
X438152Y270137D01*
X438120Y270111D01*
X438099Y270100D01*
X438077Y270077D01*
X438021Y270032D01*
X407297Y239308D01*
X407228Y239213D01*
X407159Y239119D01*
X407157Y239113D01*
X407153Y239108D01*
X407119Y238997D01*
X407082Y238886D01*
X407082Y238879D01*
X407081Y238873D01*
X407084Y238757D01*
X407085Y238640D01*
X407087Y238632D01*
X407087Y238627D01*
X407093Y238610D01*
X407131Y238479D01*
X407336Y237985D01*
X407336Y234455D01*
X405984Y231192D01*
X403488Y228696D01*
X400225Y227344D01*
X396695Y227344D01*
X393432Y228696D01*
X390936Y231192D01*
X389584Y234455D01*
X389584Y237985D01*
X390936Y241248D01*
X393432Y243744D01*
X396695Y245096D01*
X400225Y245096D01*
X400719Y244891D01*
X400832Y244865D01*
X400946Y244836D01*
X400952Y244837D01*
X400958Y244835D01*
X401074Y244846D01*
X401191Y244855D01*
X401197Y244858D01*
X401203Y244858D01*
X401311Y244906D01*
X401417Y244952D01*
X401423Y244956D01*
X401428Y244958D01*
X401442Y244971D01*
X401548Y245057D01*
X432272Y275781D01*
X434876Y278385D01*
X472085Y278385D01*
X472156Y278396D01*
X472228Y278398D01*
X472277Y278416D01*
X472328Y278424D01*
X472391Y278458D01*
X472459Y278483D01*
X472499Y278515D01*
X472545Y278540D01*
X472595Y278592D01*
X472651Y278636D01*
X472679Y278680D01*
X472715Y278718D01*
X472745Y278783D01*
X472784Y278843D01*
X472796Y278894D01*
X472818Y278941D01*
X472826Y279012D01*
X472844Y279082D01*
X472840Y279134D01*
X472846Y279185D01*
X472830Y279256D01*
X472825Y279327D01*
X472804Y279375D01*
X472793Y279426D01*
X472756Y279487D01*
X472728Y279553D01*
X472684Y279609D01*
X472667Y279637D01*
X472649Y279652D01*
X472624Y279684D01*
X470316Y281992D01*
X468964Y285255D01*
X468964Y288785D01*
X469169Y289279D01*
X469177Y289317D01*
X469186Y289334D01*
X469189Y289368D01*
X469195Y289392D01*
X469224Y289506D01*
X469223Y289512D01*
X469225Y289518D01*
X469214Y289634D01*
X469205Y289751D01*
X469202Y289757D01*
X469202Y289763D01*
X469154Y289871D01*
X469108Y289977D01*
X469104Y289983D01*
X469102Y289988D01*
X469089Y290002D01*
X469003Y290108D01*
X429577Y329534D01*
X426973Y332138D01*
X426973Y469933D01*
X426959Y470023D01*
X426951Y470114D01*
X426939Y470144D01*
X426934Y470176D01*
X426891Y470256D01*
X426855Y470340D01*
X426829Y470372D01*
X426818Y470393D01*
X426795Y470415D01*
X426774Y470441D01*
X426771Y470447D01*
X426768Y470450D01*
X426750Y470471D01*
X418114Y479107D01*
X418056Y479149D01*
X418004Y479199D01*
X417957Y479221D01*
X417915Y479251D01*
X417846Y479272D01*
X417781Y479302D01*
X417729Y479308D01*
X417679Y479323D01*
X417608Y479321D01*
X417537Y479329D01*
X417486Y479318D01*
X417434Y479317D01*
X417366Y479292D01*
X417296Y479277D01*
X417251Y479250D01*
X417203Y479232D01*
X417147Y479188D01*
X417085Y479151D01*
X417051Y479111D01*
X417011Y479079D01*
X416972Y479018D01*
X416925Y478964D01*
X416906Y478916D01*
X416878Y478872D01*
X416860Y478802D01*
X416833Y478736D01*
X416825Y478664D01*
X416817Y478633D01*
X416819Y478610D01*
X416815Y478569D01*
X416815Y411920D01*
X414211Y409316D01*
X402562Y397667D01*
X402535Y397630D01*
X402501Y397599D01*
X402464Y397531D01*
X402418Y397467D01*
X402405Y397424D01*
X402383Y397383D01*
X402369Y397307D01*
X402346Y397232D01*
X402347Y397187D01*
X402339Y397141D01*
X402350Y397064D01*
X402352Y396987D01*
X402368Y396943D01*
X402375Y396898D01*
X402410Y396829D01*
X402437Y396755D01*
X402466Y396720D01*
X402486Y396679D01*
X402542Y396624D01*
X402591Y396563D01*
X402629Y396539D01*
X402662Y396506D01*
X402782Y396441D01*
X402798Y396430D01*
X402802Y396429D01*
X402809Y396426D01*
X403488Y396144D01*
X405984Y393648D01*
X407336Y390385D01*
X407336Y386855D01*
X405984Y383592D01*
X403488Y381096D01*
X400225Y379744D01*
X396695Y379744D01*
X393432Y381096D01*
X390936Y383592D01*
X390731Y384085D01*
X390670Y384185D01*
X390610Y384285D01*
X390605Y384289D01*
X390602Y384294D01*
X390512Y384369D01*
X390423Y384445D01*
X390417Y384447D01*
X390412Y384451D01*
X390304Y384493D01*
X390195Y384537D01*
X390187Y384538D01*
X390183Y384539D01*
X390164Y384540D01*
X390028Y384555D01*
X371133Y384555D01*
X371043Y384541D01*
X370952Y384533D01*
X370922Y384521D01*
X370890Y384516D01*
X370810Y384473D01*
X370726Y384437D01*
X370694Y384411D01*
X370673Y384400D01*
X370651Y384377D01*
X370595Y384332D01*
X366238Y379975D01*
X366185Y379901D01*
X366125Y379832D01*
X366113Y379802D01*
X366094Y379775D01*
X366067Y379688D01*
X366033Y379604D01*
X366029Y379563D01*
X366022Y379540D01*
X366023Y379508D01*
X366015Y379437D01*
X366015Y347003D01*
X366029Y346913D01*
X366037Y346822D01*
X366049Y346792D01*
X366054Y346760D01*
X366097Y346680D01*
X366133Y346596D01*
X366159Y346564D01*
X366170Y346543D01*
X366193Y346521D01*
X366238Y346465D01*
X371095Y341608D01*
X371095Y334032D01*
X365738Y328675D01*
X358162Y328675D01*
X352805Y334032D01*
X352805Y341608D01*
X357662Y346465D01*
X357715Y346539D01*
X357775Y346608D01*
X357787Y346638D01*
X357806Y346665D01*
X357833Y346752D01*
X357867Y346836D01*
X357871Y346877D01*
X357878Y346900D01*
X357877Y346932D01*
X357885Y347003D01*
X357885Y379437D01*
X357871Y379527D01*
X357863Y379618D01*
X357851Y379648D01*
X357846Y379680D01*
X357803Y379760D01*
X357767Y379844D01*
X357741Y379876D01*
X357730Y379897D01*
X357707Y379919D01*
X357662Y379975D01*
X352805Y384832D01*
X352805Y392408D01*
X356353Y395956D01*
X356395Y396014D01*
X356444Y396066D01*
X356466Y396113D01*
X356497Y396155D01*
X356518Y396224D01*
X356548Y396289D01*
X356554Y396341D01*
X356569Y396391D01*
X356567Y396462D01*
X356575Y396533D01*
X356564Y396584D01*
X356563Y396636D01*
X356538Y396704D01*
X356523Y396774D01*
X356496Y396819D01*
X356478Y396867D01*
X356433Y396923D01*
X356397Y396985D01*
X356357Y397019D01*
X356325Y397059D01*
X356264Y397098D01*
X356210Y397145D01*
X356161Y397164D01*
X356118Y397192D01*
X356048Y397210D01*
X355982Y397237D01*
X355910Y397245D01*
X355879Y397253D01*
X355856Y397251D01*
X355815Y397255D01*
X325849Y397255D01*
X325759Y397241D01*
X325668Y397233D01*
X325638Y397221D01*
X325606Y397216D01*
X325526Y397173D01*
X325442Y397137D01*
X325410Y397111D01*
X325389Y397100D01*
X325367Y397077D01*
X325311Y397032D01*
X269718Y341439D01*
X269665Y341365D01*
X269605Y341296D01*
X269593Y341266D01*
X269574Y341240D01*
X269547Y341153D01*
X269513Y341068D01*
X269509Y341027D01*
X269502Y341005D01*
X269503Y340972D01*
X269495Y340901D01*
X269495Y334032D01*
X264638Y329175D01*
X264585Y329101D01*
X264525Y329032D01*
X264513Y329002D01*
X264494Y328975D01*
X264467Y328888D01*
X264433Y328804D01*
X264429Y328763D01*
X264422Y328740D01*
X264423Y328708D01*
X264415Y328637D01*
X264415Y296203D01*
X264429Y296113D01*
X264437Y296022D01*
X264449Y295992D01*
X264454Y295960D01*
X264497Y295880D01*
X264533Y295796D01*
X264559Y295764D01*
X264570Y295743D01*
X264593Y295721D01*
X264638Y295665D01*
X269495Y290808D01*
X269495Y283232D01*
X264138Y277875D01*
X256562Y277875D01*
X251205Y283232D01*
X251205Y290808D01*
X256062Y295665D01*
X256115Y295739D01*
X256175Y295808D01*
X256187Y295838D01*
X256206Y295865D01*
X256233Y295952D01*
X256267Y296036D01*
X256271Y296077D01*
X256278Y296100D01*
X256277Y296132D01*
X256285Y296203D01*
X256285Y328637D01*
X256271Y328727D01*
X256263Y328818D01*
X256251Y328848D01*
X256246Y328880D01*
X256203Y328960D01*
X256167Y329044D01*
X256141Y329076D01*
X256130Y329097D01*
X256107Y329119D01*
X256062Y329175D01*
X251205Y334032D01*
X251205Y341608D01*
X256562Y346965D01*
X263431Y346965D01*
X263521Y346979D01*
X263612Y346987D01*
X263642Y346999D01*
X263674Y347004D01*
X263754Y347047D01*
X263838Y347083D01*
X263870Y347109D01*
X263891Y347120D01*
X263913Y347143D01*
X263969Y347188D01*
X319562Y402781D01*
X322166Y405385D01*
X392705Y405385D01*
X392776Y405396D01*
X392848Y405398D01*
X392897Y405416D01*
X392948Y405424D01*
X393011Y405458D01*
X393079Y405483D01*
X393119Y405515D01*
X393165Y405540D01*
X393215Y405592D01*
X393271Y405636D01*
X393299Y405680D01*
X393335Y405718D01*
X393365Y405783D01*
X393404Y405843D01*
X393416Y405894D01*
X393438Y405941D01*
X393446Y406012D01*
X393464Y406082D01*
X393460Y406134D01*
X393466Y406185D01*
X393450Y406256D01*
X393445Y406327D01*
X393424Y406375D01*
X393413Y406426D01*
X393376Y406487D01*
X393348Y406553D01*
X393304Y406609D01*
X393287Y406637D01*
X393269Y406652D01*
X393244Y406684D01*
X390936Y408992D01*
X390731Y409485D01*
X390670Y409585D01*
X390610Y409685D01*
X390605Y409689D01*
X390602Y409694D01*
X390512Y409769D01*
X390423Y409845D01*
X390417Y409847D01*
X390412Y409851D01*
X390304Y409893D01*
X390195Y409937D01*
X390187Y409938D01*
X390183Y409939D01*
X390164Y409940D01*
X390028Y409955D01*
X287749Y409955D01*
X287659Y409941D01*
X287568Y409933D01*
X287538Y409921D01*
X287506Y409916D01*
X287426Y409873D01*
X287342Y409837D01*
X287310Y409811D01*
X287289Y409800D01*
X287267Y409777D01*
X287211Y409732D01*
X269718Y392239D01*
X269665Y392165D01*
X269605Y392096D01*
X269593Y392066D01*
X269574Y392040D01*
X269547Y391953D01*
X269513Y391868D01*
X269509Y391827D01*
X269502Y391804D01*
X269503Y391772D01*
X269495Y391701D01*
X269495Y384832D01*
X264138Y379475D01*
X256562Y379475D01*
X251705Y384332D01*
X251631Y384385D01*
X251562Y384445D01*
X251532Y384457D01*
X251505Y384476D01*
X251418Y384503D01*
X251334Y384537D01*
X251293Y384541D01*
X251270Y384548D01*
X251238Y384547D01*
X251167Y384555D01*
X244133Y384555D01*
X244043Y384541D01*
X243952Y384533D01*
X243922Y384521D01*
X243890Y384516D01*
X243810Y384473D01*
X243726Y384437D01*
X243694Y384411D01*
X243673Y384400D01*
X243651Y384377D01*
X243595Y384332D01*
X238738Y379475D01*
X231162Y379475D01*
X225805Y384832D01*
X225805Y392408D01*
X231162Y397765D01*
X238738Y397765D01*
X243595Y392908D01*
X243669Y392855D01*
X243738Y392795D01*
X243768Y392783D01*
X243795Y392764D01*
X243882Y392737D01*
X243966Y392703D01*
X244007Y392699D01*
X244030Y392692D01*
X244062Y392693D01*
X244133Y392685D01*
X251167Y392685D01*
X251257Y392699D01*
X251348Y392707D01*
X251378Y392719D01*
X251410Y392724D01*
X251490Y392767D01*
X251574Y392803D01*
X251606Y392829D01*
X251627Y392840D01*
X251649Y392863D01*
X251705Y392908D01*
X256562Y397765D01*
X263431Y397765D01*
X263521Y397779D01*
X263612Y397787D01*
X263642Y397799D01*
X263674Y397804D01*
X263754Y397847D01*
X263838Y397883D01*
X263870Y397909D01*
X263891Y397920D01*
X263913Y397943D01*
X263969Y397988D01*
X284066Y418085D01*
X390028Y418085D01*
X390143Y418104D01*
X390259Y418121D01*
X390265Y418123D01*
X390271Y418124D01*
X390373Y418179D01*
X390478Y418232D01*
X390483Y418237D01*
X390488Y418240D01*
X390568Y418324D01*
X390650Y418408D01*
X390654Y418414D01*
X390658Y418418D01*
X390665Y418435D01*
X390731Y418555D01*
X390936Y419048D01*
X393432Y421544D01*
X396695Y422896D01*
X400225Y422896D01*
X403488Y421544D01*
X405984Y419048D01*
X407221Y416063D01*
X407272Y415980D01*
X407318Y415894D01*
X407337Y415876D01*
X407350Y415854D01*
X407425Y415792D01*
X407496Y415725D01*
X407520Y415714D01*
X407540Y415697D01*
X407631Y415662D01*
X407719Y415621D01*
X407745Y415618D01*
X407769Y415609D01*
X407867Y415605D01*
X407963Y415594D01*
X407989Y415600D01*
X408015Y415599D01*
X408109Y415626D01*
X408204Y415646D01*
X408226Y415660D01*
X408251Y415667D01*
X408331Y415723D01*
X408415Y415773D01*
X408432Y415793D01*
X408453Y415807D01*
X408512Y415886D01*
X408575Y415960D01*
X408585Y415984D01*
X408600Y416005D01*
X408630Y416097D01*
X408667Y416188D01*
X408670Y416220D01*
X408676Y416239D01*
X408676Y416272D01*
X408685Y416354D01*
X408685Y437601D01*
X408677Y437650D01*
X408679Y437699D01*
X408658Y437770D01*
X408646Y437844D01*
X408623Y437887D01*
X408609Y437934D01*
X408565Y437996D01*
X408530Y438061D01*
X408495Y438095D01*
X408467Y438135D01*
X408406Y438179D01*
X408352Y438231D01*
X408308Y438251D01*
X408268Y438280D01*
X408197Y438303D01*
X408129Y438334D01*
X408080Y438340D01*
X408034Y438355D01*
X407959Y438353D01*
X407885Y438362D01*
X407837Y438351D01*
X407788Y438350D01*
X407717Y438325D01*
X407644Y438309D01*
X407602Y438284D01*
X407556Y438268D01*
X407497Y438221D01*
X407433Y438183D01*
X407401Y438146D01*
X407363Y438116D01*
X407322Y438053D01*
X407273Y437996D01*
X407255Y437951D01*
X407228Y437910D01*
X407190Y437790D01*
X407181Y437768D01*
X407180Y437759D01*
X407177Y437750D01*
X406995Y436831D01*
X406326Y435216D01*
X405354Y433762D01*
X404118Y432526D01*
X402664Y431554D01*
X401049Y430885D01*
X399983Y430673D01*
X399983Y438658D01*
X399980Y438678D01*
X399982Y438697D01*
X399960Y438799D01*
X399943Y438901D01*
X399934Y438918D01*
X399930Y438938D01*
X399877Y439027D01*
X399828Y439118D01*
X399814Y439132D01*
X399804Y439149D01*
X399725Y439216D01*
X399650Y439287D01*
X399632Y439296D01*
X399617Y439309D01*
X399521Y439347D01*
X399427Y439391D01*
X399407Y439393D01*
X399389Y439401D01*
X399222Y439419D01*
X398459Y439419D01*
X398459Y439421D01*
X399222Y439421D01*
X399242Y439424D01*
X399261Y439422D01*
X399363Y439444D01*
X399465Y439461D01*
X399482Y439470D01*
X399502Y439474D01*
X399591Y439527D01*
X399682Y439576D01*
X399696Y439590D01*
X399713Y439600D01*
X399780Y439679D01*
X399851Y439754D01*
X399860Y439772D01*
X399873Y439787D01*
X399912Y439883D01*
X399955Y439977D01*
X399957Y439997D01*
X399965Y440015D01*
X399983Y440182D01*
X399983Y448167D01*
X401049Y447955D01*
X402664Y447286D01*
X404118Y446314D01*
X405354Y445078D01*
X406326Y443624D01*
X406995Y442009D01*
X407177Y441090D01*
X407195Y441044D01*
X407203Y440996D01*
X407237Y440930D01*
X407264Y440860D01*
X407295Y440822D01*
X407318Y440779D01*
X407372Y440727D01*
X407419Y440669D01*
X407460Y440643D01*
X407496Y440609D01*
X407564Y440578D01*
X407627Y440538D01*
X407675Y440526D01*
X407719Y440506D01*
X407793Y440497D01*
X407866Y440480D01*
X407915Y440484D01*
X407963Y440478D01*
X408036Y440494D01*
X408111Y440501D01*
X408156Y440520D01*
X408204Y440531D01*
X408268Y440569D01*
X408337Y440599D01*
X408373Y440632D01*
X408415Y440657D01*
X408464Y440714D01*
X408519Y440764D01*
X408543Y440806D01*
X408575Y440844D01*
X408603Y440913D01*
X408639Y440978D01*
X408648Y441026D01*
X408667Y441072D01*
X408681Y441196D01*
X408685Y441220D01*
X408684Y441229D01*
X408685Y441239D01*
X408685Y462486D01*
X408670Y462582D01*
X408660Y462679D01*
X408650Y462703D01*
X408646Y462728D01*
X408600Y462814D01*
X408560Y462903D01*
X408543Y462923D01*
X408530Y462946D01*
X408460Y463013D01*
X408394Y463084D01*
X408371Y463097D01*
X408352Y463115D01*
X408264Y463156D01*
X408178Y463203D01*
X408153Y463208D01*
X408129Y463219D01*
X408032Y463229D01*
X407936Y463247D01*
X407910Y463243D01*
X407885Y463246D01*
X407789Y463225D01*
X407693Y463211D01*
X407670Y463199D01*
X407644Y463194D01*
X407561Y463144D01*
X407474Y463099D01*
X407455Y463081D01*
X407433Y463067D01*
X407370Y462993D01*
X407302Y462924D01*
X407286Y462895D01*
X407273Y462880D01*
X407261Y462850D01*
X407221Y462777D01*
X405984Y459792D01*
X403488Y457296D01*
X400225Y455944D01*
X396695Y455944D01*
X393432Y457296D01*
X391720Y459008D01*
X391646Y459061D01*
X391576Y459121D01*
X391546Y459133D01*
X391520Y459152D01*
X391433Y459179D01*
X391348Y459213D01*
X391307Y459217D01*
X391285Y459224D01*
X391253Y459223D01*
X391181Y459231D01*
X273293Y459231D01*
X273203Y459217D01*
X273112Y459209D01*
X273083Y459197D01*
X273051Y459192D01*
X272970Y459149D01*
X272886Y459113D01*
X272854Y459087D01*
X272833Y459076D01*
X272811Y459053D01*
X272755Y459008D01*
X202662Y388915D01*
X202609Y388841D01*
X202549Y388771D01*
X202537Y388741D01*
X202518Y388715D01*
X202491Y388628D01*
X202457Y388543D01*
X202453Y388502D01*
X202446Y388480D01*
X202447Y388448D01*
X202439Y388377D01*
X202439Y312663D01*
X202453Y312573D01*
X202461Y312482D01*
X202473Y312453D01*
X202478Y312421D01*
X202521Y312340D01*
X202557Y312256D01*
X202583Y312224D01*
X202594Y312203D01*
X202617Y312181D01*
X202662Y312125D01*
X298155Y216632D01*
X298229Y216579D01*
X298299Y216519D01*
X298329Y216507D01*
X298355Y216488D01*
X298442Y216461D01*
X298527Y216427D01*
X298568Y216423D01*
X298590Y216416D01*
X298622Y216417D01*
X298693Y216409D01*
X391181Y216409D01*
X391271Y216423D01*
X391362Y216431D01*
X391392Y216443D01*
X391424Y216448D01*
X391505Y216491D01*
X391589Y216527D01*
X391621Y216553D01*
X391641Y216564D01*
X391664Y216587D01*
X391720Y216632D01*
X393432Y218344D01*
X396695Y219696D01*
X400225Y219696D01*
X403488Y218344D01*
X405984Y215848D01*
X407336Y212585D01*
X407336Y209055D01*
X405984Y205792D01*
X403488Y203296D01*
X400225Y201944D01*
X396695Y201944D01*
X393432Y203296D01*
X391720Y205008D01*
X391646Y205061D01*
X391576Y205121D01*
X391546Y205133D01*
X391520Y205152D01*
X391433Y205179D01*
X391348Y205213D01*
X391307Y205217D01*
X391285Y205224D01*
X391253Y205223D01*
X391181Y205231D01*
X298693Y205231D01*
X298603Y205217D01*
X298512Y205209D01*
X298483Y205197D01*
X298451Y205192D01*
X298370Y205149D01*
X298286Y205113D01*
X298254Y205087D01*
X298233Y205076D01*
X298211Y205053D01*
X298155Y205008D01*
X242794Y149647D01*
X242741Y149573D01*
X242681Y149503D01*
X242669Y149473D01*
X242650Y149447D01*
X242623Y149360D01*
X242589Y149275D01*
X242585Y149234D01*
X242578Y149212D01*
X242579Y149180D01*
X242571Y149109D01*
X242571Y120131D01*
X242585Y120041D01*
X242593Y119950D01*
X242605Y119921D01*
X242610Y119889D01*
X242653Y119808D01*
X242689Y119724D01*
X242715Y119692D01*
X242726Y119671D01*
X242749Y119649D01*
X242794Y119593D01*
X298155Y64232D01*
X298229Y64179D01*
X298299Y64119D01*
X298329Y64107D01*
X298355Y64088D01*
X298442Y64061D01*
X298527Y64027D01*
X298568Y64023D01*
X298590Y64016D01*
X298622Y64017D01*
X298693Y64009D01*
X389128Y64009D01*
X389148Y64012D01*
X389167Y64010D01*
X389269Y64032D01*
X389371Y64048D01*
X389388Y64058D01*
X389408Y64062D01*
X389497Y64115D01*
X389588Y64164D01*
X389602Y64178D01*
X389619Y64188D01*
X389686Y64267D01*
X389758Y64342D01*
X389766Y64360D01*
X389779Y64375D01*
X389818Y64471D01*
X389861Y64565D01*
X389863Y64585D01*
X389871Y64603D01*
X389889Y64770D01*
X389889Y68061D01*
X391436Y71796D01*
X394294Y74654D01*
X398029Y76201D01*
X402071Y76201D01*
X405806Y74654D01*
X408664Y71796D01*
X410211Y68061D01*
X410211Y52023D01*
X410214Y52006D01*
X410212Y51990D01*
X410223Y51940D01*
X410224Y51881D01*
X410242Y51832D01*
X410250Y51780D01*
X410262Y51759D01*
X410264Y51750D01*
X410285Y51715D01*
X410309Y51650D01*
X410341Y51609D01*
X410366Y51563D01*
X410389Y51541D01*
X410390Y51539D01*
X410402Y51528D01*
X410418Y51514D01*
X410462Y51458D01*
X410506Y51430D01*
X410544Y51394D01*
X410609Y51364D01*
X410669Y51325D01*
X410720Y51312D01*
X410767Y51290D01*
X410838Y51282D01*
X410908Y51265D01*
X410960Y51269D01*
X411011Y51263D01*
X411082Y51278D01*
X411153Y51284D01*
X411201Y51304D01*
X411210Y51306D01*
X411221Y51308D01*
X411223Y51309D01*
X411252Y51315D01*
X411313Y51352D01*
X411379Y51380D01*
X411422Y51415D01*
X411438Y51423D01*
X411447Y51432D01*
X411463Y51441D01*
X411478Y51459D01*
X411510Y51485D01*
X415066Y55041D01*
X415119Y55115D01*
X415179Y55184D01*
X415191Y55214D01*
X415210Y55241D01*
X415237Y55328D01*
X415271Y55413D01*
X415275Y55453D01*
X415282Y55476D01*
X415281Y55508D01*
X415289Y55579D01*
X415289Y68061D01*
X416836Y71796D01*
X419694Y74654D01*
X423429Y76201D01*
X427471Y76201D01*
X431206Y74654D01*
X434064Y71796D01*
X435611Y68061D01*
X435611Y54323D01*
X435625Y54233D01*
X435633Y54142D01*
X435645Y54112D01*
X435650Y54080D01*
X435673Y54038D01*
X435674Y54033D01*
X435687Y54012D01*
X435693Y54000D01*
X435729Y53916D01*
X435755Y53883D01*
X435766Y53863D01*
X435789Y53841D01*
X435789Y53840D01*
X435800Y53822D01*
X435812Y53812D01*
X435834Y53785D01*
X439390Y50229D01*
X439448Y50187D01*
X439500Y50137D01*
X439547Y50115D01*
X439589Y50085D01*
X439658Y50064D01*
X439723Y50034D01*
X439775Y50028D01*
X439825Y50013D01*
X439896Y50015D01*
X439967Y50007D01*
X440018Y50018D01*
X440070Y50019D01*
X440138Y50044D01*
X440208Y50059D01*
X440253Y50086D01*
X440301Y50104D01*
X440357Y50148D01*
X440419Y50185D01*
X440453Y50225D01*
X440493Y50257D01*
X440532Y50318D01*
X440579Y50372D01*
X440598Y50420D01*
X440626Y50464D01*
X440644Y50534D01*
X440671Y50600D01*
X440679Y50672D01*
X440687Y50703D01*
X440685Y50726D01*
X440689Y50767D01*
X440689Y56897D01*
X449327Y56897D01*
X449327Y40607D01*
X449330Y40589D01*
X449328Y40571D01*
X449343Y40503D01*
X449349Y40426D01*
X449361Y40396D01*
X449367Y40364D01*
X449377Y40344D01*
X449380Y40331D01*
X449411Y40279D01*
X449445Y40200D01*
X449471Y40168D01*
X449482Y40147D01*
X449501Y40128D01*
X449506Y40120D01*
X449514Y40113D01*
X449550Y40069D01*
X452311Y37308D01*
X452385Y37255D01*
X452454Y37195D01*
X452484Y37183D01*
X452510Y37164D01*
X452597Y37137D01*
X452682Y37103D01*
X452723Y37099D01*
X452746Y37092D01*
X452778Y37093D01*
X452849Y37085D01*
X639351Y37085D01*
X639441Y37099D01*
X639532Y37107D01*
X639562Y37119D01*
X639594Y37124D01*
X639674Y37167D01*
X639758Y37203D01*
X639790Y37229D01*
X639811Y37240D01*
X639833Y37263D01*
X639889Y37308D01*
X733582Y131001D01*
X733635Y131075D01*
X733695Y131144D01*
X733707Y131174D01*
X733726Y131200D01*
X733753Y131287D01*
X733787Y131372D01*
X733791Y131413D01*
X733798Y131435D01*
X733797Y131468D01*
X733805Y131539D01*
X733805Y138408D01*
X738662Y143265D01*
X738715Y143339D01*
X738775Y143408D01*
X738787Y143438D01*
X738806Y143465D01*
X738833Y143552D01*
X738867Y143636D01*
X738871Y143677D01*
X738878Y143700D01*
X738877Y143732D01*
X738885Y143803D01*
X738885Y244534D01*
X738871Y244624D01*
X738863Y244715D01*
X738851Y244745D01*
X738846Y244777D01*
X738803Y244858D01*
X738767Y244941D01*
X738741Y244974D01*
X738730Y244994D01*
X738707Y245016D01*
X738662Y245072D01*
X715517Y268217D01*
X715517Y305823D01*
X738662Y328968D01*
X738715Y329042D01*
X738775Y329111D01*
X738787Y329141D01*
X738806Y329167D01*
X738833Y329254D01*
X738867Y329339D01*
X738871Y329380D01*
X738878Y329402D01*
X738877Y329435D01*
X738885Y329506D01*
X738885Y379437D01*
X738871Y379527D01*
X738863Y379618D01*
X738851Y379648D01*
X738846Y379680D01*
X738803Y379760D01*
X738767Y379844D01*
X738741Y379876D01*
X738730Y379897D01*
X738707Y379919D01*
X738662Y379975D01*
X733805Y384832D01*
X733805Y392408D01*
X739162Y397765D01*
X746738Y397765D01*
X752095Y392408D01*
X752095Y384832D01*
X747238Y379975D01*
X747185Y379901D01*
X747125Y379832D01*
X747113Y379802D01*
X747094Y379775D01*
X747067Y379688D01*
X747033Y379604D01*
X747029Y379563D01*
X747022Y379540D01*
X747023Y379508D01*
X747015Y379437D01*
X747015Y325823D01*
X723870Y302678D01*
X723817Y302604D01*
X723757Y302535D01*
X723745Y302505D01*
X723726Y302478D01*
X723699Y302391D01*
X723665Y302307D01*
X723661Y302266D01*
X723654Y302243D01*
X723655Y302211D01*
X723647Y302140D01*
X723647Y271900D01*
X723661Y271810D01*
X723669Y271719D01*
X723681Y271689D01*
X723686Y271657D01*
X723729Y271577D01*
X723765Y271493D01*
X723791Y271461D01*
X723802Y271440D01*
X723825Y271418D01*
X723870Y271362D01*
X747015Y248217D01*
X747015Y143803D01*
X747029Y143713D01*
X747037Y143622D01*
X747049Y143592D01*
X747054Y143560D01*
X747097Y143480D01*
X747133Y143396D01*
X747159Y143364D01*
X747170Y143343D01*
X747193Y143321D01*
X747238Y143265D01*
X752095Y138408D01*
X752095Y130832D01*
X746738Y125475D01*
X739869Y125475D01*
X739779Y125461D01*
X739688Y125453D01*
X739658Y125441D01*
X739626Y125436D01*
X739546Y125393D01*
X739462Y125357D01*
X739430Y125331D01*
X739409Y125320D01*
X739387Y125297D01*
X739331Y125252D01*
X645638Y31559D01*
X643034Y28955D01*
X449166Y28955D01*
X434109Y44013D01*
X434093Y44024D01*
X434080Y44040D01*
X433993Y44096D01*
X433909Y44156D01*
X433890Y44162D01*
X433873Y44173D01*
X433773Y44198D01*
X433674Y44229D01*
X433654Y44228D01*
X433635Y44233D01*
X433532Y44225D01*
X433428Y44222D01*
X433409Y44215D01*
X433390Y44214D01*
X433295Y44174D01*
X433197Y44138D01*
X433181Y44125D01*
X433163Y44118D01*
X433032Y44013D01*
X431206Y42186D01*
X427471Y40639D01*
X423429Y40639D01*
X419694Y42186D01*
X417240Y44641D01*
X417223Y44653D01*
X417211Y44668D01*
X417124Y44724D01*
X417040Y44784D01*
X417021Y44790D01*
X417004Y44801D01*
X416904Y44826D01*
X416805Y44857D01*
X416785Y44856D01*
X416766Y44861D01*
X416663Y44853D01*
X416559Y44850D01*
X416540Y44844D01*
X416520Y44842D01*
X416425Y44802D01*
X416328Y44766D01*
X416312Y44754D01*
X416294Y44746D01*
X416163Y44641D01*
X400223Y28701D01*
X286731Y28701D01*
G37*
%LPD*%
G36*
X175514Y616727D02*
X175514Y616727D01*
X175605Y616735D01*
X175635Y616747D01*
X175667Y616752D01*
X175747Y616795D01*
X175831Y616831D01*
X175863Y616857D01*
X175884Y616868D01*
X175906Y616891D01*
X175962Y616936D01*
X280905Y721879D01*
X282584Y723558D01*
X284638Y724409D01*
X391181Y724409D01*
X391271Y724423D01*
X391362Y724431D01*
X391392Y724443D01*
X391424Y724448D01*
X391505Y724491D01*
X391589Y724527D01*
X391621Y724553D01*
X391641Y724564D01*
X391664Y724587D01*
X391720Y724632D01*
X393432Y726344D01*
X396695Y727696D01*
X400225Y727696D01*
X403488Y726344D01*
X405984Y723848D01*
X407221Y720863D01*
X407272Y720780D01*
X407318Y720694D01*
X407337Y720676D01*
X407350Y720654D01*
X407425Y720592D01*
X407496Y720525D01*
X407520Y720514D01*
X407540Y720497D01*
X407631Y720462D01*
X407719Y720421D01*
X407745Y720418D01*
X407769Y720409D01*
X407867Y720405D01*
X407963Y720394D01*
X407989Y720400D01*
X408015Y720399D01*
X408109Y720426D01*
X408204Y720446D01*
X408226Y720460D01*
X408251Y720467D01*
X408331Y720523D01*
X408415Y720573D01*
X408432Y720593D01*
X408453Y720607D01*
X408512Y720686D01*
X408575Y720760D01*
X408585Y720784D01*
X408600Y720805D01*
X408630Y720897D01*
X408656Y720960D01*
X408657Y720963D01*
X408657Y720964D01*
X408667Y720988D01*
X408670Y721020D01*
X408676Y721039D01*
X408676Y721072D01*
X408685Y721154D01*
X408685Y729937D01*
X408671Y730028D01*
X408663Y730118D01*
X408651Y730148D01*
X408646Y730180D01*
X408603Y730261D01*
X408567Y730345D01*
X408541Y730377D01*
X408530Y730398D01*
X408507Y730420D01*
X408462Y730476D01*
X402967Y735971D01*
X402872Y736040D01*
X402778Y736109D01*
X402772Y736111D01*
X402767Y736115D01*
X402655Y736149D01*
X402544Y736185D01*
X402538Y736185D01*
X402532Y736187D01*
X402415Y736184D01*
X402298Y736183D01*
X402291Y736181D01*
X402286Y736181D01*
X402269Y736174D01*
X402137Y736136D01*
X400225Y735344D01*
X396695Y735344D01*
X393432Y736696D01*
X390936Y739192D01*
X389584Y742455D01*
X389584Y745985D01*
X390936Y749248D01*
X390943Y749255D01*
X390984Y749313D01*
X391034Y749365D01*
X391056Y749412D01*
X391086Y749454D01*
X391107Y749523D01*
X391137Y749588D01*
X391143Y749640D01*
X391158Y749689D01*
X391157Y749761D01*
X391165Y749832D01*
X391153Y749883D01*
X391152Y749935D01*
X391128Y750003D01*
X391112Y750073D01*
X391086Y750118D01*
X391068Y750166D01*
X391023Y750222D01*
X390986Y750284D01*
X390947Y750318D01*
X390914Y750358D01*
X390854Y750397D01*
X390799Y750444D01*
X390751Y750463D01*
X390707Y750491D01*
X390638Y750509D01*
X390571Y750536D01*
X390500Y750544D01*
X390469Y750552D01*
X390445Y750550D01*
X390404Y750554D01*
X246180Y750554D01*
X246090Y750540D01*
X245999Y750532D01*
X245969Y750520D01*
X245937Y750515D01*
X245857Y750472D01*
X245773Y750436D01*
X245741Y750410D01*
X245720Y750399D01*
X245698Y750376D01*
X245642Y750331D01*
X142645Y647334D01*
X142633Y647318D01*
X142618Y647306D01*
X142562Y647218D01*
X142501Y647135D01*
X142495Y647116D01*
X142485Y647099D01*
X142459Y646998D01*
X142429Y646900D01*
X142429Y646880D01*
X142425Y646860D01*
X142433Y646757D01*
X142435Y646654D01*
X142442Y646635D01*
X142444Y646615D01*
X142484Y646520D01*
X142495Y646491D01*
X142495Y638832D01*
X137138Y633475D01*
X129562Y633475D01*
X124205Y638832D01*
X124205Y646408D01*
X129562Y651765D01*
X135263Y651765D01*
X135353Y651779D01*
X135444Y651787D01*
X135474Y651799D01*
X135506Y651804D01*
X135587Y651847D01*
X135670Y651883D01*
X135703Y651909D01*
X135723Y651920D01*
X135745Y651943D01*
X135801Y651988D01*
X242497Y758684D01*
X396166Y758684D01*
X396256Y758698D01*
X396347Y758706D01*
X396377Y758718D01*
X396409Y758723D01*
X396490Y758766D01*
X396574Y758802D01*
X396606Y758828D01*
X396627Y758839D01*
X396649Y758862D01*
X396705Y758907D01*
X397243Y759445D01*
X397285Y759503D01*
X397334Y759555D01*
X397356Y759602D01*
X397386Y759644D01*
X397407Y759713D01*
X397438Y759778D01*
X397443Y759830D01*
X397459Y759880D01*
X397457Y759951D01*
X397465Y760022D01*
X397454Y760073D01*
X397452Y760125D01*
X397428Y760193D01*
X397412Y760263D01*
X397386Y760308D01*
X397368Y760356D01*
X397323Y760412D01*
X397286Y760474D01*
X397247Y760508D01*
X397214Y760548D01*
X397154Y760587D01*
X397099Y760634D01*
X397051Y760653D01*
X397007Y760681D01*
X396938Y760699D01*
X396871Y760726D01*
X396800Y760734D01*
X396769Y760742D01*
X396745Y760740D01*
X396705Y760744D01*
X396695Y760744D01*
X393432Y762096D01*
X390936Y764592D01*
X390731Y765085D01*
X390670Y765185D01*
X390610Y765285D01*
X390605Y765289D01*
X390602Y765294D01*
X390512Y765369D01*
X390423Y765445D01*
X390417Y765447D01*
X390412Y765451D01*
X390304Y765493D01*
X390195Y765537D01*
X390187Y765538D01*
X390183Y765539D01*
X390164Y765540D01*
X390028Y765555D01*
X284066Y765555D01*
X263969Y785652D01*
X263895Y785705D01*
X263826Y785765D01*
X263796Y785777D01*
X263770Y785796D01*
X263683Y785823D01*
X263598Y785857D01*
X263557Y785861D01*
X263534Y785868D01*
X263502Y785867D01*
X263431Y785875D01*
X256562Y785875D01*
X251705Y790732D01*
X251631Y790785D01*
X251562Y790845D01*
X251532Y790857D01*
X251505Y790876D01*
X251418Y790903D01*
X251334Y790937D01*
X251293Y790941D01*
X251270Y790948D01*
X251238Y790947D01*
X251167Y790955D01*
X244133Y790955D01*
X244043Y790941D01*
X243952Y790933D01*
X243922Y790921D01*
X243890Y790916D01*
X243810Y790873D01*
X243726Y790837D01*
X243694Y790811D01*
X243673Y790800D01*
X243651Y790777D01*
X243595Y790732D01*
X238738Y785875D01*
X231162Y785875D01*
X225805Y791232D01*
X225805Y798808D01*
X231162Y804165D01*
X238738Y804165D01*
X243595Y799308D01*
X243669Y799255D01*
X243738Y799195D01*
X243768Y799183D01*
X243795Y799164D01*
X243882Y799137D01*
X243966Y799103D01*
X244007Y799099D01*
X244030Y799092D01*
X244062Y799093D01*
X244133Y799085D01*
X251167Y799085D01*
X251257Y799099D01*
X251348Y799107D01*
X251378Y799119D01*
X251410Y799124D01*
X251490Y799167D01*
X251574Y799203D01*
X251606Y799229D01*
X251627Y799240D01*
X251649Y799263D01*
X251705Y799308D01*
X256562Y804165D01*
X264138Y804165D01*
X269495Y798808D01*
X269495Y791939D01*
X269496Y791930D01*
X269496Y791925D01*
X269501Y791902D01*
X269509Y791849D01*
X269517Y791758D01*
X269529Y791728D01*
X269534Y791696D01*
X269577Y791616D01*
X269613Y791532D01*
X269639Y791500D01*
X269650Y791479D01*
X269673Y791457D01*
X269718Y791401D01*
X287211Y773908D01*
X287285Y773855D01*
X287354Y773795D01*
X287384Y773783D01*
X287410Y773764D01*
X287497Y773737D01*
X287582Y773703D01*
X287623Y773699D01*
X287646Y773692D01*
X287678Y773693D01*
X287749Y773685D01*
X390028Y773685D01*
X390143Y773704D01*
X390259Y773721D01*
X390265Y773723D01*
X390271Y773724D01*
X390373Y773779D01*
X390478Y773832D01*
X390483Y773837D01*
X390488Y773840D01*
X390568Y773924D01*
X390650Y774008D01*
X390654Y774014D01*
X390658Y774018D01*
X390665Y774035D01*
X390731Y774155D01*
X390936Y774648D01*
X393432Y777144D01*
X396695Y778496D01*
X400225Y778496D01*
X403488Y777144D01*
X405984Y774648D01*
X407319Y771426D01*
X407343Y771387D01*
X407359Y771344D01*
X407408Y771283D01*
X407449Y771217D01*
X407484Y771188D01*
X407513Y771152D01*
X407578Y771110D01*
X407638Y771060D01*
X407681Y771044D01*
X407720Y771019D01*
X407795Y771000D01*
X407868Y770972D01*
X407914Y770970D01*
X407958Y770959D01*
X408036Y770965D01*
X408113Y770961D01*
X408158Y770974D01*
X408203Y770978D01*
X408275Y771008D01*
X408350Y771030D01*
X408387Y771056D01*
X408430Y771074D01*
X408536Y771160D01*
X408552Y771170D01*
X408555Y771174D01*
X408561Y771179D01*
X421162Y783781D01*
X421215Y783855D01*
X421275Y783924D01*
X421287Y783954D01*
X421306Y783980D01*
X421333Y784067D01*
X421367Y784152D01*
X421371Y784193D01*
X421378Y784216D01*
X421377Y784248D01*
X421385Y784319D01*
X421385Y841077D01*
X421367Y841191D01*
X421349Y841308D01*
X421347Y841314D01*
X421346Y841320D01*
X421291Y841422D01*
X421238Y841527D01*
X421233Y841532D01*
X421230Y841537D01*
X421146Y841617D01*
X421062Y841700D01*
X421056Y841703D01*
X421052Y841707D01*
X421035Y841714D01*
X420915Y841780D01*
X419694Y842286D01*
X416836Y845144D01*
X415289Y848879D01*
X415289Y861361D01*
X415275Y861451D01*
X415267Y861542D01*
X415255Y861571D01*
X415250Y861603D01*
X415207Y861684D01*
X415171Y861768D01*
X415145Y861800D01*
X415134Y861821D01*
X415111Y861843D01*
X415066Y861899D01*
X411510Y865455D01*
X411452Y865497D01*
X411400Y865546D01*
X411353Y865568D01*
X411311Y865599D01*
X411242Y865620D01*
X411177Y865650D01*
X411125Y865656D01*
X411075Y865671D01*
X411004Y865669D01*
X410933Y865677D01*
X410882Y865666D01*
X410830Y865665D01*
X410762Y865640D01*
X410692Y865625D01*
X410647Y865598D01*
X410599Y865580D01*
X410543Y865535D01*
X410481Y865499D01*
X410447Y865459D01*
X410407Y865426D01*
X410368Y865366D01*
X410321Y865312D01*
X410302Y865263D01*
X410274Y865220D01*
X410256Y865150D01*
X410229Y865083D01*
X410221Y865012D01*
X410213Y864981D01*
X410215Y864958D01*
X410211Y864917D01*
X410211Y848879D01*
X408664Y845144D01*
X405806Y842286D01*
X402071Y840739D01*
X398029Y840739D01*
X394294Y842286D01*
X391436Y845144D01*
X389889Y848879D01*
X389889Y852170D01*
X389886Y852190D01*
X389888Y852209D01*
X389866Y852311D01*
X389850Y852413D01*
X389840Y852430D01*
X389836Y852450D01*
X389783Y852539D01*
X389734Y852630D01*
X389720Y852644D01*
X389710Y852661D01*
X389631Y852728D01*
X389556Y852800D01*
X389538Y852808D01*
X389523Y852821D01*
X389427Y852860D01*
X389333Y852903D01*
X389313Y852905D01*
X389295Y852913D01*
X389128Y852931D01*
X178878Y852931D01*
X178787Y852917D01*
X178697Y852909D01*
X178667Y852897D01*
X178635Y852892D01*
X178554Y852849D01*
X178470Y852813D01*
X178438Y852787D01*
X178417Y852776D01*
X178395Y852753D01*
X178339Y852708D01*
X131095Y805464D01*
X131053Y805406D01*
X131004Y805354D01*
X130982Y805307D01*
X130952Y805265D01*
X130931Y805196D01*
X130900Y805131D01*
X130895Y805079D01*
X130879Y805029D01*
X130881Y804958D01*
X130873Y804887D01*
X130884Y804836D01*
X130886Y804784D01*
X130910Y804716D01*
X130926Y804646D01*
X130952Y804601D01*
X130970Y804553D01*
X131015Y804497D01*
X131052Y804435D01*
X131091Y804401D01*
X131124Y804361D01*
X131184Y804322D01*
X131239Y804275D01*
X131287Y804256D01*
X131331Y804228D01*
X131400Y804210D01*
X131467Y804183D01*
X131538Y804175D01*
X131569Y804167D01*
X131593Y804169D01*
X131634Y804165D01*
X131827Y804165D01*
X131827Y796543D01*
X124205Y796543D01*
X124205Y796736D01*
X124194Y796807D01*
X124192Y796879D01*
X124174Y796928D01*
X124166Y796979D01*
X124132Y797043D01*
X124107Y797110D01*
X124075Y797151D01*
X124050Y797197D01*
X123998Y797246D01*
X123954Y797302D01*
X123910Y797330D01*
X123872Y797366D01*
X123807Y797396D01*
X123747Y797435D01*
X123696Y797448D01*
X123649Y797470D01*
X123578Y797477D01*
X123508Y797495D01*
X123456Y797491D01*
X123405Y797497D01*
X123334Y797481D01*
X123263Y797476D01*
X123215Y797455D01*
X123164Y797444D01*
X123103Y797408D01*
X123037Y797380D01*
X122981Y797335D01*
X122953Y797318D01*
X122938Y797300D01*
X122906Y797275D01*
X47722Y722091D01*
X47669Y722017D01*
X47609Y721947D01*
X47597Y721917D01*
X47578Y721891D01*
X47551Y721804D01*
X47517Y721719D01*
X47513Y721678D01*
X47506Y721656D01*
X47507Y721624D01*
X47499Y721552D01*
X47499Y635090D01*
X47513Y635000D01*
X47521Y634909D01*
X47533Y634879D01*
X47538Y634848D01*
X47581Y634767D01*
X47617Y634683D01*
X47643Y634651D01*
X47654Y634630D01*
X47677Y634608D01*
X47722Y634552D01*
X65338Y616936D01*
X65412Y616883D01*
X65481Y616823D01*
X65512Y616811D01*
X65538Y616792D01*
X65625Y616765D01*
X65710Y616731D01*
X65750Y616727D01*
X65773Y616720D01*
X65805Y616721D01*
X65876Y616713D01*
X175424Y616713D01*
X175514Y616727D01*
G37*
%LPC*%
G36*
X60209Y441959D02*
X60209Y441959D01*
X56474Y443506D01*
X53616Y446364D01*
X52069Y450099D01*
X52069Y454141D01*
X53616Y457876D01*
X56474Y460734D01*
X60209Y462281D01*
X79491Y462281D01*
X83226Y460734D01*
X86084Y457876D01*
X86590Y456655D01*
X86651Y456555D01*
X86711Y456455D01*
X86716Y456451D01*
X86719Y456446D01*
X86810Y456371D01*
X86898Y456295D01*
X86904Y456293D01*
X86909Y456289D01*
X87017Y456247D01*
X87126Y456203D01*
X87134Y456202D01*
X87138Y456201D01*
X87157Y456200D01*
X87293Y456185D01*
X118651Y456185D01*
X118741Y456199D01*
X118832Y456207D01*
X118862Y456219D01*
X118894Y456224D01*
X118974Y456267D01*
X119058Y456303D01*
X119090Y456329D01*
X119111Y456340D01*
X119133Y456363D01*
X119189Y456408D01*
X220566Y557785D01*
X350934Y557785D01*
X358331Y550388D01*
X358405Y550335D01*
X358474Y550275D01*
X358504Y550263D01*
X358530Y550244D01*
X358617Y550217D01*
X358702Y550183D01*
X358743Y550179D01*
X358766Y550172D01*
X358798Y550173D01*
X358869Y550165D01*
X365738Y550165D01*
X370595Y545308D01*
X370669Y545255D01*
X370738Y545195D01*
X370768Y545183D01*
X370795Y545164D01*
X370882Y545137D01*
X370966Y545103D01*
X371007Y545099D01*
X371030Y545092D01*
X371062Y545093D01*
X371133Y545085D01*
X388823Y545085D01*
X388843Y545088D01*
X388862Y545086D01*
X388964Y545108D01*
X389066Y545124D01*
X389083Y545134D01*
X389103Y545138D01*
X389192Y545191D01*
X389283Y545240D01*
X389297Y545254D01*
X389314Y545264D01*
X389381Y545343D01*
X389453Y545418D01*
X389461Y545436D01*
X389474Y545451D01*
X389513Y545547D01*
X389556Y545641D01*
X389558Y545661D01*
X389566Y545679D01*
X389584Y545846D01*
X389584Y548407D01*
X391073Y549896D01*
X405847Y549896D01*
X407336Y548407D01*
X407336Y533633D01*
X405847Y532144D01*
X391073Y532144D01*
X389584Y533633D01*
X389584Y536194D01*
X389582Y536210D01*
X389583Y536224D01*
X389583Y536227D01*
X389583Y536233D01*
X389561Y536335D01*
X389545Y536437D01*
X389535Y536454D01*
X389531Y536474D01*
X389478Y536563D01*
X389429Y536654D01*
X389415Y536668D01*
X389405Y536685D01*
X389326Y536752D01*
X389251Y536824D01*
X389233Y536832D01*
X389218Y536845D01*
X389122Y536884D01*
X389028Y536927D01*
X389008Y536929D01*
X388990Y536937D01*
X388823Y536955D01*
X371133Y536955D01*
X371043Y536941D01*
X370952Y536933D01*
X370922Y536921D01*
X370890Y536916D01*
X370810Y536873D01*
X370726Y536837D01*
X370694Y536811D01*
X370673Y536800D01*
X370664Y536791D01*
X370663Y536791D01*
X370649Y536775D01*
X370595Y536732D01*
X365738Y531875D01*
X358162Y531875D01*
X352805Y537232D01*
X352805Y544101D01*
X352791Y544191D01*
X352783Y544282D01*
X352771Y544312D01*
X352766Y544344D01*
X352723Y544424D01*
X352687Y544508D01*
X352661Y544540D01*
X352650Y544561D01*
X352627Y544583D01*
X352582Y544639D01*
X347789Y549432D01*
X347715Y549485D01*
X347646Y549545D01*
X347616Y549557D01*
X347590Y549576D01*
X347503Y549603D01*
X347418Y549637D01*
X347377Y549641D01*
X347354Y549648D01*
X347322Y549647D01*
X347251Y549655D01*
X266485Y549655D01*
X266414Y549644D01*
X266343Y549642D01*
X266294Y549624D01*
X266242Y549616D01*
X266179Y549582D01*
X266112Y549557D01*
X266071Y549525D01*
X266025Y549500D01*
X265976Y549448D01*
X265920Y549404D01*
X265891Y549360D01*
X265856Y549322D01*
X265825Y549257D01*
X265787Y549197D01*
X265774Y549146D01*
X265752Y549099D01*
X265744Y549028D01*
X265727Y548958D01*
X265731Y548906D01*
X265725Y548855D01*
X265740Y548784D01*
X265746Y548713D01*
X265766Y548665D01*
X265777Y548614D01*
X265814Y548553D01*
X265842Y548487D01*
X265887Y548431D01*
X265903Y548403D01*
X265921Y548388D01*
X265947Y548356D01*
X269495Y544808D01*
X269495Y537939D01*
X269509Y537849D01*
X269517Y537758D01*
X269529Y537728D01*
X269534Y537696D01*
X269577Y537616D01*
X269613Y537532D01*
X269639Y537500D01*
X269650Y537479D01*
X269673Y537457D01*
X269718Y537401D01*
X287211Y519908D01*
X287285Y519855D01*
X287354Y519795D01*
X287384Y519783D01*
X287410Y519764D01*
X287497Y519737D01*
X287582Y519703D01*
X287623Y519699D01*
X287646Y519692D01*
X287678Y519693D01*
X287749Y519685D01*
X390028Y519685D01*
X390143Y519704D01*
X390259Y519721D01*
X390265Y519723D01*
X390271Y519724D01*
X390373Y519779D01*
X390478Y519832D01*
X390483Y519837D01*
X390488Y519840D01*
X390568Y519924D01*
X390650Y520008D01*
X390654Y520014D01*
X390658Y520018D01*
X390665Y520035D01*
X390731Y520155D01*
X390936Y520648D01*
X393432Y523144D01*
X396695Y524496D01*
X400225Y524496D01*
X403488Y523144D01*
X405984Y520648D01*
X407336Y517385D01*
X407336Y513855D01*
X405984Y510592D01*
X403488Y508096D01*
X400225Y506744D01*
X396695Y506744D01*
X393432Y508096D01*
X390936Y510592D01*
X390731Y511085D01*
X390670Y511185D01*
X390610Y511285D01*
X390605Y511289D01*
X390602Y511294D01*
X390512Y511369D01*
X390423Y511445D01*
X390417Y511447D01*
X390412Y511451D01*
X390304Y511493D01*
X390195Y511537D01*
X390187Y511538D01*
X390183Y511539D01*
X390164Y511540D01*
X390028Y511555D01*
X284066Y511555D01*
X263969Y531652D01*
X263895Y531705D01*
X263826Y531765D01*
X263796Y531777D01*
X263770Y531796D01*
X263683Y531823D01*
X263598Y531857D01*
X263557Y531861D01*
X263534Y531868D01*
X263502Y531867D01*
X263431Y531875D01*
X256562Y531875D01*
X251705Y536732D01*
X251631Y536785D01*
X251562Y536845D01*
X251532Y536857D01*
X251505Y536876D01*
X251418Y536903D01*
X251334Y536937D01*
X251293Y536941D01*
X251270Y536948D01*
X251238Y536947D01*
X251167Y536955D01*
X244133Y536955D01*
X244043Y536941D01*
X243952Y536933D01*
X243922Y536921D01*
X243890Y536916D01*
X243810Y536873D01*
X243726Y536837D01*
X243694Y536811D01*
X243673Y536800D01*
X243664Y536791D01*
X243663Y536791D01*
X243649Y536775D01*
X243595Y536732D01*
X238738Y531875D01*
X231162Y531875D01*
X225805Y537232D01*
X225805Y544808D01*
X229353Y548356D01*
X229395Y548414D01*
X229444Y548466D01*
X229466Y548513D01*
X229497Y548555D01*
X229518Y548624D01*
X229548Y548689D01*
X229554Y548741D01*
X229569Y548791D01*
X229567Y548862D01*
X229575Y548933D01*
X229564Y548984D01*
X229563Y549036D01*
X229538Y549104D01*
X229523Y549174D01*
X229496Y549219D01*
X229478Y549267D01*
X229433Y549323D01*
X229397Y549385D01*
X229357Y549419D01*
X229325Y549459D01*
X229264Y549498D01*
X229210Y549545D01*
X229161Y549564D01*
X229118Y549592D01*
X229048Y549610D01*
X228982Y549637D01*
X228910Y549645D01*
X228879Y549653D01*
X228856Y549651D01*
X228815Y549655D01*
X224249Y549655D01*
X224159Y549641D01*
X224068Y549633D01*
X224038Y549621D01*
X224006Y549616D01*
X223926Y549573D01*
X223842Y549537D01*
X223810Y549511D01*
X223789Y549500D01*
X223767Y549477D01*
X223711Y549432D01*
X122334Y448055D01*
X87293Y448055D01*
X87178Y448036D01*
X87062Y448019D01*
X87056Y448017D01*
X87050Y448016D01*
X86948Y447961D01*
X86843Y447908D01*
X86838Y447903D01*
X86833Y447900D01*
X86753Y447816D01*
X86670Y447732D01*
X86667Y447726D01*
X86663Y447722D01*
X86656Y447705D01*
X86590Y447585D01*
X86084Y446364D01*
X83226Y443506D01*
X79491Y441959D01*
X60209Y441959D01*
G37*
%LPD*%
%LPC*%
G36*
X68435Y622807D02*
X68435Y622807D01*
X65821Y623890D01*
X63820Y625891D01*
X62737Y628505D01*
X62737Y631335D01*
X63820Y633949D01*
X65562Y635691D01*
X65615Y635765D01*
X65675Y635835D01*
X65687Y635865D01*
X65706Y635891D01*
X65733Y635978D01*
X65767Y636063D01*
X65771Y636104D01*
X65778Y636126D01*
X65777Y636158D01*
X65785Y636230D01*
X65785Y657004D01*
X233266Y824485D01*
X338234Y824485D01*
X358331Y804388D01*
X358405Y804335D01*
X358474Y804275D01*
X358504Y804263D01*
X358530Y804244D01*
X358617Y804217D01*
X358702Y804183D01*
X358743Y804179D01*
X358766Y804172D01*
X358798Y804173D01*
X358869Y804165D01*
X365738Y804165D01*
X370595Y799308D01*
X370669Y799255D01*
X370738Y799195D01*
X370768Y799183D01*
X370795Y799164D01*
X370882Y799137D01*
X370966Y799103D01*
X371007Y799099D01*
X371030Y799092D01*
X371062Y799093D01*
X371133Y799085D01*
X388823Y799085D01*
X388843Y799088D01*
X388862Y799086D01*
X388964Y799108D01*
X389066Y799124D01*
X389083Y799134D01*
X389103Y799138D01*
X389192Y799191D01*
X389283Y799240D01*
X389297Y799254D01*
X389314Y799264D01*
X389381Y799343D01*
X389453Y799418D01*
X389461Y799436D01*
X389474Y799451D01*
X389513Y799547D01*
X389556Y799641D01*
X389558Y799661D01*
X389566Y799679D01*
X389584Y799846D01*
X389584Y802407D01*
X391073Y803896D01*
X405847Y803896D01*
X407336Y802407D01*
X407336Y787633D01*
X405847Y786144D01*
X391073Y786144D01*
X389584Y787633D01*
X389584Y790194D01*
X389581Y790214D01*
X389583Y790233D01*
X389561Y790335D01*
X389545Y790437D01*
X389535Y790454D01*
X389531Y790474D01*
X389478Y790563D01*
X389429Y790654D01*
X389415Y790668D01*
X389405Y790685D01*
X389326Y790752D01*
X389251Y790824D01*
X389233Y790832D01*
X389218Y790845D01*
X389122Y790884D01*
X389028Y790927D01*
X389008Y790929D01*
X388990Y790937D01*
X388823Y790955D01*
X371133Y790955D01*
X371043Y790941D01*
X370952Y790933D01*
X370922Y790921D01*
X370890Y790916D01*
X370810Y790873D01*
X370726Y790837D01*
X370694Y790811D01*
X370673Y790800D01*
X370651Y790777D01*
X370595Y790732D01*
X365738Y785875D01*
X358162Y785875D01*
X352805Y791232D01*
X352805Y798101D01*
X352791Y798191D01*
X352783Y798282D01*
X352771Y798312D01*
X352766Y798344D01*
X352723Y798424D01*
X352687Y798508D01*
X352661Y798540D01*
X352650Y798561D01*
X352627Y798583D01*
X352582Y798639D01*
X335089Y816132D01*
X335015Y816185D01*
X334946Y816245D01*
X334916Y816257D01*
X334890Y816276D01*
X334803Y816303D01*
X334718Y816337D01*
X334677Y816341D01*
X334654Y816348D01*
X334622Y816347D01*
X334551Y816355D01*
X236949Y816355D01*
X236859Y816341D01*
X236768Y816333D01*
X236738Y816321D01*
X236706Y816316D01*
X236626Y816273D01*
X236542Y816237D01*
X236510Y816211D01*
X236489Y816200D01*
X236467Y816177D01*
X236411Y816132D01*
X74138Y653859D01*
X74085Y653785D01*
X74025Y653716D01*
X74013Y653686D01*
X73994Y653660D01*
X73967Y653573D01*
X73933Y653488D01*
X73929Y653447D01*
X73922Y653424D01*
X73923Y653392D01*
X73915Y653321D01*
X73915Y636230D01*
X73929Y636139D01*
X73937Y636049D01*
X73949Y636019D01*
X73954Y635987D01*
X73997Y635906D01*
X74033Y635822D01*
X74059Y635790D01*
X74070Y635769D01*
X74093Y635747D01*
X74138Y635691D01*
X75880Y633949D01*
X76963Y631335D01*
X76963Y628505D01*
X75880Y625891D01*
X73879Y623890D01*
X71265Y622807D01*
X68435Y622807D01*
G37*
%LPD*%
%LPC*%
G36*
X60072Y831214D02*
X60072Y831214D01*
X53451Y832989D01*
X47514Y836416D01*
X42666Y841264D01*
X39239Y847201D01*
X37464Y853822D01*
X37464Y860678D01*
X39239Y867299D01*
X42666Y873236D01*
X47514Y878084D01*
X53451Y881511D01*
X60072Y883286D01*
X66928Y883286D01*
X73549Y881511D01*
X79486Y878084D01*
X84334Y873236D01*
X87761Y867299D01*
X89536Y860678D01*
X89536Y853822D01*
X87761Y847201D01*
X84334Y841264D01*
X79486Y836416D01*
X73549Y832989D01*
X66928Y831214D01*
X60072Y831214D01*
G37*
%LPD*%
%LPC*%
G36*
X806197Y831214D02*
X806197Y831214D01*
X799576Y832989D01*
X793639Y836416D01*
X788791Y841264D01*
X785364Y847201D01*
X783589Y853822D01*
X783589Y860678D01*
X785364Y867299D01*
X788791Y873236D01*
X793639Y878084D01*
X799576Y881511D01*
X806197Y883286D01*
X813053Y883286D01*
X819674Y881511D01*
X825611Y878084D01*
X830459Y873236D01*
X833886Y867299D01*
X835661Y860678D01*
X835661Y853822D01*
X833886Y847201D01*
X830459Y841264D01*
X825611Y836416D01*
X819674Y832989D01*
X813053Y831214D01*
X806197Y831214D01*
G37*
%LPD*%
%LPC*%
G36*
X806197Y37464D02*
X806197Y37464D01*
X799576Y39239D01*
X793639Y42666D01*
X788791Y47514D01*
X785364Y53451D01*
X783589Y60072D01*
X783589Y66928D01*
X785364Y73549D01*
X788791Y79486D01*
X793639Y84334D01*
X799576Y87761D01*
X806197Y89536D01*
X813053Y89536D01*
X819674Y87761D01*
X825611Y84334D01*
X830459Y79486D01*
X833886Y73549D01*
X835661Y66928D01*
X835661Y60072D01*
X833886Y53451D01*
X830459Y47514D01*
X825611Y42666D01*
X819674Y39239D01*
X813053Y37464D01*
X806197Y37464D01*
G37*
%LPD*%
%LPC*%
G36*
X60072Y37464D02*
X60072Y37464D01*
X53451Y39239D01*
X47514Y42666D01*
X42666Y47514D01*
X39239Y53451D01*
X37464Y60072D01*
X37464Y66928D01*
X39239Y73549D01*
X42666Y79486D01*
X47514Y84334D01*
X53451Y87761D01*
X60072Y89536D01*
X66928Y89536D01*
X73549Y87761D01*
X79486Y84334D01*
X84334Y79486D01*
X87761Y73549D01*
X89536Y66928D01*
X89536Y60072D01*
X87761Y53451D01*
X84334Y47514D01*
X79486Y42666D01*
X73549Y39239D01*
X66928Y37464D01*
X60072Y37464D01*
G37*
%LPD*%
%LPC*%
G36*
X690735Y381507D02*
X690735Y381507D01*
X688121Y382590D01*
X686120Y384591D01*
X685037Y387205D01*
X685037Y390035D01*
X686120Y392649D01*
X688121Y394650D01*
X690735Y395733D01*
X693199Y395733D01*
X693289Y395747D01*
X693380Y395755D01*
X693410Y395767D01*
X693442Y395772D01*
X693522Y395815D01*
X693606Y395851D01*
X693638Y395877D01*
X693659Y395888D01*
X693681Y395911D01*
X693737Y395956D01*
X753966Y456185D01*
X789007Y456185D01*
X789122Y456204D01*
X789238Y456221D01*
X789244Y456223D01*
X789250Y456224D01*
X789352Y456279D01*
X789457Y456332D01*
X789462Y456337D01*
X789467Y456340D01*
X789547Y456424D01*
X789630Y456508D01*
X789633Y456514D01*
X789637Y456518D01*
X789644Y456535D01*
X789710Y456655D01*
X790216Y457876D01*
X793074Y460734D01*
X796809Y462281D01*
X816091Y462281D01*
X819826Y460734D01*
X822684Y457876D01*
X824231Y454141D01*
X824231Y450099D01*
X822684Y446364D01*
X819826Y443506D01*
X816091Y441959D01*
X796809Y441959D01*
X793074Y443506D01*
X790216Y446364D01*
X789710Y447585D01*
X789649Y447685D01*
X789589Y447785D01*
X789584Y447789D01*
X789581Y447794D01*
X789491Y447869D01*
X789402Y447945D01*
X789396Y447947D01*
X789391Y447951D01*
X789283Y447993D01*
X789174Y448037D01*
X789166Y448038D01*
X789162Y448039D01*
X789143Y448040D01*
X789007Y448055D01*
X757649Y448055D01*
X757559Y448041D01*
X757468Y448033D01*
X757438Y448021D01*
X757406Y448016D01*
X757326Y447973D01*
X757242Y447937D01*
X757210Y447911D01*
X757189Y447900D01*
X757167Y447877D01*
X757111Y447832D01*
X699486Y390207D01*
X699433Y390133D01*
X699373Y390064D01*
X699361Y390034D01*
X699342Y390008D01*
X699315Y389921D01*
X699281Y389836D01*
X699277Y389795D01*
X699270Y389772D01*
X699271Y389740D01*
X699263Y389669D01*
X699263Y387205D01*
X698180Y384591D01*
X696179Y382590D01*
X693565Y381507D01*
X690735Y381507D01*
G37*
%LPD*%
%LPC*%
G36*
X703435Y368807D02*
X703435Y368807D01*
X700821Y369890D01*
X698820Y371891D01*
X697737Y374505D01*
X697737Y377335D01*
X698820Y379949D01*
X700821Y381950D01*
X703435Y383033D01*
X705899Y383033D01*
X705989Y383047D01*
X706080Y383055D01*
X706110Y383067D01*
X706142Y383072D01*
X706222Y383115D01*
X706306Y383151D01*
X706338Y383177D01*
X706359Y383188D01*
X706381Y383211D01*
X706437Y383256D01*
X753966Y430785D01*
X789007Y430785D01*
X789122Y430804D01*
X789238Y430821D01*
X789244Y430823D01*
X789250Y430824D01*
X789352Y430879D01*
X789457Y430932D01*
X789462Y430937D01*
X789467Y430940D01*
X789547Y431024D01*
X789630Y431108D01*
X789633Y431114D01*
X789637Y431118D01*
X789644Y431135D01*
X789710Y431255D01*
X790216Y432476D01*
X793074Y435334D01*
X796809Y436881D01*
X816091Y436881D01*
X819826Y435334D01*
X822684Y432476D01*
X824231Y428741D01*
X824231Y424699D01*
X822684Y420964D01*
X819826Y418106D01*
X816091Y416559D01*
X796809Y416559D01*
X793074Y418106D01*
X790216Y420964D01*
X789710Y422185D01*
X789649Y422285D01*
X789589Y422385D01*
X789584Y422389D01*
X789581Y422394D01*
X789491Y422469D01*
X789402Y422545D01*
X789396Y422547D01*
X789391Y422551D01*
X789283Y422593D01*
X789174Y422637D01*
X789166Y422638D01*
X789162Y422639D01*
X789143Y422640D01*
X789007Y422655D01*
X757649Y422655D01*
X757559Y422641D01*
X757468Y422633D01*
X757438Y422621D01*
X757406Y422616D01*
X757326Y422573D01*
X757242Y422537D01*
X757210Y422511D01*
X757189Y422500D01*
X757167Y422477D01*
X757111Y422432D01*
X712186Y377507D01*
X712133Y377433D01*
X712073Y377364D01*
X712061Y377334D01*
X712042Y377308D01*
X712015Y377221D01*
X711981Y377136D01*
X711977Y377095D01*
X711970Y377072D01*
X711971Y377040D01*
X711963Y376969D01*
X711963Y374505D01*
X710880Y371891D01*
X708879Y369890D01*
X706265Y368807D01*
X703435Y368807D01*
G37*
%LPD*%
%LPC*%
G36*
X60209Y492759D02*
X60209Y492759D01*
X56474Y494306D01*
X53616Y497164D01*
X52069Y500899D01*
X52069Y504941D01*
X53616Y508676D01*
X56474Y511534D01*
X60209Y513081D01*
X65024Y513081D01*
X65044Y513084D01*
X65063Y513082D01*
X65165Y513104D01*
X65267Y513120D01*
X65284Y513130D01*
X65304Y513134D01*
X65393Y513187D01*
X65484Y513236D01*
X65498Y513250D01*
X65515Y513260D01*
X65582Y513339D01*
X65654Y513414D01*
X65662Y513432D01*
X65675Y513447D01*
X65714Y513543D01*
X65757Y513637D01*
X65759Y513657D01*
X65767Y513675D01*
X65785Y513842D01*
X65785Y585510D01*
X65771Y585601D01*
X65763Y585691D01*
X65751Y585721D01*
X65746Y585753D01*
X65703Y585834D01*
X65667Y585918D01*
X65641Y585950D01*
X65630Y585971D01*
X65607Y585993D01*
X65562Y586049D01*
X63820Y587791D01*
X62737Y590405D01*
X62737Y593235D01*
X63820Y595849D01*
X65821Y597850D01*
X68435Y598933D01*
X71265Y598933D01*
X73879Y597850D01*
X75880Y595849D01*
X76963Y593235D01*
X76963Y590405D01*
X75880Y587791D01*
X74138Y586049D01*
X74085Y585975D01*
X74025Y585905D01*
X74013Y585875D01*
X73994Y585849D01*
X73967Y585762D01*
X73933Y585677D01*
X73929Y585636D01*
X73922Y585614D01*
X73923Y585582D01*
X73915Y585510D01*
X73915Y513842D01*
X73918Y513822D01*
X73916Y513803D01*
X73938Y513701D01*
X73954Y513599D01*
X73964Y513582D01*
X73968Y513562D01*
X74021Y513473D01*
X74070Y513382D01*
X74084Y513368D01*
X74094Y513351D01*
X74173Y513284D01*
X74248Y513212D01*
X74266Y513204D01*
X74281Y513191D01*
X74377Y513152D01*
X74471Y513109D01*
X74491Y513107D01*
X74509Y513099D01*
X74676Y513081D01*
X79491Y513081D01*
X83226Y511534D01*
X86084Y508676D01*
X87631Y504941D01*
X87631Y500899D01*
X86084Y497164D01*
X83226Y494306D01*
X79491Y492759D01*
X60209Y492759D01*
G37*
%LPD*%
%LPC*%
G36*
X476075Y735344D02*
X476075Y735344D01*
X472812Y736696D01*
X470316Y739192D01*
X468964Y742455D01*
X468964Y745985D01*
X470316Y749248D01*
X472812Y751744D01*
X476075Y753096D01*
X479605Y753096D01*
X482868Y751744D01*
X485364Y749248D01*
X485569Y748755D01*
X485630Y748655D01*
X485690Y748555D01*
X485695Y748551D01*
X485698Y748546D01*
X485788Y748471D01*
X485877Y748395D01*
X485883Y748393D01*
X485888Y748389D01*
X485996Y748347D01*
X486105Y748303D01*
X486113Y748302D01*
X486117Y748301D01*
X486136Y748300D01*
X486272Y748285D01*
X596940Y748285D01*
X597031Y748299D01*
X597121Y748307D01*
X597151Y748319D01*
X597183Y748324D01*
X597264Y748367D01*
X597348Y748403D01*
X597380Y748429D01*
X597401Y748440D01*
X597423Y748463D01*
X597479Y748508D01*
X599221Y750250D01*
X601835Y751333D01*
X604665Y751333D01*
X607279Y750250D01*
X609280Y748249D01*
X610363Y745635D01*
X610363Y742805D01*
X609280Y740191D01*
X607279Y738190D01*
X604665Y737107D01*
X601835Y737107D01*
X599221Y738190D01*
X597479Y739932D01*
X597405Y739985D01*
X597335Y740045D01*
X597305Y740057D01*
X597279Y740076D01*
X597192Y740103D01*
X597107Y740137D01*
X597066Y740141D01*
X597044Y740148D01*
X597012Y740147D01*
X596940Y740155D01*
X486272Y740155D01*
X486157Y740136D01*
X486041Y740119D01*
X486035Y740117D01*
X486029Y740116D01*
X485927Y740061D01*
X485822Y740008D01*
X485817Y740003D01*
X485812Y740000D01*
X485732Y739916D01*
X485650Y739832D01*
X485646Y739826D01*
X485642Y739822D01*
X485635Y739805D01*
X485569Y739685D01*
X485364Y739192D01*
X482868Y736696D01*
X479605Y735344D01*
X476075Y735344D01*
G37*
%LPD*%
%LPC*%
G36*
X396695Y252744D02*
X396695Y252744D01*
X393432Y254096D01*
X390936Y256592D01*
X389584Y259855D01*
X389584Y263385D01*
X390936Y266648D01*
X393432Y269144D01*
X393925Y269349D01*
X394025Y269410D01*
X394125Y269470D01*
X394129Y269475D01*
X394134Y269478D01*
X394209Y269568D01*
X394285Y269657D01*
X394287Y269663D01*
X394291Y269668D01*
X394333Y269776D01*
X394377Y269885D01*
X394378Y269893D01*
X394379Y269897D01*
X394380Y269916D01*
X394395Y270052D01*
X394395Y277383D01*
X394394Y277393D01*
X394394Y277399D01*
X394393Y277407D01*
X394394Y277422D01*
X394372Y277524D01*
X394356Y277626D01*
X394346Y277643D01*
X394342Y277663D01*
X394289Y277752D01*
X394240Y277843D01*
X394226Y277857D01*
X394216Y277874D01*
X394137Y277941D01*
X394062Y278013D01*
X394044Y278021D01*
X394029Y278034D01*
X393933Y278073D01*
X393839Y278116D01*
X393819Y278118D01*
X393801Y278126D01*
X393634Y278144D01*
X391073Y278144D01*
X389584Y279633D01*
X389584Y282194D01*
X389581Y282214D01*
X389583Y282233D01*
X389561Y282335D01*
X389545Y282437D01*
X389535Y282454D01*
X389531Y282474D01*
X389478Y282563D01*
X389429Y282654D01*
X389415Y282668D01*
X389405Y282685D01*
X389326Y282752D01*
X389251Y282824D01*
X389233Y282832D01*
X389218Y282845D01*
X389122Y282884D01*
X389028Y282927D01*
X389008Y282929D01*
X388990Y282937D01*
X388823Y282955D01*
X371133Y282955D01*
X371043Y282941D01*
X370952Y282933D01*
X370922Y282921D01*
X370890Y282916D01*
X370810Y282873D01*
X370726Y282837D01*
X370694Y282811D01*
X370673Y282800D01*
X370651Y282777D01*
X370595Y282732D01*
X365738Y277875D01*
X358162Y277875D01*
X352805Y283232D01*
X352805Y290808D01*
X358162Y296165D01*
X365738Y296165D01*
X370595Y291308D01*
X370669Y291255D01*
X370738Y291195D01*
X370768Y291183D01*
X370795Y291164D01*
X370882Y291137D01*
X370966Y291103D01*
X371007Y291099D01*
X371030Y291092D01*
X371062Y291093D01*
X371133Y291085D01*
X388823Y291085D01*
X388843Y291088D01*
X388862Y291086D01*
X388964Y291108D01*
X389066Y291124D01*
X389083Y291134D01*
X389103Y291138D01*
X389192Y291191D01*
X389283Y291240D01*
X389297Y291254D01*
X389314Y291264D01*
X389381Y291343D01*
X389453Y291418D01*
X389461Y291436D01*
X389474Y291451D01*
X389513Y291547D01*
X389556Y291641D01*
X389558Y291661D01*
X389566Y291679D01*
X389584Y291846D01*
X389584Y294407D01*
X391073Y295896D01*
X405847Y295896D01*
X407336Y294407D01*
X407336Y279633D01*
X405847Y278144D01*
X403286Y278144D01*
X403266Y278141D01*
X403247Y278143D01*
X403145Y278121D01*
X403043Y278105D01*
X403026Y278095D01*
X403006Y278091D01*
X402917Y278038D01*
X402826Y277989D01*
X402812Y277975D01*
X402795Y277965D01*
X402728Y277886D01*
X402656Y277811D01*
X402648Y277793D01*
X402635Y277778D01*
X402596Y277682D01*
X402553Y277588D01*
X402551Y277568D01*
X402543Y277550D01*
X402525Y277383D01*
X402525Y270052D01*
X402544Y269937D01*
X402561Y269821D01*
X402563Y269815D01*
X402564Y269809D01*
X402619Y269707D01*
X402672Y269602D01*
X402677Y269597D01*
X402680Y269592D01*
X402764Y269512D01*
X402848Y269430D01*
X402854Y269426D01*
X402858Y269422D01*
X402875Y269415D01*
X402995Y269349D01*
X403488Y269144D01*
X405984Y266648D01*
X407336Y263385D01*
X407336Y259855D01*
X405984Y256592D01*
X403488Y254096D01*
X400225Y252744D01*
X396695Y252744D01*
G37*
%LPD*%
%LPC*%
G36*
X358162Y125475D02*
X358162Y125475D01*
X352805Y130832D01*
X352805Y138408D01*
X358162Y143765D01*
X365738Y143765D01*
X370595Y138908D01*
X370669Y138855D01*
X370738Y138795D01*
X370768Y138783D01*
X370795Y138764D01*
X370882Y138737D01*
X370966Y138703D01*
X371007Y138699D01*
X371030Y138692D01*
X371062Y138693D01*
X371133Y138685D01*
X390028Y138685D01*
X390143Y138704D01*
X390259Y138721D01*
X390265Y138723D01*
X390271Y138724D01*
X390373Y138779D01*
X390478Y138832D01*
X390483Y138837D01*
X390488Y138840D01*
X390568Y138924D01*
X390650Y139008D01*
X390654Y139014D01*
X390658Y139018D01*
X390665Y139035D01*
X390731Y139155D01*
X390936Y139648D01*
X393432Y142144D01*
X393925Y142349D01*
X394025Y142410D01*
X394125Y142470D01*
X394129Y142475D01*
X394134Y142478D01*
X394209Y142568D01*
X394285Y142657D01*
X394287Y142663D01*
X394291Y142668D01*
X394333Y142776D01*
X394377Y142885D01*
X394378Y142893D01*
X394379Y142897D01*
X394380Y142916D01*
X394395Y143052D01*
X394395Y151588D01*
X394376Y151703D01*
X394359Y151819D01*
X394357Y151825D01*
X394356Y151831D01*
X394301Y151933D01*
X394248Y152038D01*
X394243Y152043D01*
X394240Y152048D01*
X394156Y152128D01*
X394072Y152210D01*
X394066Y152214D01*
X394062Y152218D01*
X394045Y152225D01*
X393925Y152291D01*
X393432Y152496D01*
X390936Y154992D01*
X389584Y158255D01*
X389584Y161785D01*
X390936Y165048D01*
X393432Y167544D01*
X396695Y168896D01*
X400225Y168896D01*
X403488Y167544D01*
X405984Y165048D01*
X407336Y161785D01*
X407336Y158255D01*
X405984Y154992D01*
X403488Y152496D01*
X402995Y152291D01*
X402895Y152230D01*
X402795Y152170D01*
X402791Y152165D01*
X402786Y152162D01*
X402711Y152072D01*
X402635Y151983D01*
X402633Y151977D01*
X402629Y151972D01*
X402587Y151863D01*
X402543Y151755D01*
X402542Y151747D01*
X402541Y151743D01*
X402540Y151724D01*
X402525Y151588D01*
X402525Y143052D01*
X402544Y142937D01*
X402561Y142821D01*
X402563Y142815D01*
X402564Y142809D01*
X402619Y142707D01*
X402672Y142602D01*
X402677Y142597D01*
X402680Y142592D01*
X402764Y142512D01*
X402848Y142430D01*
X402854Y142426D01*
X402858Y142422D01*
X402875Y142415D01*
X402995Y142349D01*
X403488Y142144D01*
X405984Y139648D01*
X407336Y136385D01*
X407336Y132855D01*
X405984Y129592D01*
X403488Y127096D01*
X400225Y125744D01*
X396695Y125744D01*
X393432Y127096D01*
X390936Y129592D01*
X390731Y130085D01*
X390670Y130185D01*
X390610Y130285D01*
X390605Y130289D01*
X390602Y130294D01*
X390512Y130369D01*
X390423Y130445D01*
X390417Y130447D01*
X390412Y130451D01*
X390304Y130493D01*
X390195Y130537D01*
X390187Y130538D01*
X390183Y130539D01*
X390164Y130540D01*
X390028Y130555D01*
X371133Y130555D01*
X371043Y130541D01*
X370952Y130533D01*
X370922Y130521D01*
X370890Y130516D01*
X370810Y130473D01*
X370726Y130437D01*
X370694Y130411D01*
X370673Y130400D01*
X370651Y130377D01*
X370595Y130332D01*
X365738Y125475D01*
X358162Y125475D01*
G37*
%LPD*%
%LPC*%
G36*
X510562Y633475D02*
X510562Y633475D01*
X505705Y638332D01*
X505631Y638385D01*
X505562Y638445D01*
X505532Y638457D01*
X505505Y638476D01*
X505418Y638503D01*
X505334Y638537D01*
X505293Y638541D01*
X505270Y638548D01*
X505238Y638547D01*
X505167Y638555D01*
X486272Y638555D01*
X486157Y638536D01*
X486041Y638519D01*
X486035Y638517D01*
X486029Y638516D01*
X485927Y638461D01*
X485822Y638408D01*
X485817Y638403D01*
X485812Y638400D01*
X485732Y638316D01*
X485650Y638232D01*
X485646Y638226D01*
X485642Y638222D01*
X485635Y638205D01*
X485569Y638085D01*
X485364Y637592D01*
X482868Y635096D01*
X479605Y633744D01*
X476075Y633744D01*
X472812Y635096D01*
X470316Y637592D01*
X468964Y640855D01*
X468964Y644385D01*
X470316Y647648D01*
X472812Y650144D01*
X473305Y650349D01*
X473405Y650410D01*
X473505Y650470D01*
X473509Y650475D01*
X473514Y650478D01*
X473589Y650568D01*
X473665Y650657D01*
X473667Y650663D01*
X473671Y650668D01*
X473713Y650776D01*
X473757Y650885D01*
X473758Y650893D01*
X473759Y650897D01*
X473760Y650916D01*
X473775Y651052D01*
X473775Y659588D01*
X473756Y659703D01*
X473739Y659819D01*
X473737Y659825D01*
X473736Y659831D01*
X473681Y659933D01*
X473628Y660038D01*
X473623Y660043D01*
X473620Y660048D01*
X473536Y660128D01*
X473452Y660210D01*
X473446Y660214D01*
X473442Y660218D01*
X473425Y660225D01*
X473305Y660291D01*
X472812Y660496D01*
X470316Y662992D01*
X468964Y666255D01*
X468964Y669785D01*
X470316Y673048D01*
X472812Y675544D01*
X476075Y676896D01*
X479605Y676896D01*
X482868Y675544D01*
X485364Y673048D01*
X486716Y669785D01*
X486716Y666255D01*
X485364Y662992D01*
X482868Y660496D01*
X482375Y660291D01*
X482275Y660230D01*
X482175Y660170D01*
X482171Y660165D01*
X482166Y660162D01*
X482091Y660072D01*
X482015Y659983D01*
X482013Y659977D01*
X482009Y659972D01*
X481967Y659863D01*
X481923Y659755D01*
X481922Y659747D01*
X481921Y659743D01*
X481920Y659724D01*
X481905Y659588D01*
X481905Y651052D01*
X481924Y650937D01*
X481941Y650821D01*
X481943Y650815D01*
X481944Y650809D01*
X481999Y650707D01*
X482052Y650602D01*
X482057Y650597D01*
X482060Y650592D01*
X482144Y650512D01*
X482228Y650430D01*
X482234Y650426D01*
X482238Y650422D01*
X482255Y650415D01*
X482375Y650349D01*
X482868Y650144D01*
X485364Y647648D01*
X485569Y647155D01*
X485630Y647055D01*
X485690Y646955D01*
X485695Y646951D01*
X485698Y646946D01*
X485788Y646871D01*
X485877Y646795D01*
X485883Y646793D01*
X485888Y646789D01*
X485996Y646747D01*
X486105Y646703D01*
X486113Y646702D01*
X486117Y646701D01*
X486136Y646700D01*
X486272Y646685D01*
X505167Y646685D01*
X505257Y646699D01*
X505348Y646707D01*
X505378Y646719D01*
X505410Y646724D01*
X505490Y646767D01*
X505574Y646803D01*
X505606Y646829D01*
X505627Y646840D01*
X505649Y646863D01*
X505705Y646908D01*
X510562Y651765D01*
X518138Y651765D01*
X523495Y646408D01*
X523495Y638832D01*
X518138Y633475D01*
X510562Y633475D01*
G37*
%LPD*%
%LPC*%
G36*
X452373Y860043D02*
X452373Y860043D01*
X452373Y876186D01*
X453229Y876051D01*
X454750Y875556D01*
X456175Y874830D01*
X457469Y873890D01*
X458600Y872759D01*
X459540Y871465D01*
X460266Y870040D01*
X460761Y868519D01*
X461011Y866940D01*
X461011Y860043D01*
X452373Y860043D01*
G37*
%LPD*%
%LPC*%
G36*
X452373Y59943D02*
X452373Y59943D01*
X452373Y76086D01*
X453229Y75951D01*
X454750Y75456D01*
X456175Y74730D01*
X457469Y73790D01*
X458600Y72659D01*
X459540Y71365D01*
X460266Y69940D01*
X460761Y68419D01*
X461011Y66840D01*
X461011Y59943D01*
X452373Y59943D01*
G37*
%LPD*%
%LPC*%
G36*
X452373Y56897D02*
X452373Y56897D01*
X461011Y56897D01*
X461011Y50000D01*
X460761Y48421D01*
X460266Y46900D01*
X459540Y45475D01*
X458600Y44181D01*
X457469Y43050D01*
X456175Y42110D01*
X454750Y41384D01*
X453229Y40889D01*
X452373Y40754D01*
X452373Y56897D01*
G37*
%LPD*%
%LPC*%
G36*
X452373Y856997D02*
X452373Y856997D01*
X461011Y856997D01*
X461011Y850100D01*
X460761Y848521D01*
X460266Y847000D01*
X459540Y845575D01*
X458600Y844281D01*
X457469Y843150D01*
X456175Y842210D01*
X454750Y841484D01*
X453229Y840989D01*
X452373Y840854D01*
X452373Y856997D01*
G37*
%LPD*%
%LPC*%
G36*
X440689Y860043D02*
X440689Y860043D01*
X440689Y866940D01*
X440939Y868519D01*
X441434Y870040D01*
X442160Y871465D01*
X443100Y872759D01*
X444231Y873890D01*
X445525Y874830D01*
X446950Y875556D01*
X448471Y876051D01*
X449327Y876186D01*
X449327Y860043D01*
X440689Y860043D01*
G37*
%LPD*%
%LPC*%
G36*
X440689Y59943D02*
X440689Y59943D01*
X440689Y66840D01*
X440939Y68419D01*
X441434Y69940D01*
X442160Y71365D01*
X443100Y72659D01*
X444231Y73790D01*
X445525Y74730D01*
X446950Y75456D01*
X448471Y75951D01*
X449327Y76086D01*
X449327Y59943D01*
X440689Y59943D01*
G37*
%LPD*%
%LPC*%
G36*
X448471Y840989D02*
X448471Y840989D01*
X446950Y841484D01*
X445525Y842210D01*
X444231Y843150D01*
X443100Y844281D01*
X442160Y845575D01*
X441434Y847000D01*
X440939Y848521D01*
X440689Y850100D01*
X440689Y856997D01*
X449327Y856997D01*
X449327Y840854D01*
X448471Y840989D01*
G37*
%LPD*%
%LPC*%
G36*
X134873Y796543D02*
X134873Y796543D01*
X134873Y804165D01*
X137138Y804165D01*
X142495Y798808D01*
X142495Y796543D01*
X134873Y796543D01*
G37*
%LPD*%
%LPC*%
G36*
X134873Y542543D02*
X134873Y542543D01*
X134873Y550165D01*
X137138Y550165D01*
X142495Y544808D01*
X142495Y542543D01*
X134873Y542543D01*
G37*
%LPD*%
%LPC*%
G36*
X744473Y288543D02*
X744473Y288543D01*
X744473Y296165D01*
X746738Y296165D01*
X752095Y290808D01*
X752095Y288543D01*
X744473Y288543D01*
G37*
%LPD*%
%LPC*%
G36*
X744473Y542543D02*
X744473Y542543D01*
X744473Y550165D01*
X746738Y550165D01*
X752095Y544808D01*
X752095Y542543D01*
X744473Y542543D01*
G37*
%LPD*%
%LPC*%
G36*
X733805Y288543D02*
X733805Y288543D01*
X733805Y290808D01*
X739162Y296165D01*
X741427Y296165D01*
X741427Y288543D01*
X733805Y288543D01*
G37*
%LPD*%
%LPC*%
G36*
X733805Y542543D02*
X733805Y542543D01*
X733805Y544808D01*
X739162Y550165D01*
X741427Y550165D01*
X741427Y542543D01*
X733805Y542543D01*
G37*
%LPD*%
%LPC*%
G36*
X124205Y542543D02*
X124205Y542543D01*
X124205Y544808D01*
X129562Y550165D01*
X131827Y550165D01*
X131827Y542543D01*
X124205Y542543D01*
G37*
%LPD*%
%LPC*%
G36*
X134873Y785875D02*
X134873Y785875D01*
X134873Y793497D01*
X142495Y793497D01*
X142495Y791232D01*
X137138Y785875D01*
X134873Y785875D01*
G37*
%LPD*%
%LPC*%
G36*
X744473Y531875D02*
X744473Y531875D01*
X744473Y539497D01*
X752095Y539497D01*
X752095Y537232D01*
X746738Y531875D01*
X744473Y531875D01*
G37*
%LPD*%
%LPC*%
G36*
X134873Y531875D02*
X134873Y531875D01*
X134873Y539497D01*
X142495Y539497D01*
X142495Y537232D01*
X137138Y531875D01*
X134873Y531875D01*
G37*
%LPD*%
%LPC*%
G36*
X744473Y277875D02*
X744473Y277875D01*
X744473Y285497D01*
X752095Y285497D01*
X752095Y283232D01*
X746738Y277875D01*
X744473Y277875D01*
G37*
%LPD*%
%LPC*%
G36*
X129562Y785875D02*
X129562Y785875D01*
X124205Y791232D01*
X124205Y793497D01*
X131827Y793497D01*
X131827Y785875D01*
X129562Y785875D01*
G37*
%LPD*%
%LPC*%
G36*
X739162Y531875D02*
X739162Y531875D01*
X733805Y537232D01*
X733805Y539497D01*
X741427Y539497D01*
X741427Y531875D01*
X739162Y531875D01*
G37*
%LPD*%
%LPC*%
G36*
X129562Y531875D02*
X129562Y531875D01*
X124205Y537232D01*
X124205Y539497D01*
X131827Y539497D01*
X131827Y531875D01*
X129562Y531875D01*
G37*
%LPD*%
%LPC*%
G36*
X739162Y277875D02*
X739162Y277875D01*
X733805Y283232D01*
X733805Y285497D01*
X741427Y285497D01*
X741427Y277875D01*
X739162Y277875D01*
G37*
%LPD*%
%LPC*%
G36*
X479363Y186943D02*
X479363Y186943D01*
X479363Y194167D01*
X480429Y193955D01*
X482044Y193286D01*
X483498Y192314D01*
X484734Y191078D01*
X485706Y189624D01*
X486375Y188009D01*
X486587Y186943D01*
X479363Y186943D01*
G37*
%LPD*%
%LPC*%
G36*
X479363Y440943D02*
X479363Y440943D01*
X479363Y448167D01*
X480429Y447955D01*
X482044Y447286D01*
X483498Y446314D01*
X484734Y445078D01*
X485706Y443624D01*
X486375Y442009D01*
X486587Y440943D01*
X479363Y440943D01*
G37*
%LPD*%
%LPC*%
G36*
X389713Y694943D02*
X389713Y694943D01*
X389925Y696009D01*
X390594Y697624D01*
X391566Y699078D01*
X392802Y700314D01*
X394256Y701286D01*
X395871Y701955D01*
X396937Y702167D01*
X396937Y694943D01*
X389713Y694943D01*
G37*
%LPD*%
%LPC*%
G36*
X479363Y183897D02*
X479363Y183897D01*
X486587Y183897D01*
X486375Y182831D01*
X485706Y181216D01*
X484734Y179762D01*
X483498Y178526D01*
X482044Y177554D01*
X480429Y176885D01*
X479363Y176673D01*
X479363Y183897D01*
G37*
%LPD*%
%LPC*%
G36*
X389713Y440943D02*
X389713Y440943D01*
X389925Y442009D01*
X390594Y443624D01*
X391566Y445078D01*
X392802Y446314D01*
X394256Y447286D01*
X395871Y447955D01*
X396937Y448167D01*
X396937Y440943D01*
X389713Y440943D01*
G37*
%LPD*%
%LPC*%
G36*
X479363Y437897D02*
X479363Y437897D01*
X486587Y437897D01*
X486375Y436831D01*
X485706Y435216D01*
X484734Y433762D01*
X483498Y432526D01*
X482044Y431554D01*
X480429Y430885D01*
X479363Y430673D01*
X479363Y437897D01*
G37*
%LPD*%
%LPC*%
G36*
X395871Y684885D02*
X395871Y684885D01*
X394256Y685554D01*
X392802Y686526D01*
X391566Y687762D01*
X390594Y689216D01*
X389925Y690831D01*
X389713Y691897D01*
X396937Y691897D01*
X396937Y684673D01*
X395871Y684885D01*
G37*
%LPD*%
%LPC*%
G36*
X395871Y430885D02*
X395871Y430885D01*
X394256Y431554D01*
X392802Y432526D01*
X391566Y433762D01*
X390594Y435216D01*
X389925Y436831D01*
X389713Y437897D01*
X396937Y437897D01*
X396937Y430673D01*
X395871Y430885D01*
G37*
%LPD*%
%LPC*%
G36*
X450849Y858519D02*
X450849Y858519D01*
X450849Y858521D01*
X450851Y858521D01*
X450851Y858519D01*
X450849Y858519D01*
G37*
%LPD*%
%LPC*%
G36*
X133349Y795019D02*
X133349Y795019D01*
X133349Y795021D01*
X133351Y795021D01*
X133351Y795019D01*
X133349Y795019D01*
G37*
%LPD*%
%LPC*%
G36*
X742949Y541019D02*
X742949Y541019D01*
X742949Y541021D01*
X742951Y541021D01*
X742951Y541019D01*
X742949Y541019D01*
G37*
%LPD*%
%LPC*%
G36*
X133349Y541019D02*
X133349Y541019D01*
X133349Y541021D01*
X133351Y541021D01*
X133351Y541019D01*
X133349Y541019D01*
G37*
%LPD*%
%LPC*%
G36*
X742949Y287019D02*
X742949Y287019D01*
X742949Y287021D01*
X742951Y287021D01*
X742951Y287019D01*
X742949Y287019D01*
G37*
%LPD*%
%LPC*%
G36*
X450849Y58419D02*
X450849Y58419D01*
X450849Y58421D01*
X450851Y58421D01*
X450851Y58419D01*
X450849Y58419D01*
G37*
%LPD*%
D10*
X0Y0D02*
X873125Y0D01*
X873125Y920750D01*
X0Y920750D01*
X0Y0D01*
X47625Y63500D02*
X47630Y63890D01*
X47644Y64279D01*
X47668Y64668D01*
X47701Y65056D01*
X47744Y65443D01*
X47797Y65829D01*
X47859Y66214D01*
X47930Y66597D01*
X48011Y66978D01*
X48101Y67357D01*
X48200Y67734D01*
X48309Y68108D01*
X48426Y68480D01*
X48553Y68848D01*
X48689Y69213D01*
X48833Y69575D01*
X48987Y69933D01*
X49149Y70287D01*
X49320Y70638D01*
X49499Y70983D01*
X49687Y71325D01*
X49884Y71661D01*
X50088Y71993D01*
X50300Y72320D01*
X50521Y72641D01*
X50749Y72957D01*
X50985Y73267D01*
X51228Y73571D01*
X51479Y73869D01*
X51737Y74161D01*
X52003Y74446D01*
X52275Y74725D01*
X52554Y74997D01*
X52839Y75263D01*
X53131Y75521D01*
X53429Y75772D01*
X53733Y76015D01*
X54043Y76251D01*
X54359Y76479D01*
X54680Y76700D01*
X55007Y76912D01*
X55339Y77116D01*
X55675Y77313D01*
X56017Y77501D01*
X56362Y77680D01*
X56713Y77851D01*
X57067Y78013D01*
X57425Y78167D01*
X57787Y78311D01*
X58152Y78447D01*
X58520Y78574D01*
X58892Y78691D01*
X59266Y78800D01*
X59643Y78899D01*
X60022Y78989D01*
X60403Y79070D01*
X60786Y79141D01*
X61171Y79203D01*
X61557Y79256D01*
X61944Y79299D01*
X62332Y79332D01*
X62721Y79356D01*
X63110Y79370D01*
X63500Y79375D01*
X63890Y79370D01*
X64279Y79356D01*
X64668Y79332D01*
X65056Y79299D01*
X65443Y79256D01*
X65829Y79203D01*
X66214Y79141D01*
X66597Y79070D01*
X66978Y78989D01*
X67357Y78899D01*
X67734Y78800D01*
X68108Y78691D01*
X68480Y78574D01*
X68848Y78447D01*
X69213Y78311D01*
X69575Y78167D01*
X69933Y78013D01*
X70287Y77851D01*
X70638Y77680D01*
X70983Y77501D01*
X71325Y77313D01*
X71661Y77116D01*
X71993Y76912D01*
X72320Y76700D01*
X72641Y76479D01*
X72957Y76251D01*
X73267Y76015D01*
X73571Y75772D01*
X73869Y75521D01*
X74161Y75263D01*
X74446Y74997D01*
X74725Y74725D01*
X74997Y74446D01*
X75263Y74161D01*
X75521Y73869D01*
X75772Y73571D01*
X76015Y73267D01*
X76251Y72957D01*
X76479Y72641D01*
X76700Y72320D01*
X76912Y71993D01*
X77116Y71661D01*
X77313Y71325D01*
X77501Y70983D01*
X77680Y70638D01*
X77851Y70287D01*
X78013Y69933D01*
X78167Y69575D01*
X78311Y69213D01*
X78447Y68848D01*
X78574Y68480D01*
X78691Y68108D01*
X78800Y67734D01*
X78899Y67357D01*
X78989Y66978D01*
X79070Y66597D01*
X79141Y66214D01*
X79203Y65829D01*
X79256Y65443D01*
X79299Y65056D01*
X79332Y64668D01*
X79356Y64279D01*
X79370Y63890D01*
X79375Y63500D01*
X79370Y63110D01*
X79356Y62721D01*
X79332Y62332D01*
X79299Y61944D01*
X79256Y61557D01*
X79203Y61171D01*
X79141Y60786D01*
X79070Y60403D01*
X78989Y60022D01*
X78899Y59643D01*
X78800Y59266D01*
X78691Y58892D01*
X78574Y58520D01*
X78447Y58152D01*
X78311Y57787D01*
X78167Y57425D01*
X78013Y57067D01*
X77851Y56713D01*
X77680Y56362D01*
X77501Y56017D01*
X77313Y55675D01*
X77116Y55339D01*
X76912Y55007D01*
X76700Y54680D01*
X76479Y54359D01*
X76251Y54043D01*
X76015Y53733D01*
X75772Y53429D01*
X75521Y53131D01*
X75263Y52839D01*
X74997Y52554D01*
X74725Y52275D01*
X74446Y52003D01*
X74161Y51737D01*
X73869Y51479D01*
X73571Y51228D01*
X73267Y50985D01*
X72957Y50749D01*
X72641Y50521D01*
X72320Y50300D01*
X71993Y50088D01*
X71661Y49884D01*
X71325Y49687D01*
X70983Y49499D01*
X70638Y49320D01*
X70287Y49149D01*
X69933Y48987D01*
X69575Y48833D01*
X69213Y48689D01*
X68848Y48553D01*
X68480Y48426D01*
X68108Y48309D01*
X67734Y48200D01*
X67357Y48101D01*
X66978Y48011D01*
X66597Y47930D01*
X66214Y47859D01*
X65829Y47797D01*
X65443Y47744D01*
X65056Y47701D01*
X64668Y47668D01*
X64279Y47644D01*
X63890Y47630D01*
X63500Y47625D01*
X63110Y47630D01*
X62721Y47644D01*
X62332Y47668D01*
X61944Y47701D01*
X61557Y47744D01*
X61171Y47797D01*
X60786Y47859D01*
X60403Y47930D01*
X60022Y48011D01*
X59643Y48101D01*
X59266Y48200D01*
X58892Y48309D01*
X58520Y48426D01*
X58152Y48553D01*
X57787Y48689D01*
X57425Y48833D01*
X57067Y48987D01*
X56713Y49149D01*
X56362Y49320D01*
X56017Y49499D01*
X55675Y49687D01*
X55339Y49884D01*
X55007Y50088D01*
X54680Y50300D01*
X54359Y50521D01*
X54043Y50749D01*
X53733Y50985D01*
X53429Y51228D01*
X53131Y51479D01*
X52839Y51737D01*
X52554Y52003D01*
X52275Y52275D01*
X52003Y52554D01*
X51737Y52839D01*
X51479Y53131D01*
X51228Y53429D01*
X50985Y53733D01*
X50749Y54043D01*
X50521Y54359D01*
X50300Y54680D01*
X50088Y55007D01*
X49884Y55339D01*
X49687Y55675D01*
X49499Y56017D01*
X49320Y56362D01*
X49149Y56713D01*
X48987Y57067D01*
X48833Y57425D01*
X48689Y57787D01*
X48553Y58152D01*
X48426Y58520D01*
X48309Y58892D01*
X48200Y59266D01*
X48101Y59643D01*
X48011Y60022D01*
X47930Y60403D01*
X47859Y60786D01*
X47797Y61171D01*
X47744Y61557D01*
X47701Y61944D01*
X47668Y62332D01*
X47644Y62721D01*
X47630Y63110D01*
X47625Y63500D01*
X793750Y63500D02*
X793755Y63890D01*
X793769Y64279D01*
X793793Y64668D01*
X793826Y65056D01*
X793869Y65443D01*
X793922Y65829D01*
X793984Y66214D01*
X794055Y66597D01*
X794136Y66978D01*
X794226Y67357D01*
X794325Y67734D01*
X794434Y68108D01*
X794551Y68480D01*
X794678Y68848D01*
X794814Y69213D01*
X794958Y69575D01*
X795112Y69933D01*
X795274Y70287D01*
X795445Y70638D01*
X795624Y70983D01*
X795812Y71325D01*
X796009Y71661D01*
X796213Y71993D01*
X796425Y72320D01*
X796646Y72641D01*
X796874Y72957D01*
X797110Y73267D01*
X797353Y73571D01*
X797604Y73869D01*
X797862Y74161D01*
X798128Y74446D01*
X798400Y74725D01*
X798679Y74997D01*
X798964Y75263D01*
X799256Y75521D01*
X799554Y75772D01*
X799858Y76015D01*
X800168Y76251D01*
X800484Y76479D01*
X800805Y76700D01*
X801132Y76912D01*
X801464Y77116D01*
X801800Y77313D01*
X802142Y77501D01*
X802487Y77680D01*
X802838Y77851D01*
X803192Y78013D01*
X803550Y78167D01*
X803912Y78311D01*
X804277Y78447D01*
X804645Y78574D01*
X805017Y78691D01*
X805391Y78800D01*
X805768Y78899D01*
X806147Y78989D01*
X806528Y79070D01*
X806911Y79141D01*
X807296Y79203D01*
X807682Y79256D01*
X808069Y79299D01*
X808457Y79332D01*
X808846Y79356D01*
X809235Y79370D01*
X809625Y79375D01*
X810015Y79370D01*
X810404Y79356D01*
X810793Y79332D01*
X811181Y79299D01*
X811568Y79256D01*
X811954Y79203D01*
X812339Y79141D01*
X812722Y79070D01*
X813103Y78989D01*
X813482Y78899D01*
X813859Y78800D01*
X814233Y78691D01*
X814605Y78574D01*
X814973Y78447D01*
X815338Y78311D01*
X815700Y78167D01*
X816058Y78013D01*
X816412Y77851D01*
X816763Y77680D01*
X817108Y77501D01*
X817450Y77313D01*
X817786Y77116D01*
X818118Y76912D01*
X818445Y76700D01*
X818766Y76479D01*
X819082Y76251D01*
X819392Y76015D01*
X819696Y75772D01*
X819994Y75521D01*
X820286Y75263D01*
X820571Y74997D01*
X820850Y74725D01*
X821122Y74446D01*
X821388Y74161D01*
X821646Y73869D01*
X821897Y73571D01*
X822140Y73267D01*
X822376Y72957D01*
X822604Y72641D01*
X822825Y72320D01*
X823037Y71993D01*
X823241Y71661D01*
X823438Y71325D01*
X823626Y70983D01*
X823805Y70638D01*
X823976Y70287D01*
X824138Y69933D01*
X824292Y69575D01*
X824436Y69213D01*
X824572Y68848D01*
X824699Y68480D01*
X824816Y68108D01*
X824925Y67734D01*
X825024Y67357D01*
X825114Y66978D01*
X825195Y66597D01*
X825266Y66214D01*
X825328Y65829D01*
X825381Y65443D01*
X825424Y65056D01*
X825457Y64668D01*
X825481Y64279D01*
X825495Y63890D01*
X825500Y63500D01*
X825495Y63110D01*
X825481Y62721D01*
X825457Y62332D01*
X825424Y61944D01*
X825381Y61557D01*
X825328Y61171D01*
X825266Y60786D01*
X825195Y60403D01*
X825114Y60022D01*
X825024Y59643D01*
X824925Y59266D01*
X824816Y58892D01*
X824699Y58520D01*
X824572Y58152D01*
X824436Y57787D01*
X824292Y57425D01*
X824138Y57067D01*
X823976Y56713D01*
X823805Y56362D01*
X823626Y56017D01*
X823438Y55675D01*
X823241Y55339D01*
X823037Y55007D01*
X822825Y54680D01*
X822604Y54359D01*
X822376Y54043D01*
X822140Y53733D01*
X821897Y53429D01*
X821646Y53131D01*
X821388Y52839D01*
X821122Y52554D01*
X820850Y52275D01*
X820571Y52003D01*
X820286Y51737D01*
X819994Y51479D01*
X819696Y51228D01*
X819392Y50985D01*
X819082Y50749D01*
X818766Y50521D01*
X818445Y50300D01*
X818118Y50088D01*
X817786Y49884D01*
X817450Y49687D01*
X817108Y49499D01*
X816763Y49320D01*
X816412Y49149D01*
X816058Y48987D01*
X815700Y48833D01*
X815338Y48689D01*
X814973Y48553D01*
X814605Y48426D01*
X814233Y48309D01*
X813859Y48200D01*
X813482Y48101D01*
X813103Y48011D01*
X812722Y47930D01*
X812339Y47859D01*
X811954Y47797D01*
X811568Y47744D01*
X811181Y47701D01*
X810793Y47668D01*
X810404Y47644D01*
X810015Y47630D01*
X809625Y47625D01*
X809235Y47630D01*
X808846Y47644D01*
X808457Y47668D01*
X808069Y47701D01*
X807682Y47744D01*
X807296Y47797D01*
X806911Y47859D01*
X806528Y47930D01*
X806147Y48011D01*
X805768Y48101D01*
X805391Y48200D01*
X805017Y48309D01*
X804645Y48426D01*
X804277Y48553D01*
X803912Y48689D01*
X803550Y48833D01*
X803192Y48987D01*
X802838Y49149D01*
X802487Y49320D01*
X802142Y49499D01*
X801800Y49687D01*
X801464Y49884D01*
X801132Y50088D01*
X800805Y50300D01*
X800484Y50521D01*
X800168Y50749D01*
X799858Y50985D01*
X799554Y51228D01*
X799256Y51479D01*
X798964Y51737D01*
X798679Y52003D01*
X798400Y52275D01*
X798128Y52554D01*
X797862Y52839D01*
X797604Y53131D01*
X797353Y53429D01*
X797110Y53733D01*
X796874Y54043D01*
X796646Y54359D01*
X796425Y54680D01*
X796213Y55007D01*
X796009Y55339D01*
X795812Y55675D01*
X795624Y56017D01*
X795445Y56362D01*
X795274Y56713D01*
X795112Y57067D01*
X794958Y57425D01*
X794814Y57787D01*
X794678Y58152D01*
X794551Y58520D01*
X794434Y58892D01*
X794325Y59266D01*
X794226Y59643D01*
X794136Y60022D01*
X794055Y60403D01*
X793984Y60786D01*
X793922Y61171D01*
X793869Y61557D01*
X793826Y61944D01*
X793793Y62332D01*
X793769Y62721D01*
X793755Y63110D01*
X793750Y63500D01*
X47625Y857250D02*
X47630Y857640D01*
X47644Y858029D01*
X47668Y858418D01*
X47701Y858806D01*
X47744Y859193D01*
X47797Y859579D01*
X47859Y859964D01*
X47930Y860347D01*
X48011Y860728D01*
X48101Y861107D01*
X48200Y861484D01*
X48309Y861858D01*
X48426Y862230D01*
X48553Y862598D01*
X48689Y862963D01*
X48833Y863325D01*
X48987Y863683D01*
X49149Y864037D01*
X49320Y864388D01*
X49499Y864733D01*
X49687Y865075D01*
X49884Y865411D01*
X50088Y865743D01*
X50300Y866070D01*
X50521Y866391D01*
X50749Y866707D01*
X50985Y867017D01*
X51228Y867321D01*
X51479Y867619D01*
X51737Y867911D01*
X52003Y868196D01*
X52275Y868475D01*
X52554Y868747D01*
X52839Y869013D01*
X53131Y869271D01*
X53429Y869522D01*
X53733Y869765D01*
X54043Y870001D01*
X54359Y870229D01*
X54680Y870450D01*
X55007Y870662D01*
X55339Y870866D01*
X55675Y871063D01*
X56017Y871251D01*
X56362Y871430D01*
X56713Y871601D01*
X57067Y871763D01*
X57425Y871917D01*
X57787Y872061D01*
X58152Y872197D01*
X58520Y872324D01*
X58892Y872441D01*
X59266Y872550D01*
X59643Y872649D01*
X60022Y872739D01*
X60403Y872820D01*
X60786Y872891D01*
X61171Y872953D01*
X61557Y873006D01*
X61944Y873049D01*
X62332Y873082D01*
X62721Y873106D01*
X63110Y873120D01*
X63500Y873125D01*
X63890Y873120D01*
X64279Y873106D01*
X64668Y873082D01*
X65056Y873049D01*
X65443Y873006D01*
X65829Y872953D01*
X66214Y872891D01*
X66597Y872820D01*
X66978Y872739D01*
X67357Y872649D01*
X67734Y872550D01*
X68108Y872441D01*
X68480Y872324D01*
X68848Y872197D01*
X69213Y872061D01*
X69575Y871917D01*
X69933Y871763D01*
X70287Y871601D01*
X70638Y871430D01*
X70983Y871251D01*
X71325Y871063D01*
X71661Y870866D01*
X71993Y870662D01*
X72320Y870450D01*
X72641Y870229D01*
X72957Y870001D01*
X73267Y869765D01*
X73571Y869522D01*
X73869Y869271D01*
X74161Y869013D01*
X74446Y868747D01*
X74725Y868475D01*
X74997Y868196D01*
X75263Y867911D01*
X75521Y867619D01*
X75772Y867321D01*
X76015Y867017D01*
X76251Y866707D01*
X76479Y866391D01*
X76700Y866070D01*
X76912Y865743D01*
X77116Y865411D01*
X77313Y865075D01*
X77501Y864733D01*
X77680Y864388D01*
X77851Y864037D01*
X78013Y863683D01*
X78167Y863325D01*
X78311Y862963D01*
X78447Y862598D01*
X78574Y862230D01*
X78691Y861858D01*
X78800Y861484D01*
X78899Y861107D01*
X78989Y860728D01*
X79070Y860347D01*
X79141Y859964D01*
X79203Y859579D01*
X79256Y859193D01*
X79299Y858806D01*
X79332Y858418D01*
X79356Y858029D01*
X79370Y857640D01*
X79375Y857250D01*
X79370Y856860D01*
X79356Y856471D01*
X79332Y856082D01*
X79299Y855694D01*
X79256Y855307D01*
X79203Y854921D01*
X79141Y854536D01*
X79070Y854153D01*
X78989Y853772D01*
X78899Y853393D01*
X78800Y853016D01*
X78691Y852642D01*
X78574Y852270D01*
X78447Y851902D01*
X78311Y851537D01*
X78167Y851175D01*
X78013Y850817D01*
X77851Y850463D01*
X77680Y850112D01*
X77501Y849767D01*
X77313Y849425D01*
X77116Y849089D01*
X76912Y848757D01*
X76700Y848430D01*
X76479Y848109D01*
X76251Y847793D01*
X76015Y847483D01*
X75772Y847179D01*
X75521Y846881D01*
X75263Y846589D01*
X74997Y846304D01*
X74725Y846025D01*
X74446Y845753D01*
X74161Y845487D01*
X73869Y845229D01*
X73571Y844978D01*
X73267Y844735D01*
X72957Y844499D01*
X72641Y844271D01*
X72320Y844050D01*
X71993Y843838D01*
X71661Y843634D01*
X71325Y843437D01*
X70983Y843249D01*
X70638Y843070D01*
X70287Y842899D01*
X69933Y842737D01*
X69575Y842583D01*
X69213Y842439D01*
X68848Y842303D01*
X68480Y842176D01*
X68108Y842059D01*
X67734Y841950D01*
X67357Y841851D01*
X66978Y841761D01*
X66597Y841680D01*
X66214Y841609D01*
X65829Y841547D01*
X65443Y841494D01*
X65056Y841451D01*
X64668Y841418D01*
X64279Y841394D01*
X63890Y841380D01*
X63500Y841375D01*
X63110Y841380D01*
X62721Y841394D01*
X62332Y841418D01*
X61944Y841451D01*
X61557Y841494D01*
X61171Y841547D01*
X60786Y841609D01*
X60403Y841680D01*
X60022Y841761D01*
X59643Y841851D01*
X59266Y841950D01*
X58892Y842059D01*
X58520Y842176D01*
X58152Y842303D01*
X57787Y842439D01*
X57425Y842583D01*
X57067Y842737D01*
X56713Y842899D01*
X56362Y843070D01*
X56017Y843249D01*
X55675Y843437D01*
X55339Y843634D01*
X55007Y843838D01*
X54680Y844050D01*
X54359Y844271D01*
X54043Y844499D01*
X53733Y844735D01*
X53429Y844978D01*
X53131Y845229D01*
X52839Y845487D01*
X52554Y845753D01*
X52275Y846025D01*
X52003Y846304D01*
X51737Y846589D01*
X51479Y846881D01*
X51228Y847179D01*
X50985Y847483D01*
X50749Y847793D01*
X50521Y848109D01*
X50300Y848430D01*
X50088Y848757D01*
X49884Y849089D01*
X49687Y849425D01*
X49499Y849767D01*
X49320Y850112D01*
X49149Y850463D01*
X48987Y850817D01*
X48833Y851175D01*
X48689Y851537D01*
X48553Y851902D01*
X48426Y852270D01*
X48309Y852642D01*
X48200Y853016D01*
X48101Y853393D01*
X48011Y853772D01*
X47930Y854153D01*
X47859Y854536D01*
X47797Y854921D01*
X47744Y855307D01*
X47701Y855694D01*
X47668Y856082D01*
X47644Y856471D01*
X47630Y856860D01*
X47625Y857250D01*
X793750Y857250D02*
X793755Y857640D01*
X793769Y858029D01*
X793793Y858418D01*
X793826Y858806D01*
X793869Y859193D01*
X793922Y859579D01*
X793984Y859964D01*
X794055Y860347D01*
X794136Y860728D01*
X794226Y861107D01*
X794325Y861484D01*
X794434Y861858D01*
X794551Y862230D01*
X794678Y862598D01*
X794814Y862963D01*
X794958Y863325D01*
X795112Y863683D01*
X795274Y864037D01*
X795445Y864388D01*
X795624Y864733D01*
X795812Y865075D01*
X796009Y865411D01*
X796213Y865743D01*
X796425Y866070D01*
X796646Y866391D01*
X796874Y866707D01*
X797110Y867017D01*
X797353Y867321D01*
X797604Y867619D01*
X797862Y867911D01*
X798128Y868196D01*
X798400Y868475D01*
X798679Y868747D01*
X798964Y869013D01*
X799256Y869271D01*
X799554Y869522D01*
X799858Y869765D01*
X800168Y870001D01*
X800484Y870229D01*
X800805Y870450D01*
X801132Y870662D01*
X801464Y870866D01*
X801800Y871063D01*
X802142Y871251D01*
X802487Y871430D01*
X802838Y871601D01*
X803192Y871763D01*
X803550Y871917D01*
X803912Y872061D01*
X804277Y872197D01*
X804645Y872324D01*
X805017Y872441D01*
X805391Y872550D01*
X805768Y872649D01*
X806147Y872739D01*
X806528Y872820D01*
X806911Y872891D01*
X807296Y872953D01*
X807682Y873006D01*
X808069Y873049D01*
X808457Y873082D01*
X808846Y873106D01*
X809235Y873120D01*
X809625Y873125D01*
X810015Y873120D01*
X810404Y873106D01*
X810793Y873082D01*
X811181Y873049D01*
X811568Y873006D01*
X811954Y872953D01*
X812339Y872891D01*
X812722Y872820D01*
X813103Y872739D01*
X813482Y872649D01*
X813859Y872550D01*
X814233Y872441D01*
X814605Y872324D01*
X814973Y872197D01*
X815338Y872061D01*
X815700Y871917D01*
X816058Y871763D01*
X816412Y871601D01*
X816763Y871430D01*
X817108Y871251D01*
X817450Y871063D01*
X817786Y870866D01*
X818118Y870662D01*
X818445Y870450D01*
X818766Y870229D01*
X819082Y870001D01*
X819392Y869765D01*
X819696Y869522D01*
X819994Y869271D01*
X820286Y869013D01*
X820571Y868747D01*
X820850Y868475D01*
X821122Y868196D01*
X821388Y867911D01*
X821646Y867619D01*
X821897Y867321D01*
X822140Y867017D01*
X822376Y866707D01*
X822604Y866391D01*
X822825Y866070D01*
X823037Y865743D01*
X823241Y865411D01*
X823438Y865075D01*
X823626Y864733D01*
X823805Y864388D01*
X823976Y864037D01*
X824138Y863683D01*
X824292Y863325D01*
X824436Y862963D01*
X824572Y862598D01*
X824699Y862230D01*
X824816Y861858D01*
X824925Y861484D01*
X825024Y861107D01*
X825114Y860728D01*
X825195Y860347D01*
X825266Y859964D01*
X825328Y859579D01*
X825381Y859193D01*
X825424Y858806D01*
X825457Y858418D01*
X825481Y858029D01*
X825495Y857640D01*
X825500Y857250D01*
X825495Y856860D01*
X825481Y856471D01*
X825457Y856082D01*
X825424Y855694D01*
X825381Y855307D01*
X825328Y854921D01*
X825266Y854536D01*
X825195Y854153D01*
X825114Y853772D01*
X825024Y853393D01*
X824925Y853016D01*
X824816Y852642D01*
X824699Y852270D01*
X824572Y851902D01*
X824436Y851537D01*
X824292Y851175D01*
X824138Y850817D01*
X823976Y850463D01*
X823805Y850112D01*
X823626Y849767D01*
X823438Y849425D01*
X823241Y849089D01*
X823037Y848757D01*
X822825Y848430D01*
X822604Y848109D01*
X822376Y847793D01*
X822140Y847483D01*
X821897Y847179D01*
X821646Y846881D01*
X821388Y846589D01*
X821122Y846304D01*
X820850Y846025D01*
X820571Y845753D01*
X820286Y845487D01*
X819994Y845229D01*
X819696Y844978D01*
X819392Y844735D01*
X819082Y844499D01*
X818766Y844271D01*
X818445Y844050D01*
X818118Y843838D01*
X817786Y843634D01*
X817450Y843437D01*
X817108Y843249D01*
X816763Y843070D01*
X816412Y842899D01*
X816058Y842737D01*
X815700Y842583D01*
X815338Y842439D01*
X814973Y842303D01*
X814605Y842176D01*
X814233Y842059D01*
X813859Y841950D01*
X813482Y841851D01*
X813103Y841761D01*
X812722Y841680D01*
X812339Y841609D01*
X811954Y841547D01*
X811568Y841494D01*
X811181Y841451D01*
X810793Y841418D01*
X810404Y841394D01*
X810015Y841380D01*
X809625Y841375D01*
X809235Y841380D01*
X808846Y841394D01*
X808457Y841418D01*
X808069Y841451D01*
X807682Y841494D01*
X807296Y841547D01*
X806911Y841609D01*
X806528Y841680D01*
X806147Y841761D01*
X805768Y841851D01*
X805391Y841950D01*
X805017Y842059D01*
X804645Y842176D01*
X804277Y842303D01*
X803912Y842439D01*
X803550Y842583D01*
X803192Y842737D01*
X802838Y842899D01*
X802487Y843070D01*
X802142Y843249D01*
X801800Y843437D01*
X801464Y843634D01*
X801132Y843838D01*
X800805Y844050D01*
X800484Y844271D01*
X800168Y844499D01*
X799858Y844735D01*
X799554Y844978D01*
X799256Y845229D01*
X798964Y845487D01*
X798679Y845753D01*
X798400Y846025D01*
X798128Y846304D01*
X797862Y846589D01*
X797604Y846881D01*
X797353Y847179D01*
X797110Y847483D01*
X796874Y847793D01*
X796646Y848109D01*
X796425Y848430D01*
X796213Y848757D01*
X796009Y849089D01*
X795812Y849425D01*
X795624Y849767D01*
X795445Y850112D01*
X795274Y850463D01*
X795112Y850817D01*
X794958Y851175D01*
X794814Y851537D01*
X794678Y851902D01*
X794551Y852270D01*
X794434Y852642D01*
X794325Y853016D01*
X794226Y853393D01*
X794136Y853772D01*
X794055Y854153D01*
X793984Y854536D01*
X793922Y854921D01*
X793869Y855307D01*
X793826Y855694D01*
X793793Y856082D01*
X793769Y856471D01*
X793755Y856860D01*
X793750Y857250D01*
D11*
X398460Y795020D03*
D12*
X398460Y769620D03*
X398460Y744220D03*
X398460Y718820D03*
X398460Y693420D03*
X398460Y668020D03*
X398460Y642620D03*
X477840Y642620D03*
X477840Y668020D03*
X477840Y693420D03*
X477840Y718820D03*
X477840Y744220D03*
X477840Y769620D03*
X477840Y795020D03*
D11*
X398460Y541020D03*
D12*
X398460Y515620D03*
X398460Y490220D03*
X398460Y464820D03*
X398460Y439420D03*
X398460Y414020D03*
X398460Y388620D03*
X477840Y388620D03*
X477840Y414020D03*
X477840Y439420D03*
X477840Y464820D03*
X477840Y490220D03*
X477840Y515620D03*
X477840Y541020D03*
D11*
X398460Y287020D03*
D12*
X398460Y261620D03*
X398460Y236220D03*
X398460Y210820D03*
X398460Y185420D03*
X398460Y160020D03*
X398460Y134620D03*
X477840Y134620D03*
X477840Y160020D03*
X477840Y185420D03*
X477840Y210820D03*
X477840Y236220D03*
X477840Y261620D03*
X477840Y287020D03*
D13*
X234950Y388620D03*
X133350Y388620D03*
D14*
X260350Y388620D03*
X361950Y388620D03*
D13*
X361950Y337820D03*
X260350Y337820D03*
D14*
X260350Y287020D03*
X361950Y287020D03*
D13*
X234950Y541020D03*
X133350Y541020D03*
X361950Y541020D03*
X260350Y541020D03*
X742950Y388620D03*
X641350Y388620D03*
D14*
X514350Y388620D03*
X615950Y388620D03*
X514350Y337820D03*
X615950Y337820D03*
D13*
X615950Y642620D03*
X514350Y642620D03*
D14*
X641350Y541020D03*
X742950Y541020D03*
X514350Y541020D03*
X615950Y541020D03*
D13*
X742950Y134620D03*
X641350Y134620D03*
D14*
X514350Y134620D03*
X615950Y134620D03*
X514350Y83820D03*
X615950Y83820D03*
D13*
X361950Y134620D03*
X260350Y134620D03*
D14*
X641350Y287020D03*
X742950Y287020D03*
X514350Y287020D03*
X615950Y287020D03*
D13*
X234950Y642620D03*
X133350Y642620D03*
D14*
X260350Y642620D03*
X361950Y642620D03*
D13*
X361950Y591820D03*
X260350Y591820D03*
X615950Y795020D03*
X514350Y795020D03*
X234950Y795020D03*
X133350Y795020D03*
X361950Y795020D03*
X260350Y795020D03*
D15*
X77470Y502920D02*
X62230Y502920D01*
X62230Y477520D02*
X77470Y477520D01*
X77470Y452120D02*
X62230Y452120D01*
X62230Y426720D02*
X77470Y426720D01*
X798830Y426720D02*
X814070Y426720D01*
X814070Y452120D02*
X798830Y452120D01*
X798830Y477520D02*
X814070Y477520D01*
X814070Y502920D02*
X798830Y502920D01*
X476250Y850900D02*
X476250Y866140D01*
X450850Y866140D02*
X450850Y850900D01*
X425450Y850900D02*
X425450Y866140D01*
X400050Y866140D02*
X400050Y850900D01*
X400050Y66040D02*
X400050Y50800D01*
X425450Y50800D02*
X425450Y66040D01*
X450850Y66040D02*
X450850Y50800D01*
X476250Y50800D02*
X476250Y66040D01*
D16*
X398540Y32766D02*
X288414Y32766D01*
X209550Y111630D01*
X424194Y58420D02*
X425450Y58420D01*
X424194Y58420D02*
X398540Y32766D01*
X425450Y58420D02*
X450850Y33020D01*
X641350Y33020D02*
X742950Y134620D01*
X641350Y33020D02*
X450850Y33020D01*
X719582Y269901D02*
X719582Y304139D01*
X742950Y246533D02*
X742950Y134620D01*
X742950Y327507D02*
X742950Y388620D01*
X719582Y269901D02*
X742950Y246533D01*
X719582Y304139D02*
X742950Y327507D01*
X425450Y782320D02*
X425450Y858520D01*
X408859Y765729D02*
X408859Y765313D01*
X398165Y754619D01*
X244181Y754619D01*
X133350Y643788D01*
X133350Y642620D01*
X408859Y765729D02*
X425450Y782320D01*
X22098Y739829D02*
X22098Y406400D01*
X22098Y739829D02*
X172793Y890524D01*
X392190Y890524D01*
X424194Y858520D02*
X425450Y858520D01*
X424194Y858520D02*
X392190Y890524D01*
X209550Y261875D02*
X209550Y111630D01*
X209550Y261875D02*
X177038Y294387D01*
X177038Y362712D01*
X151130Y388620D01*
X40513Y387985D02*
X22098Y406400D01*
X133350Y388620D02*
X151130Y388620D01*
X132715Y387985D02*
X40513Y387985D01*
X132715Y387985D02*
X133350Y388620D01*
D17*
X606399Y210058D02*
X664718Y151739D01*
D16*
X607669Y210058D02*
X606399Y210058D01*
D17*
X478602Y210058D01*
X477840Y210820D01*
X477012Y59182D02*
X619099Y59182D01*
X664718Y104801D01*
X664718Y151739D01*
D16*
X477012Y59182D02*
X476250Y58420D01*
D17*
X607669Y210058D02*
X685038Y287427D01*
X483362Y851408D02*
X476250Y858520D01*
X483362Y851408D02*
X600049Y851408D01*
X652018Y799439D01*
X603250Y718820D02*
X665988Y656082D01*
X590550Y464820D02*
X477840Y464820D01*
X685038Y370332D02*
X685038Y287427D01*
X685038Y370332D02*
X590550Y464820D01*
X665988Y540258D01*
X665988Y656082D01*
X603250Y718820D02*
X652018Y767588D01*
X652018Y799439D01*
X603250Y718820D02*
X477840Y718820D01*
X236982Y151739D02*
X236982Y117501D01*
X236982Y151739D02*
X296063Y210820D01*
X296063Y58420D02*
X400050Y58420D01*
X296063Y58420D02*
X236982Y117501D01*
X296063Y210820D02*
X398460Y210820D01*
X296063Y210820D02*
X196850Y310033D01*
X196850Y391007D02*
X196927Y391083D01*
X270663Y464820D01*
X196850Y391007D02*
X196850Y310033D01*
X270663Y464820D02*
X398460Y464820D01*
X178054Y611124D02*
X285750Y718820D01*
X41910Y589280D02*
X41910Y416560D01*
X50800Y407670D01*
X180340Y407670D02*
X196927Y391083D01*
X178054Y611124D02*
X63754Y611124D01*
X63500Y610870D01*
X41910Y589280D01*
X50800Y407670D02*
X180340Y407670D01*
X285750Y718820D02*
X398460Y718820D01*
X63500Y610870D02*
X41910Y632460D01*
X41910Y724183D01*
X176247Y858520D01*
X400050Y858520D01*
D16*
X477840Y795020D02*
X514350Y795020D01*
X477840Y795020D02*
X477840Y769620D01*
X260350Y642620D02*
X234950Y642620D01*
X285750Y668020D02*
X398460Y668020D01*
X285750Y668020D02*
X260350Y642620D01*
X361950Y642620D02*
X398460Y642620D01*
X361950Y642620D02*
X361950Y591820D01*
X323850Y655320D02*
X260350Y591820D01*
X400466Y655320D02*
X412750Y667604D01*
X412750Y731936D01*
X400466Y655320D02*
X323850Y655320D01*
X398460Y744220D02*
X400466Y744220D01*
X412750Y731936D01*
X590550Y820420D02*
X615950Y795020D01*
X590550Y820420D02*
X476250Y820420D01*
X463550Y782736D02*
X412750Y731936D01*
X463550Y782736D02*
X463550Y807720D01*
X476250Y820420D01*
X398460Y769620D02*
X285750Y769620D01*
X260350Y795020D01*
X234950Y795020D01*
X285750Y414020D02*
X398460Y414020D01*
X285750Y414020D02*
X260350Y388620D01*
X234950Y388620D01*
X361950Y388620D02*
X398460Y388620D01*
X361950Y388620D02*
X361950Y337820D01*
X323850Y401320D02*
X260350Y337820D01*
X323850Y401320D02*
X400466Y401320D01*
X260350Y337820D02*
X260350Y287020D01*
X400466Y401320D02*
X412750Y413604D01*
X412750Y477520D01*
X400050Y490220D01*
X398460Y490220D01*
X398460Y515620D02*
X285750Y515620D01*
X260350Y541020D01*
X234950Y541020D01*
X477840Y642620D02*
X514350Y642620D01*
X477840Y642620D02*
X477840Y668020D01*
X477840Y515620D02*
X590550Y515620D01*
X615950Y541020D01*
X641350Y541020D01*
X552450Y401320D02*
X615950Y337820D01*
X552450Y401320D02*
X475834Y401320D01*
X463550Y413604D02*
X463550Y475930D01*
X477840Y490220D01*
X478315Y490695D01*
X463550Y413604D02*
X475834Y401320D01*
X478315Y490695D02*
X478315Y500439D01*
X467441Y519927D02*
X473533Y526019D01*
X467441Y519927D02*
X467441Y511313D01*
X615188Y641858D02*
X615950Y642620D01*
X478315Y500439D02*
X467441Y511313D01*
X615188Y626771D02*
X615188Y641858D01*
X615188Y626771D02*
X514436Y526019D01*
X473533Y526019D01*
X477840Y414020D02*
X590550Y414020D01*
X615950Y388620D01*
X641350Y388620D01*
X514350Y388620D02*
X477840Y388620D01*
X514350Y388620D02*
X514350Y337820D01*
X398460Y287020D02*
X361950Y287020D01*
X398460Y287020D02*
X398460Y261620D01*
X477840Y261620D02*
X590550Y261620D01*
X615950Y287020D01*
X641350Y287020D01*
X474803Y148351D02*
X463550Y159604D01*
X551419Y148351D02*
X615950Y83820D01*
X551419Y148351D02*
X474803Y148351D01*
X463550Y159604D02*
X463550Y223520D01*
X476250Y236220D01*
X477840Y236220D01*
X463550Y159604D02*
X413674Y109728D01*
X285242Y109728D01*
X260350Y134620D01*
X615950Y134620D02*
X641350Y134620D01*
X615950Y134620D02*
X590550Y160020D01*
X477840Y160020D01*
X477840Y134620D02*
X514350Y134620D01*
X514350Y83820D01*
X398460Y134620D02*
X361950Y134620D01*
X398460Y134620D02*
X398460Y160020D01*
X806450Y502920D02*
X806450Y541020D01*
X603250Y744220D02*
X477840Y744220D01*
D18*
X603250Y744220D03*
X628650Y718820D03*
D16*
X806450Y541020D01*
X603250Y693420D02*
X477840Y693420D01*
X761746Y522224D02*
X806450Y477520D01*
X761746Y522224D02*
X761746Y552551D01*
X654050Y642620D02*
X603250Y693420D01*
D18*
X654050Y642620D03*
X679450Y617220D03*
D16*
X747877Y566420D02*
X761746Y552551D01*
X747877Y566420D02*
X730250Y566420D01*
X679450Y617220D01*
X436560Y274320D02*
X398460Y236220D01*
X755650Y452120D02*
X806450Y452120D01*
X577850Y274320D02*
X436560Y274320D01*
D18*
X666750Y363220D03*
X692150Y388620D03*
D16*
X755650Y452120D01*
X666750Y363220D02*
X577850Y274320D01*
X461960Y248920D02*
X398460Y185420D01*
X461960Y248920D02*
X618337Y248920D01*
X755650Y426720D02*
X806450Y426720D01*
X666750Y297333D02*
X618337Y248920D01*
X666750Y297333D02*
X666750Y337820D01*
D18*
X666750Y337820D03*
X704850Y375920D03*
D16*
X755650Y426720D01*
X398460Y795020D02*
X361950Y795020D01*
X234950Y820420D02*
X69850Y655320D01*
X234950Y820420D02*
X336550Y820420D01*
X361950Y795020D01*
D18*
X69850Y629920D03*
X69850Y591820D03*
D16*
X69850Y629920D02*
X69850Y655320D01*
X69850Y591820D02*
X69850Y502920D01*
X477840Y541020D02*
X514350Y541020D01*
X120650Y477520D02*
X69850Y477520D01*
X120650Y477520D02*
X209550Y566420D01*
X452440Y566420D01*
X477840Y541020D01*
X398460Y541020D02*
X361950Y541020D01*
X120650Y452120D02*
X69850Y452120D01*
X120650Y452120D02*
X222250Y553720D01*
X349250Y553720D01*
X361950Y541020D01*
X477840Y287020D02*
X514350Y287020D01*
X117054Y426720D02*
X69850Y426720D01*
X190953Y500619D02*
X402767Y500619D01*
X408859Y494527D01*
X408859Y494111D01*
X190953Y500619D02*
X117054Y426720D01*
X431038Y333822D02*
X477840Y287020D01*
X431038Y333822D02*
X431038Y471932D01*
X408859Y494111D01*
M02*
