G04 EAGLE Gerber RS-274X export*
G75*
%MOMM*%
%FSLAX34Y34*%
%LPD*%
%INBottom Copper*%
%IPPOS*%
%AMOC8*
5,1,8,0,0,1.08239X$1,22.5*%
G01*
%ADD10C,1.575000*%
%ADD11R,1.590000X1.590000*%
%ADD12C,1.590000*%
%ADD13P,1.429621X8X112.500000*%
%ADD14C,1.270000*%

G36*
X821493Y10161D02*
X821493Y10161D01*
X821496Y10161D01*
X821843Y10181D01*
X822201Y10201D01*
X822204Y10201D01*
X822207Y10201D01*
X822547Y10260D01*
X822904Y10320D01*
X822906Y10321D01*
X822909Y10321D01*
X823254Y10421D01*
X823588Y10517D01*
X823591Y10519D01*
X823594Y10519D01*
X823918Y10654D01*
X824246Y10790D01*
X824249Y10792D01*
X824251Y10793D01*
X824563Y10965D01*
X824870Y11135D01*
X824872Y11137D01*
X824875Y11138D01*
X825172Y11349D01*
X825451Y11547D01*
X825453Y11549D01*
X825455Y11551D01*
X825723Y11791D01*
X825982Y12022D01*
X825984Y12025D01*
X825986Y12026D01*
X826224Y12294D01*
X826456Y12554D01*
X826458Y12556D01*
X826460Y12558D01*
X826658Y12839D01*
X826868Y13135D01*
X826870Y13138D01*
X826871Y13140D01*
X827034Y13436D01*
X827212Y13759D01*
X827213Y13762D01*
X827215Y13764D01*
X827346Y14082D01*
X827484Y14417D01*
X827485Y14420D01*
X827486Y14423D01*
X827581Y14752D01*
X827681Y15102D01*
X827682Y15105D01*
X827682Y15107D01*
X827742Y15461D01*
X827800Y15804D01*
X827800Y15807D01*
X827801Y15810D01*
X827839Y16510D01*
X827839Y983490D01*
X827839Y983493D01*
X827839Y983496D01*
X827819Y983843D01*
X827799Y984201D01*
X827799Y984204D01*
X827799Y984207D01*
X827740Y984547D01*
X827680Y984904D01*
X827679Y984906D01*
X827679Y984909D01*
X827579Y985254D01*
X827483Y985588D01*
X827481Y985591D01*
X827481Y985594D01*
X827346Y985918D01*
X827210Y986246D01*
X827208Y986249D01*
X827207Y986251D01*
X827037Y986558D01*
X826865Y986870D01*
X826863Y986872D01*
X826862Y986875D01*
X826651Y987172D01*
X826453Y987451D01*
X826451Y987453D01*
X826449Y987455D01*
X826209Y987723D01*
X825978Y987982D01*
X825975Y987984D01*
X825974Y987986D01*
X825706Y988224D01*
X825446Y988456D01*
X825444Y988458D01*
X825442Y988460D01*
X825161Y988658D01*
X824865Y988868D01*
X824862Y988870D01*
X824860Y988871D01*
X824564Y989034D01*
X824241Y989212D01*
X824238Y989213D01*
X824236Y989215D01*
X823918Y989346D01*
X823583Y989484D01*
X823580Y989485D01*
X823577Y989486D01*
X823248Y989581D01*
X822898Y989681D01*
X822895Y989682D01*
X822893Y989682D01*
X822539Y989742D01*
X822196Y989800D01*
X822193Y989800D01*
X822190Y989801D01*
X821490Y989839D01*
X16510Y989839D01*
X16507Y989839D01*
X16504Y989839D01*
X16157Y989819D01*
X15799Y989799D01*
X15796Y989799D01*
X15793Y989799D01*
X15453Y989740D01*
X15096Y989680D01*
X15094Y989679D01*
X15091Y989679D01*
X14746Y989579D01*
X14412Y989483D01*
X14409Y989481D01*
X14406Y989481D01*
X14082Y989346D01*
X13754Y989210D01*
X13751Y989208D01*
X13749Y989207D01*
X13437Y989035D01*
X13130Y988865D01*
X13128Y988863D01*
X13125Y988862D01*
X12828Y988651D01*
X12549Y988453D01*
X12547Y988451D01*
X12545Y988449D01*
X12277Y988209D01*
X12018Y987978D01*
X12016Y987975D01*
X12014Y987974D01*
X11776Y987706D01*
X11544Y987446D01*
X11542Y987444D01*
X11540Y987442D01*
X11342Y987161D01*
X11132Y986865D01*
X11130Y986862D01*
X11129Y986860D01*
X10963Y986558D01*
X10788Y986241D01*
X10787Y986238D01*
X10785Y986236D01*
X10654Y985918D01*
X10516Y985583D01*
X10515Y985580D01*
X10514Y985577D01*
X10419Y985248D01*
X10319Y984898D01*
X10318Y984895D01*
X10318Y984893D01*
X10258Y984539D01*
X10200Y984196D01*
X10200Y984193D01*
X10199Y984190D01*
X10161Y983490D01*
X10161Y16510D01*
X10161Y16507D01*
X10161Y16504D01*
X10181Y16157D01*
X10201Y15799D01*
X10201Y15796D01*
X10201Y15793D01*
X10260Y15453D01*
X10320Y15096D01*
X10321Y15094D01*
X10321Y15091D01*
X10421Y14746D01*
X10517Y14412D01*
X10519Y14409D01*
X10519Y14406D01*
X10654Y14082D01*
X10790Y13754D01*
X10792Y13751D01*
X10793Y13749D01*
X10965Y13437D01*
X11135Y13130D01*
X11137Y13128D01*
X11138Y13125D01*
X11349Y12828D01*
X11547Y12549D01*
X11549Y12547D01*
X11551Y12545D01*
X11791Y12277D01*
X12022Y12018D01*
X12025Y12016D01*
X12026Y12014D01*
X12294Y11776D01*
X12554Y11544D01*
X12556Y11542D01*
X12558Y11540D01*
X12839Y11342D01*
X13135Y11132D01*
X13138Y11130D01*
X13140Y11129D01*
X13436Y10966D01*
X13759Y10788D01*
X13762Y10787D01*
X13764Y10785D01*
X14082Y10654D01*
X14417Y10516D01*
X14420Y10515D01*
X14423Y10514D01*
X14752Y10419D01*
X15102Y10319D01*
X15105Y10318D01*
X15107Y10318D01*
X15461Y10258D01*
X15804Y10200D01*
X15807Y10200D01*
X15810Y10199D01*
X16510Y10161D01*
X821490Y10161D01*
X821493Y10161D01*
G37*
%LPC*%
G36*
X188428Y65785D02*
X188428Y65785D01*
X184601Y67371D01*
X156271Y95701D01*
X154685Y99528D01*
X154685Y577256D01*
X154685Y577260D01*
X154685Y577265D01*
X154665Y577618D01*
X154645Y577967D01*
X154645Y577972D01*
X154644Y577976D01*
X154584Y578327D01*
X154526Y578670D01*
X154525Y578674D01*
X154524Y578678D01*
X154422Y579030D01*
X154329Y579354D01*
X154327Y579358D01*
X154326Y579362D01*
X154190Y579688D01*
X154056Y580012D01*
X154054Y580016D01*
X154052Y580020D01*
X153882Y580327D01*
X153711Y580636D01*
X153709Y580639D01*
X153706Y580643D01*
X153494Y580942D01*
X153299Y581217D01*
X153296Y581220D01*
X153293Y581223D01*
X152826Y581746D01*
X143571Y591001D01*
X141985Y594828D01*
X141985Y608436D01*
X141985Y608441D01*
X141985Y608445D01*
X141965Y608798D01*
X141945Y609148D01*
X141945Y609152D01*
X141944Y609156D01*
X141884Y609507D01*
X141826Y609850D01*
X141825Y609854D01*
X141824Y609858D01*
X141722Y610211D01*
X141720Y610219D01*
X141719Y610219D01*
X141719Y610220D01*
X141629Y610535D01*
X141627Y610538D01*
X141626Y610543D01*
X141500Y610845D01*
X141487Y610881D01*
X140385Y613541D01*
X140385Y631059D01*
X141004Y632552D01*
X141303Y632852D01*
X141424Y632987D01*
X141553Y633116D01*
X141661Y633252D01*
X141778Y633383D01*
X141883Y633531D01*
X141996Y633673D01*
X142089Y633821D01*
X142190Y633964D01*
X142278Y634123D01*
X142375Y634277D01*
X142450Y634435D01*
X142535Y634587D01*
X142604Y634756D01*
X142683Y634919D01*
X142740Y635084D01*
X142807Y635246D01*
X142857Y635420D01*
X142917Y635592D01*
X142956Y635763D01*
X143004Y635930D01*
X143035Y636109D01*
X143075Y636287D01*
X143094Y636461D01*
X143123Y636633D01*
X143133Y636814D01*
X143154Y636995D01*
X143153Y637170D01*
X143163Y637344D01*
X143153Y637525D01*
X143152Y637707D01*
X143133Y637881D01*
X143123Y638055D01*
X143092Y638235D01*
X143071Y638415D01*
X143032Y638586D01*
X143003Y638758D01*
X142953Y638932D01*
X142912Y639110D01*
X142853Y639277D01*
X142805Y639442D01*
X142739Y639602D01*
X142680Y639771D01*
X140385Y645310D01*
X140385Y650090D01*
X142214Y654506D01*
X143619Y655910D01*
X143621Y655912D01*
X143623Y655914D01*
X143861Y656182D01*
X144094Y656442D01*
X144095Y656444D01*
X144097Y656446D01*
X144299Y656731D01*
X144506Y657023D01*
X144507Y657025D01*
X144509Y657028D01*
X144682Y657341D01*
X144850Y657646D01*
X144852Y657649D01*
X144853Y657651D01*
X144984Y657968D01*
X145123Y658304D01*
X145124Y658307D01*
X145125Y658310D01*
X145224Y658654D01*
X145320Y658989D01*
X145320Y658992D01*
X145321Y658995D01*
X145382Y659354D01*
X145439Y659691D01*
X145439Y659694D01*
X145440Y659697D01*
X145460Y660061D01*
X145479Y660403D01*
X145479Y660406D01*
X145479Y660409D01*
X145459Y660749D01*
X145438Y661114D01*
X145438Y661117D01*
X145438Y661120D01*
X145378Y661469D01*
X145319Y661816D01*
X145318Y661819D01*
X145317Y661822D01*
X145217Y662167D01*
X145121Y662501D01*
X145120Y662503D01*
X145119Y662506D01*
X144984Y662830D01*
X144848Y663159D01*
X144847Y663161D01*
X144845Y663164D01*
X144671Y663479D01*
X144503Y663782D01*
X144501Y663784D01*
X144500Y663787D01*
X144299Y664069D01*
X144090Y664363D01*
X144088Y664365D01*
X144087Y664367D01*
X143619Y664890D01*
X142214Y666294D01*
X140385Y670710D01*
X140385Y675490D01*
X142214Y679906D01*
X144119Y681810D01*
X144121Y681812D01*
X144123Y681814D01*
X144361Y682082D01*
X144594Y682342D01*
X144595Y682344D01*
X144597Y682346D01*
X144805Y682639D01*
X145006Y682923D01*
X145007Y682925D01*
X145009Y682928D01*
X145186Y683248D01*
X145350Y683546D01*
X145351Y683549D01*
X145353Y683551D01*
X145491Y683887D01*
X145623Y684204D01*
X145624Y684207D01*
X145625Y684210D01*
X145725Y684561D01*
X145820Y684889D01*
X145820Y684892D01*
X145821Y684895D01*
X145882Y685256D01*
X145939Y685591D01*
X145939Y685594D01*
X145940Y685597D01*
X145959Y685943D01*
X145979Y686303D01*
X145979Y686306D01*
X145979Y686309D01*
X145958Y686662D01*
X145938Y687014D01*
X145938Y687017D01*
X145938Y687020D01*
X145878Y687369D01*
X145819Y687716D01*
X145818Y687719D01*
X145817Y687722D01*
X145717Y688067D01*
X145621Y688401D01*
X145620Y688403D01*
X145619Y688406D01*
X145482Y688737D01*
X145348Y689059D01*
X145347Y689061D01*
X145345Y689064D01*
X145184Y689355D01*
X145003Y689682D01*
X145001Y689684D01*
X145000Y689687D01*
X144791Y689980D01*
X144590Y690263D01*
X144588Y690265D01*
X144587Y690267D01*
X144119Y690790D01*
X143214Y691694D01*
X141385Y696110D01*
X141385Y700890D01*
X143214Y705306D01*
X146594Y708686D01*
X151010Y710515D01*
X155790Y710515D01*
X158486Y709398D01*
X158659Y709338D01*
X158828Y709268D01*
X158995Y709220D01*
X159158Y709163D01*
X159337Y709122D01*
X159513Y709072D01*
X159684Y709043D01*
X159853Y709004D01*
X160035Y708984D01*
X160216Y708953D01*
X160391Y708944D01*
X160561Y708925D01*
X160735Y708925D01*
X160916Y708915D01*
X226228Y708915D01*
X226230Y708915D01*
X226231Y708915D01*
X226599Y708936D01*
X226939Y708955D01*
X226941Y708955D01*
X226942Y708955D01*
X227325Y709020D01*
X227642Y709074D01*
X227643Y709074D01*
X227645Y709075D01*
X228012Y709181D01*
X228326Y709271D01*
X228328Y709272D01*
X228329Y709272D01*
X228671Y709414D01*
X228984Y709544D01*
X228986Y709545D01*
X228987Y709545D01*
X229316Y709727D01*
X229608Y709889D01*
X229609Y709890D01*
X229610Y709891D01*
X229946Y710129D01*
X230189Y710301D01*
X230190Y710302D01*
X230191Y710303D01*
X230472Y710555D01*
X230720Y710776D01*
X230721Y710777D01*
X230722Y710778D01*
X230952Y711037D01*
X231194Y711308D01*
X231195Y711309D01*
X231196Y711310D01*
X231376Y711564D01*
X231606Y711889D01*
X231607Y711890D01*
X231608Y711892D01*
X231759Y712166D01*
X231950Y712513D01*
X231951Y712514D01*
X231952Y712515D01*
X232079Y712824D01*
X232223Y713171D01*
X232223Y713173D01*
X232224Y713174D01*
X232313Y713484D01*
X232419Y713856D01*
X232420Y713857D01*
X232420Y713859D01*
X232479Y714207D01*
X232538Y714558D01*
X232538Y714560D01*
X232538Y714561D01*
X232559Y714935D01*
X232577Y715270D01*
X232577Y715271D01*
X232577Y715273D01*
X232557Y715633D01*
X232537Y715981D01*
X232537Y715982D01*
X232536Y715984D01*
X232476Y716335D01*
X232417Y716683D01*
X232416Y716684D01*
X232416Y716686D01*
X232317Y717030D01*
X232219Y717368D01*
X232218Y717369D01*
X232218Y717370D01*
X232086Y717688D01*
X231945Y718025D01*
X231945Y718027D01*
X231944Y718028D01*
X231769Y718343D01*
X231600Y718649D01*
X231599Y718650D01*
X231599Y718651D01*
X231384Y718953D01*
X231187Y719229D01*
X231186Y719230D01*
X231185Y719231D01*
X230718Y719754D01*
X226146Y724326D01*
X226142Y724329D01*
X226140Y724332D01*
X225883Y724561D01*
X225614Y724800D01*
X225611Y724803D01*
X225608Y724806D01*
X225312Y725015D01*
X225033Y725213D01*
X225030Y725215D01*
X225026Y725217D01*
X224726Y725382D01*
X224410Y725557D01*
X224406Y725559D01*
X224402Y725561D01*
X224087Y725691D01*
X223752Y725830D01*
X223747Y725831D01*
X223743Y725832D01*
X223420Y725925D01*
X223067Y726027D01*
X223063Y726027D01*
X223059Y726028D01*
X222712Y726087D01*
X222365Y726146D01*
X222360Y726146D01*
X222356Y726147D01*
X221656Y726185D01*
X166264Y726185D01*
X166256Y726185D01*
X166248Y726185D01*
X165904Y726165D01*
X165552Y726145D01*
X165545Y726144D01*
X165537Y726144D01*
X165192Y726084D01*
X164850Y726026D01*
X164843Y726024D01*
X164835Y726022D01*
X164495Y725923D01*
X164481Y725920D01*
X164481Y725919D01*
X164480Y725919D01*
X164165Y725829D01*
X164158Y725826D01*
X164151Y725823D01*
X163854Y725700D01*
X163819Y725687D01*
X161159Y724585D01*
X143641Y724585D01*
X142148Y725204D01*
X141004Y726348D01*
X140385Y727841D01*
X140385Y745359D01*
X141004Y746852D01*
X141303Y747152D01*
X141424Y747287D01*
X141553Y747416D01*
X141661Y747552D01*
X141778Y747683D01*
X141883Y747831D01*
X141996Y747973D01*
X142089Y748121D01*
X142190Y748264D01*
X142278Y748423D01*
X142375Y748577D01*
X142450Y748735D01*
X142535Y748887D01*
X142604Y749056D01*
X142683Y749219D01*
X142740Y749384D01*
X142807Y749546D01*
X142857Y749720D01*
X142917Y749892D01*
X142956Y750063D01*
X143004Y750230D01*
X143035Y750409D01*
X143075Y750587D01*
X143094Y750761D01*
X143123Y750933D01*
X143133Y751114D01*
X143154Y751295D01*
X143153Y751470D01*
X143163Y751644D01*
X143153Y751825D01*
X143152Y752007D01*
X143133Y752181D01*
X143123Y752355D01*
X143092Y752535D01*
X143071Y752715D01*
X143032Y752886D01*
X143003Y753058D01*
X142953Y753232D01*
X142912Y753410D01*
X142853Y753577D01*
X142805Y753742D01*
X142739Y753902D01*
X142680Y754071D01*
X140385Y759610D01*
X140385Y764390D01*
X142214Y768806D01*
X143619Y770210D01*
X143621Y770212D01*
X143623Y770214D01*
X143861Y770482D01*
X144094Y770742D01*
X144095Y770744D01*
X144097Y770746D01*
X144299Y771031D01*
X144506Y771323D01*
X144507Y771325D01*
X144509Y771328D01*
X144682Y771641D01*
X144850Y771946D01*
X144852Y771949D01*
X144853Y771951D01*
X144984Y772268D01*
X145123Y772604D01*
X145124Y772607D01*
X145125Y772610D01*
X145221Y772947D01*
X145320Y773289D01*
X145320Y773292D01*
X145321Y773295D01*
X145380Y773643D01*
X145439Y773991D01*
X145439Y773994D01*
X145440Y773997D01*
X145460Y774361D01*
X145479Y774703D01*
X145479Y774706D01*
X145479Y774709D01*
X145459Y775045D01*
X145438Y775414D01*
X145438Y775417D01*
X145438Y775420D01*
X145378Y775769D01*
X145319Y776116D01*
X145318Y776119D01*
X145317Y776122D01*
X145217Y776467D01*
X145121Y776801D01*
X145120Y776803D01*
X145119Y776806D01*
X144984Y777130D01*
X144848Y777459D01*
X144847Y777461D01*
X144845Y777464D01*
X144671Y777779D01*
X144503Y778082D01*
X144501Y778084D01*
X144500Y778087D01*
X144299Y778369D01*
X144090Y778663D01*
X144088Y778665D01*
X144087Y778667D01*
X143619Y779190D01*
X142214Y780594D01*
X140385Y785010D01*
X140385Y789790D01*
X142214Y794206D01*
X145197Y797189D01*
X145397Y797413D01*
X145601Y797633D01*
X145634Y797678D01*
X145672Y797720D01*
X145846Y797965D01*
X146024Y798206D01*
X146051Y798255D01*
X146084Y798301D01*
X146229Y798564D01*
X146379Y798824D01*
X146402Y798875D01*
X146429Y798925D01*
X146543Y799201D01*
X146663Y799477D01*
X146680Y799531D01*
X146701Y799583D01*
X146784Y799870D01*
X146872Y800158D01*
X146883Y800213D01*
X146898Y800267D01*
X146948Y800562D01*
X147004Y800858D01*
X147008Y800914D01*
X147017Y800970D01*
X147034Y801268D01*
X147056Y801569D01*
X147054Y801625D01*
X147057Y801681D01*
X147040Y801981D01*
X147028Y802281D01*
X147020Y802336D01*
X147017Y802392D01*
X146966Y802687D01*
X146921Y802985D01*
X146906Y803039D01*
X146897Y803095D01*
X146814Y803382D01*
X146736Y803673D01*
X146715Y803725D01*
X146699Y803779D01*
X146585Y804056D01*
X146474Y804335D01*
X146448Y804385D01*
X146426Y804437D01*
X146281Y804699D01*
X146140Y804965D01*
X146108Y805012D01*
X146081Y805060D01*
X145919Y805288D01*
X145745Y805544D01*
X145049Y806451D01*
X153400Y806451D01*
X161945Y806451D01*
X161865Y806257D01*
X161832Y806144D01*
X161792Y806035D01*
X161734Y805802D01*
X161668Y805572D01*
X161648Y805457D01*
X161620Y805343D01*
X161589Y805105D01*
X161549Y804870D01*
X161543Y804753D01*
X161527Y804637D01*
X161523Y804397D01*
X161510Y804158D01*
X161517Y804042D01*
X161514Y803925D01*
X161537Y803686D01*
X161550Y803447D01*
X161570Y803332D01*
X161581Y803215D01*
X161630Y802981D01*
X161671Y802745D01*
X161703Y802632D01*
X161727Y802518D01*
X161802Y802290D01*
X161868Y802060D01*
X161913Y801952D01*
X161950Y801841D01*
X162050Y801624D01*
X162142Y801403D01*
X162198Y801300D01*
X162247Y801194D01*
X162371Y800989D01*
X162487Y800779D01*
X162555Y800684D01*
X162615Y800584D01*
X162761Y800394D01*
X162900Y800199D01*
X162978Y800112D01*
X163049Y800019D01*
X163216Y799847D01*
X163376Y799668D01*
X163463Y799591D01*
X163544Y799506D01*
X163729Y799354D01*
X163907Y799194D01*
X164003Y799127D01*
X164093Y799052D01*
X164293Y798921D01*
X164489Y798783D01*
X164592Y798726D01*
X164689Y798663D01*
X164903Y798555D01*
X165113Y798439D01*
X165221Y798395D01*
X165326Y798342D01*
X165550Y798259D01*
X165772Y798168D01*
X165884Y798135D01*
X165994Y798095D01*
X166227Y798037D01*
X166457Y797972D01*
X166572Y797952D01*
X166685Y797924D01*
X166923Y797893D01*
X167159Y797853D01*
X167277Y797847D01*
X167392Y797832D01*
X167620Y797828D01*
X167859Y797815D01*
X234356Y797815D01*
X234360Y797815D01*
X234365Y797815D01*
X234718Y797835D01*
X235067Y797855D01*
X235072Y797855D01*
X235076Y797856D01*
X235427Y797916D01*
X235770Y797974D01*
X235774Y797975D01*
X235778Y797976D01*
X236130Y798078D01*
X236454Y798171D01*
X236458Y798173D01*
X236462Y798174D01*
X236788Y798310D01*
X237112Y798444D01*
X237116Y798446D01*
X237120Y798448D01*
X237427Y798618D01*
X237736Y798789D01*
X237739Y798791D01*
X237743Y798794D01*
X238042Y799006D01*
X238317Y799201D01*
X238320Y799204D01*
X238323Y799207D01*
X238846Y799674D01*
X279572Y840400D01*
X279574Y840403D01*
X279578Y840406D01*
X279812Y840669D01*
X280046Y840932D01*
X280049Y840935D01*
X280052Y840938D01*
X280253Y841223D01*
X280459Y841513D01*
X280461Y841516D01*
X280463Y841520D01*
X280632Y841826D01*
X280803Y842136D01*
X280805Y842140D01*
X280807Y842144D01*
X280941Y842469D01*
X281056Y842748D01*
X281057Y842749D01*
X281059Y842753D01*
X281061Y842757D01*
X281193Y843079D01*
X281330Y843408D01*
X281331Y843412D01*
X281332Y843416D01*
X281429Y843754D01*
X281527Y844092D01*
X281527Y844096D01*
X281528Y844101D01*
X281588Y844457D01*
X281646Y844795D01*
X281646Y844799D01*
X281647Y844803D01*
X281685Y845503D01*
X281685Y894397D01*
X281685Y894401D01*
X281685Y894406D01*
X281665Y894764D01*
X281645Y895108D01*
X281645Y895113D01*
X281644Y895117D01*
X281584Y895468D01*
X281526Y895811D01*
X281525Y895815D01*
X281524Y895819D01*
X281431Y896139D01*
X281431Y906119D01*
X285223Y909910D01*
X285225Y909913D01*
X285227Y909914D01*
X285456Y910171D01*
X285697Y910442D01*
X285699Y910444D01*
X285701Y910446D01*
X285911Y910743D01*
X286109Y911023D01*
X286111Y911025D01*
X286112Y911028D01*
X286286Y911342D01*
X286454Y911646D01*
X286455Y911649D01*
X286456Y911651D01*
X286593Y911982D01*
X286726Y912304D01*
X286727Y912307D01*
X286728Y912310D01*
X286825Y912648D01*
X286923Y912989D01*
X286924Y912992D01*
X286925Y912995D01*
X286986Y913360D01*
X287043Y913692D01*
X287043Y913694D01*
X287043Y913697D01*
X287063Y914056D01*
X287082Y914403D01*
X287082Y914406D01*
X287082Y914409D01*
X287063Y914744D01*
X287042Y915114D01*
X287041Y915117D01*
X287041Y915120D01*
X286982Y915463D01*
X286922Y915816D01*
X286921Y915819D01*
X286921Y915822D01*
X286819Y916175D01*
X286725Y916501D01*
X286724Y916503D01*
X286723Y916506D01*
X286584Y916839D01*
X286451Y917159D01*
X286450Y917161D01*
X286449Y917164D01*
X286278Y917472D01*
X286106Y917782D01*
X286105Y917784D01*
X286103Y917787D01*
X285906Y918064D01*
X285694Y918363D01*
X285692Y918365D01*
X285690Y918367D01*
X285223Y918890D01*
X281431Y922681D01*
X281431Y931519D01*
X287681Y937769D01*
X297661Y937769D01*
X297992Y937673D01*
X297996Y937673D01*
X298001Y937672D01*
X298357Y937612D01*
X298695Y937554D01*
X298699Y937554D01*
X298703Y937553D01*
X299403Y937515D01*
X370372Y937515D01*
X374199Y935929D01*
X434254Y875874D01*
X434257Y875872D01*
X434260Y875868D01*
X434523Y875634D01*
X434786Y875400D01*
X434789Y875397D01*
X434792Y875394D01*
X435077Y875193D01*
X435367Y874987D01*
X435370Y874985D01*
X435374Y874983D01*
X435688Y874810D01*
X435990Y874643D01*
X435994Y874641D01*
X435998Y874639D01*
X436323Y874505D01*
X436648Y874370D01*
X436653Y874369D01*
X436657Y874368D01*
X436996Y874270D01*
X437333Y874173D01*
X437337Y874173D01*
X437341Y874172D01*
X437698Y874112D01*
X438035Y874054D01*
X438040Y874054D01*
X438044Y874053D01*
X438744Y874015D01*
X462580Y874015D01*
X462763Y874025D01*
X462947Y874025D01*
X463119Y874045D01*
X463292Y874055D01*
X463472Y874085D01*
X463654Y874106D01*
X463823Y874145D01*
X463994Y874174D01*
X464170Y874225D01*
X464349Y874266D01*
X464515Y874324D01*
X464679Y874371D01*
X464840Y874438D01*
X465010Y874498D01*
X467525Y875540D01*
X472275Y875540D01*
X476663Y873722D01*
X479188Y871197D01*
X479190Y871195D01*
X479192Y871193D01*
X479459Y870955D01*
X479719Y870723D01*
X479722Y870721D01*
X479724Y870719D01*
X480017Y870512D01*
X480300Y870310D01*
X480303Y870309D01*
X480305Y870307D01*
X480626Y870131D01*
X480924Y869966D01*
X480926Y869965D01*
X480929Y869963D01*
X481274Y869821D01*
X481582Y869693D01*
X481585Y869693D01*
X481588Y869692D01*
X481941Y869590D01*
X482267Y869496D01*
X482269Y869496D01*
X482272Y869495D01*
X482637Y869434D01*
X482969Y869377D01*
X482972Y869377D01*
X482975Y869377D01*
X483341Y869357D01*
X483680Y869338D01*
X483683Y869338D01*
X483686Y869338D01*
X484038Y869358D01*
X484392Y869378D01*
X484395Y869378D01*
X484397Y869379D01*
X484744Y869438D01*
X485094Y869498D01*
X485097Y869498D01*
X485100Y869499D01*
X485437Y869597D01*
X485778Y869695D01*
X485781Y869696D01*
X485784Y869697D01*
X486114Y869835D01*
X486436Y869968D01*
X486439Y869970D01*
X486442Y869971D01*
X486757Y870146D01*
X487060Y870313D01*
X487062Y870315D01*
X487065Y870316D01*
X487357Y870525D01*
X487640Y870726D01*
X487643Y870728D01*
X487645Y870730D01*
X488167Y871197D01*
X488418Y871448D01*
X488951Y871857D01*
X488951Y863600D01*
X488951Y855343D01*
X488418Y855752D01*
X488167Y856003D01*
X488165Y856005D01*
X488163Y856007D01*
X487905Y856237D01*
X487636Y856477D01*
X487634Y856479D01*
X487631Y856481D01*
X487350Y856680D01*
X487055Y856890D01*
X487052Y856891D01*
X487050Y856893D01*
X486729Y857070D01*
X486431Y857234D01*
X486429Y857235D01*
X486426Y857237D01*
X486097Y857372D01*
X485773Y857507D01*
X485770Y857507D01*
X485768Y857508D01*
X485437Y857603D01*
X485088Y857704D01*
X485086Y857704D01*
X485083Y857705D01*
X484721Y857766D01*
X484386Y857823D01*
X484383Y857823D01*
X484380Y857823D01*
X484015Y857843D01*
X483675Y857862D01*
X483672Y857862D01*
X483669Y857862D01*
X483318Y857842D01*
X482963Y857822D01*
X482961Y857822D01*
X482958Y857821D01*
X482612Y857762D01*
X482261Y857702D01*
X482258Y857702D01*
X482256Y857701D01*
X481914Y857602D01*
X481577Y857505D01*
X481574Y857504D01*
X481571Y857503D01*
X481241Y857365D01*
X480919Y857232D01*
X480916Y857230D01*
X480914Y857229D01*
X480611Y857061D01*
X480295Y856887D01*
X480293Y856885D01*
X480291Y856883D01*
X479997Y856675D01*
X479715Y856474D01*
X479713Y856472D01*
X479710Y856470D01*
X479188Y856003D01*
X476663Y853478D01*
X472275Y851660D01*
X467525Y851660D01*
X465010Y852702D01*
X464837Y852762D01*
X464668Y852832D01*
X464501Y852880D01*
X464338Y852937D01*
X464159Y852978D01*
X463983Y853028D01*
X463812Y853057D01*
X463643Y853096D01*
X463461Y853116D01*
X463280Y853147D01*
X463105Y853156D01*
X462935Y853175D01*
X462760Y853175D01*
X462580Y853185D01*
X429728Y853185D01*
X425901Y854771D01*
X365846Y914826D01*
X365843Y914828D01*
X365840Y914832D01*
X365577Y915066D01*
X365314Y915300D01*
X365311Y915303D01*
X365308Y915306D01*
X365023Y915507D01*
X364733Y915713D01*
X364730Y915715D01*
X364726Y915717D01*
X364416Y915888D01*
X364110Y916057D01*
X364106Y916059D01*
X364102Y916061D01*
X363777Y916195D01*
X363452Y916330D01*
X363447Y916331D01*
X363443Y916332D01*
X363105Y916429D01*
X362767Y916527D01*
X362763Y916527D01*
X362759Y916528D01*
X362402Y916588D01*
X362065Y916646D01*
X362060Y916646D01*
X362056Y916647D01*
X361356Y916685D01*
X307531Y916685D01*
X307530Y916685D01*
X307528Y916685D01*
X307154Y916664D01*
X306820Y916645D01*
X306818Y916645D01*
X306817Y916645D01*
X306451Y916583D01*
X306117Y916526D01*
X306116Y916525D01*
X306115Y916525D01*
X305742Y916418D01*
X305433Y916329D01*
X305432Y916328D01*
X305430Y916328D01*
X305094Y916188D01*
X304775Y916056D01*
X304773Y916055D01*
X304772Y916055D01*
X304468Y915886D01*
X304151Y915711D01*
X304150Y915710D01*
X304149Y915709D01*
X303826Y915480D01*
X303570Y915299D01*
X303570Y915298D01*
X303568Y915297D01*
X303282Y915040D01*
X303039Y914824D01*
X303038Y914823D01*
X303037Y914822D01*
X302802Y914558D01*
X302565Y914292D01*
X302564Y914291D01*
X302563Y914290D01*
X302378Y914029D01*
X302153Y913711D01*
X302152Y913709D01*
X302151Y913708D01*
X302003Y913438D01*
X301809Y913087D01*
X301808Y913086D01*
X301808Y913085D01*
X301673Y912759D01*
X301537Y912429D01*
X301536Y912427D01*
X301536Y912426D01*
X301432Y912066D01*
X301340Y911744D01*
X301340Y911743D01*
X301339Y911741D01*
X301275Y911360D01*
X301221Y911042D01*
X301221Y911040D01*
X301221Y911039D01*
X301200Y910662D01*
X301182Y910330D01*
X301182Y910329D01*
X301182Y910327D01*
X301204Y909948D01*
X301222Y909619D01*
X301223Y909618D01*
X301223Y909616D01*
X301285Y909251D01*
X301342Y908917D01*
X301343Y908915D01*
X301343Y908914D01*
X301443Y908570D01*
X301540Y908232D01*
X301541Y908231D01*
X301541Y908230D01*
X301677Y907904D01*
X301814Y907575D01*
X301814Y907573D01*
X301815Y907572D01*
X301978Y907278D01*
X302159Y906951D01*
X302160Y906950D01*
X302161Y906949D01*
X302375Y906648D01*
X302572Y906371D01*
X302573Y906370D01*
X302574Y906369D01*
X302769Y906151D01*
X302769Y896139D01*
X302674Y895808D01*
X302673Y895804D01*
X302672Y895799D01*
X302614Y895455D01*
X302554Y895106D01*
X302554Y895101D01*
X302553Y895097D01*
X302515Y894397D01*
X302515Y845503D01*
X302515Y845499D01*
X302515Y845494D01*
X302535Y845141D01*
X302555Y844792D01*
X302555Y844788D01*
X302556Y844783D01*
X302619Y844414D01*
X302674Y844089D01*
X302675Y844085D01*
X302676Y844081D01*
X302769Y843761D01*
X302769Y833781D01*
X302690Y833702D01*
X302689Y833702D01*
X302689Y833701D01*
X297900Y828912D01*
X297898Y828910D01*
X297896Y828908D01*
X297657Y828641D01*
X297425Y828381D01*
X297423Y828378D01*
X297422Y828376D01*
X297214Y828083D01*
X297013Y827800D01*
X297012Y827797D01*
X297010Y827795D01*
X296837Y827481D01*
X296668Y827176D01*
X296667Y827173D01*
X296666Y827171D01*
X296534Y826852D01*
X296396Y826518D01*
X296395Y826515D01*
X296394Y826512D01*
X296296Y826170D01*
X296199Y825833D01*
X296198Y825830D01*
X296198Y825828D01*
X296134Y825448D01*
X296080Y825131D01*
X296080Y825128D01*
X296079Y825125D01*
X296059Y824759D01*
X296040Y824420D01*
X296040Y824417D01*
X296040Y824414D01*
X296061Y824045D01*
X296080Y823708D01*
X296081Y823705D01*
X296081Y823703D01*
X296141Y823353D01*
X296200Y823006D01*
X296201Y823003D01*
X296201Y823000D01*
X296300Y822659D01*
X296398Y822321D01*
X296399Y822319D01*
X296400Y822316D01*
X296539Y821982D01*
X296671Y821663D01*
X296672Y821661D01*
X296673Y821658D01*
X296848Y821344D01*
X297016Y821040D01*
X297018Y821038D01*
X297019Y821035D01*
X297218Y820755D01*
X297429Y820460D01*
X297431Y820457D01*
X297432Y820455D01*
X297900Y819933D01*
X298683Y819149D01*
X292100Y819149D01*
X292097Y819149D01*
X292095Y819149D01*
X291747Y819130D01*
X291389Y819109D01*
X291386Y819109D01*
X291383Y819109D01*
X291043Y819051D01*
X290687Y818990D01*
X290684Y818989D01*
X290681Y818989D01*
X290336Y818889D01*
X290002Y818793D01*
X290000Y818792D01*
X289997Y818791D01*
X289673Y818656D01*
X289344Y818520D01*
X289341Y818518D01*
X289339Y818517D01*
X289027Y818345D01*
X288721Y818175D01*
X288718Y818174D01*
X288716Y818172D01*
X288406Y817952D01*
X288140Y817763D01*
X288138Y817761D01*
X288135Y817759D01*
X287867Y817519D01*
X287609Y817288D01*
X287608Y817287D01*
X287606Y817285D01*
X287605Y817284D01*
X287604Y817283D01*
X287366Y817016D01*
X287134Y816756D01*
X287132Y816753D01*
X287130Y816751D01*
X286931Y816469D01*
X286722Y816175D01*
X286720Y816172D01*
X286719Y816170D01*
X286545Y815855D01*
X286378Y815551D01*
X286376Y815548D01*
X286375Y815546D01*
X286244Y815227D01*
X286105Y814892D01*
X286105Y814890D01*
X286104Y814887D01*
X286007Y814548D01*
X285909Y814208D01*
X285908Y814205D01*
X285907Y814202D01*
X285845Y813829D01*
X285790Y813505D01*
X285790Y813503D01*
X285789Y813500D01*
X285751Y812800D01*
X285751Y806217D01*
X284788Y807180D01*
X284786Y807182D01*
X284784Y807184D01*
X284513Y807425D01*
X284256Y807654D01*
X284254Y807656D01*
X284252Y807658D01*
X283963Y807863D01*
X283675Y808067D01*
X283673Y808068D01*
X283671Y808070D01*
X283373Y808234D01*
X283052Y808411D01*
X283049Y808412D01*
X283047Y808414D01*
X282722Y808548D01*
X282394Y808684D01*
X282391Y808685D01*
X282388Y808686D01*
X282050Y808782D01*
X281709Y808881D01*
X281706Y808881D01*
X281703Y808882D01*
X281339Y808944D01*
X281007Y809000D01*
X281004Y809000D01*
X281001Y809000D01*
X280635Y809021D01*
X280295Y809039D01*
X280292Y809039D01*
X280289Y809039D01*
X279938Y809019D01*
X279584Y808999D01*
X279581Y808999D01*
X279578Y808999D01*
X279235Y808940D01*
X278882Y808879D01*
X278879Y808879D01*
X278876Y808878D01*
X278523Y808776D01*
X278197Y808682D01*
X278195Y808681D01*
X278192Y808680D01*
X277859Y808542D01*
X277539Y808409D01*
X277537Y808407D01*
X277534Y808406D01*
X277223Y808234D01*
X276916Y808064D01*
X276914Y808062D01*
X276911Y808061D01*
X276626Y807858D01*
X276335Y807651D01*
X276333Y807649D01*
X276331Y807647D01*
X275808Y807180D01*
X257886Y789257D01*
X257885Y789257D01*
X251536Y782908D01*
X251536Y782907D01*
X247818Y779190D01*
X247816Y779187D01*
X247814Y779186D01*
X247578Y778920D01*
X247344Y778658D01*
X247342Y778656D01*
X247340Y778654D01*
X247137Y778367D01*
X246931Y778077D01*
X246930Y778075D01*
X246928Y778072D01*
X246750Y777750D01*
X246587Y777454D01*
X246586Y777451D01*
X246584Y777449D01*
X246443Y777107D01*
X246314Y776795D01*
X246314Y776793D01*
X246312Y776790D01*
X246213Y776443D01*
X246117Y776111D01*
X246117Y776108D01*
X246116Y776105D01*
X246054Y775738D01*
X245998Y775408D01*
X245998Y775406D01*
X245998Y775403D01*
X245977Y775035D01*
X245959Y774697D01*
X245959Y774694D01*
X245959Y774691D01*
X245979Y774341D01*
X245999Y773986D01*
X245999Y773983D01*
X246000Y773980D01*
X246058Y773640D01*
X246119Y773284D01*
X246119Y773281D01*
X246120Y773278D01*
X246221Y772930D01*
X246316Y772599D01*
X246317Y772597D01*
X246318Y772594D01*
X246457Y772261D01*
X246589Y771941D01*
X246591Y771939D01*
X246592Y771936D01*
X246758Y771636D01*
X246934Y771318D01*
X246936Y771315D01*
X246937Y771313D01*
X247144Y771023D01*
X247347Y770737D01*
X247349Y770735D01*
X247351Y770733D01*
X247818Y770210D01*
X270592Y747436D01*
X270593Y747435D01*
X270594Y747434D01*
X270852Y747204D01*
X271124Y746962D01*
X271125Y746961D01*
X271126Y746960D01*
X271430Y746745D01*
X271705Y746549D01*
X271706Y746549D01*
X271707Y746548D01*
X272050Y746359D01*
X272328Y746205D01*
X272329Y746204D01*
X272331Y746204D01*
X272673Y746062D01*
X272987Y745932D01*
X272988Y745932D01*
X272989Y745931D01*
X273354Y745827D01*
X273671Y745735D01*
X273672Y745735D01*
X273674Y745735D01*
X274040Y745673D01*
X274374Y745616D01*
X274375Y745616D01*
X274376Y745616D01*
X274729Y745596D01*
X275085Y745577D01*
X275086Y745577D01*
X275088Y745577D01*
X275421Y745596D01*
X275796Y745617D01*
X275798Y745617D01*
X275799Y745617D01*
X276105Y745670D01*
X276498Y745737D01*
X276500Y745737D01*
X276501Y745737D01*
X276827Y745832D01*
X277183Y745934D01*
X277184Y745935D01*
X277186Y745935D01*
X277518Y746073D01*
X277841Y746207D01*
X277842Y746208D01*
X277843Y746209D01*
X278144Y746375D01*
X278464Y746552D01*
X278465Y746553D01*
X278467Y746554D01*
X278729Y746741D01*
X279045Y746965D01*
X279046Y746966D01*
X279047Y746967D01*
X279307Y747200D01*
X279576Y747440D01*
X279577Y747441D01*
X279578Y747442D01*
X279811Y747704D01*
X280050Y747972D01*
X280051Y747973D01*
X280052Y747974D01*
X280254Y748260D01*
X280462Y748553D01*
X280462Y748555D01*
X280463Y748556D01*
X280625Y748849D01*
X280806Y749177D01*
X280806Y749179D01*
X280807Y749180D01*
X280927Y749472D01*
X281077Y749836D01*
X281078Y749837D01*
X281078Y749838D01*
X281170Y750157D01*
X281274Y750521D01*
X281274Y750522D01*
X281274Y750523D01*
X281331Y750863D01*
X281392Y751223D01*
X281392Y751225D01*
X281393Y751226D01*
X281431Y751926D01*
X281431Y753719D01*
X285223Y757510D01*
X285225Y757513D01*
X285227Y757514D01*
X285456Y757771D01*
X285697Y758042D01*
X285699Y758044D01*
X285701Y758046D01*
X285911Y758343D01*
X286109Y758623D01*
X286111Y758625D01*
X286112Y758628D01*
X286286Y758942D01*
X286454Y759246D01*
X286455Y759249D01*
X286456Y759251D01*
X286593Y759582D01*
X286726Y759904D01*
X286727Y759907D01*
X286728Y759910D01*
X286825Y760248D01*
X286923Y760589D01*
X286924Y760592D01*
X286925Y760595D01*
X286986Y760960D01*
X287043Y761292D01*
X287043Y761294D01*
X287043Y761297D01*
X287063Y761656D01*
X287082Y762003D01*
X287082Y762006D01*
X287082Y762009D01*
X287063Y762344D01*
X287042Y762714D01*
X287041Y762717D01*
X287041Y762720D01*
X286982Y763063D01*
X286922Y763416D01*
X286921Y763419D01*
X286921Y763422D01*
X286819Y763775D01*
X286725Y764101D01*
X286724Y764103D01*
X286723Y764106D01*
X286584Y764439D01*
X286451Y764759D01*
X286450Y764761D01*
X286449Y764764D01*
X286278Y765072D01*
X286106Y765382D01*
X286105Y765384D01*
X286103Y765387D01*
X285901Y765672D01*
X285694Y765963D01*
X285692Y765965D01*
X285690Y765967D01*
X285223Y766490D01*
X281431Y770281D01*
X281431Y779119D01*
X287681Y785369D01*
X297661Y785369D01*
X297992Y785273D01*
X297996Y785273D01*
X298001Y785272D01*
X298357Y785212D01*
X298695Y785154D01*
X298699Y785154D01*
X298703Y785153D01*
X299403Y785115D01*
X383072Y785115D01*
X386899Y783529D01*
X434254Y736174D01*
X434257Y736172D01*
X434260Y736168D01*
X434523Y735934D01*
X434786Y735700D01*
X434789Y735697D01*
X434792Y735694D01*
X435077Y735493D01*
X435367Y735287D01*
X435370Y735285D01*
X435374Y735283D01*
X435684Y735112D01*
X435990Y734943D01*
X435994Y734941D01*
X435998Y734939D01*
X436323Y734805D01*
X436648Y734670D01*
X436653Y734669D01*
X436657Y734668D01*
X436996Y734570D01*
X437333Y734473D01*
X437337Y734473D01*
X437341Y734472D01*
X437698Y734412D01*
X438035Y734354D01*
X438040Y734354D01*
X438044Y734353D01*
X438744Y734315D01*
X462580Y734315D01*
X462763Y734325D01*
X462947Y734325D01*
X463119Y734345D01*
X463292Y734355D01*
X463472Y734385D01*
X463654Y734406D01*
X463823Y734445D01*
X463994Y734474D01*
X464170Y734525D01*
X464349Y734566D01*
X464515Y734624D01*
X464679Y734671D01*
X464840Y734738D01*
X465010Y734798D01*
X467525Y735840D01*
X472275Y735840D01*
X476663Y734022D01*
X479188Y731497D01*
X479190Y731495D01*
X479192Y731493D01*
X479459Y731255D01*
X479719Y731023D01*
X479722Y731021D01*
X479724Y731019D01*
X480019Y730810D01*
X480300Y730610D01*
X480303Y730609D01*
X480305Y730607D01*
X480626Y730431D01*
X480924Y730266D01*
X480926Y730265D01*
X480929Y730263D01*
X481274Y730121D01*
X481582Y729993D01*
X481585Y729993D01*
X481588Y729992D01*
X481941Y729890D01*
X482267Y729796D01*
X482269Y729796D01*
X482272Y729795D01*
X482637Y729734D01*
X482969Y729677D01*
X482972Y729677D01*
X482975Y729677D01*
X483341Y729657D01*
X483680Y729638D01*
X483683Y729638D01*
X483686Y729638D01*
X484038Y729658D01*
X484392Y729678D01*
X484395Y729678D01*
X484397Y729679D01*
X484744Y729738D01*
X485094Y729798D01*
X485097Y729798D01*
X485100Y729799D01*
X485437Y729897D01*
X485778Y729995D01*
X485781Y729996D01*
X485784Y729997D01*
X486114Y730135D01*
X486436Y730268D01*
X486439Y730270D01*
X486442Y730271D01*
X486757Y730446D01*
X487060Y730613D01*
X487062Y730615D01*
X487065Y730616D01*
X487357Y730825D01*
X487640Y731026D01*
X487643Y731028D01*
X487645Y731030D01*
X488167Y731497D01*
X488418Y731748D01*
X488951Y732157D01*
X488951Y723900D01*
X488951Y715643D01*
X488418Y716052D01*
X488167Y716303D01*
X488165Y716305D01*
X488163Y716307D01*
X487905Y716537D01*
X487636Y716777D01*
X487634Y716779D01*
X487631Y716781D01*
X487350Y716980D01*
X487055Y717190D01*
X487052Y717191D01*
X487050Y717193D01*
X486733Y717368D01*
X486431Y717534D01*
X486429Y717535D01*
X486426Y717537D01*
X486096Y717673D01*
X485773Y717807D01*
X485770Y717807D01*
X485768Y717808D01*
X485437Y717903D01*
X485088Y718004D01*
X485086Y718004D01*
X485083Y718005D01*
X484721Y718066D01*
X484386Y718123D01*
X484383Y718123D01*
X484380Y718123D01*
X484015Y718143D01*
X483675Y718162D01*
X483672Y718162D01*
X483669Y718162D01*
X483318Y718142D01*
X482963Y718122D01*
X482961Y718122D01*
X482958Y718121D01*
X482612Y718062D01*
X482261Y718002D01*
X482258Y718002D01*
X482256Y718001D01*
X481913Y717902D01*
X481577Y717805D01*
X481574Y717804D01*
X481571Y717803D01*
X481241Y717665D01*
X480919Y717532D01*
X480916Y717530D01*
X480914Y717529D01*
X480611Y717361D01*
X480295Y717187D01*
X480293Y717185D01*
X480291Y717183D01*
X479997Y716975D01*
X479715Y716774D01*
X479713Y716772D01*
X479710Y716770D01*
X479188Y716303D01*
X476663Y713778D01*
X472275Y711960D01*
X467525Y711960D01*
X465010Y713002D01*
X464837Y713062D01*
X464668Y713132D01*
X464501Y713180D01*
X464338Y713237D01*
X464159Y713278D01*
X463983Y713328D01*
X463812Y713357D01*
X463643Y713396D01*
X463461Y713416D01*
X463280Y713447D01*
X463105Y713456D01*
X462935Y713475D01*
X462760Y713475D01*
X462580Y713485D01*
X429728Y713485D01*
X425901Y715071D01*
X378546Y762426D01*
X378543Y762428D01*
X378540Y762432D01*
X378277Y762666D01*
X378014Y762900D01*
X378011Y762903D01*
X378008Y762906D01*
X377723Y763107D01*
X377433Y763313D01*
X377430Y763315D01*
X377426Y763317D01*
X377116Y763488D01*
X376810Y763657D01*
X376806Y763659D01*
X376802Y763661D01*
X376477Y763795D01*
X376152Y763930D01*
X376147Y763931D01*
X376143Y763932D01*
X375805Y764029D01*
X375467Y764127D01*
X375463Y764127D01*
X375459Y764128D01*
X375102Y764188D01*
X374765Y764246D01*
X374760Y764246D01*
X374756Y764247D01*
X374056Y764285D01*
X307531Y764285D01*
X307530Y764285D01*
X307528Y764285D01*
X307154Y764264D01*
X306820Y764245D01*
X306818Y764245D01*
X306817Y764245D01*
X306451Y764183D01*
X306117Y764126D01*
X306116Y764125D01*
X306115Y764125D01*
X305742Y764018D01*
X305433Y763929D01*
X305432Y763928D01*
X305430Y763928D01*
X305094Y763788D01*
X304775Y763656D01*
X304773Y763655D01*
X304772Y763655D01*
X304468Y763486D01*
X304151Y763311D01*
X304150Y763310D01*
X304149Y763309D01*
X303821Y763077D01*
X303570Y762899D01*
X303570Y762898D01*
X303568Y762897D01*
X303282Y762640D01*
X303039Y762424D01*
X303038Y762423D01*
X303037Y762422D01*
X302802Y762158D01*
X302565Y761892D01*
X302564Y761891D01*
X302563Y761890D01*
X302378Y761629D01*
X302153Y761311D01*
X302152Y761309D01*
X302151Y761308D01*
X302003Y761038D01*
X301809Y760687D01*
X301808Y760686D01*
X301808Y760685D01*
X301665Y760340D01*
X301537Y760029D01*
X301536Y760027D01*
X301536Y760026D01*
X301432Y759666D01*
X301340Y759344D01*
X301340Y759343D01*
X301339Y759341D01*
X301275Y758960D01*
X301221Y758642D01*
X301221Y758640D01*
X301221Y758639D01*
X301200Y758262D01*
X301182Y757930D01*
X301182Y757929D01*
X301182Y757927D01*
X301204Y757548D01*
X301222Y757219D01*
X301223Y757218D01*
X301223Y757216D01*
X301285Y756851D01*
X301342Y756517D01*
X301343Y756515D01*
X301343Y756514D01*
X301443Y756170D01*
X301540Y755832D01*
X301541Y755831D01*
X301541Y755830D01*
X301677Y755504D01*
X301814Y755175D01*
X301814Y755173D01*
X301815Y755172D01*
X301979Y754877D01*
X302159Y754551D01*
X302160Y754550D01*
X302161Y754549D01*
X302375Y754248D01*
X302572Y753971D01*
X302573Y753970D01*
X302574Y753969D01*
X302769Y753751D01*
X302769Y743739D01*
X302673Y743408D01*
X302673Y743404D01*
X302672Y743399D01*
X302612Y743043D01*
X302554Y742705D01*
X302554Y742701D01*
X302553Y742697D01*
X302515Y741997D01*
X302515Y705803D01*
X302515Y705799D01*
X302515Y705794D01*
X302535Y705441D01*
X302555Y705092D01*
X302555Y705088D01*
X302556Y705083D01*
X302619Y704714D01*
X302674Y704389D01*
X302675Y704385D01*
X302676Y704381D01*
X302769Y704061D01*
X302769Y694081D01*
X302706Y694018D01*
X297900Y689212D01*
X297898Y689210D01*
X297896Y689208D01*
X297657Y688941D01*
X297425Y688681D01*
X297423Y688678D01*
X297422Y688676D01*
X297214Y688384D01*
X297013Y688100D01*
X297012Y688097D01*
X297010Y688095D01*
X296837Y687781D01*
X296668Y687476D01*
X296667Y687473D01*
X296666Y687471D01*
X296532Y687146D01*
X296396Y686818D01*
X296395Y686815D01*
X296394Y686812D01*
X296300Y686484D01*
X296199Y686133D01*
X296198Y686130D01*
X296198Y686128D01*
X296137Y685769D01*
X296080Y685431D01*
X296080Y685428D01*
X296079Y685425D01*
X296058Y685035D01*
X296040Y684720D01*
X296040Y684717D01*
X296040Y684714D01*
X296060Y684362D01*
X296080Y684008D01*
X296081Y684005D01*
X296081Y684003D01*
X296141Y683653D01*
X296200Y683306D01*
X296201Y683303D01*
X296201Y683300D01*
X296305Y682941D01*
X296398Y682621D01*
X296399Y682619D01*
X296400Y682616D01*
X296539Y682282D01*
X296671Y681963D01*
X296672Y681961D01*
X296673Y681958D01*
X296844Y681651D01*
X297016Y681340D01*
X297018Y681338D01*
X297019Y681335D01*
X297216Y681059D01*
X297429Y680760D01*
X297431Y680757D01*
X297432Y680755D01*
X297900Y680233D01*
X298683Y679449D01*
X292100Y679449D01*
X292097Y679449D01*
X292095Y679449D01*
X291747Y679430D01*
X291389Y679409D01*
X291386Y679409D01*
X291383Y679409D01*
X291043Y679351D01*
X290687Y679290D01*
X290684Y679289D01*
X290681Y679289D01*
X290336Y679189D01*
X290002Y679093D01*
X290000Y679092D01*
X289997Y679091D01*
X289673Y678956D01*
X289344Y678820D01*
X289341Y678818D01*
X289339Y678817D01*
X289027Y678645D01*
X288721Y678475D01*
X288718Y678474D01*
X288716Y678472D01*
X288405Y678251D01*
X288140Y678063D01*
X288138Y678061D01*
X288135Y678059D01*
X287863Y677816D01*
X287609Y677588D01*
X287608Y677587D01*
X287606Y677585D01*
X287605Y677584D01*
X287604Y677583D01*
X287361Y677311D01*
X287134Y677056D01*
X287132Y677053D01*
X287130Y677051D01*
X286919Y676753D01*
X286722Y676475D01*
X286720Y676472D01*
X286719Y676470D01*
X286556Y676173D01*
X286378Y675851D01*
X286376Y675848D01*
X286375Y675846D01*
X286244Y675527D01*
X286105Y675192D01*
X286105Y675190D01*
X286104Y675187D01*
X286009Y674858D01*
X285909Y674508D01*
X285908Y674505D01*
X285907Y674502D01*
X285847Y674141D01*
X285790Y673805D01*
X285790Y673803D01*
X285789Y673800D01*
X285751Y673100D01*
X285751Y665739D01*
X285560Y665818D01*
X285558Y665818D01*
X285557Y665819D01*
X285199Y665921D01*
X284875Y666015D01*
X284874Y666015D01*
X284872Y666015D01*
X284522Y666075D01*
X284172Y666134D01*
X284171Y666134D01*
X284170Y666134D01*
X283825Y666153D01*
X283461Y666174D01*
X283460Y666173D01*
X283458Y666174D01*
X283119Y666154D01*
X282750Y666133D01*
X282748Y666133D01*
X282747Y666133D01*
X282424Y666078D01*
X282048Y666014D01*
X282046Y666013D01*
X282045Y666013D01*
X281721Y665919D01*
X281363Y665816D01*
X281362Y665815D01*
X281360Y665815D01*
X281032Y665679D01*
X280705Y665543D01*
X280704Y665542D01*
X280703Y665542D01*
X280370Y665357D01*
X280082Y665198D01*
X280081Y665197D01*
X280079Y665196D01*
X279798Y664996D01*
X279501Y664785D01*
X279500Y664784D01*
X279499Y664783D01*
X279243Y664554D01*
X278970Y664310D01*
X278969Y664309D01*
X278968Y664308D01*
X278731Y664042D01*
X278496Y663778D01*
X278495Y663777D01*
X278494Y663776D01*
X278268Y663457D01*
X278084Y663197D01*
X278084Y663196D01*
X278083Y663194D01*
X277909Y662879D01*
X277741Y662573D01*
X277740Y662571D01*
X277739Y662570D01*
X277615Y662270D01*
X277469Y661914D01*
X277468Y661913D01*
X277468Y661912D01*
X277371Y661573D01*
X277272Y661230D01*
X277272Y661228D01*
X277272Y661227D01*
X277209Y660856D01*
X277154Y660527D01*
X277154Y660526D01*
X277153Y660524D01*
X277115Y659824D01*
X277115Y650431D01*
X277115Y650430D01*
X277115Y650428D01*
X277138Y650016D01*
X277155Y649720D01*
X277155Y649718D01*
X277155Y649717D01*
X277221Y649331D01*
X277274Y649017D01*
X277275Y649016D01*
X277275Y649015D01*
X277386Y648631D01*
X277471Y648333D01*
X277472Y648332D01*
X277472Y648330D01*
X277612Y647994D01*
X277744Y647675D01*
X277745Y647673D01*
X277745Y647672D01*
X277914Y647368D01*
X278089Y647051D01*
X278090Y647050D01*
X278091Y647049D01*
X278320Y646726D01*
X278501Y646470D01*
X278502Y646470D01*
X278503Y646468D01*
X278769Y646172D01*
X278976Y645939D01*
X278977Y645938D01*
X278978Y645937D01*
X279242Y645702D01*
X279508Y645465D01*
X279509Y645464D01*
X279510Y645463D01*
X279771Y645278D01*
X280089Y645053D01*
X280091Y645052D01*
X280092Y645051D01*
X280362Y644903D01*
X280713Y644709D01*
X280714Y644708D01*
X280715Y644708D01*
X281041Y644573D01*
X281371Y644437D01*
X281373Y644436D01*
X281374Y644436D01*
X281734Y644332D01*
X282056Y644240D01*
X282057Y644240D01*
X282059Y644239D01*
X282440Y644175D01*
X282758Y644121D01*
X282760Y644121D01*
X282761Y644121D01*
X283138Y644100D01*
X283470Y644082D01*
X283471Y644082D01*
X283473Y644082D01*
X283852Y644104D01*
X284181Y644122D01*
X284182Y644123D01*
X284184Y644123D01*
X284549Y644185D01*
X284883Y644242D01*
X284885Y644243D01*
X284886Y644243D01*
X285230Y644343D01*
X285568Y644440D01*
X285569Y644441D01*
X285570Y644441D01*
X285896Y644577D01*
X286225Y644714D01*
X286227Y644714D01*
X286228Y644715D01*
X286522Y644878D01*
X286849Y645059D01*
X286850Y645060D01*
X286851Y645061D01*
X287123Y645254D01*
X287429Y645472D01*
X287430Y645473D01*
X287431Y645474D01*
X287649Y645669D01*
X297661Y645669D01*
X297992Y645573D01*
X297996Y645573D01*
X298001Y645572D01*
X298357Y645512D01*
X298695Y645454D01*
X298699Y645454D01*
X298703Y645453D01*
X299403Y645415D01*
X383072Y645415D01*
X386899Y643829D01*
X434254Y596474D01*
X434257Y596472D01*
X434260Y596468D01*
X434523Y596234D01*
X434785Y596000D01*
X434789Y595997D01*
X434792Y595994D01*
X435077Y595793D01*
X435367Y595587D01*
X435370Y595585D01*
X435374Y595583D01*
X435684Y595412D01*
X435990Y595243D01*
X435994Y595241D01*
X435998Y595239D01*
X436323Y595105D01*
X436648Y594970D01*
X436653Y594969D01*
X436656Y594968D01*
X436996Y594870D01*
X437333Y594773D01*
X437337Y594773D01*
X437341Y594772D01*
X437698Y594712D01*
X438035Y594654D01*
X438040Y594654D01*
X438044Y594653D01*
X438744Y594615D01*
X462580Y594615D01*
X462763Y594625D01*
X462947Y594625D01*
X463119Y594645D01*
X463292Y594655D01*
X463472Y594685D01*
X463654Y594706D01*
X463823Y594745D01*
X463994Y594774D01*
X464170Y594825D01*
X464349Y594866D01*
X464515Y594924D01*
X464679Y594971D01*
X464840Y595038D01*
X465010Y595098D01*
X467525Y596140D01*
X472275Y596140D01*
X476663Y594322D01*
X479188Y591797D01*
X479190Y591795D01*
X479192Y591793D01*
X479459Y591555D01*
X479719Y591323D01*
X479722Y591321D01*
X479724Y591319D01*
X480017Y591112D01*
X480300Y590910D01*
X480303Y590909D01*
X480305Y590907D01*
X480626Y590731D01*
X480924Y590566D01*
X480926Y590565D01*
X480929Y590563D01*
X481274Y590421D01*
X481582Y590293D01*
X481585Y590293D01*
X481588Y590292D01*
X481941Y590190D01*
X482267Y590096D01*
X482269Y590096D01*
X482272Y590095D01*
X482637Y590034D01*
X482969Y589977D01*
X482972Y589977D01*
X482975Y589977D01*
X483341Y589957D01*
X483680Y589938D01*
X483683Y589938D01*
X483686Y589938D01*
X484038Y589958D01*
X484392Y589978D01*
X484395Y589978D01*
X484397Y589979D01*
X484744Y590038D01*
X485094Y590098D01*
X485097Y590098D01*
X485100Y590099D01*
X485437Y590197D01*
X485778Y590295D01*
X485781Y590296D01*
X485784Y590297D01*
X486114Y590435D01*
X486436Y590568D01*
X486439Y590570D01*
X486442Y590571D01*
X486757Y590746D01*
X487060Y590913D01*
X487062Y590915D01*
X487065Y590916D01*
X487357Y591125D01*
X487640Y591326D01*
X487643Y591328D01*
X487645Y591330D01*
X488167Y591797D01*
X488418Y592048D01*
X488951Y592457D01*
X488951Y584200D01*
X488951Y575943D01*
X488418Y576352D01*
X488167Y576603D01*
X488165Y576605D01*
X488163Y576607D01*
X487905Y576837D01*
X487636Y577077D01*
X487634Y577079D01*
X487631Y577081D01*
X487350Y577280D01*
X487055Y577490D01*
X487052Y577491D01*
X487050Y577493D01*
X486729Y577670D01*
X486431Y577834D01*
X486429Y577835D01*
X486426Y577837D01*
X486096Y577973D01*
X485773Y578107D01*
X485770Y578107D01*
X485768Y578108D01*
X485437Y578203D01*
X485088Y578304D01*
X485086Y578304D01*
X485083Y578305D01*
X484721Y578366D01*
X484386Y578423D01*
X484383Y578423D01*
X484380Y578423D01*
X484015Y578443D01*
X483675Y578462D01*
X483672Y578462D01*
X483669Y578462D01*
X483318Y578442D01*
X482963Y578422D01*
X482961Y578422D01*
X482958Y578421D01*
X482612Y578362D01*
X482261Y578302D01*
X482258Y578302D01*
X482256Y578301D01*
X481914Y578202D01*
X481577Y578105D01*
X481574Y578104D01*
X481571Y578103D01*
X481241Y577965D01*
X480919Y577832D01*
X480916Y577830D01*
X480914Y577829D01*
X480611Y577661D01*
X480295Y577487D01*
X480293Y577485D01*
X480291Y577483D01*
X479997Y577275D01*
X479715Y577074D01*
X479713Y577072D01*
X479710Y577070D01*
X479188Y576603D01*
X476663Y574078D01*
X472275Y572260D01*
X467525Y572260D01*
X465010Y573302D01*
X464837Y573362D01*
X464668Y573432D01*
X464501Y573480D01*
X464338Y573537D01*
X464159Y573578D01*
X463983Y573628D01*
X463812Y573657D01*
X463643Y573696D01*
X463461Y573716D01*
X463280Y573747D01*
X463105Y573756D01*
X462935Y573775D01*
X462760Y573775D01*
X462580Y573785D01*
X429728Y573785D01*
X425901Y575371D01*
X422078Y579193D01*
X422078Y579194D01*
X378546Y622726D01*
X378543Y622728D01*
X378540Y622732D01*
X378277Y622966D01*
X378014Y623200D01*
X378011Y623203D01*
X378008Y623206D01*
X377723Y623407D01*
X377433Y623613D01*
X377430Y623615D01*
X377426Y623617D01*
X377116Y623788D01*
X376810Y623957D01*
X376806Y623959D01*
X376802Y623961D01*
X376477Y624095D01*
X376152Y624230D01*
X376147Y624231D01*
X376143Y624232D01*
X375816Y624326D01*
X375467Y624427D01*
X375463Y624427D01*
X375459Y624428D01*
X375112Y624487D01*
X374765Y624546D01*
X374760Y624546D01*
X374756Y624547D01*
X374056Y624585D01*
X307531Y624585D01*
X307530Y624585D01*
X307528Y624585D01*
X307154Y624564D01*
X306820Y624545D01*
X306818Y624545D01*
X306817Y624545D01*
X306451Y624483D01*
X306117Y624426D01*
X306116Y624425D01*
X306115Y624425D01*
X305742Y624318D01*
X305433Y624229D01*
X305432Y624228D01*
X305430Y624228D01*
X305094Y624088D01*
X304775Y623956D01*
X304773Y623955D01*
X304772Y623955D01*
X304468Y623786D01*
X304151Y623611D01*
X304150Y623610D01*
X304149Y623609D01*
X303826Y623380D01*
X303570Y623199D01*
X303570Y623198D01*
X303568Y623197D01*
X303282Y622940D01*
X303039Y622724D01*
X303038Y622723D01*
X303037Y622722D01*
X302795Y622450D01*
X302565Y622192D01*
X302564Y622191D01*
X302563Y622190D01*
X302378Y621929D01*
X302153Y621611D01*
X302152Y621609D01*
X302151Y621608D01*
X302003Y621338D01*
X301809Y620987D01*
X301808Y620986D01*
X301808Y620985D01*
X301672Y620657D01*
X301537Y620329D01*
X301536Y620327D01*
X301536Y620326D01*
X301432Y619966D01*
X301340Y619644D01*
X301340Y619643D01*
X301339Y619641D01*
X301275Y619260D01*
X301221Y618942D01*
X301221Y618940D01*
X301221Y618939D01*
X301199Y618539D01*
X301182Y618230D01*
X301182Y618229D01*
X301182Y618227D01*
X301205Y617827D01*
X301222Y617519D01*
X301223Y617518D01*
X301223Y617516D01*
X301285Y617151D01*
X301342Y616817D01*
X301343Y616815D01*
X301343Y616814D01*
X301443Y616470D01*
X301540Y616132D01*
X301541Y616131D01*
X301541Y616130D01*
X301677Y615804D01*
X301814Y615475D01*
X301814Y615473D01*
X301815Y615472D01*
X301978Y615178D01*
X302159Y614851D01*
X302160Y614850D01*
X302161Y614849D01*
X302370Y614555D01*
X302572Y614271D01*
X302573Y614270D01*
X302574Y614269D01*
X302769Y614051D01*
X302769Y604039D01*
X302674Y603708D01*
X302673Y603704D01*
X302672Y603699D01*
X302614Y603355D01*
X302554Y603006D01*
X302554Y603001D01*
X302553Y602997D01*
X302515Y602297D01*
X302515Y566103D01*
X302515Y566099D01*
X302515Y566094D01*
X302535Y565736D01*
X302555Y565392D01*
X302555Y565387D01*
X302556Y565383D01*
X302617Y565023D01*
X302674Y564689D01*
X302675Y564685D01*
X302676Y564681D01*
X302769Y564361D01*
X302769Y554381D01*
X302723Y554335D01*
X302722Y554335D01*
X302722Y554334D01*
X297900Y549512D01*
X297898Y549510D01*
X297896Y549508D01*
X297657Y549241D01*
X297425Y548981D01*
X297423Y548978D01*
X297422Y548976D01*
X297214Y548684D01*
X297013Y548400D01*
X297012Y548397D01*
X297010Y548395D01*
X296837Y548081D01*
X296668Y547776D01*
X296667Y547773D01*
X296666Y547771D01*
X296534Y547452D01*
X296396Y547118D01*
X296395Y547115D01*
X296394Y547112D01*
X296298Y546777D01*
X296199Y546433D01*
X296198Y546430D01*
X296198Y546428D01*
X296137Y546069D01*
X296080Y545731D01*
X296080Y545728D01*
X296079Y545725D01*
X296059Y545351D01*
X296040Y545020D01*
X296040Y545017D01*
X296040Y545014D01*
X296060Y544662D01*
X296080Y544308D01*
X296081Y544305D01*
X296081Y544303D01*
X296141Y543953D01*
X296200Y543606D01*
X296201Y543603D01*
X296201Y543600D01*
X296300Y543259D01*
X296398Y542921D01*
X296399Y542919D01*
X296400Y542916D01*
X296539Y542582D01*
X296671Y542263D01*
X296672Y542261D01*
X296673Y542258D01*
X296844Y541951D01*
X297016Y541640D01*
X297018Y541638D01*
X297019Y541635D01*
X297216Y541359D01*
X297429Y541060D01*
X297431Y541057D01*
X297432Y541055D01*
X297900Y540533D01*
X298683Y539749D01*
X292100Y539749D01*
X284739Y539749D01*
X284818Y539940D01*
X284818Y539942D01*
X284819Y539943D01*
X284921Y540301D01*
X285015Y540625D01*
X285015Y540626D01*
X285015Y540628D01*
X285075Y540978D01*
X285134Y541328D01*
X285134Y541329D01*
X285134Y541330D01*
X285151Y541640D01*
X285174Y542039D01*
X285173Y542040D01*
X285174Y542042D01*
X285154Y542381D01*
X285133Y542750D01*
X285133Y542752D01*
X285133Y542753D01*
X285078Y543076D01*
X285014Y543452D01*
X285013Y543454D01*
X285013Y543455D01*
X284935Y543724D01*
X284816Y544137D01*
X284815Y544138D01*
X284815Y544140D01*
X284679Y544466D01*
X284543Y544795D01*
X284542Y544796D01*
X284542Y544797D01*
X284359Y545126D01*
X284198Y545418D01*
X284197Y545419D01*
X284196Y545421D01*
X283996Y545702D01*
X283785Y545999D01*
X283784Y546000D01*
X283783Y546001D01*
X283561Y546249D01*
X283310Y546530D01*
X283309Y546531D01*
X283308Y546532D01*
X283042Y546769D01*
X282778Y547004D01*
X282777Y547005D01*
X282776Y547006D01*
X282476Y547218D01*
X282197Y547416D01*
X282196Y547416D01*
X282194Y547417D01*
X281879Y547591D01*
X281573Y547759D01*
X281571Y547760D01*
X281570Y547761D01*
X281270Y547885D01*
X280914Y548031D01*
X280913Y548032D01*
X280912Y548032D01*
X280603Y548121D01*
X280230Y548228D01*
X280228Y548228D01*
X280227Y548228D01*
X279864Y548289D01*
X279527Y548346D01*
X279526Y548346D01*
X279524Y548347D01*
X278824Y548385D01*
X264628Y548385D01*
X260494Y550098D01*
X260324Y550157D01*
X260157Y550226D01*
X259987Y550275D01*
X259821Y550333D01*
X259645Y550373D01*
X259472Y550423D01*
X259299Y550452D01*
X259127Y550492D01*
X258947Y550512D01*
X258770Y550542D01*
X258594Y550552D01*
X258419Y550571D01*
X258238Y550571D01*
X258058Y550581D01*
X257882Y550571D01*
X257706Y550571D01*
X257527Y550551D01*
X257347Y550541D01*
X257173Y550511D01*
X256998Y550491D01*
X256823Y550451D01*
X256645Y550421D01*
X256476Y550372D01*
X256304Y550332D01*
X256134Y550273D01*
X255960Y550223D01*
X255798Y550155D01*
X255632Y550097D01*
X255469Y550019D01*
X255303Y549949D01*
X255148Y549864D01*
X254990Y549787D01*
X254837Y549691D01*
X254679Y549604D01*
X254536Y549502D01*
X254387Y549408D01*
X254246Y549295D01*
X254099Y549191D01*
X253968Y549074D01*
X253830Y548964D01*
X253703Y548836D01*
X253568Y548715D01*
X253451Y548584D01*
X253327Y548459D01*
X253214Y548318D01*
X253094Y548184D01*
X252993Y548040D01*
X252883Y547902D01*
X252787Y547749D01*
X252683Y547602D01*
X252598Y547448D01*
X252504Y547299D01*
X252426Y547136D01*
X252339Y546978D01*
X252272Y546815D01*
X252196Y546656D01*
X252136Y546486D01*
X252068Y546319D01*
X252019Y546150D01*
X251961Y545984D01*
X251921Y545808D01*
X251872Y545634D01*
X251842Y545461D01*
X251803Y545289D01*
X251783Y545110D01*
X251753Y544932D01*
X251744Y544753D01*
X251724Y544581D01*
X251725Y544409D01*
X251715Y544232D01*
X251715Y435864D01*
X251715Y435861D01*
X251715Y435858D01*
X251735Y435499D01*
X251755Y435153D01*
X251755Y435150D01*
X251755Y435147D01*
X251814Y434807D01*
X251874Y434450D01*
X251875Y434448D01*
X251875Y434445D01*
X251975Y434100D01*
X252071Y433766D01*
X252073Y433763D01*
X252073Y433760D01*
X252212Y433426D01*
X252344Y433108D01*
X252346Y433105D01*
X252347Y433103D01*
X252519Y432791D01*
X252689Y432484D01*
X252691Y432482D01*
X252692Y432479D01*
X252903Y432182D01*
X253101Y431903D01*
X253103Y431901D01*
X253105Y431899D01*
X253345Y431631D01*
X253576Y431372D01*
X253579Y431370D01*
X253580Y431368D01*
X253848Y431130D01*
X254108Y430898D01*
X254110Y430896D01*
X254112Y430894D01*
X254393Y430696D01*
X254689Y430486D01*
X254692Y430484D01*
X254694Y430483D01*
X254994Y430318D01*
X255313Y430142D01*
X255316Y430141D01*
X255318Y430139D01*
X255636Y430008D01*
X255971Y429870D01*
X255974Y429869D01*
X255977Y429868D01*
X256306Y429773D01*
X256656Y429673D01*
X256659Y429672D01*
X256661Y429672D01*
X257015Y429612D01*
X257358Y429554D01*
X257361Y429554D01*
X257364Y429553D01*
X258064Y429515D01*
X275336Y429515D01*
X275339Y429515D01*
X275342Y429515D01*
X275689Y429535D01*
X276047Y429555D01*
X276050Y429555D01*
X276053Y429555D01*
X276393Y429614D01*
X276750Y429674D01*
X276752Y429675D01*
X276755Y429675D01*
X277100Y429775D01*
X277434Y429871D01*
X277437Y429873D01*
X277440Y429873D01*
X277764Y430008D01*
X278092Y430144D01*
X278095Y430146D01*
X278097Y430147D01*
X278406Y430318D01*
X278716Y430489D01*
X278718Y430491D01*
X278721Y430492D01*
X279011Y430699D01*
X279297Y430901D01*
X279299Y430903D01*
X279301Y430905D01*
X279569Y431145D01*
X279828Y431376D01*
X279830Y431379D01*
X279832Y431380D01*
X280070Y431648D01*
X280302Y431908D01*
X280304Y431910D01*
X280306Y431912D01*
X280492Y432176D01*
X280714Y432489D01*
X280716Y432492D01*
X280717Y432494D01*
X280880Y432790D01*
X281058Y433113D01*
X281059Y433116D01*
X281061Y433118D01*
X281188Y433426D01*
X281330Y433771D01*
X281331Y433774D01*
X281332Y433777D01*
X281423Y434093D01*
X281527Y434456D01*
X281528Y434459D01*
X281528Y434461D01*
X281588Y434815D01*
X281646Y435158D01*
X281646Y435161D01*
X281647Y435164D01*
X281685Y435864D01*
X281685Y462597D01*
X281685Y462601D01*
X281685Y462606D01*
X281666Y462945D01*
X281645Y463308D01*
X281645Y463313D01*
X281644Y463317D01*
X281584Y463671D01*
X281526Y464011D01*
X281525Y464015D01*
X281524Y464019D01*
X281431Y464339D01*
X281431Y474319D01*
X285223Y478110D01*
X285225Y478113D01*
X285227Y478114D01*
X285456Y478371D01*
X285697Y478642D01*
X285699Y478644D01*
X285701Y478646D01*
X285911Y478943D01*
X286109Y479223D01*
X286111Y479225D01*
X286112Y479228D01*
X286286Y479542D01*
X286454Y479846D01*
X286455Y479849D01*
X286456Y479851D01*
X286586Y480165D01*
X286726Y480504D01*
X286727Y480507D01*
X286728Y480510D01*
X286825Y480848D01*
X286923Y481189D01*
X286924Y481192D01*
X286925Y481195D01*
X286986Y481560D01*
X287043Y481892D01*
X287043Y481894D01*
X287043Y481897D01*
X287063Y482256D01*
X287082Y482603D01*
X287082Y482606D01*
X287082Y482609D01*
X287063Y482944D01*
X287042Y483314D01*
X287041Y483317D01*
X287041Y483320D01*
X286982Y483663D01*
X286922Y484016D01*
X286921Y484019D01*
X286921Y484022D01*
X286819Y484375D01*
X286725Y484701D01*
X286724Y484703D01*
X286723Y484706D01*
X286584Y485039D01*
X286451Y485359D01*
X286450Y485361D01*
X286449Y485364D01*
X286278Y485672D01*
X286106Y485982D01*
X286105Y485984D01*
X286103Y485987D01*
X285901Y486272D01*
X285694Y486563D01*
X285692Y486565D01*
X285690Y486567D01*
X285223Y487090D01*
X281431Y490881D01*
X281431Y499719D01*
X287681Y505969D01*
X297661Y505969D01*
X297992Y505874D01*
X297996Y505873D01*
X298001Y505872D01*
X298345Y505814D01*
X298694Y505754D01*
X298699Y505754D01*
X298703Y505753D01*
X299403Y505715D01*
X383072Y505715D01*
X386899Y504129D01*
X434254Y456774D01*
X434257Y456772D01*
X434260Y456768D01*
X434523Y456534D01*
X434786Y456300D01*
X434789Y456297D01*
X434792Y456294D01*
X435077Y456093D01*
X435367Y455887D01*
X435370Y455885D01*
X435374Y455883D01*
X435684Y455712D01*
X435990Y455543D01*
X435994Y455541D01*
X435998Y455539D01*
X436323Y455405D01*
X436648Y455270D01*
X436653Y455269D01*
X436657Y455268D01*
X436996Y455170D01*
X437333Y455073D01*
X437337Y455073D01*
X437341Y455072D01*
X437698Y455012D01*
X438035Y454954D01*
X438040Y454954D01*
X438044Y454953D01*
X438744Y454915D01*
X462580Y454915D01*
X462763Y454925D01*
X462947Y454925D01*
X463119Y454945D01*
X463292Y454955D01*
X463472Y454985D01*
X463654Y455006D01*
X463823Y455045D01*
X463994Y455074D01*
X464170Y455125D01*
X464349Y455166D01*
X464515Y455224D01*
X464679Y455271D01*
X464840Y455338D01*
X465010Y455398D01*
X467525Y456440D01*
X472275Y456440D01*
X476663Y454622D01*
X479188Y452097D01*
X479190Y452095D01*
X479192Y452093D01*
X479459Y451855D01*
X479719Y451623D01*
X479722Y451621D01*
X479724Y451619D01*
X480017Y451412D01*
X480300Y451210D01*
X480303Y451209D01*
X480305Y451207D01*
X480626Y451031D01*
X480924Y450866D01*
X480926Y450865D01*
X480929Y450863D01*
X481274Y450721D01*
X481582Y450593D01*
X481585Y450593D01*
X481588Y450592D01*
X481941Y450490D01*
X482267Y450396D01*
X482269Y450396D01*
X482272Y450395D01*
X482637Y450334D01*
X482969Y450277D01*
X482972Y450277D01*
X482975Y450277D01*
X483341Y450257D01*
X483680Y450238D01*
X483683Y450238D01*
X483686Y450238D01*
X484038Y450258D01*
X484392Y450278D01*
X484395Y450278D01*
X484397Y450279D01*
X484744Y450338D01*
X485094Y450398D01*
X485097Y450398D01*
X485100Y450399D01*
X485437Y450497D01*
X485778Y450595D01*
X485781Y450596D01*
X485784Y450597D01*
X486114Y450735D01*
X486436Y450868D01*
X486439Y450870D01*
X486442Y450871D01*
X486757Y451046D01*
X487060Y451213D01*
X487062Y451215D01*
X487065Y451216D01*
X487357Y451425D01*
X487640Y451626D01*
X487643Y451628D01*
X487645Y451630D01*
X488167Y452097D01*
X488418Y452348D01*
X488951Y452757D01*
X488951Y444500D01*
X488951Y436243D01*
X488418Y436652D01*
X488167Y436903D01*
X488165Y436905D01*
X488163Y436907D01*
X487905Y437137D01*
X487636Y437377D01*
X487634Y437379D01*
X487631Y437381D01*
X487350Y437580D01*
X487055Y437790D01*
X487052Y437791D01*
X487050Y437793D01*
X486733Y437968D01*
X486431Y438134D01*
X486429Y438135D01*
X486426Y438137D01*
X486096Y438273D01*
X485773Y438407D01*
X485770Y438407D01*
X485768Y438408D01*
X485437Y438503D01*
X485088Y438604D01*
X485086Y438604D01*
X485083Y438605D01*
X484721Y438666D01*
X484386Y438723D01*
X484383Y438723D01*
X484380Y438723D01*
X484015Y438743D01*
X483675Y438762D01*
X483672Y438762D01*
X483669Y438762D01*
X483318Y438742D01*
X482963Y438722D01*
X482961Y438722D01*
X482958Y438721D01*
X482612Y438662D01*
X482261Y438602D01*
X482258Y438602D01*
X482256Y438601D01*
X481914Y438502D01*
X481577Y438405D01*
X481574Y438404D01*
X481571Y438403D01*
X481241Y438265D01*
X480919Y438132D01*
X480916Y438130D01*
X480914Y438129D01*
X480611Y437961D01*
X480295Y437787D01*
X480293Y437785D01*
X480291Y437783D01*
X479997Y437575D01*
X479715Y437374D01*
X479713Y437372D01*
X479710Y437370D01*
X479188Y436903D01*
X476663Y434378D01*
X472275Y432560D01*
X467525Y432560D01*
X465010Y433602D01*
X464837Y433663D01*
X464668Y433732D01*
X464502Y433780D01*
X464338Y433837D01*
X464159Y433878D01*
X463983Y433928D01*
X463812Y433957D01*
X463643Y433996D01*
X463461Y434016D01*
X463280Y434047D01*
X463105Y434056D01*
X462935Y434075D01*
X462761Y434075D01*
X462580Y434085D01*
X429728Y434085D01*
X425901Y435671D01*
X378546Y483026D01*
X378543Y483028D01*
X378540Y483032D01*
X378277Y483266D01*
X378014Y483500D01*
X378011Y483503D01*
X378008Y483506D01*
X377723Y483707D01*
X377433Y483913D01*
X377430Y483915D01*
X377426Y483917D01*
X377116Y484088D01*
X376810Y484257D01*
X376806Y484259D01*
X376802Y484261D01*
X376477Y484395D01*
X376152Y484530D01*
X376147Y484531D01*
X376143Y484532D01*
X375805Y484629D01*
X375467Y484727D01*
X375463Y484727D01*
X375459Y484728D01*
X375102Y484788D01*
X374765Y484846D01*
X374760Y484846D01*
X374756Y484847D01*
X374056Y484885D01*
X307531Y484885D01*
X307530Y484885D01*
X307528Y484885D01*
X307154Y484864D01*
X306820Y484845D01*
X306818Y484845D01*
X306817Y484845D01*
X306451Y484783D01*
X306117Y484726D01*
X306116Y484725D01*
X306115Y484725D01*
X305742Y484618D01*
X305433Y484529D01*
X305432Y484528D01*
X305430Y484528D01*
X305094Y484388D01*
X304775Y484256D01*
X304773Y484255D01*
X304772Y484255D01*
X304468Y484086D01*
X304151Y483911D01*
X304150Y483910D01*
X304149Y483909D01*
X303826Y483680D01*
X303570Y483499D01*
X303570Y483498D01*
X303568Y483497D01*
X303282Y483240D01*
X303039Y483024D01*
X303038Y483023D01*
X303037Y483022D01*
X302801Y482756D01*
X302565Y482492D01*
X302564Y482491D01*
X302563Y482490D01*
X302378Y482229D01*
X302153Y481911D01*
X302152Y481909D01*
X302151Y481908D01*
X302003Y481638D01*
X301809Y481287D01*
X301808Y481286D01*
X301808Y481285D01*
X301673Y480959D01*
X301537Y480629D01*
X301536Y480627D01*
X301536Y480626D01*
X301432Y480266D01*
X301340Y479944D01*
X301340Y479943D01*
X301339Y479941D01*
X301275Y479560D01*
X301221Y479242D01*
X301221Y479240D01*
X301221Y479239D01*
X301200Y478862D01*
X301182Y478530D01*
X301182Y478529D01*
X301182Y478527D01*
X301204Y478144D01*
X301222Y477819D01*
X301223Y477818D01*
X301223Y477816D01*
X301285Y477451D01*
X301342Y477117D01*
X301343Y477115D01*
X301343Y477114D01*
X301443Y476770D01*
X301540Y476432D01*
X301541Y476431D01*
X301541Y476430D01*
X301677Y476104D01*
X301814Y475775D01*
X301814Y475773D01*
X301815Y475772D01*
X301978Y475478D01*
X302159Y475151D01*
X302160Y475150D01*
X302161Y475149D01*
X302375Y474848D01*
X302572Y474571D01*
X302573Y474570D01*
X302574Y474569D01*
X302769Y474351D01*
X302769Y464339D01*
X302674Y464008D01*
X302673Y464004D01*
X302672Y463999D01*
X302614Y463655D01*
X302554Y463306D01*
X302554Y463301D01*
X302553Y463297D01*
X302515Y462597D01*
X302515Y426403D01*
X302515Y426399D01*
X302515Y426394D01*
X302535Y426036D01*
X302555Y425692D01*
X302555Y425687D01*
X302556Y425683D01*
X302617Y425323D01*
X302674Y424989D01*
X302675Y424985D01*
X302676Y424981D01*
X302769Y424661D01*
X302769Y414681D01*
X302739Y414651D01*
X297900Y409812D01*
X297898Y409810D01*
X297896Y409808D01*
X297656Y409539D01*
X297425Y409281D01*
X297423Y409278D01*
X297422Y409276D01*
X297214Y408984D01*
X297013Y408700D01*
X297012Y408697D01*
X297010Y408695D01*
X296837Y408381D01*
X296668Y408076D01*
X296667Y408073D01*
X296666Y408071D01*
X296534Y407752D01*
X296396Y407418D01*
X296395Y407415D01*
X296394Y407412D01*
X296298Y407077D01*
X296199Y406733D01*
X296198Y406730D01*
X296198Y406728D01*
X296137Y406369D01*
X296080Y406031D01*
X296080Y406028D01*
X296079Y406025D01*
X296059Y405660D01*
X296040Y405320D01*
X296040Y405317D01*
X296040Y405314D01*
X296060Y404962D01*
X296080Y404608D01*
X296081Y404605D01*
X296081Y404603D01*
X296141Y404253D01*
X296200Y403906D01*
X296201Y403903D01*
X296201Y403900D01*
X296300Y403559D01*
X296398Y403221D01*
X296399Y403219D01*
X296400Y403216D01*
X296539Y402882D01*
X296671Y402563D01*
X296672Y402561D01*
X296673Y402558D01*
X296844Y402251D01*
X297016Y401940D01*
X297018Y401938D01*
X297019Y401935D01*
X297216Y401659D01*
X297429Y401360D01*
X297431Y401357D01*
X297432Y401355D01*
X297900Y400833D01*
X298683Y400049D01*
X292100Y400049D01*
X284739Y400049D01*
X284818Y400240D01*
X284818Y400242D01*
X284819Y400243D01*
X284921Y400601D01*
X285015Y400925D01*
X285015Y400926D01*
X285015Y400928D01*
X285075Y401278D01*
X285134Y401628D01*
X285134Y401629D01*
X285134Y401630D01*
X285153Y401975D01*
X285174Y402339D01*
X285173Y402340D01*
X285174Y402342D01*
X285154Y402681D01*
X285133Y403050D01*
X285133Y403052D01*
X285133Y403053D01*
X285078Y403376D01*
X285014Y403752D01*
X285013Y403754D01*
X285013Y403755D01*
X284922Y404069D01*
X284816Y404437D01*
X284815Y404438D01*
X284815Y404440D01*
X284679Y404768D01*
X284543Y405095D01*
X284542Y405096D01*
X284542Y405097D01*
X284359Y405426D01*
X284198Y405718D01*
X284197Y405719D01*
X284196Y405721D01*
X283996Y406002D01*
X283785Y406299D01*
X283784Y406300D01*
X283783Y406301D01*
X283554Y406557D01*
X283310Y406830D01*
X283309Y406831D01*
X283308Y406832D01*
X283042Y407069D01*
X282778Y407304D01*
X282777Y407305D01*
X282776Y407306D01*
X282476Y407518D01*
X282197Y407716D01*
X282196Y407716D01*
X282194Y407717D01*
X281879Y407891D01*
X281573Y408059D01*
X281571Y408060D01*
X281570Y408061D01*
X281270Y408185D01*
X280914Y408331D01*
X280913Y408332D01*
X280912Y408332D01*
X280603Y408421D01*
X280230Y408528D01*
X280228Y408528D01*
X280227Y408528D01*
X279864Y408589D01*
X279527Y408646D01*
X279526Y408646D01*
X279524Y408647D01*
X278824Y408685D01*
X239228Y408685D01*
X235094Y410398D01*
X234924Y410457D01*
X234757Y410526D01*
X234587Y410575D01*
X234421Y410633D01*
X234245Y410673D01*
X234072Y410723D01*
X233899Y410752D01*
X233727Y410792D01*
X233547Y410812D01*
X233370Y410842D01*
X233194Y410852D01*
X233019Y410871D01*
X232838Y410871D01*
X232658Y410881D01*
X232482Y410871D01*
X232306Y410871D01*
X232127Y410851D01*
X231947Y410841D01*
X231773Y410811D01*
X231598Y410791D01*
X231423Y410751D01*
X231245Y410721D01*
X231076Y410672D01*
X230904Y410632D01*
X230734Y410573D01*
X230560Y410523D01*
X230398Y410455D01*
X230232Y410397D01*
X230069Y410319D01*
X229903Y410249D01*
X229748Y410164D01*
X229590Y410087D01*
X229437Y409991D01*
X229279Y409904D01*
X229136Y409802D01*
X228987Y409708D01*
X228846Y409595D01*
X228699Y409491D01*
X228568Y409374D01*
X228430Y409264D01*
X228303Y409136D01*
X228168Y409015D01*
X228051Y408884D01*
X227927Y408759D01*
X227814Y408618D01*
X227694Y408484D01*
X227593Y408340D01*
X227483Y408202D01*
X227387Y408049D01*
X227283Y407902D01*
X227198Y407748D01*
X227104Y407599D01*
X227026Y407436D01*
X226939Y407278D01*
X226872Y407115D01*
X226796Y406956D01*
X226736Y406786D01*
X226668Y406619D01*
X226619Y406450D01*
X226561Y406284D01*
X226521Y406108D01*
X226472Y405934D01*
X226442Y405761D01*
X226403Y405589D01*
X226383Y405410D01*
X226353Y405232D01*
X226344Y405053D01*
X226324Y404881D01*
X226325Y404709D01*
X226315Y404532D01*
X226315Y296164D01*
X226315Y296161D01*
X226315Y296158D01*
X226335Y295799D01*
X226355Y295453D01*
X226355Y295450D01*
X226355Y295447D01*
X226414Y295107D01*
X226474Y294750D01*
X226475Y294748D01*
X226475Y294745D01*
X226575Y294400D01*
X226671Y294066D01*
X226673Y294063D01*
X226673Y294060D01*
X226812Y293726D01*
X226944Y293408D01*
X226946Y293405D01*
X226947Y293403D01*
X227119Y293091D01*
X227289Y292784D01*
X227291Y292782D01*
X227292Y292779D01*
X227510Y292473D01*
X227701Y292203D01*
X227703Y292201D01*
X227705Y292199D01*
X227945Y291931D01*
X228176Y291672D01*
X228179Y291670D01*
X228180Y291668D01*
X228448Y291430D01*
X228708Y291198D01*
X228710Y291196D01*
X228712Y291194D01*
X228993Y290996D01*
X229289Y290786D01*
X229292Y290784D01*
X229294Y290783D01*
X229594Y290618D01*
X229913Y290442D01*
X229916Y290441D01*
X229918Y290439D01*
X230236Y290308D01*
X230571Y290170D01*
X230574Y290169D01*
X230577Y290168D01*
X230906Y290073D01*
X231256Y289973D01*
X231259Y289972D01*
X231261Y289972D01*
X231615Y289912D01*
X231958Y289854D01*
X231961Y289854D01*
X231964Y289853D01*
X232664Y289815D01*
X275336Y289815D01*
X275339Y289815D01*
X275342Y289815D01*
X275689Y289835D01*
X276047Y289855D01*
X276050Y289855D01*
X276053Y289855D01*
X276393Y289914D01*
X276750Y289974D01*
X276752Y289975D01*
X276755Y289975D01*
X277100Y290075D01*
X277434Y290171D01*
X277437Y290173D01*
X277440Y290173D01*
X277764Y290308D01*
X278092Y290444D01*
X278095Y290446D01*
X278097Y290447D01*
X278406Y290618D01*
X278716Y290789D01*
X278718Y290791D01*
X278721Y290792D01*
X279011Y290999D01*
X279297Y291201D01*
X279299Y291203D01*
X279301Y291205D01*
X279569Y291445D01*
X279828Y291676D01*
X279830Y291679D01*
X279832Y291680D01*
X280070Y291948D01*
X280302Y292208D01*
X280304Y292210D01*
X280306Y292212D01*
X280504Y292492D01*
X280714Y292789D01*
X280716Y292792D01*
X280717Y292794D01*
X280880Y293090D01*
X281058Y293413D01*
X281059Y293416D01*
X281061Y293418D01*
X281188Y293726D01*
X281330Y294071D01*
X281331Y294074D01*
X281332Y294077D01*
X281423Y294393D01*
X281527Y294756D01*
X281528Y294759D01*
X281528Y294761D01*
X281588Y295115D01*
X281646Y295458D01*
X281646Y295461D01*
X281647Y295464D01*
X281685Y296164D01*
X281685Y322897D01*
X281685Y322901D01*
X281685Y322906D01*
X281666Y323245D01*
X281645Y323608D01*
X281645Y323612D01*
X281644Y323617D01*
X281584Y323968D01*
X281526Y324311D01*
X281525Y324315D01*
X281524Y324319D01*
X281431Y324639D01*
X281431Y334619D01*
X285223Y338410D01*
X285225Y338413D01*
X285227Y338414D01*
X285456Y338671D01*
X285697Y338942D01*
X285699Y338944D01*
X285701Y338946D01*
X285911Y339243D01*
X286109Y339523D01*
X286111Y339525D01*
X286112Y339528D01*
X286286Y339842D01*
X286454Y340146D01*
X286455Y340149D01*
X286456Y340151D01*
X286592Y340479D01*
X286726Y340804D01*
X286727Y340807D01*
X286728Y340810D01*
X286825Y341148D01*
X286923Y341489D01*
X286924Y341492D01*
X286925Y341495D01*
X286986Y341860D01*
X287043Y342192D01*
X287043Y342194D01*
X287043Y342197D01*
X287063Y342556D01*
X287082Y342903D01*
X287082Y342906D01*
X287082Y342909D01*
X287063Y343244D01*
X287042Y343614D01*
X287041Y343617D01*
X287041Y343620D01*
X286982Y343963D01*
X286922Y344316D01*
X286921Y344319D01*
X286921Y344322D01*
X286819Y344675D01*
X286725Y345001D01*
X286724Y345003D01*
X286723Y345006D01*
X286584Y345339D01*
X286451Y345659D01*
X286450Y345661D01*
X286449Y345664D01*
X286288Y345954D01*
X286106Y346282D01*
X286105Y346284D01*
X286103Y346287D01*
X285901Y346572D01*
X285694Y346863D01*
X285692Y346865D01*
X285690Y346867D01*
X285223Y347390D01*
X281431Y351181D01*
X281431Y360019D01*
X287681Y366269D01*
X297661Y366269D01*
X297992Y366173D01*
X297996Y366173D01*
X298001Y366172D01*
X298357Y366112D01*
X298695Y366054D01*
X298699Y366054D01*
X298703Y366053D01*
X299403Y366015D01*
X383072Y366015D01*
X386899Y364429D01*
X434254Y317074D01*
X434257Y317072D01*
X434260Y317068D01*
X434523Y316834D01*
X434786Y316600D01*
X434789Y316597D01*
X434792Y316594D01*
X435077Y316393D01*
X435367Y316187D01*
X435370Y316185D01*
X435374Y316183D01*
X435684Y316012D01*
X435990Y315843D01*
X435994Y315841D01*
X435998Y315839D01*
X436323Y315705D01*
X436648Y315570D01*
X436653Y315569D01*
X436657Y315568D01*
X436996Y315470D01*
X437333Y315373D01*
X437337Y315373D01*
X437341Y315372D01*
X437698Y315312D01*
X438035Y315254D01*
X438040Y315254D01*
X438044Y315253D01*
X438744Y315215D01*
X462580Y315215D01*
X462763Y315225D01*
X462947Y315225D01*
X463119Y315245D01*
X463292Y315255D01*
X463472Y315285D01*
X463654Y315306D01*
X463823Y315345D01*
X463994Y315374D01*
X464170Y315425D01*
X464349Y315466D01*
X464515Y315524D01*
X464679Y315571D01*
X464840Y315638D01*
X465010Y315698D01*
X467525Y316740D01*
X472275Y316740D01*
X476663Y314922D01*
X479188Y312397D01*
X479190Y312395D01*
X479192Y312393D01*
X479459Y312155D01*
X479719Y311923D01*
X479722Y311921D01*
X479724Y311919D01*
X480017Y311712D01*
X480300Y311510D01*
X480303Y311509D01*
X480305Y311507D01*
X480626Y311331D01*
X480924Y311166D01*
X480926Y311165D01*
X480929Y311163D01*
X481274Y311021D01*
X481582Y310893D01*
X481585Y310893D01*
X481588Y310892D01*
X481941Y310790D01*
X482267Y310696D01*
X482269Y310696D01*
X482272Y310695D01*
X482637Y310634D01*
X482969Y310577D01*
X482972Y310577D01*
X482975Y310577D01*
X483341Y310557D01*
X483680Y310538D01*
X483683Y310538D01*
X483686Y310538D01*
X484038Y310558D01*
X484392Y310578D01*
X484395Y310578D01*
X484397Y310579D01*
X484744Y310638D01*
X485094Y310698D01*
X485097Y310698D01*
X485100Y310699D01*
X485437Y310797D01*
X485778Y310895D01*
X485781Y310896D01*
X485784Y310897D01*
X486114Y311035D01*
X486436Y311168D01*
X486439Y311170D01*
X486442Y311171D01*
X486757Y311346D01*
X487060Y311513D01*
X487062Y311515D01*
X487065Y311516D01*
X487357Y311725D01*
X487640Y311926D01*
X487643Y311928D01*
X487645Y311930D01*
X488167Y312397D01*
X488418Y312648D01*
X488951Y313057D01*
X488951Y304800D01*
X488951Y296543D01*
X488418Y296952D01*
X488167Y297203D01*
X488165Y297205D01*
X488163Y297207D01*
X487905Y297437D01*
X487636Y297677D01*
X487634Y297679D01*
X487631Y297681D01*
X487350Y297880D01*
X487055Y298090D01*
X487052Y298091D01*
X487050Y298093D01*
X486733Y298268D01*
X486431Y298434D01*
X486429Y298435D01*
X486426Y298437D01*
X486096Y298573D01*
X485773Y298707D01*
X485770Y298707D01*
X485768Y298708D01*
X485437Y298803D01*
X485088Y298904D01*
X485086Y298904D01*
X485083Y298905D01*
X484721Y298966D01*
X484386Y299023D01*
X484383Y299023D01*
X484380Y299023D01*
X484015Y299043D01*
X483675Y299062D01*
X483672Y299062D01*
X483669Y299062D01*
X483318Y299042D01*
X482963Y299022D01*
X482961Y299022D01*
X482958Y299021D01*
X482612Y298962D01*
X482261Y298902D01*
X482258Y298902D01*
X482256Y298901D01*
X481914Y298802D01*
X481577Y298705D01*
X481574Y298704D01*
X481571Y298703D01*
X481241Y298565D01*
X480919Y298432D01*
X480916Y298430D01*
X480914Y298429D01*
X480611Y298261D01*
X480295Y298087D01*
X480293Y298085D01*
X480291Y298083D01*
X479997Y297875D01*
X479715Y297674D01*
X479713Y297672D01*
X479710Y297670D01*
X479188Y297203D01*
X476663Y294678D01*
X472275Y292860D01*
X467525Y292860D01*
X465010Y293902D01*
X464837Y293963D01*
X464668Y294032D01*
X464502Y294080D01*
X464338Y294137D01*
X464159Y294178D01*
X463983Y294228D01*
X463812Y294257D01*
X463643Y294296D01*
X463461Y294316D01*
X463280Y294347D01*
X463105Y294356D01*
X462935Y294375D01*
X462761Y294375D01*
X462580Y294385D01*
X429728Y294385D01*
X425901Y295971D01*
X378546Y343326D01*
X378543Y343328D01*
X378540Y343332D01*
X378277Y343566D01*
X378014Y343800D01*
X378011Y343803D01*
X378008Y343806D01*
X377723Y344007D01*
X377433Y344213D01*
X377430Y344215D01*
X377426Y344217D01*
X377116Y344388D01*
X376810Y344557D01*
X376806Y344559D01*
X376802Y344561D01*
X376477Y344695D01*
X376152Y344830D01*
X376147Y344831D01*
X376143Y344832D01*
X375805Y344929D01*
X375467Y345027D01*
X375463Y345027D01*
X375459Y345028D01*
X375102Y345088D01*
X374765Y345146D01*
X374760Y345146D01*
X374756Y345147D01*
X374056Y345185D01*
X307531Y345185D01*
X307530Y345185D01*
X307528Y345185D01*
X307154Y345164D01*
X306820Y345145D01*
X306818Y345145D01*
X306817Y345145D01*
X306451Y345083D01*
X306117Y345026D01*
X306116Y345025D01*
X306115Y345025D01*
X305742Y344918D01*
X305433Y344829D01*
X305432Y344828D01*
X305430Y344828D01*
X305094Y344688D01*
X304775Y344556D01*
X304773Y344555D01*
X304772Y344555D01*
X304468Y344386D01*
X304151Y344211D01*
X304150Y344210D01*
X304149Y344209D01*
X303826Y343980D01*
X303570Y343799D01*
X303570Y343798D01*
X303568Y343797D01*
X303282Y343540D01*
X303039Y343324D01*
X303038Y343323D01*
X303037Y343322D01*
X302802Y343058D01*
X302565Y342792D01*
X302564Y342791D01*
X302563Y342790D01*
X302378Y342529D01*
X302153Y342211D01*
X302152Y342209D01*
X302151Y342208D01*
X302003Y341938D01*
X301809Y341587D01*
X301808Y341586D01*
X301808Y341585D01*
X301673Y341259D01*
X301537Y340929D01*
X301536Y340927D01*
X301536Y340926D01*
X301432Y340566D01*
X301340Y340244D01*
X301340Y340243D01*
X301339Y340241D01*
X301275Y339860D01*
X301221Y339542D01*
X301221Y339540D01*
X301221Y339539D01*
X301200Y339162D01*
X301182Y338830D01*
X301182Y338829D01*
X301182Y338827D01*
X301204Y338448D01*
X301222Y338119D01*
X301223Y338118D01*
X301223Y338116D01*
X301285Y337751D01*
X301342Y337417D01*
X301343Y337415D01*
X301343Y337414D01*
X301443Y337070D01*
X301540Y336732D01*
X301541Y336731D01*
X301541Y336730D01*
X301677Y336404D01*
X301814Y336075D01*
X301814Y336073D01*
X301815Y336072D01*
X301978Y335778D01*
X302159Y335451D01*
X302160Y335450D01*
X302161Y335449D01*
X302375Y335148D01*
X302572Y334871D01*
X302573Y334870D01*
X302574Y334869D01*
X302769Y334651D01*
X302769Y324639D01*
X302673Y324308D01*
X302673Y324304D01*
X302672Y324299D01*
X302612Y323943D01*
X302554Y323605D01*
X302554Y323601D01*
X302553Y323597D01*
X302515Y322897D01*
X302515Y286703D01*
X302515Y286699D01*
X302515Y286694D01*
X302535Y286336D01*
X302555Y285992D01*
X302555Y285987D01*
X302556Y285983D01*
X302617Y285623D01*
X302674Y285289D01*
X302675Y285285D01*
X302676Y285281D01*
X302769Y284961D01*
X302769Y274981D01*
X302756Y274968D01*
X302755Y274968D01*
X302755Y274967D01*
X297900Y270112D01*
X297898Y270110D01*
X297896Y270108D01*
X297657Y269841D01*
X297425Y269581D01*
X297423Y269578D01*
X297422Y269576D01*
X297214Y269284D01*
X297013Y269000D01*
X297012Y268997D01*
X297010Y268995D01*
X296837Y268681D01*
X296668Y268376D01*
X296667Y268373D01*
X296666Y268371D01*
X296534Y268052D01*
X296396Y267718D01*
X296395Y267715D01*
X296394Y267712D01*
X296298Y267377D01*
X296199Y267033D01*
X296198Y267030D01*
X296198Y267028D01*
X296137Y266669D01*
X296080Y266331D01*
X296080Y266328D01*
X296079Y266325D01*
X296059Y265960D01*
X296040Y265620D01*
X296040Y265617D01*
X296040Y265614D01*
X296060Y265262D01*
X296080Y264908D01*
X296081Y264905D01*
X296081Y264903D01*
X296141Y264553D01*
X296200Y264206D01*
X296201Y264203D01*
X296201Y264200D01*
X296300Y263859D01*
X296398Y263521D01*
X296399Y263519D01*
X296400Y263516D01*
X296539Y263182D01*
X296671Y262863D01*
X296672Y262861D01*
X296673Y262858D01*
X296844Y262551D01*
X297016Y262240D01*
X297018Y262238D01*
X297019Y262235D01*
X297216Y261959D01*
X297429Y261660D01*
X297431Y261657D01*
X297432Y261655D01*
X297900Y261133D01*
X298683Y260349D01*
X292100Y260349D01*
X284739Y260349D01*
X284818Y260540D01*
X284818Y260542D01*
X284819Y260543D01*
X284921Y260901D01*
X285015Y261225D01*
X285015Y261226D01*
X285015Y261228D01*
X285075Y261578D01*
X285134Y261928D01*
X285134Y261929D01*
X285134Y261930D01*
X285151Y262240D01*
X285174Y262639D01*
X285173Y262640D01*
X285174Y262642D01*
X285154Y262981D01*
X285133Y263350D01*
X285133Y263352D01*
X285133Y263353D01*
X285078Y263676D01*
X285014Y264052D01*
X285013Y264054D01*
X285013Y264055D01*
X284922Y264369D01*
X284816Y264737D01*
X284815Y264738D01*
X284815Y264740D01*
X284679Y265068D01*
X284543Y265395D01*
X284542Y265396D01*
X284542Y265397D01*
X284359Y265726D01*
X284198Y266018D01*
X284197Y266019D01*
X284196Y266021D01*
X283996Y266302D01*
X283785Y266599D01*
X283784Y266600D01*
X283783Y266601D01*
X283554Y266857D01*
X283310Y267130D01*
X283309Y267131D01*
X283308Y267132D01*
X283042Y267369D01*
X282778Y267604D01*
X282777Y267605D01*
X282776Y267606D01*
X282476Y267818D01*
X282197Y268016D01*
X282196Y268016D01*
X282194Y268017D01*
X281879Y268191D01*
X281573Y268359D01*
X281571Y268360D01*
X281570Y268361D01*
X281270Y268485D01*
X280914Y268631D01*
X280913Y268632D01*
X280912Y268632D01*
X280603Y268721D01*
X280230Y268828D01*
X280228Y268828D01*
X280227Y268828D01*
X279864Y268889D01*
X279527Y268946D01*
X279526Y268946D01*
X279524Y268947D01*
X278824Y268985D01*
X213828Y268985D01*
X209694Y270698D01*
X209524Y270757D01*
X209357Y270826D01*
X209187Y270875D01*
X209021Y270933D01*
X208845Y270973D01*
X208672Y271023D01*
X208499Y271052D01*
X208327Y271092D01*
X208147Y271112D01*
X207970Y271142D01*
X207794Y271152D01*
X207619Y271171D01*
X207438Y271171D01*
X207258Y271181D01*
X207082Y271171D01*
X206906Y271171D01*
X206727Y271151D01*
X206547Y271141D01*
X206373Y271111D01*
X206198Y271091D01*
X206023Y271051D01*
X205845Y271021D01*
X205676Y270972D01*
X205504Y270932D01*
X205334Y270873D01*
X205160Y270823D01*
X204998Y270755D01*
X204832Y270697D01*
X204669Y270619D01*
X204503Y270549D01*
X204348Y270464D01*
X204190Y270387D01*
X204037Y270291D01*
X203879Y270204D01*
X203736Y270102D01*
X203587Y270008D01*
X203446Y269895D01*
X203299Y269791D01*
X203168Y269674D01*
X203030Y269564D01*
X202903Y269436D01*
X202768Y269315D01*
X202651Y269184D01*
X202527Y269059D01*
X202414Y268918D01*
X202294Y268784D01*
X202193Y268640D01*
X202083Y268502D01*
X201987Y268349D01*
X201883Y268202D01*
X201798Y268048D01*
X201704Y267899D01*
X201626Y267736D01*
X201539Y267578D01*
X201472Y267415D01*
X201396Y267256D01*
X201336Y267086D01*
X201268Y266919D01*
X201219Y266750D01*
X201161Y266584D01*
X201121Y266408D01*
X201072Y266234D01*
X201042Y266061D01*
X201003Y265889D01*
X200983Y265710D01*
X200953Y265532D01*
X200944Y265353D01*
X200924Y265181D01*
X200925Y265009D01*
X200915Y264832D01*
X200915Y156464D01*
X200915Y156461D01*
X200915Y156458D01*
X200935Y156111D01*
X200955Y155753D01*
X200955Y155750D01*
X200955Y155747D01*
X201014Y155407D01*
X201074Y155050D01*
X201075Y155048D01*
X201075Y155045D01*
X201175Y154700D01*
X201271Y154366D01*
X201273Y154363D01*
X201273Y154360D01*
X201412Y154026D01*
X201544Y153708D01*
X201546Y153705D01*
X201547Y153703D01*
X201719Y153391D01*
X201889Y153084D01*
X201891Y153082D01*
X201892Y153079D01*
X202110Y152773D01*
X202301Y152503D01*
X202303Y152501D01*
X202305Y152499D01*
X202547Y152228D01*
X202776Y151972D01*
X202779Y151970D01*
X202780Y151968D01*
X203048Y151730D01*
X203308Y151498D01*
X203310Y151496D01*
X203312Y151494D01*
X203593Y151296D01*
X203889Y151086D01*
X203892Y151084D01*
X203894Y151083D01*
X204194Y150918D01*
X204513Y150742D01*
X204516Y150741D01*
X204518Y150739D01*
X204836Y150608D01*
X205171Y150470D01*
X205174Y150469D01*
X205177Y150468D01*
X205506Y150373D01*
X205856Y150273D01*
X205859Y150272D01*
X205861Y150272D01*
X206215Y150212D01*
X206558Y150154D01*
X206561Y150154D01*
X206564Y150153D01*
X207264Y150115D01*
X275336Y150115D01*
X275339Y150115D01*
X275342Y150115D01*
X275689Y150135D01*
X276047Y150155D01*
X276050Y150155D01*
X276053Y150155D01*
X276393Y150214D01*
X276750Y150274D01*
X276752Y150275D01*
X276755Y150275D01*
X277100Y150375D01*
X277434Y150471D01*
X277437Y150473D01*
X277440Y150473D01*
X277764Y150608D01*
X278092Y150744D01*
X278095Y150746D01*
X278097Y150747D01*
X278406Y150918D01*
X278716Y151089D01*
X278718Y151091D01*
X278721Y151092D01*
X279011Y151299D01*
X279297Y151501D01*
X279299Y151503D01*
X279301Y151505D01*
X279569Y151745D01*
X279828Y151976D01*
X279830Y151979D01*
X279832Y151980D01*
X280061Y152237D01*
X280302Y152508D01*
X280304Y152510D01*
X280306Y152512D01*
X280504Y152793D01*
X280714Y153089D01*
X280716Y153092D01*
X280717Y153094D01*
X280880Y153390D01*
X281058Y153713D01*
X281059Y153716D01*
X281061Y153718D01*
X281188Y154026D01*
X281330Y154371D01*
X281331Y154374D01*
X281332Y154377D01*
X281423Y154693D01*
X281527Y155056D01*
X281528Y155059D01*
X281528Y155061D01*
X281588Y155415D01*
X281646Y155758D01*
X281646Y155761D01*
X281647Y155764D01*
X281685Y156464D01*
X281685Y183197D01*
X281685Y183201D01*
X281685Y183206D01*
X281666Y183545D01*
X281645Y183908D01*
X281645Y183913D01*
X281644Y183917D01*
X281584Y184271D01*
X281526Y184611D01*
X281525Y184615D01*
X281524Y184619D01*
X281431Y184939D01*
X281431Y194919D01*
X285223Y198710D01*
X285225Y198713D01*
X285227Y198714D01*
X285456Y198971D01*
X285697Y199242D01*
X285699Y199244D01*
X285701Y199246D01*
X285911Y199543D01*
X286109Y199823D01*
X286111Y199825D01*
X286112Y199828D01*
X286286Y200142D01*
X286454Y200446D01*
X286455Y200449D01*
X286456Y200451D01*
X286593Y200782D01*
X286726Y201104D01*
X286727Y201107D01*
X286728Y201110D01*
X286825Y201448D01*
X286923Y201789D01*
X286924Y201792D01*
X286925Y201795D01*
X286986Y202160D01*
X287043Y202492D01*
X287043Y202494D01*
X287043Y202497D01*
X287063Y202856D01*
X287082Y203203D01*
X287082Y203206D01*
X287082Y203209D01*
X287063Y203544D01*
X287042Y203914D01*
X287041Y203917D01*
X287041Y203920D01*
X286982Y204263D01*
X286922Y204616D01*
X286921Y204619D01*
X286921Y204622D01*
X286819Y204975D01*
X286725Y205301D01*
X286724Y205303D01*
X286723Y205306D01*
X286584Y205639D01*
X286451Y205959D01*
X286450Y205961D01*
X286449Y205964D01*
X286279Y206271D01*
X286106Y206582D01*
X286105Y206584D01*
X286103Y206587D01*
X285901Y206872D01*
X285694Y207163D01*
X285692Y207165D01*
X285690Y207167D01*
X285223Y207690D01*
X281431Y211481D01*
X281431Y220319D01*
X287681Y226569D01*
X297661Y226569D01*
X297992Y226474D01*
X297996Y226473D01*
X298001Y226472D01*
X298345Y226414D01*
X298694Y226354D01*
X298699Y226354D01*
X298703Y226353D01*
X299403Y226315D01*
X383072Y226315D01*
X386899Y224729D01*
X434254Y177374D01*
X434257Y177372D01*
X434260Y177368D01*
X434523Y177134D01*
X434786Y176900D01*
X434789Y176897D01*
X434792Y176894D01*
X435077Y176693D01*
X435367Y176487D01*
X435370Y176485D01*
X435374Y176483D01*
X435684Y176312D01*
X435990Y176143D01*
X435994Y176141D01*
X435998Y176139D01*
X436323Y176005D01*
X436648Y175870D01*
X436653Y175869D01*
X436657Y175868D01*
X436996Y175770D01*
X437333Y175673D01*
X437337Y175673D01*
X437341Y175672D01*
X437698Y175612D01*
X438035Y175554D01*
X438040Y175554D01*
X438044Y175553D01*
X438744Y175515D01*
X462580Y175515D01*
X462763Y175525D01*
X462947Y175525D01*
X463119Y175545D01*
X463292Y175555D01*
X463472Y175585D01*
X463654Y175606D01*
X463823Y175645D01*
X463994Y175674D01*
X464170Y175725D01*
X464349Y175766D01*
X464515Y175824D01*
X464679Y175871D01*
X464840Y175938D01*
X465010Y175998D01*
X467525Y177040D01*
X472275Y177040D01*
X476663Y175222D01*
X479188Y172697D01*
X479190Y172695D01*
X479192Y172693D01*
X479459Y172455D01*
X479719Y172223D01*
X479722Y172221D01*
X479724Y172219D01*
X480017Y172012D01*
X480300Y171810D01*
X480303Y171809D01*
X480305Y171807D01*
X480626Y171631D01*
X480924Y171466D01*
X480926Y171465D01*
X480929Y171463D01*
X481274Y171321D01*
X481582Y171193D01*
X481585Y171193D01*
X481588Y171192D01*
X481941Y171090D01*
X482267Y170996D01*
X482269Y170996D01*
X482272Y170995D01*
X482637Y170934D01*
X482969Y170877D01*
X482972Y170877D01*
X482975Y170877D01*
X483341Y170857D01*
X483680Y170838D01*
X483683Y170838D01*
X483686Y170838D01*
X484038Y170858D01*
X484392Y170878D01*
X484395Y170878D01*
X484397Y170879D01*
X484744Y170938D01*
X485094Y170998D01*
X485097Y170998D01*
X485100Y170999D01*
X485437Y171097D01*
X485778Y171195D01*
X485781Y171196D01*
X485784Y171197D01*
X486114Y171335D01*
X486436Y171468D01*
X486439Y171470D01*
X486442Y171471D01*
X486752Y171643D01*
X487060Y171813D01*
X487062Y171815D01*
X487065Y171816D01*
X487357Y172025D01*
X487640Y172226D01*
X487643Y172228D01*
X487645Y172230D01*
X488167Y172697D01*
X488418Y172948D01*
X488951Y173357D01*
X488951Y165100D01*
X488951Y156843D01*
X488418Y157252D01*
X488167Y157503D01*
X488165Y157505D01*
X488163Y157507D01*
X487905Y157737D01*
X487636Y157977D01*
X487634Y157979D01*
X487631Y157981D01*
X487350Y158180D01*
X487055Y158390D01*
X487052Y158391D01*
X487050Y158393D01*
X486733Y158568D01*
X486431Y158734D01*
X486429Y158735D01*
X486426Y158737D01*
X486096Y158873D01*
X485773Y159007D01*
X485770Y159007D01*
X485768Y159008D01*
X485437Y159103D01*
X485088Y159204D01*
X485086Y159204D01*
X485083Y159205D01*
X484721Y159266D01*
X484386Y159323D01*
X484383Y159323D01*
X484380Y159323D01*
X484015Y159343D01*
X483675Y159362D01*
X483672Y159362D01*
X483669Y159362D01*
X483318Y159342D01*
X482963Y159322D01*
X482961Y159322D01*
X482958Y159321D01*
X482612Y159262D01*
X482261Y159202D01*
X482258Y159202D01*
X482256Y159201D01*
X481914Y159102D01*
X481577Y159005D01*
X481574Y159004D01*
X481571Y159003D01*
X481241Y158865D01*
X480919Y158732D01*
X480916Y158730D01*
X480914Y158729D01*
X480611Y158561D01*
X480295Y158387D01*
X480293Y158385D01*
X480291Y158383D01*
X479997Y158175D01*
X479715Y157974D01*
X479713Y157972D01*
X479710Y157970D01*
X479188Y157503D01*
X476663Y154978D01*
X472275Y153160D01*
X467525Y153160D01*
X465010Y154202D01*
X464837Y154263D01*
X464668Y154332D01*
X464502Y154380D01*
X464338Y154437D01*
X464159Y154478D01*
X463983Y154528D01*
X463812Y154557D01*
X463643Y154596D01*
X463461Y154616D01*
X463280Y154647D01*
X463105Y154656D01*
X462935Y154675D01*
X462761Y154675D01*
X462580Y154685D01*
X429728Y154685D01*
X425901Y156271D01*
X378546Y203626D01*
X378543Y203628D01*
X378540Y203632D01*
X378277Y203866D01*
X378014Y204100D01*
X378011Y204103D01*
X378008Y204106D01*
X377723Y204307D01*
X377433Y204513D01*
X377430Y204515D01*
X377426Y204517D01*
X377116Y204688D01*
X376810Y204857D01*
X376806Y204859D01*
X376802Y204861D01*
X376477Y204995D01*
X376152Y205130D01*
X376147Y205131D01*
X376143Y205132D01*
X375805Y205229D01*
X375467Y205327D01*
X375463Y205327D01*
X375459Y205328D01*
X375102Y205388D01*
X374765Y205446D01*
X374760Y205446D01*
X374756Y205447D01*
X374056Y205485D01*
X307531Y205485D01*
X307530Y205485D01*
X307528Y205485D01*
X307154Y205464D01*
X306820Y205445D01*
X306818Y205445D01*
X306817Y205445D01*
X306451Y205383D01*
X306117Y205326D01*
X306116Y205325D01*
X306115Y205325D01*
X305742Y205218D01*
X305433Y205129D01*
X305432Y205128D01*
X305430Y205128D01*
X305094Y204988D01*
X304775Y204856D01*
X304773Y204855D01*
X304772Y204855D01*
X304468Y204686D01*
X304151Y204511D01*
X304150Y204510D01*
X304149Y204509D01*
X303826Y204280D01*
X303570Y204099D01*
X303570Y204098D01*
X303568Y204097D01*
X303282Y203840D01*
X303039Y203624D01*
X303038Y203623D01*
X303037Y203622D01*
X302802Y203358D01*
X302565Y203092D01*
X302564Y203091D01*
X302563Y203090D01*
X302378Y202829D01*
X302153Y202511D01*
X302152Y202509D01*
X302151Y202508D01*
X302003Y202238D01*
X301809Y201887D01*
X301808Y201886D01*
X301808Y201885D01*
X301673Y201559D01*
X301537Y201229D01*
X301536Y201227D01*
X301536Y201226D01*
X301432Y200866D01*
X301340Y200544D01*
X301340Y200543D01*
X301339Y200541D01*
X301275Y200160D01*
X301221Y199842D01*
X301221Y199840D01*
X301221Y199839D01*
X301200Y199462D01*
X301182Y199130D01*
X301182Y199129D01*
X301182Y199127D01*
X301204Y198748D01*
X301222Y198419D01*
X301223Y198418D01*
X301223Y198416D01*
X301285Y198051D01*
X301342Y197717D01*
X301343Y197715D01*
X301343Y197714D01*
X301443Y197370D01*
X301540Y197032D01*
X301541Y197031D01*
X301541Y197030D01*
X301677Y196704D01*
X301814Y196375D01*
X301814Y196373D01*
X301815Y196372D01*
X301978Y196078D01*
X302159Y195751D01*
X302160Y195750D01*
X302161Y195749D01*
X302375Y195448D01*
X302572Y195171D01*
X302573Y195170D01*
X302574Y195169D01*
X302769Y194951D01*
X302769Y184939D01*
X302674Y184608D01*
X302673Y184604D01*
X302672Y184599D01*
X302614Y184255D01*
X302554Y183906D01*
X302554Y183901D01*
X302553Y183897D01*
X302515Y183197D01*
X302515Y147003D01*
X302515Y146999D01*
X302515Y146994D01*
X302535Y146641D01*
X302555Y146292D01*
X302555Y146288D01*
X302556Y146283D01*
X302619Y145914D01*
X302674Y145589D01*
X302675Y145585D01*
X302676Y145581D01*
X302769Y145261D01*
X302769Y135281D01*
X297900Y130412D01*
X297898Y130410D01*
X297896Y130408D01*
X297657Y130141D01*
X297425Y129881D01*
X297423Y129878D01*
X297422Y129876D01*
X297214Y129584D01*
X297013Y129300D01*
X297012Y129297D01*
X297010Y129295D01*
X296837Y128981D01*
X296668Y128676D01*
X296667Y128673D01*
X296666Y128671D01*
X296534Y128352D01*
X296396Y128018D01*
X296395Y128015D01*
X296394Y128012D01*
X296298Y127677D01*
X296199Y127333D01*
X296198Y127330D01*
X296198Y127328D01*
X296137Y126969D01*
X296080Y126631D01*
X296080Y126628D01*
X296079Y126625D01*
X296059Y126260D01*
X296040Y125920D01*
X296040Y125917D01*
X296040Y125914D01*
X296060Y125562D01*
X296080Y125208D01*
X296081Y125205D01*
X296081Y125203D01*
X296141Y124853D01*
X296200Y124506D01*
X296201Y124503D01*
X296201Y124500D01*
X296300Y124159D01*
X296398Y123821D01*
X296399Y123819D01*
X296400Y123816D01*
X296539Y123482D01*
X296671Y123163D01*
X296672Y123161D01*
X296673Y123158D01*
X296844Y122851D01*
X297016Y122540D01*
X297018Y122538D01*
X297019Y122535D01*
X297216Y122259D01*
X297429Y121960D01*
X297431Y121957D01*
X297432Y121955D01*
X297900Y121433D01*
X298683Y120649D01*
X292100Y120649D01*
X284739Y120649D01*
X284818Y120840D01*
X284818Y120842D01*
X284819Y120843D01*
X284921Y121201D01*
X285015Y121525D01*
X285015Y121526D01*
X285015Y121528D01*
X285075Y121878D01*
X285134Y122228D01*
X285134Y122229D01*
X285134Y122230D01*
X285151Y122540D01*
X285174Y122939D01*
X285173Y122940D01*
X285174Y122942D01*
X285154Y123281D01*
X285133Y123650D01*
X285133Y123652D01*
X285133Y123653D01*
X285078Y123976D01*
X285014Y124352D01*
X285013Y124354D01*
X285013Y124355D01*
X284922Y124669D01*
X284816Y125037D01*
X284815Y125038D01*
X284815Y125040D01*
X284679Y125368D01*
X284543Y125695D01*
X284542Y125696D01*
X284542Y125697D01*
X284359Y126026D01*
X284198Y126318D01*
X284197Y126319D01*
X284196Y126321D01*
X283996Y126602D01*
X283785Y126899D01*
X283784Y126900D01*
X283783Y126901D01*
X283554Y127157D01*
X283310Y127430D01*
X283309Y127431D01*
X283308Y127432D01*
X283042Y127669D01*
X282778Y127904D01*
X282777Y127905D01*
X282776Y127906D01*
X282476Y128118D01*
X282197Y128316D01*
X282196Y128316D01*
X282194Y128317D01*
X281879Y128491D01*
X281573Y128659D01*
X281571Y128660D01*
X281570Y128661D01*
X281270Y128785D01*
X280914Y128931D01*
X280913Y128932D01*
X280912Y128932D01*
X280603Y129021D01*
X280230Y129128D01*
X280228Y129128D01*
X280227Y129128D01*
X279864Y129189D01*
X279527Y129246D01*
X279526Y129246D01*
X279524Y129247D01*
X278824Y129285D01*
X188428Y129285D01*
X184294Y130998D01*
X184124Y131057D01*
X183957Y131126D01*
X183787Y131175D01*
X183621Y131233D01*
X183445Y131273D01*
X183272Y131323D01*
X183099Y131352D01*
X182927Y131392D01*
X182747Y131412D01*
X182570Y131442D01*
X182394Y131452D01*
X182219Y131471D01*
X182038Y131471D01*
X181858Y131481D01*
X181682Y131471D01*
X181506Y131471D01*
X181327Y131451D01*
X181147Y131441D01*
X180973Y131411D01*
X180798Y131391D01*
X180623Y131351D01*
X180445Y131321D01*
X180276Y131272D01*
X180104Y131232D01*
X179934Y131173D01*
X179760Y131123D01*
X179598Y131055D01*
X179432Y130997D01*
X179269Y130919D01*
X179103Y130849D01*
X178948Y130764D01*
X178790Y130687D01*
X178637Y130591D01*
X178479Y130504D01*
X178336Y130402D01*
X178187Y130308D01*
X178046Y130195D01*
X177899Y130091D01*
X177768Y129974D01*
X177630Y129864D01*
X177503Y129736D01*
X177368Y129615D01*
X177251Y129484D01*
X177127Y129359D01*
X177014Y129218D01*
X176894Y129084D01*
X176793Y128940D01*
X176683Y128802D01*
X176587Y128649D01*
X176483Y128502D01*
X176398Y128348D01*
X176304Y128199D01*
X176226Y128036D01*
X176139Y127878D01*
X176072Y127715D01*
X175996Y127556D01*
X175936Y127386D01*
X175868Y127219D01*
X175819Y127050D01*
X175761Y126884D01*
X175721Y126708D01*
X175672Y126534D01*
X175642Y126361D01*
X175603Y126189D01*
X175583Y126010D01*
X175553Y125832D01*
X175544Y125653D01*
X175524Y125481D01*
X175525Y125309D01*
X175515Y125132D01*
X175515Y108544D01*
X175515Y108540D01*
X175515Y108535D01*
X175535Y108182D01*
X175555Y107833D01*
X175555Y107828D01*
X175556Y107824D01*
X175616Y107473D01*
X175674Y107130D01*
X175675Y107126D01*
X175676Y107122D01*
X175778Y106770D01*
X175871Y106446D01*
X175873Y106442D01*
X175874Y106438D01*
X176013Y106105D01*
X176144Y105788D01*
X176146Y105784D01*
X176148Y105780D01*
X176318Y105473D01*
X176489Y105164D01*
X176491Y105161D01*
X176494Y105157D01*
X176706Y104858D01*
X176901Y104583D01*
X176904Y104580D01*
X176907Y104577D01*
X177374Y104054D01*
X192954Y88474D01*
X192957Y88472D01*
X192960Y88468D01*
X193223Y88234D01*
X193486Y88000D01*
X193489Y87997D01*
X193492Y87994D01*
X193777Y87793D01*
X194067Y87587D01*
X194070Y87585D01*
X194074Y87583D01*
X194384Y87412D01*
X194690Y87243D01*
X194694Y87241D01*
X194698Y87239D01*
X195023Y87105D01*
X195348Y86970D01*
X195353Y86969D01*
X195357Y86968D01*
X195695Y86871D01*
X196033Y86773D01*
X196037Y86773D01*
X196041Y86772D01*
X196398Y86712D01*
X196735Y86654D01*
X196740Y86654D01*
X196744Y86653D01*
X197444Y86615D01*
X681736Y86615D01*
X681739Y86615D01*
X681742Y86615D01*
X682089Y86635D01*
X682447Y86655D01*
X682450Y86655D01*
X682453Y86655D01*
X682793Y86714D01*
X683150Y86774D01*
X683152Y86775D01*
X683155Y86775D01*
X683500Y86875D01*
X683834Y86971D01*
X683837Y86973D01*
X683840Y86973D01*
X684164Y87108D01*
X684492Y87244D01*
X684495Y87246D01*
X684497Y87247D01*
X684809Y87419D01*
X685116Y87589D01*
X685118Y87591D01*
X685121Y87592D01*
X685418Y87803D01*
X685697Y88001D01*
X685699Y88003D01*
X685701Y88005D01*
X685969Y88245D01*
X686228Y88476D01*
X686230Y88479D01*
X686232Y88480D01*
X686459Y88736D01*
X686702Y89008D01*
X686704Y89010D01*
X686706Y89012D01*
X686904Y89293D01*
X687114Y89589D01*
X687116Y89592D01*
X687117Y89594D01*
X687280Y89890D01*
X687458Y90213D01*
X687459Y90216D01*
X687461Y90218D01*
X687584Y90518D01*
X687730Y90871D01*
X687731Y90874D01*
X687732Y90877D01*
X687827Y91206D01*
X687927Y91556D01*
X687928Y91559D01*
X687928Y91561D01*
X687988Y91915D01*
X688046Y92258D01*
X688046Y92261D01*
X688047Y92264D01*
X688085Y92964D01*
X688085Y503936D01*
X688085Y503939D01*
X688085Y503942D01*
X688065Y504289D01*
X688045Y504647D01*
X688045Y504650D01*
X688045Y504653D01*
X687986Y504993D01*
X687926Y505350D01*
X687925Y505352D01*
X687925Y505355D01*
X687825Y505700D01*
X687729Y506034D01*
X687727Y506037D01*
X687727Y506040D01*
X687592Y506364D01*
X687456Y506692D01*
X687454Y506695D01*
X687453Y506697D01*
X687281Y507009D01*
X687111Y507316D01*
X687109Y507318D01*
X687108Y507321D01*
X686897Y507618D01*
X686699Y507897D01*
X686697Y507899D01*
X686695Y507901D01*
X686460Y508164D01*
X686224Y508428D01*
X686221Y508430D01*
X686220Y508432D01*
X685952Y508670D01*
X685692Y508902D01*
X685690Y508904D01*
X685688Y508906D01*
X685407Y509104D01*
X685111Y509314D01*
X685108Y509316D01*
X685106Y509317D01*
X684810Y509480D01*
X684487Y509658D01*
X684484Y509659D01*
X684482Y509661D01*
X684164Y509792D01*
X683829Y509930D01*
X683826Y509931D01*
X683823Y509932D01*
X683494Y510027D01*
X683144Y510127D01*
X683141Y510128D01*
X683139Y510128D01*
X682785Y510188D01*
X682442Y510246D01*
X682439Y510246D01*
X682436Y510247D01*
X681736Y510285D01*
X537464Y510285D01*
X537461Y510285D01*
X537458Y510285D01*
X537111Y510265D01*
X536753Y510245D01*
X536750Y510245D01*
X536747Y510245D01*
X536407Y510186D01*
X536050Y510126D01*
X536048Y510125D01*
X536045Y510125D01*
X535700Y510025D01*
X535366Y509929D01*
X535363Y509927D01*
X535360Y509927D01*
X535036Y509792D01*
X534708Y509656D01*
X534705Y509654D01*
X534703Y509653D01*
X534391Y509481D01*
X534084Y509311D01*
X534082Y509309D01*
X534079Y509308D01*
X533782Y509097D01*
X533503Y508899D01*
X533501Y508897D01*
X533499Y508895D01*
X533231Y508655D01*
X532972Y508424D01*
X532970Y508421D01*
X532968Y508420D01*
X532730Y508152D01*
X532498Y507892D01*
X532496Y507890D01*
X532494Y507888D01*
X532296Y507607D01*
X532086Y507311D01*
X532084Y507308D01*
X532083Y507306D01*
X531920Y507010D01*
X531742Y506687D01*
X531741Y506684D01*
X531739Y506682D01*
X531608Y506364D01*
X531470Y506029D01*
X531469Y506026D01*
X531468Y506023D01*
X531373Y505694D01*
X531273Y505344D01*
X531272Y505341D01*
X531272Y505339D01*
X531212Y504985D01*
X531154Y504642D01*
X531154Y504639D01*
X531153Y504636D01*
X531115Y503936D01*
X531115Y460719D01*
X531125Y460539D01*
X531125Y460358D01*
X531145Y460183D01*
X531155Y460007D01*
X531185Y459830D01*
X531205Y459650D01*
X531245Y459478D01*
X531274Y459305D01*
X531324Y459132D01*
X531364Y458956D01*
X531423Y458789D01*
X531471Y458620D01*
X531540Y458454D01*
X531600Y458284D01*
X531677Y458125D01*
X531744Y457962D01*
X531832Y457805D01*
X531910Y457642D01*
X532004Y457493D01*
X532089Y457339D01*
X532193Y457192D01*
X532290Y457039D01*
X532400Y456901D01*
X532501Y456758D01*
X532621Y456624D01*
X532734Y456483D01*
X532859Y456358D01*
X532976Y456227D01*
X533111Y456107D01*
X533239Y455979D01*
X533376Y455870D01*
X533508Y455753D01*
X533655Y455648D01*
X533796Y455536D01*
X533945Y455443D01*
X534089Y455341D01*
X534247Y455253D01*
X534400Y455158D01*
X534558Y455082D01*
X534713Y454996D01*
X534880Y454927D01*
X535042Y454849D01*
X535208Y454792D01*
X535371Y454724D01*
X535545Y454674D01*
X535715Y454615D01*
X535887Y454576D01*
X536056Y454528D01*
X536234Y454497D01*
X536410Y454458D01*
X536585Y454438D01*
X536758Y454409D01*
X536938Y454399D01*
X537118Y454379D01*
X537294Y454379D01*
X537470Y454369D01*
X537650Y454380D01*
X537830Y454380D01*
X538005Y454400D01*
X538181Y454410D01*
X538358Y454440D01*
X538538Y454461D01*
X538710Y454500D01*
X538883Y454530D01*
X539056Y454580D01*
X539232Y454621D01*
X539401Y454680D01*
X539568Y454728D01*
X539726Y454794D01*
X539894Y454853D01*
X543725Y456440D01*
X548475Y456440D01*
X552863Y454622D01*
X554310Y453175D01*
X554313Y453173D01*
X554314Y453171D01*
X554572Y452941D01*
X554842Y452700D01*
X554844Y452698D01*
X554846Y452697D01*
X555127Y452498D01*
X555423Y452288D01*
X555425Y452287D01*
X555428Y452285D01*
X555743Y452111D01*
X556046Y451944D01*
X556049Y451942D01*
X556051Y451941D01*
X556370Y451809D01*
X556705Y451671D01*
X556708Y451670D01*
X556710Y451669D01*
X557038Y451575D01*
X557389Y451474D01*
X557392Y451474D01*
X557395Y451473D01*
X557751Y451413D01*
X558092Y451355D01*
X558094Y451355D01*
X558097Y451354D01*
X558461Y451334D01*
X558803Y451315D01*
X558806Y451315D01*
X558809Y451315D01*
X559162Y451336D01*
X559514Y451356D01*
X559517Y451356D01*
X559520Y451356D01*
X559869Y451416D01*
X560216Y451475D01*
X560219Y451476D01*
X560222Y451477D01*
X560563Y451575D01*
X560901Y451673D01*
X560904Y451674D01*
X560906Y451675D01*
X561237Y451812D01*
X561559Y451946D01*
X561561Y451947D01*
X561564Y451948D01*
X561866Y452116D01*
X562182Y452291D01*
X562185Y452293D01*
X562187Y452294D01*
X562468Y452494D01*
X562763Y452704D01*
X562765Y452706D01*
X562767Y452707D01*
X563290Y453175D01*
X564737Y454622D01*
X569125Y456440D01*
X573875Y456440D01*
X578263Y454622D01*
X579710Y453175D01*
X579712Y453173D01*
X579714Y453171D01*
X579982Y452933D01*
X580242Y452700D01*
X580244Y452699D01*
X580246Y452697D01*
X580539Y452489D01*
X580823Y452288D01*
X580825Y452287D01*
X580828Y452285D01*
X581143Y452111D01*
X581446Y451944D01*
X581449Y451942D01*
X581451Y451941D01*
X581785Y451803D01*
X582104Y451671D01*
X582107Y451670D01*
X582110Y451669D01*
X582454Y451570D01*
X582789Y451474D01*
X582792Y451474D01*
X582795Y451473D01*
X583154Y451412D01*
X583491Y451355D01*
X583494Y451355D01*
X583497Y451354D01*
X583861Y451334D01*
X584203Y451315D01*
X584206Y451315D01*
X584209Y451315D01*
X584562Y451336D01*
X584914Y451356D01*
X584917Y451356D01*
X584920Y451356D01*
X585269Y451416D01*
X585616Y451475D01*
X585619Y451476D01*
X585622Y451477D01*
X585967Y451577D01*
X586301Y451673D01*
X586303Y451674D01*
X586306Y451675D01*
X586637Y451812D01*
X586959Y451946D01*
X586961Y451947D01*
X586964Y451948D01*
X587279Y452123D01*
X587582Y452291D01*
X587584Y452293D01*
X587587Y452294D01*
X587880Y452503D01*
X588163Y452704D01*
X588165Y452706D01*
X588167Y452707D01*
X588690Y453175D01*
X588693Y453179D01*
X588694Y453179D01*
X590137Y454622D01*
X594525Y456440D01*
X599275Y456440D01*
X603663Y454622D01*
X607022Y451263D01*
X608840Y446875D01*
X608840Y442125D01*
X607022Y437737D01*
X603663Y434378D01*
X599275Y432560D01*
X594525Y432560D01*
X590137Y434378D01*
X588690Y435825D01*
X588687Y435827D01*
X588686Y435829D01*
X588428Y436059D01*
X588158Y436300D01*
X588156Y436302D01*
X588154Y436303D01*
X587873Y436502D01*
X587577Y436712D01*
X587575Y436713D01*
X587572Y436715D01*
X587259Y436888D01*
X586954Y437056D01*
X586951Y437058D01*
X586949Y437059D01*
X586630Y437191D01*
X586295Y437329D01*
X586292Y437330D01*
X586290Y437331D01*
X585962Y437425D01*
X585611Y437526D01*
X585608Y437526D01*
X585605Y437527D01*
X585249Y437587D01*
X584908Y437645D01*
X584906Y437645D01*
X584903Y437646D01*
X584539Y437666D01*
X584197Y437685D01*
X584194Y437685D01*
X584191Y437685D01*
X583838Y437664D01*
X583486Y437644D01*
X583483Y437644D01*
X583480Y437644D01*
X583131Y437584D01*
X582784Y437525D01*
X582781Y437524D01*
X582778Y437523D01*
X582437Y437425D01*
X582099Y437327D01*
X582096Y437326D01*
X582094Y437325D01*
X581763Y437188D01*
X581441Y437054D01*
X581439Y437053D01*
X581436Y437052D01*
X581134Y436884D01*
X580818Y436709D01*
X580815Y436707D01*
X580813Y436706D01*
X580532Y436506D01*
X580237Y436296D01*
X580235Y436294D01*
X580233Y436293D01*
X579710Y435825D01*
X578263Y434378D01*
X573875Y432560D01*
X569125Y432560D01*
X564737Y434378D01*
X563290Y435825D01*
X563288Y435827D01*
X563286Y435829D01*
X563018Y436067D01*
X562758Y436300D01*
X562756Y436301D01*
X562754Y436303D01*
X562461Y436511D01*
X562177Y436712D01*
X562175Y436713D01*
X562172Y436715D01*
X561859Y436888D01*
X561554Y437056D01*
X561551Y437058D01*
X561549Y437059D01*
X561215Y437197D01*
X560896Y437329D01*
X560893Y437330D01*
X560890Y437331D01*
X560546Y437430D01*
X560211Y437526D01*
X560208Y437526D01*
X560205Y437527D01*
X559846Y437588D01*
X559509Y437645D01*
X559506Y437645D01*
X559503Y437646D01*
X559139Y437666D01*
X558797Y437685D01*
X558794Y437685D01*
X558791Y437685D01*
X558438Y437664D01*
X558086Y437644D01*
X558083Y437644D01*
X558080Y437644D01*
X557731Y437584D01*
X557384Y437525D01*
X557381Y437524D01*
X557378Y437523D01*
X557028Y437422D01*
X556699Y437327D01*
X556697Y437326D01*
X556694Y437325D01*
X556363Y437188D01*
X556041Y437054D01*
X556039Y437053D01*
X556036Y437052D01*
X555718Y436875D01*
X555418Y436709D01*
X555416Y436707D01*
X555413Y436706D01*
X555120Y436497D01*
X554837Y436296D01*
X554835Y436294D01*
X554833Y436293D01*
X554310Y435825D01*
X554307Y435821D01*
X554306Y435821D01*
X552863Y434378D01*
X548475Y432560D01*
X543725Y432560D01*
X539894Y434147D01*
X539723Y434207D01*
X539557Y434276D01*
X539388Y434324D01*
X539221Y434383D01*
X539045Y434423D01*
X538872Y434472D01*
X538699Y434502D01*
X538527Y434541D01*
X538347Y434561D01*
X538170Y434591D01*
X537994Y434601D01*
X537819Y434621D01*
X537639Y434621D01*
X537458Y434631D01*
X537282Y434621D01*
X537106Y434620D01*
X536927Y434600D01*
X536747Y434590D01*
X536574Y434560D01*
X536398Y434541D01*
X536222Y434500D01*
X536045Y434470D01*
X535876Y434421D01*
X535704Y434382D01*
X535533Y434322D01*
X535360Y434272D01*
X535198Y434205D01*
X535032Y434146D01*
X534869Y434068D01*
X534703Y433999D01*
X534548Y433913D01*
X534390Y433837D01*
X534237Y433741D01*
X534079Y433653D01*
X533936Y433551D01*
X533787Y433457D01*
X533646Y433345D01*
X533499Y433240D01*
X533368Y433123D01*
X533230Y433013D01*
X533103Y432885D01*
X532968Y432765D01*
X532851Y432633D01*
X532727Y432509D01*
X532614Y432368D01*
X532494Y432233D01*
X532393Y432089D01*
X532283Y431951D01*
X532187Y431799D01*
X532083Y431651D01*
X531998Y431497D01*
X531904Y431348D01*
X531826Y431185D01*
X531739Y431027D01*
X531672Y430865D01*
X531596Y430706D01*
X531536Y430535D01*
X531468Y430369D01*
X531419Y430199D01*
X531361Y430033D01*
X531321Y429857D01*
X531272Y429684D01*
X531242Y429510D01*
X531203Y429338D01*
X531183Y429159D01*
X531153Y428981D01*
X531144Y428803D01*
X531124Y428630D01*
X531125Y428458D01*
X531115Y428281D01*
X531115Y321019D01*
X531125Y320839D01*
X531125Y320658D01*
X531145Y320483D01*
X531155Y320307D01*
X531185Y320130D01*
X531205Y319950D01*
X531245Y319778D01*
X531274Y319605D01*
X531324Y319432D01*
X531364Y319256D01*
X531423Y319089D01*
X531471Y318920D01*
X531540Y318754D01*
X531600Y318584D01*
X531677Y318425D01*
X531744Y318262D01*
X531832Y318105D01*
X531910Y317942D01*
X532004Y317793D01*
X532089Y317639D01*
X532193Y317492D01*
X532290Y317339D01*
X532400Y317201D01*
X532501Y317058D01*
X532621Y316924D01*
X532734Y316783D01*
X532859Y316658D01*
X532976Y316527D01*
X533111Y316407D01*
X533239Y316279D01*
X533376Y316170D01*
X533508Y316053D01*
X533655Y315948D01*
X533796Y315836D01*
X533945Y315743D01*
X534089Y315641D01*
X534247Y315553D01*
X534400Y315458D01*
X534558Y315382D01*
X534713Y315296D01*
X534880Y315227D01*
X535042Y315149D01*
X535208Y315092D01*
X535371Y315024D01*
X535545Y314974D01*
X535715Y314915D01*
X535887Y314876D01*
X536056Y314828D01*
X536234Y314797D01*
X536410Y314758D01*
X536585Y314738D01*
X536758Y314709D01*
X536938Y314699D01*
X537118Y314679D01*
X537294Y314679D01*
X537470Y314669D01*
X537650Y314680D01*
X537830Y314680D01*
X538005Y314700D01*
X538181Y314710D01*
X538358Y314740D01*
X538538Y314761D01*
X538710Y314800D01*
X538883Y314830D01*
X539056Y314880D01*
X539232Y314921D01*
X539401Y314980D01*
X539568Y315028D01*
X539726Y315094D01*
X539894Y315153D01*
X543725Y316740D01*
X548475Y316740D01*
X552863Y314922D01*
X554310Y313475D01*
X554312Y313473D01*
X554314Y313471D01*
X554582Y313233D01*
X554842Y313000D01*
X554844Y312999D01*
X554846Y312997D01*
X555139Y312789D01*
X555423Y312588D01*
X555425Y312587D01*
X555428Y312585D01*
X555743Y312411D01*
X556046Y312244D01*
X556049Y312242D01*
X556051Y312241D01*
X556385Y312103D01*
X556704Y311971D01*
X556707Y311970D01*
X556710Y311969D01*
X557054Y311870D01*
X557389Y311774D01*
X557392Y311774D01*
X557395Y311773D01*
X557754Y311712D01*
X558091Y311655D01*
X558094Y311655D01*
X558097Y311654D01*
X558461Y311634D01*
X558803Y311615D01*
X558806Y311615D01*
X558809Y311615D01*
X559162Y311636D01*
X559514Y311656D01*
X559517Y311656D01*
X559520Y311656D01*
X559869Y311716D01*
X560216Y311775D01*
X560219Y311776D01*
X560222Y311777D01*
X560567Y311877D01*
X560901Y311973D01*
X560903Y311974D01*
X560906Y311975D01*
X561237Y312112D01*
X561559Y312246D01*
X561561Y312247D01*
X561564Y312248D01*
X561879Y312423D01*
X562182Y312591D01*
X562184Y312593D01*
X562187Y312594D01*
X562480Y312803D01*
X562763Y313004D01*
X562765Y313006D01*
X562767Y313007D01*
X563290Y313475D01*
X563293Y313479D01*
X563294Y313479D01*
X564737Y314922D01*
X569125Y316740D01*
X573875Y316740D01*
X578263Y314922D01*
X579710Y313475D01*
X579712Y313473D01*
X579714Y313471D01*
X579982Y313233D01*
X580242Y313000D01*
X580244Y312999D01*
X580246Y312997D01*
X580539Y312789D01*
X580823Y312588D01*
X580825Y312587D01*
X580828Y312585D01*
X581143Y312411D01*
X581446Y312244D01*
X581449Y312242D01*
X581451Y312241D01*
X581785Y312103D01*
X582104Y311971D01*
X582107Y311970D01*
X582110Y311969D01*
X582454Y311870D01*
X582789Y311774D01*
X582792Y311774D01*
X582795Y311773D01*
X583154Y311712D01*
X583491Y311655D01*
X583494Y311655D01*
X583497Y311654D01*
X583861Y311634D01*
X584203Y311615D01*
X584206Y311615D01*
X584209Y311615D01*
X584562Y311636D01*
X584914Y311656D01*
X584917Y311656D01*
X584920Y311656D01*
X585269Y311716D01*
X585616Y311775D01*
X585619Y311776D01*
X585622Y311777D01*
X585967Y311877D01*
X586301Y311973D01*
X586303Y311974D01*
X586306Y311975D01*
X586637Y312112D01*
X586959Y312246D01*
X586961Y312247D01*
X586964Y312248D01*
X587279Y312423D01*
X587582Y312591D01*
X587584Y312593D01*
X587587Y312594D01*
X587880Y312803D01*
X588163Y313004D01*
X588165Y313006D01*
X588167Y313007D01*
X588690Y313475D01*
X588693Y313479D01*
X588694Y313479D01*
X590137Y314922D01*
X594525Y316740D01*
X599275Y316740D01*
X603663Y314922D01*
X607022Y311563D01*
X608840Y307175D01*
X608840Y302425D01*
X607022Y298037D01*
X603663Y294678D01*
X599275Y292860D01*
X594525Y292860D01*
X590137Y294678D01*
X588690Y296125D01*
X588687Y296127D01*
X588686Y296129D01*
X588428Y296359D01*
X588158Y296600D01*
X588156Y296602D01*
X588154Y296603D01*
X587873Y296802D01*
X587577Y297012D01*
X587575Y297013D01*
X587572Y297015D01*
X587259Y297188D01*
X586954Y297356D01*
X586951Y297358D01*
X586949Y297359D01*
X586630Y297491D01*
X586295Y297629D01*
X586292Y297630D01*
X586290Y297631D01*
X585962Y297725D01*
X585611Y297826D01*
X585608Y297826D01*
X585605Y297827D01*
X585249Y297887D01*
X584908Y297945D01*
X584906Y297945D01*
X584903Y297946D01*
X584539Y297966D01*
X584197Y297985D01*
X584194Y297985D01*
X584191Y297985D01*
X583838Y297964D01*
X583486Y297944D01*
X583483Y297944D01*
X583480Y297944D01*
X583131Y297884D01*
X582784Y297825D01*
X582781Y297824D01*
X582778Y297823D01*
X582437Y297725D01*
X582099Y297627D01*
X582096Y297626D01*
X582094Y297625D01*
X581763Y297488D01*
X581441Y297354D01*
X581439Y297353D01*
X581436Y297352D01*
X581134Y297184D01*
X580818Y297009D01*
X580815Y297007D01*
X580813Y297006D01*
X580532Y296806D01*
X580237Y296596D01*
X580235Y296594D01*
X580233Y296593D01*
X579710Y296125D01*
X578263Y294678D01*
X573875Y292860D01*
X569125Y292860D01*
X564737Y294678D01*
X563290Y296125D01*
X563287Y296127D01*
X563286Y296129D01*
X563028Y296359D01*
X562758Y296600D01*
X562756Y296602D01*
X562754Y296603D01*
X562473Y296802D01*
X562177Y297012D01*
X562175Y297013D01*
X562172Y297015D01*
X561859Y297188D01*
X561554Y297356D01*
X561551Y297358D01*
X561549Y297359D01*
X561230Y297491D01*
X560895Y297629D01*
X560892Y297630D01*
X560890Y297631D01*
X560562Y297725D01*
X560211Y297826D01*
X560208Y297826D01*
X560205Y297827D01*
X559849Y297887D01*
X559508Y297945D01*
X559506Y297945D01*
X559503Y297946D01*
X559139Y297966D01*
X558797Y297985D01*
X558794Y297985D01*
X558791Y297985D01*
X558438Y297964D01*
X558086Y297944D01*
X558083Y297944D01*
X558080Y297944D01*
X557731Y297884D01*
X557384Y297825D01*
X557381Y297824D01*
X557378Y297823D01*
X557037Y297725D01*
X556699Y297627D01*
X556696Y297626D01*
X556694Y297625D01*
X556363Y297488D01*
X556041Y297354D01*
X556039Y297353D01*
X556036Y297352D01*
X555734Y297184D01*
X555418Y297009D01*
X555415Y297007D01*
X555413Y297006D01*
X555132Y296806D01*
X554837Y296596D01*
X554835Y296594D01*
X554833Y296593D01*
X554310Y296125D01*
X552863Y294678D01*
X548475Y292860D01*
X543725Y292860D01*
X539894Y294447D01*
X539723Y294507D01*
X539557Y294576D01*
X539388Y294624D01*
X539221Y294683D01*
X539045Y294723D01*
X538872Y294772D01*
X538699Y294802D01*
X538527Y294841D01*
X538347Y294861D01*
X538170Y294891D01*
X537994Y294901D01*
X537819Y294921D01*
X537639Y294921D01*
X537458Y294931D01*
X537282Y294921D01*
X537106Y294920D01*
X536927Y294900D01*
X536747Y294890D01*
X536574Y294860D01*
X536398Y294841D01*
X536222Y294800D01*
X536045Y294770D01*
X535876Y294721D01*
X535704Y294682D01*
X535533Y294622D01*
X535360Y294572D01*
X535198Y294505D01*
X535032Y294446D01*
X534869Y294368D01*
X534703Y294299D01*
X534548Y294213D01*
X534390Y294137D01*
X534237Y294041D01*
X534079Y293953D01*
X533936Y293851D01*
X533787Y293757D01*
X533646Y293645D01*
X533499Y293540D01*
X533368Y293423D01*
X533230Y293313D01*
X533103Y293185D01*
X532968Y293065D01*
X532851Y292933D01*
X532727Y292809D01*
X532614Y292668D01*
X532494Y292533D01*
X532393Y292389D01*
X532283Y292251D01*
X532187Y292099D01*
X532083Y291951D01*
X531998Y291797D01*
X531904Y291648D01*
X531826Y291485D01*
X531739Y291327D01*
X531672Y291165D01*
X531596Y291006D01*
X531536Y290835D01*
X531468Y290669D01*
X531419Y290499D01*
X531361Y290333D01*
X531321Y290157D01*
X531272Y289984D01*
X531242Y289810D01*
X531203Y289638D01*
X531183Y289459D01*
X531153Y289281D01*
X531144Y289103D01*
X531124Y288930D01*
X531125Y288758D01*
X531115Y288581D01*
X531115Y181319D01*
X531125Y181139D01*
X531125Y180958D01*
X531145Y180783D01*
X531155Y180607D01*
X531185Y180430D01*
X531205Y180250D01*
X531245Y180078D01*
X531274Y179905D01*
X531324Y179732D01*
X531364Y179556D01*
X531423Y179389D01*
X531471Y179220D01*
X531540Y179054D01*
X531600Y178884D01*
X531677Y178725D01*
X531744Y178562D01*
X531832Y178405D01*
X531910Y178242D01*
X532004Y178093D01*
X532089Y177939D01*
X532193Y177792D01*
X532290Y177639D01*
X532400Y177501D01*
X532501Y177358D01*
X532621Y177224D01*
X532734Y177083D01*
X532859Y176958D01*
X532976Y176827D01*
X533111Y176707D01*
X533239Y176579D01*
X533376Y176470D01*
X533508Y176353D01*
X533655Y176248D01*
X533796Y176136D01*
X533945Y176043D01*
X534089Y175941D01*
X534247Y175853D01*
X534400Y175758D01*
X534558Y175682D01*
X534713Y175596D01*
X534880Y175527D01*
X535042Y175449D01*
X535208Y175392D01*
X535371Y175324D01*
X535545Y175274D01*
X535715Y175215D01*
X535887Y175176D01*
X536056Y175128D01*
X536234Y175097D01*
X536410Y175058D01*
X536585Y175038D01*
X536758Y175009D01*
X536938Y174999D01*
X537118Y174979D01*
X537294Y174979D01*
X537470Y174969D01*
X537650Y174980D01*
X537830Y174980D01*
X538005Y175000D01*
X538181Y175010D01*
X538358Y175040D01*
X538538Y175061D01*
X538710Y175100D01*
X538883Y175130D01*
X539056Y175180D01*
X539232Y175221D01*
X539401Y175280D01*
X539568Y175328D01*
X539726Y175394D01*
X539894Y175453D01*
X543725Y177040D01*
X548475Y177040D01*
X552863Y175222D01*
X554310Y173775D01*
X554312Y173773D01*
X554314Y173771D01*
X554582Y173533D01*
X554842Y173300D01*
X554844Y173299D01*
X554846Y173297D01*
X555139Y173089D01*
X555423Y172888D01*
X555425Y172887D01*
X555428Y172885D01*
X555743Y172711D01*
X556046Y172544D01*
X556049Y172542D01*
X556051Y172541D01*
X556385Y172403D01*
X556704Y172271D01*
X556707Y172270D01*
X556710Y172269D01*
X557054Y172170D01*
X557389Y172074D01*
X557392Y172074D01*
X557395Y172073D01*
X557754Y172012D01*
X558091Y171955D01*
X558094Y171955D01*
X558097Y171954D01*
X558461Y171934D01*
X558803Y171915D01*
X558806Y171915D01*
X558809Y171915D01*
X559162Y171936D01*
X559514Y171956D01*
X559517Y171956D01*
X559520Y171956D01*
X559869Y172016D01*
X560216Y172075D01*
X560219Y172076D01*
X560222Y172077D01*
X560567Y172177D01*
X560901Y172273D01*
X560903Y172274D01*
X560906Y172275D01*
X561237Y172412D01*
X561559Y172546D01*
X561561Y172547D01*
X561564Y172548D01*
X561879Y172723D01*
X562182Y172891D01*
X562184Y172893D01*
X562187Y172894D01*
X562480Y173103D01*
X562763Y173304D01*
X562765Y173306D01*
X562767Y173307D01*
X563290Y173775D01*
X563293Y173779D01*
X563294Y173779D01*
X564737Y175222D01*
X569125Y177040D01*
X573875Y177040D01*
X578263Y175222D01*
X579710Y173775D01*
X579712Y173773D01*
X579714Y173771D01*
X579982Y173533D01*
X580242Y173300D01*
X580244Y173299D01*
X580246Y173297D01*
X580539Y173089D01*
X580823Y172888D01*
X580825Y172887D01*
X580828Y172885D01*
X581143Y172711D01*
X581446Y172544D01*
X581449Y172542D01*
X581451Y172541D01*
X581785Y172403D01*
X582104Y172271D01*
X582107Y172270D01*
X582110Y172269D01*
X582454Y172170D01*
X582789Y172074D01*
X582792Y172074D01*
X582795Y172073D01*
X583154Y172012D01*
X583491Y171955D01*
X583494Y171955D01*
X583497Y171954D01*
X583861Y171934D01*
X584203Y171915D01*
X584206Y171915D01*
X584209Y171915D01*
X584562Y171936D01*
X584914Y171956D01*
X584917Y171956D01*
X584920Y171956D01*
X585269Y172016D01*
X585616Y172075D01*
X585619Y172076D01*
X585622Y172077D01*
X585967Y172177D01*
X586301Y172273D01*
X586303Y172274D01*
X586306Y172275D01*
X586637Y172412D01*
X586959Y172546D01*
X586961Y172547D01*
X586964Y172548D01*
X587279Y172723D01*
X587582Y172891D01*
X587584Y172893D01*
X587587Y172894D01*
X587880Y173103D01*
X588163Y173304D01*
X588165Y173306D01*
X588167Y173307D01*
X588690Y173775D01*
X588693Y173779D01*
X588694Y173779D01*
X590137Y175222D01*
X594525Y177040D01*
X599275Y177040D01*
X603663Y175222D01*
X607022Y171863D01*
X608840Y167475D01*
X608840Y162725D01*
X607022Y158337D01*
X603663Y154978D01*
X599275Y153160D01*
X594525Y153160D01*
X590137Y154978D01*
X588690Y156425D01*
X588687Y156427D01*
X588686Y156429D01*
X588428Y156659D01*
X588158Y156900D01*
X588156Y156902D01*
X588154Y156903D01*
X587873Y157102D01*
X587577Y157312D01*
X587575Y157313D01*
X587572Y157315D01*
X587259Y157488D01*
X586954Y157656D01*
X586951Y157658D01*
X586949Y157659D01*
X586630Y157791D01*
X586295Y157929D01*
X586292Y157930D01*
X586290Y157931D01*
X585962Y158025D01*
X585611Y158126D01*
X585608Y158126D01*
X585605Y158127D01*
X585249Y158187D01*
X584908Y158245D01*
X584906Y158245D01*
X584903Y158246D01*
X584539Y158266D01*
X584197Y158285D01*
X584194Y158285D01*
X584191Y158285D01*
X583838Y158264D01*
X583486Y158244D01*
X583483Y158244D01*
X583480Y158244D01*
X583131Y158184D01*
X582784Y158125D01*
X582781Y158124D01*
X582778Y158123D01*
X582437Y158025D01*
X582099Y157927D01*
X582096Y157926D01*
X582094Y157925D01*
X581755Y157784D01*
X581441Y157654D01*
X581439Y157653D01*
X581436Y157652D01*
X581134Y157484D01*
X580818Y157309D01*
X580815Y157307D01*
X580813Y157306D01*
X580532Y157106D01*
X580237Y156896D01*
X580235Y156894D01*
X580233Y156893D01*
X579710Y156425D01*
X578263Y154978D01*
X573875Y153160D01*
X569125Y153160D01*
X564737Y154978D01*
X563290Y156425D01*
X563287Y156427D01*
X563286Y156429D01*
X563028Y156659D01*
X562758Y156900D01*
X562756Y156902D01*
X562754Y156903D01*
X562473Y157102D01*
X562177Y157312D01*
X562175Y157313D01*
X562172Y157315D01*
X561859Y157488D01*
X561554Y157656D01*
X561551Y157658D01*
X561549Y157659D01*
X561230Y157791D01*
X560895Y157929D01*
X560892Y157930D01*
X560890Y157931D01*
X560562Y158025D01*
X560211Y158126D01*
X560208Y158126D01*
X560205Y158127D01*
X559849Y158187D01*
X559508Y158245D01*
X559506Y158245D01*
X559503Y158246D01*
X559139Y158266D01*
X558797Y158285D01*
X558794Y158285D01*
X558791Y158285D01*
X558438Y158264D01*
X558086Y158244D01*
X558083Y158244D01*
X558080Y158244D01*
X557731Y158184D01*
X557384Y158125D01*
X557381Y158124D01*
X557378Y158123D01*
X557037Y158025D01*
X556699Y157927D01*
X556696Y157926D01*
X556694Y157925D01*
X556355Y157784D01*
X556041Y157654D01*
X556039Y157653D01*
X556036Y157652D01*
X555734Y157484D01*
X555418Y157309D01*
X555415Y157307D01*
X555413Y157306D01*
X555132Y157106D01*
X554837Y156896D01*
X554835Y156894D01*
X554833Y156893D01*
X554310Y156425D01*
X552863Y154978D01*
X548475Y153160D01*
X543725Y153160D01*
X539337Y154978D01*
X537890Y156425D01*
X537887Y156427D01*
X537886Y156429D01*
X537628Y156659D01*
X537358Y156900D01*
X537356Y156902D01*
X537354Y156903D01*
X537073Y157102D01*
X536777Y157312D01*
X536775Y157313D01*
X536772Y157315D01*
X536459Y157488D01*
X536154Y157656D01*
X536151Y157658D01*
X536149Y157659D01*
X535830Y157791D01*
X535495Y157929D01*
X535492Y157930D01*
X535490Y157931D01*
X535162Y158025D01*
X534811Y158126D01*
X534808Y158126D01*
X534805Y158127D01*
X534449Y158187D01*
X534108Y158245D01*
X534106Y158245D01*
X534103Y158246D01*
X533739Y158266D01*
X533397Y158285D01*
X533394Y158285D01*
X533391Y158285D01*
X533038Y158264D01*
X532686Y158244D01*
X532683Y158244D01*
X532680Y158244D01*
X532331Y158184D01*
X531984Y158125D01*
X531981Y158124D01*
X531978Y158123D01*
X531637Y158025D01*
X531299Y157927D01*
X531296Y157926D01*
X531294Y157925D01*
X530955Y157784D01*
X530641Y157654D01*
X530639Y157653D01*
X530636Y157652D01*
X530334Y157484D01*
X530018Y157309D01*
X530015Y157307D01*
X530013Y157306D01*
X529732Y157106D01*
X529437Y156896D01*
X529435Y156894D01*
X529433Y156893D01*
X528910Y156425D01*
X527463Y154978D01*
X523075Y153160D01*
X518325Y153160D01*
X513937Y154978D01*
X511412Y157503D01*
X511410Y157505D01*
X511408Y157507D01*
X511143Y157743D01*
X510881Y157977D01*
X510878Y157979D01*
X510876Y157981D01*
X510602Y158175D01*
X510300Y158390D01*
X510297Y158391D01*
X510295Y158393D01*
X509997Y158557D01*
X509676Y158734D01*
X509673Y158735D01*
X509671Y158737D01*
X509342Y158872D01*
X509018Y159007D01*
X509015Y159007D01*
X509012Y159009D01*
X508679Y159104D01*
X508333Y159204D01*
X508330Y159204D01*
X508327Y159205D01*
X507977Y159264D01*
X507631Y159323D01*
X507628Y159323D01*
X507625Y159323D01*
X507269Y159343D01*
X506919Y159362D01*
X506917Y159362D01*
X506914Y159362D01*
X506569Y159343D01*
X506208Y159322D01*
X506205Y159322D01*
X506202Y159321D01*
X505861Y159263D01*
X505506Y159202D01*
X505503Y159202D01*
X505500Y159201D01*
X505150Y159099D01*
X504821Y159005D01*
X504819Y159004D01*
X504816Y159003D01*
X504481Y158863D01*
X504163Y158732D01*
X504161Y158730D01*
X504158Y158729D01*
X503848Y158557D01*
X503540Y158387D01*
X503538Y158385D01*
X503535Y158383D01*
X503254Y158183D01*
X502960Y157974D01*
X502957Y157972D01*
X502955Y157970D01*
X502433Y157503D01*
X502182Y157252D01*
X501649Y156843D01*
X501649Y165100D01*
X501649Y173558D01*
X501843Y173478D01*
X501956Y173446D01*
X502065Y173405D01*
X502297Y173348D01*
X502528Y173281D01*
X502643Y173262D01*
X502757Y173234D01*
X502994Y173203D01*
X503230Y173163D01*
X503347Y173156D01*
X503463Y173141D01*
X503702Y173136D01*
X503942Y173123D01*
X504058Y173130D01*
X504175Y173128D01*
X504414Y173150D01*
X504653Y173164D01*
X504768Y173184D01*
X504885Y173195D01*
X505119Y173244D01*
X505355Y173284D01*
X505468Y173316D01*
X505582Y173340D01*
X505810Y173415D01*
X506040Y173482D01*
X506147Y173527D01*
X506259Y173563D01*
X506476Y173663D01*
X506697Y173755D01*
X506800Y173812D01*
X506906Y173861D01*
X507111Y173985D01*
X507321Y174101D01*
X507416Y174168D01*
X507516Y174229D01*
X507706Y174375D01*
X507901Y174514D01*
X507988Y174591D01*
X508081Y174663D01*
X508253Y174829D01*
X508432Y174989D01*
X508509Y175076D01*
X508594Y175157D01*
X508746Y175342D01*
X508906Y175521D01*
X508973Y175616D01*
X509048Y175706D01*
X509179Y175907D01*
X509317Y176102D01*
X509373Y176205D01*
X509437Y176303D01*
X509545Y176517D01*
X509661Y176727D01*
X509705Y176834D01*
X509758Y176939D01*
X509841Y177164D01*
X509932Y177385D01*
X509964Y177497D01*
X510005Y177607D01*
X510063Y177840D01*
X510128Y178070D01*
X510148Y178185D01*
X510176Y178299D01*
X510207Y178536D01*
X510247Y178773D01*
X510253Y178891D01*
X510268Y179005D01*
X510272Y179233D01*
X510285Y179473D01*
X510285Y290427D01*
X510272Y290667D01*
X510267Y290906D01*
X510252Y291022D01*
X510245Y291139D01*
X510205Y291375D01*
X510174Y291612D01*
X510145Y291726D01*
X510126Y291841D01*
X510060Y292071D01*
X510002Y292304D01*
X509961Y292414D01*
X509929Y292526D01*
X509837Y292747D01*
X509753Y292971D01*
X509701Y293076D01*
X509656Y293184D01*
X509540Y293393D01*
X509432Y293607D01*
X509367Y293705D01*
X509311Y293807D01*
X509173Y294002D01*
X509041Y294203D01*
X508966Y294293D01*
X508899Y294388D01*
X508739Y294566D01*
X508586Y294751D01*
X508502Y294832D01*
X508424Y294919D01*
X508245Y295079D01*
X508072Y295245D01*
X507979Y295316D01*
X507892Y295394D01*
X507696Y295532D01*
X507506Y295678D01*
X507406Y295738D01*
X507311Y295806D01*
X507101Y295921D01*
X506896Y296045D01*
X506790Y296093D01*
X506687Y296150D01*
X506466Y296241D01*
X506248Y296341D01*
X506137Y296377D01*
X506029Y296422D01*
X505799Y296488D01*
X505571Y296563D01*
X505456Y296586D01*
X505344Y296619D01*
X505108Y296659D01*
X504873Y296707D01*
X504757Y296718D01*
X504642Y296737D01*
X504403Y296751D01*
X504164Y296773D01*
X504047Y296770D01*
X503930Y296777D01*
X503691Y296763D01*
X503452Y296758D01*
X503336Y296743D01*
X503219Y296736D01*
X502983Y296696D01*
X502745Y296664D01*
X502632Y296636D01*
X502517Y296616D01*
X502287Y296550D01*
X502054Y296491D01*
X501945Y296451D01*
X501832Y296418D01*
X501649Y296342D01*
X501649Y304800D01*
X501649Y313258D01*
X501843Y313178D01*
X501956Y313146D01*
X502065Y313105D01*
X502297Y313048D01*
X502528Y312981D01*
X502643Y312962D01*
X502757Y312934D01*
X502994Y312903D01*
X503230Y312863D01*
X503347Y312856D01*
X503463Y312841D01*
X503702Y312836D01*
X503942Y312823D01*
X504058Y312830D01*
X504175Y312828D01*
X504414Y312850D01*
X504653Y312864D01*
X504768Y312884D01*
X504885Y312895D01*
X505119Y312944D01*
X505355Y312984D01*
X505468Y313016D01*
X505582Y313040D01*
X505810Y313115D01*
X506040Y313182D01*
X506147Y313227D01*
X506259Y313263D01*
X506476Y313363D01*
X506697Y313455D01*
X506800Y313512D01*
X506906Y313561D01*
X507111Y313685D01*
X507321Y313801D01*
X507416Y313868D01*
X507516Y313929D01*
X507706Y314075D01*
X507901Y314214D01*
X507988Y314291D01*
X508081Y314363D01*
X508253Y314529D01*
X508432Y314689D01*
X508509Y314776D01*
X508594Y314857D01*
X508746Y315042D01*
X508906Y315221D01*
X508973Y315316D01*
X509048Y315406D01*
X509179Y315607D01*
X509317Y315802D01*
X509373Y315905D01*
X509437Y316003D01*
X509545Y316217D01*
X509661Y316427D01*
X509705Y316534D01*
X509758Y316639D01*
X509841Y316864D01*
X509932Y317085D01*
X509964Y317197D01*
X510005Y317307D01*
X510063Y317540D01*
X510128Y317770D01*
X510148Y317885D01*
X510176Y317999D01*
X510207Y318236D01*
X510247Y318473D01*
X510253Y318591D01*
X510268Y318705D01*
X510272Y318933D01*
X510285Y319173D01*
X510285Y430127D01*
X510272Y430367D01*
X510267Y430606D01*
X510252Y430722D01*
X510245Y430839D01*
X510205Y431075D01*
X510174Y431312D01*
X510145Y431426D01*
X510126Y431541D01*
X510060Y431771D01*
X510002Y432004D01*
X509961Y432114D01*
X509929Y432226D01*
X509837Y432447D01*
X509753Y432671D01*
X509701Y432776D01*
X509656Y432884D01*
X509540Y433093D01*
X509432Y433307D01*
X509367Y433405D01*
X509311Y433507D01*
X509173Y433702D01*
X509041Y433903D01*
X508966Y433993D01*
X508899Y434088D01*
X508739Y434266D01*
X508586Y434451D01*
X508502Y434532D01*
X508424Y434619D01*
X508245Y434779D01*
X508072Y434945D01*
X507979Y435016D01*
X507892Y435094D01*
X507696Y435232D01*
X507506Y435378D01*
X507406Y435438D01*
X507311Y435506D01*
X507101Y435621D01*
X506896Y435745D01*
X506790Y435793D01*
X506687Y435850D01*
X506466Y435941D01*
X506248Y436041D01*
X506137Y436077D01*
X506029Y436122D01*
X505799Y436188D01*
X505571Y436263D01*
X505456Y436286D01*
X505344Y436319D01*
X505108Y436359D01*
X504873Y436407D01*
X504757Y436418D01*
X504642Y436437D01*
X504403Y436451D01*
X504164Y436473D01*
X504047Y436470D01*
X503930Y436477D01*
X503691Y436463D01*
X503452Y436458D01*
X503336Y436443D01*
X503219Y436436D01*
X502983Y436396D01*
X502745Y436364D01*
X502632Y436336D01*
X502517Y436316D01*
X502287Y436250D01*
X502054Y436191D01*
X501945Y436151D01*
X501832Y436118D01*
X501649Y436042D01*
X501649Y444500D01*
X501649Y452958D01*
X501843Y452878D01*
X501956Y452846D01*
X502065Y452805D01*
X502297Y452748D01*
X502528Y452681D01*
X502643Y452662D01*
X502757Y452634D01*
X502994Y452603D01*
X503230Y452563D01*
X503347Y452556D01*
X503463Y452541D01*
X503702Y452536D01*
X503942Y452523D01*
X504058Y452530D01*
X504175Y452528D01*
X504414Y452550D01*
X504653Y452564D01*
X504768Y452584D01*
X504885Y452595D01*
X505119Y452644D01*
X505355Y452684D01*
X505468Y452716D01*
X505582Y452740D01*
X505810Y452815D01*
X506040Y452882D01*
X506147Y452927D01*
X506259Y452963D01*
X506476Y453063D01*
X506697Y453155D01*
X506800Y453212D01*
X506906Y453261D01*
X507111Y453385D01*
X507321Y453501D01*
X507416Y453568D01*
X507516Y453629D01*
X507706Y453775D01*
X507901Y453914D01*
X507988Y453991D01*
X508081Y454063D01*
X508253Y454229D01*
X508432Y454389D01*
X508509Y454476D01*
X508594Y454557D01*
X508746Y454742D01*
X508906Y454921D01*
X508973Y455016D01*
X509048Y455106D01*
X509179Y455307D01*
X509317Y455502D01*
X509373Y455605D01*
X509437Y455703D01*
X509545Y455917D01*
X509661Y456127D01*
X509705Y456234D01*
X509758Y456339D01*
X509841Y456564D01*
X509932Y456785D01*
X509964Y456897D01*
X510005Y457007D01*
X510063Y457240D01*
X510128Y457470D01*
X510148Y457585D01*
X510176Y457699D01*
X510207Y457936D01*
X510247Y458173D01*
X510253Y458291D01*
X510268Y458405D01*
X510272Y458633D01*
X510285Y458873D01*
X510285Y569827D01*
X510272Y570067D01*
X510267Y570306D01*
X510252Y570422D01*
X510245Y570539D01*
X510205Y570775D01*
X510174Y571012D01*
X510145Y571126D01*
X510126Y571241D01*
X510060Y571471D01*
X510002Y571704D01*
X509961Y571814D01*
X509929Y571926D01*
X509837Y572147D01*
X509753Y572371D01*
X509701Y572476D01*
X509656Y572584D01*
X509540Y572793D01*
X509432Y573007D01*
X509367Y573105D01*
X509311Y573207D01*
X509173Y573402D01*
X509041Y573603D01*
X508966Y573693D01*
X508899Y573788D01*
X508739Y573966D01*
X508586Y574151D01*
X508502Y574232D01*
X508424Y574319D01*
X508245Y574479D01*
X508072Y574645D01*
X507979Y574716D01*
X507892Y574794D01*
X507696Y574932D01*
X507506Y575078D01*
X507406Y575138D01*
X507311Y575206D01*
X507101Y575321D01*
X506896Y575445D01*
X506790Y575493D01*
X506687Y575550D01*
X506466Y575641D01*
X506248Y575741D01*
X506137Y575777D01*
X506029Y575822D01*
X505799Y575888D01*
X505571Y575963D01*
X505456Y575986D01*
X505344Y576019D01*
X505108Y576059D01*
X504873Y576107D01*
X504757Y576118D01*
X504642Y576137D01*
X504403Y576151D01*
X504164Y576173D01*
X504047Y576170D01*
X503930Y576177D01*
X503691Y576163D01*
X503452Y576158D01*
X503336Y576143D01*
X503219Y576136D01*
X502983Y576096D01*
X502745Y576064D01*
X502632Y576036D01*
X502517Y576016D01*
X502287Y575950D01*
X502054Y575891D01*
X501945Y575851D01*
X501832Y575818D01*
X501649Y575742D01*
X501649Y584200D01*
X501649Y592658D01*
X501843Y592578D01*
X501956Y592546D01*
X502065Y592505D01*
X502297Y592448D01*
X502528Y592381D01*
X502643Y592362D01*
X502757Y592334D01*
X502994Y592303D01*
X503230Y592263D01*
X503347Y592256D01*
X503463Y592241D01*
X503702Y592236D01*
X503942Y592223D01*
X504058Y592230D01*
X504175Y592228D01*
X504414Y592250D01*
X504653Y592264D01*
X504768Y592284D01*
X504885Y592295D01*
X505119Y592344D01*
X505355Y592384D01*
X505468Y592416D01*
X505582Y592440D01*
X505810Y592515D01*
X506040Y592582D01*
X506147Y592627D01*
X506259Y592663D01*
X506476Y592763D01*
X506697Y592855D01*
X506800Y592912D01*
X506906Y592961D01*
X507111Y593085D01*
X507321Y593201D01*
X507416Y593268D01*
X507516Y593329D01*
X507706Y593475D01*
X507901Y593614D01*
X507988Y593691D01*
X508081Y593763D01*
X508253Y593929D01*
X508432Y594089D01*
X508509Y594176D01*
X508594Y594257D01*
X508746Y594442D01*
X508906Y594621D01*
X508973Y594716D01*
X509048Y594806D01*
X509179Y595007D01*
X509317Y595202D01*
X509373Y595305D01*
X509437Y595403D01*
X509545Y595617D01*
X509661Y595827D01*
X509705Y595934D01*
X509758Y596039D01*
X509841Y596264D01*
X509932Y596485D01*
X509964Y596597D01*
X510005Y596707D01*
X510063Y596940D01*
X510128Y597170D01*
X510148Y597285D01*
X510176Y597399D01*
X510207Y597636D01*
X510247Y597873D01*
X510253Y597991D01*
X510268Y598105D01*
X510272Y598333D01*
X510285Y598573D01*
X510285Y709527D01*
X510272Y709767D01*
X510267Y710006D01*
X510252Y710122D01*
X510245Y710239D01*
X510205Y710475D01*
X510174Y710712D01*
X510145Y710826D01*
X510126Y710941D01*
X510060Y711171D01*
X510002Y711404D01*
X509961Y711514D01*
X509929Y711626D01*
X509837Y711847D01*
X509753Y712071D01*
X509701Y712176D01*
X509656Y712284D01*
X509540Y712493D01*
X509432Y712707D01*
X509367Y712805D01*
X509311Y712907D01*
X509173Y713102D01*
X509041Y713303D01*
X508966Y713393D01*
X508899Y713488D01*
X508739Y713666D01*
X508586Y713851D01*
X508502Y713932D01*
X508424Y714019D01*
X508245Y714179D01*
X508072Y714345D01*
X507979Y714416D01*
X507892Y714494D01*
X507696Y714632D01*
X507506Y714778D01*
X507406Y714838D01*
X507311Y714906D01*
X507101Y715021D01*
X506896Y715145D01*
X506790Y715193D01*
X506687Y715250D01*
X506466Y715341D01*
X506248Y715441D01*
X506137Y715477D01*
X506029Y715522D01*
X505799Y715588D01*
X505571Y715663D01*
X505456Y715686D01*
X505344Y715719D01*
X505108Y715759D01*
X504873Y715807D01*
X504757Y715818D01*
X504642Y715837D01*
X504403Y715851D01*
X504164Y715873D01*
X504047Y715870D01*
X503930Y715877D01*
X503691Y715863D01*
X503452Y715858D01*
X503336Y715843D01*
X503219Y715836D01*
X502983Y715796D01*
X502745Y715764D01*
X502632Y715736D01*
X502517Y715716D01*
X502287Y715650D01*
X502054Y715591D01*
X501945Y715551D01*
X501832Y715518D01*
X501649Y715442D01*
X501649Y723900D01*
X501649Y732358D01*
X501843Y732278D01*
X501956Y732246D01*
X502065Y732205D01*
X502297Y732148D01*
X502528Y732081D01*
X502643Y732062D01*
X502757Y732034D01*
X502994Y732003D01*
X503230Y731963D01*
X503347Y731956D01*
X503463Y731941D01*
X503702Y731936D01*
X503942Y731923D01*
X504058Y731930D01*
X504175Y731928D01*
X504414Y731950D01*
X504653Y731964D01*
X504768Y731984D01*
X504885Y731995D01*
X505119Y732044D01*
X505355Y732084D01*
X505468Y732116D01*
X505582Y732140D01*
X505810Y732215D01*
X506040Y732282D01*
X506147Y732327D01*
X506259Y732363D01*
X506476Y732463D01*
X506697Y732555D01*
X506800Y732612D01*
X506906Y732661D01*
X507111Y732785D01*
X507321Y732901D01*
X507416Y732968D01*
X507516Y733029D01*
X507706Y733175D01*
X507901Y733314D01*
X507988Y733391D01*
X508081Y733463D01*
X508253Y733629D01*
X508432Y733789D01*
X508509Y733876D01*
X508594Y733957D01*
X508746Y734142D01*
X508906Y734321D01*
X508973Y734416D01*
X509048Y734506D01*
X509179Y734707D01*
X509317Y734902D01*
X509373Y735005D01*
X509437Y735103D01*
X509545Y735317D01*
X509661Y735527D01*
X509705Y735634D01*
X509758Y735739D01*
X509841Y735964D01*
X509932Y736185D01*
X509964Y736297D01*
X510005Y736407D01*
X510063Y736640D01*
X510128Y736870D01*
X510148Y736985D01*
X510176Y737099D01*
X510207Y737336D01*
X510247Y737573D01*
X510253Y737691D01*
X510268Y737805D01*
X510272Y738033D01*
X510285Y738273D01*
X510285Y849227D01*
X510272Y849467D01*
X510267Y849706D01*
X510252Y849822D01*
X510245Y849939D01*
X510205Y850175D01*
X510174Y850412D01*
X510145Y850526D01*
X510126Y850641D01*
X510060Y850871D01*
X510002Y851104D01*
X509961Y851214D01*
X509929Y851326D01*
X509837Y851547D01*
X509753Y851771D01*
X509701Y851876D01*
X509656Y851984D01*
X509540Y852193D01*
X509432Y852407D01*
X509367Y852505D01*
X509311Y852607D01*
X509173Y852802D01*
X509041Y853003D01*
X508966Y853093D01*
X508899Y853188D01*
X508739Y853366D01*
X508586Y853551D01*
X508502Y853632D01*
X508424Y853719D01*
X508245Y853879D01*
X508072Y854045D01*
X507979Y854116D01*
X507892Y854194D01*
X507696Y854332D01*
X507506Y854478D01*
X507406Y854538D01*
X507311Y854606D01*
X507101Y854721D01*
X506896Y854845D01*
X506790Y854893D01*
X506687Y854950D01*
X506466Y855041D01*
X506248Y855141D01*
X506137Y855177D01*
X506029Y855222D01*
X505799Y855288D01*
X505571Y855363D01*
X505456Y855386D01*
X505344Y855419D01*
X505108Y855459D01*
X504873Y855507D01*
X504757Y855518D01*
X504642Y855537D01*
X504403Y855551D01*
X504164Y855573D01*
X504047Y855570D01*
X503930Y855577D01*
X503691Y855563D01*
X503452Y855558D01*
X503336Y855543D01*
X503219Y855536D01*
X502983Y855496D01*
X502745Y855464D01*
X502632Y855436D01*
X502517Y855416D01*
X502287Y855350D01*
X502054Y855291D01*
X501945Y855251D01*
X501832Y855218D01*
X501649Y855142D01*
X501649Y863600D01*
X501649Y871857D01*
X502182Y871448D01*
X502433Y871197D01*
X502435Y871195D01*
X502437Y871193D01*
X502701Y870957D01*
X502964Y870723D01*
X502966Y870721D01*
X502968Y870719D01*
X503254Y870517D01*
X503545Y870310D01*
X503548Y870309D01*
X503550Y870307D01*
X503857Y870138D01*
X504168Y869966D01*
X504171Y869965D01*
X504174Y869963D01*
X504502Y869828D01*
X504827Y869693D01*
X504830Y869693D01*
X504832Y869692D01*
X505172Y869594D01*
X505511Y869496D01*
X505514Y869496D01*
X505517Y869495D01*
X505870Y869436D01*
X506214Y869377D01*
X506217Y869377D01*
X506220Y869377D01*
X506576Y869357D01*
X506925Y869338D01*
X506928Y869338D01*
X506931Y869338D01*
X507292Y869358D01*
X507636Y869378D01*
X507639Y869378D01*
X507642Y869379D01*
X507997Y869439D01*
X508339Y869498D01*
X508341Y869498D01*
X508344Y869499D01*
X508695Y869600D01*
X509023Y869695D01*
X509026Y869696D01*
X509029Y869697D01*
X509363Y869836D01*
X509681Y869968D01*
X509684Y869970D01*
X509686Y869971D01*
X509994Y870141D01*
X510304Y870313D01*
X510307Y870315D01*
X510309Y870316D01*
X510598Y870522D01*
X510885Y870726D01*
X510887Y870728D01*
X510890Y870730D01*
X511412Y871197D01*
X513937Y873722D01*
X518325Y875540D01*
X523075Y875540D01*
X527463Y873722D01*
X528910Y872275D01*
X528912Y872273D01*
X528914Y872271D01*
X529182Y872033D01*
X529442Y871800D01*
X529444Y871799D01*
X529446Y871797D01*
X529739Y871589D01*
X530023Y871388D01*
X530025Y871387D01*
X530028Y871385D01*
X530343Y871211D01*
X530646Y871044D01*
X530649Y871042D01*
X530651Y871041D01*
X530985Y870903D01*
X531304Y870771D01*
X531307Y870770D01*
X531310Y870769D01*
X531654Y870670D01*
X531989Y870574D01*
X531992Y870574D01*
X531995Y870573D01*
X532354Y870512D01*
X532691Y870455D01*
X532694Y870455D01*
X532697Y870454D01*
X533061Y870434D01*
X533403Y870415D01*
X533406Y870415D01*
X533409Y870415D01*
X533762Y870436D01*
X534114Y870456D01*
X534117Y870456D01*
X534120Y870456D01*
X534469Y870516D01*
X534816Y870575D01*
X534819Y870576D01*
X534822Y870577D01*
X535167Y870677D01*
X535501Y870773D01*
X535503Y870774D01*
X535506Y870775D01*
X535837Y870912D01*
X536159Y871046D01*
X536161Y871047D01*
X536164Y871048D01*
X536479Y871223D01*
X536782Y871391D01*
X536784Y871393D01*
X536787Y871394D01*
X537080Y871603D01*
X537363Y871804D01*
X537365Y871806D01*
X537367Y871807D01*
X537890Y872275D01*
X537893Y872279D01*
X537894Y872279D01*
X539337Y873722D01*
X543725Y875540D01*
X548475Y875540D01*
X552863Y873722D01*
X554310Y872275D01*
X554312Y872273D01*
X554314Y872271D01*
X554582Y872033D01*
X554842Y871800D01*
X554844Y871799D01*
X554846Y871797D01*
X555139Y871589D01*
X555423Y871388D01*
X555425Y871387D01*
X555428Y871385D01*
X555743Y871211D01*
X556046Y871044D01*
X556049Y871042D01*
X556051Y871041D01*
X556385Y870903D01*
X556704Y870771D01*
X556707Y870770D01*
X556710Y870769D01*
X557054Y870670D01*
X557389Y870574D01*
X557392Y870574D01*
X557395Y870573D01*
X557754Y870512D01*
X558091Y870455D01*
X558094Y870455D01*
X558097Y870454D01*
X558461Y870434D01*
X558803Y870415D01*
X558806Y870415D01*
X558809Y870415D01*
X559162Y870436D01*
X559514Y870456D01*
X559517Y870456D01*
X559520Y870456D01*
X559869Y870516D01*
X560216Y870575D01*
X560219Y870576D01*
X560222Y870577D01*
X560567Y870677D01*
X560901Y870773D01*
X560903Y870774D01*
X560906Y870775D01*
X561237Y870912D01*
X561559Y871046D01*
X561561Y871047D01*
X561564Y871048D01*
X561879Y871223D01*
X562182Y871391D01*
X562184Y871393D01*
X562187Y871394D01*
X562480Y871603D01*
X562763Y871804D01*
X562765Y871806D01*
X562767Y871807D01*
X563290Y872275D01*
X563293Y872279D01*
X563294Y872279D01*
X564737Y873722D01*
X569125Y875540D01*
X573875Y875540D01*
X578263Y873722D01*
X579710Y872275D01*
X579712Y872273D01*
X579714Y872271D01*
X579982Y872033D01*
X580242Y871800D01*
X580244Y871799D01*
X580246Y871797D01*
X580539Y871589D01*
X580823Y871388D01*
X580825Y871387D01*
X580828Y871385D01*
X581143Y871211D01*
X581446Y871044D01*
X581449Y871042D01*
X581451Y871041D01*
X581785Y870903D01*
X582104Y870771D01*
X582107Y870770D01*
X582110Y870769D01*
X582454Y870670D01*
X582789Y870574D01*
X582792Y870574D01*
X582795Y870573D01*
X583154Y870512D01*
X583491Y870455D01*
X583494Y870455D01*
X583497Y870454D01*
X583861Y870434D01*
X584203Y870415D01*
X584206Y870415D01*
X584209Y870415D01*
X584562Y870436D01*
X584914Y870456D01*
X584917Y870456D01*
X584920Y870456D01*
X585269Y870516D01*
X585616Y870575D01*
X585619Y870576D01*
X585622Y870577D01*
X585967Y870677D01*
X586301Y870773D01*
X586303Y870774D01*
X586306Y870775D01*
X586637Y870912D01*
X586959Y871046D01*
X586961Y871047D01*
X586964Y871048D01*
X587279Y871223D01*
X587582Y871391D01*
X587584Y871393D01*
X587587Y871394D01*
X587880Y871603D01*
X588163Y871804D01*
X588165Y871806D01*
X588167Y871807D01*
X588690Y872275D01*
X588693Y872279D01*
X588694Y872279D01*
X590137Y873722D01*
X594525Y875540D01*
X599275Y875540D01*
X603663Y873722D01*
X607022Y870363D01*
X608840Y865975D01*
X608840Y861225D01*
X607022Y856837D01*
X603663Y853478D01*
X599275Y851660D01*
X594525Y851660D01*
X590137Y853478D01*
X588690Y854925D01*
X588687Y854927D01*
X588686Y854929D01*
X588428Y855159D01*
X588158Y855400D01*
X588156Y855402D01*
X588154Y855403D01*
X587873Y855602D01*
X587577Y855812D01*
X587575Y855813D01*
X587572Y855815D01*
X587259Y855988D01*
X586954Y856156D01*
X586951Y856158D01*
X586949Y856159D01*
X586630Y856291D01*
X586295Y856429D01*
X586292Y856430D01*
X586290Y856431D01*
X585962Y856525D01*
X585611Y856626D01*
X585608Y856626D01*
X585605Y856627D01*
X585249Y856687D01*
X584908Y856745D01*
X584906Y856745D01*
X584903Y856746D01*
X584539Y856766D01*
X584197Y856785D01*
X584194Y856785D01*
X584191Y856785D01*
X583838Y856764D01*
X583486Y856744D01*
X583483Y856744D01*
X583480Y856744D01*
X583131Y856684D01*
X582784Y856625D01*
X582781Y856624D01*
X582778Y856623D01*
X582437Y856525D01*
X582099Y856427D01*
X582096Y856426D01*
X582094Y856425D01*
X581763Y856288D01*
X581441Y856154D01*
X581439Y856153D01*
X581436Y856152D01*
X581134Y855984D01*
X580818Y855809D01*
X580815Y855807D01*
X580813Y855806D01*
X580532Y855606D01*
X580237Y855396D01*
X580235Y855394D01*
X580233Y855393D01*
X579710Y854925D01*
X578263Y853478D01*
X573875Y851660D01*
X569125Y851660D01*
X564737Y853478D01*
X563290Y854925D01*
X563287Y854927D01*
X563286Y854929D01*
X563028Y855159D01*
X562758Y855400D01*
X562756Y855402D01*
X562754Y855403D01*
X562473Y855602D01*
X562177Y855812D01*
X562175Y855813D01*
X562172Y855815D01*
X561859Y855988D01*
X561554Y856156D01*
X561551Y856158D01*
X561549Y856159D01*
X561230Y856291D01*
X560895Y856429D01*
X560892Y856430D01*
X560890Y856431D01*
X560562Y856525D01*
X560211Y856626D01*
X560208Y856626D01*
X560205Y856627D01*
X559849Y856687D01*
X559508Y856745D01*
X559506Y856745D01*
X559503Y856746D01*
X559139Y856766D01*
X558797Y856785D01*
X558794Y856785D01*
X558791Y856785D01*
X558438Y856764D01*
X558086Y856744D01*
X558083Y856744D01*
X558080Y856744D01*
X557731Y856684D01*
X557384Y856625D01*
X557381Y856624D01*
X557378Y856623D01*
X557037Y856525D01*
X556699Y856427D01*
X556696Y856426D01*
X556694Y856425D01*
X556363Y856288D01*
X556041Y856154D01*
X556039Y856153D01*
X556036Y856152D01*
X555734Y855984D01*
X555418Y855809D01*
X555415Y855807D01*
X555413Y855806D01*
X555132Y855606D01*
X554837Y855396D01*
X554835Y855394D01*
X554833Y855393D01*
X554310Y854925D01*
X552863Y853478D01*
X548475Y851660D01*
X543725Y851660D01*
X539894Y853247D01*
X539723Y853307D01*
X539557Y853376D01*
X539388Y853424D01*
X539221Y853483D01*
X539045Y853523D01*
X538872Y853572D01*
X538699Y853602D01*
X538527Y853641D01*
X538347Y853661D01*
X538170Y853691D01*
X537994Y853701D01*
X537819Y853721D01*
X537639Y853721D01*
X537458Y853731D01*
X537282Y853721D01*
X537106Y853720D01*
X536927Y853700D01*
X536747Y853690D01*
X536574Y853660D01*
X536398Y853641D01*
X536222Y853600D01*
X536045Y853570D01*
X535876Y853521D01*
X535704Y853482D01*
X535533Y853422D01*
X535360Y853372D01*
X535198Y853305D01*
X535032Y853246D01*
X534869Y853168D01*
X534703Y853099D01*
X534548Y853013D01*
X534390Y852937D01*
X534237Y852841D01*
X534079Y852753D01*
X533936Y852651D01*
X533787Y852557D01*
X533646Y852445D01*
X533499Y852340D01*
X533368Y852223D01*
X533230Y852113D01*
X533103Y851985D01*
X532968Y851865D01*
X532851Y851733D01*
X532727Y851609D01*
X532614Y851468D01*
X532494Y851333D01*
X532393Y851189D01*
X532283Y851051D01*
X532187Y850899D01*
X532083Y850751D01*
X531998Y850597D01*
X531904Y850448D01*
X531826Y850285D01*
X531739Y850127D01*
X531672Y849965D01*
X531596Y849806D01*
X531536Y849635D01*
X531468Y849469D01*
X531419Y849299D01*
X531361Y849133D01*
X531321Y848957D01*
X531272Y848784D01*
X531242Y848610D01*
X531203Y848438D01*
X531183Y848259D01*
X531153Y848081D01*
X531144Y847903D01*
X531124Y847730D01*
X531125Y847558D01*
X531115Y847381D01*
X531115Y740119D01*
X531125Y739939D01*
X531125Y739758D01*
X531145Y739583D01*
X531155Y739407D01*
X531185Y739230D01*
X531205Y739050D01*
X531245Y738878D01*
X531274Y738705D01*
X531324Y738532D01*
X531364Y738356D01*
X531423Y738189D01*
X531471Y738020D01*
X531540Y737854D01*
X531600Y737684D01*
X531677Y737525D01*
X531744Y737362D01*
X531832Y737205D01*
X531910Y737042D01*
X532004Y736893D01*
X532089Y736739D01*
X532193Y736592D01*
X532290Y736439D01*
X532400Y736301D01*
X532501Y736158D01*
X532621Y736024D01*
X532734Y735883D01*
X532859Y735758D01*
X532976Y735627D01*
X533111Y735507D01*
X533239Y735379D01*
X533376Y735270D01*
X533508Y735153D01*
X533655Y735048D01*
X533796Y734936D01*
X533945Y734843D01*
X534089Y734741D01*
X534247Y734653D01*
X534400Y734558D01*
X534558Y734482D01*
X534713Y734396D01*
X534880Y734327D01*
X535042Y734249D01*
X535208Y734192D01*
X535371Y734124D01*
X535545Y734074D01*
X535715Y734015D01*
X535887Y733976D01*
X536056Y733928D01*
X536234Y733897D01*
X536410Y733858D01*
X536585Y733838D01*
X536758Y733809D01*
X536938Y733799D01*
X537118Y733779D01*
X537294Y733779D01*
X537470Y733769D01*
X537650Y733780D01*
X537830Y733780D01*
X538005Y733800D01*
X538181Y733810D01*
X538358Y733840D01*
X538538Y733861D01*
X538710Y733900D01*
X538883Y733930D01*
X539056Y733980D01*
X539232Y734021D01*
X539401Y734080D01*
X539568Y734128D01*
X539726Y734194D01*
X539894Y734253D01*
X543725Y735840D01*
X548475Y735840D01*
X552863Y734022D01*
X554310Y732575D01*
X554312Y732573D01*
X554314Y732571D01*
X554582Y732333D01*
X554842Y732100D01*
X554844Y732099D01*
X554846Y732097D01*
X555139Y731889D01*
X555423Y731688D01*
X555425Y731687D01*
X555428Y731685D01*
X555743Y731511D01*
X556046Y731344D01*
X556049Y731342D01*
X556051Y731341D01*
X556385Y731203D01*
X556704Y731071D01*
X556707Y731070D01*
X556710Y731069D01*
X557054Y730970D01*
X557389Y730874D01*
X557392Y730874D01*
X557395Y730873D01*
X557754Y730812D01*
X558091Y730755D01*
X558094Y730755D01*
X558097Y730754D01*
X558461Y730734D01*
X558803Y730715D01*
X558806Y730715D01*
X558809Y730715D01*
X559162Y730736D01*
X559514Y730756D01*
X559517Y730756D01*
X559520Y730756D01*
X559869Y730816D01*
X560216Y730875D01*
X560219Y730876D01*
X560222Y730877D01*
X560567Y730977D01*
X560901Y731073D01*
X560903Y731074D01*
X560906Y731075D01*
X561237Y731212D01*
X561559Y731346D01*
X561561Y731347D01*
X561564Y731348D01*
X561879Y731523D01*
X562182Y731691D01*
X562184Y731693D01*
X562187Y731694D01*
X562480Y731903D01*
X562763Y732104D01*
X562765Y732106D01*
X562767Y732107D01*
X563290Y732575D01*
X563293Y732579D01*
X563294Y732579D01*
X564737Y734022D01*
X569125Y735840D01*
X573875Y735840D01*
X578263Y734022D01*
X579710Y732575D01*
X579712Y732573D01*
X579714Y732571D01*
X579982Y732333D01*
X580242Y732100D01*
X580244Y732099D01*
X580246Y732097D01*
X580539Y731889D01*
X580823Y731688D01*
X580825Y731687D01*
X580828Y731685D01*
X581143Y731511D01*
X581446Y731344D01*
X581449Y731342D01*
X581451Y731341D01*
X581785Y731203D01*
X582104Y731071D01*
X582107Y731070D01*
X582110Y731069D01*
X582454Y730970D01*
X582789Y730874D01*
X582792Y730874D01*
X582795Y730873D01*
X583154Y730812D01*
X583491Y730755D01*
X583494Y730755D01*
X583497Y730754D01*
X583861Y730734D01*
X584203Y730715D01*
X584206Y730715D01*
X584209Y730715D01*
X584562Y730736D01*
X584914Y730756D01*
X584917Y730756D01*
X584920Y730756D01*
X585269Y730816D01*
X585616Y730875D01*
X585619Y730876D01*
X585622Y730877D01*
X585967Y730977D01*
X586301Y731073D01*
X586303Y731074D01*
X586306Y731075D01*
X586637Y731212D01*
X586959Y731346D01*
X586961Y731347D01*
X586964Y731348D01*
X587279Y731523D01*
X587582Y731691D01*
X587584Y731693D01*
X587587Y731694D01*
X587880Y731903D01*
X588163Y732104D01*
X588165Y732106D01*
X588167Y732107D01*
X588690Y732575D01*
X588693Y732579D01*
X588694Y732579D01*
X590137Y734022D01*
X594525Y735840D01*
X599275Y735840D01*
X603663Y734022D01*
X607022Y730663D01*
X608840Y726275D01*
X608840Y721525D01*
X607022Y717137D01*
X603663Y713778D01*
X599275Y711960D01*
X594525Y711960D01*
X590137Y713778D01*
X588690Y715225D01*
X588687Y715227D01*
X588686Y715229D01*
X588431Y715456D01*
X588158Y715700D01*
X588156Y715702D01*
X588154Y715703D01*
X587874Y715902D01*
X587577Y716112D01*
X587575Y716113D01*
X587572Y716115D01*
X587259Y716288D01*
X586954Y716456D01*
X586951Y716458D01*
X586949Y716459D01*
X586630Y716591D01*
X586295Y716729D01*
X586292Y716730D01*
X586290Y716731D01*
X585962Y716825D01*
X585611Y716926D01*
X585608Y716926D01*
X585605Y716927D01*
X585249Y716987D01*
X584908Y717045D01*
X584906Y717045D01*
X584903Y717046D01*
X584539Y717066D01*
X584197Y717085D01*
X584194Y717085D01*
X584191Y717085D01*
X583838Y717064D01*
X583486Y717044D01*
X583483Y717044D01*
X583480Y717044D01*
X583131Y716984D01*
X582784Y716925D01*
X582781Y716924D01*
X582778Y716923D01*
X582437Y716825D01*
X582099Y716727D01*
X582096Y716726D01*
X582094Y716725D01*
X581763Y716588D01*
X581441Y716454D01*
X581439Y716453D01*
X581436Y716452D01*
X581134Y716284D01*
X580818Y716109D01*
X580815Y716107D01*
X580813Y716106D01*
X580532Y715906D01*
X580237Y715696D01*
X580235Y715694D01*
X580233Y715693D01*
X579710Y715225D01*
X578263Y713778D01*
X573875Y711960D01*
X569125Y711960D01*
X564737Y713778D01*
X563290Y715225D01*
X563287Y715227D01*
X563286Y715229D01*
X563031Y715456D01*
X562758Y715700D01*
X562756Y715702D01*
X562754Y715703D01*
X562474Y715902D01*
X562177Y716112D01*
X562175Y716113D01*
X562172Y716115D01*
X561859Y716288D01*
X561554Y716456D01*
X561551Y716458D01*
X561549Y716459D01*
X561230Y716591D01*
X560895Y716729D01*
X560892Y716730D01*
X560890Y716731D01*
X560562Y716825D01*
X560211Y716926D01*
X560208Y716926D01*
X560205Y716927D01*
X559849Y716987D01*
X559508Y717045D01*
X559506Y717045D01*
X559503Y717046D01*
X559139Y717066D01*
X558797Y717085D01*
X558794Y717085D01*
X558791Y717085D01*
X558438Y717064D01*
X558086Y717044D01*
X558083Y717044D01*
X558080Y717044D01*
X557731Y716984D01*
X557384Y716925D01*
X557381Y716924D01*
X557378Y716923D01*
X557037Y716825D01*
X556699Y716727D01*
X556696Y716726D01*
X556694Y716725D01*
X556363Y716588D01*
X556041Y716454D01*
X556039Y716453D01*
X556036Y716452D01*
X555734Y716284D01*
X555418Y716109D01*
X555415Y716107D01*
X555413Y716106D01*
X555132Y715906D01*
X554837Y715696D01*
X554835Y715694D01*
X554833Y715693D01*
X554310Y715225D01*
X552863Y713778D01*
X548475Y711960D01*
X543725Y711960D01*
X539894Y713547D01*
X539723Y713607D01*
X539557Y713676D01*
X539388Y713724D01*
X539221Y713783D01*
X539045Y713823D01*
X538872Y713872D01*
X538699Y713902D01*
X538527Y713941D01*
X538347Y713961D01*
X538170Y713991D01*
X537994Y714001D01*
X537819Y714021D01*
X537639Y714021D01*
X537458Y714031D01*
X537282Y714021D01*
X537106Y714020D01*
X536927Y714000D01*
X536747Y713990D01*
X536574Y713960D01*
X536398Y713941D01*
X536222Y713900D01*
X536045Y713870D01*
X535876Y713821D01*
X535704Y713782D01*
X535533Y713722D01*
X535360Y713672D01*
X535198Y713605D01*
X535032Y713546D01*
X534869Y713468D01*
X534703Y713399D01*
X534548Y713313D01*
X534390Y713237D01*
X534237Y713141D01*
X534079Y713053D01*
X533936Y712951D01*
X533787Y712857D01*
X533646Y712745D01*
X533499Y712640D01*
X533368Y712523D01*
X533230Y712413D01*
X533103Y712285D01*
X532968Y712165D01*
X532851Y712033D01*
X532727Y711909D01*
X532614Y711768D01*
X532494Y711633D01*
X532392Y711489D01*
X532283Y711351D01*
X532187Y711199D01*
X532083Y711051D01*
X531998Y710897D01*
X531904Y710748D01*
X531826Y710585D01*
X531739Y710427D01*
X531672Y710265D01*
X531596Y710106D01*
X531536Y709935D01*
X531468Y709769D01*
X531419Y709599D01*
X531361Y709433D01*
X531321Y709257D01*
X531272Y709084D01*
X531242Y708910D01*
X531203Y708738D01*
X531183Y708559D01*
X531153Y708381D01*
X531144Y708202D01*
X531124Y708030D01*
X531125Y707858D01*
X531115Y707681D01*
X531115Y600419D01*
X531125Y600239D01*
X531125Y600058D01*
X531145Y599883D01*
X531155Y599707D01*
X531185Y599530D01*
X531205Y599350D01*
X531245Y599178D01*
X531274Y599005D01*
X531324Y598832D01*
X531364Y598656D01*
X531423Y598489D01*
X531471Y598320D01*
X531540Y598154D01*
X531600Y597984D01*
X531677Y597825D01*
X531744Y597662D01*
X531832Y597505D01*
X531910Y597342D01*
X532004Y597193D01*
X532089Y597039D01*
X532193Y596892D01*
X532290Y596739D01*
X532400Y596601D01*
X532501Y596458D01*
X532621Y596324D01*
X532734Y596183D01*
X532859Y596058D01*
X532976Y595927D01*
X533111Y595807D01*
X533239Y595679D01*
X533376Y595570D01*
X533508Y595453D01*
X533655Y595348D01*
X533796Y595236D01*
X533945Y595143D01*
X534089Y595041D01*
X534247Y594953D01*
X534400Y594858D01*
X534558Y594782D01*
X534713Y594696D01*
X534880Y594627D01*
X535042Y594549D01*
X535208Y594492D01*
X535371Y594424D01*
X535545Y594374D01*
X535715Y594315D01*
X535887Y594276D01*
X536056Y594228D01*
X536234Y594197D01*
X536410Y594158D01*
X536585Y594138D01*
X536758Y594109D01*
X536938Y594099D01*
X537118Y594079D01*
X537294Y594079D01*
X537470Y594069D01*
X537650Y594080D01*
X537830Y594080D01*
X538005Y594100D01*
X538181Y594110D01*
X538358Y594140D01*
X538538Y594161D01*
X538710Y594200D01*
X538883Y594230D01*
X539056Y594280D01*
X539232Y594321D01*
X539401Y594380D01*
X539568Y594428D01*
X539726Y594494D01*
X539894Y594553D01*
X543725Y596140D01*
X548475Y596140D01*
X552863Y594322D01*
X554310Y592875D01*
X554312Y592873D01*
X554314Y592871D01*
X554582Y592633D01*
X554842Y592400D01*
X554844Y592399D01*
X554846Y592397D01*
X555141Y592188D01*
X555423Y591988D01*
X555425Y591987D01*
X555428Y591985D01*
X555743Y591811D01*
X556046Y591644D01*
X556049Y591642D01*
X556051Y591641D01*
X556385Y591503D01*
X556704Y591371D01*
X556707Y591370D01*
X556710Y591369D01*
X557054Y591270D01*
X557389Y591174D01*
X557392Y591174D01*
X557395Y591173D01*
X557754Y591112D01*
X558091Y591055D01*
X558094Y591055D01*
X558097Y591054D01*
X558461Y591034D01*
X558803Y591015D01*
X558806Y591015D01*
X558809Y591015D01*
X559162Y591036D01*
X559514Y591056D01*
X559517Y591056D01*
X559520Y591056D01*
X559869Y591116D01*
X560216Y591175D01*
X560219Y591176D01*
X560222Y591177D01*
X560567Y591277D01*
X560901Y591373D01*
X560903Y591374D01*
X560906Y591375D01*
X561237Y591512D01*
X561559Y591646D01*
X561561Y591647D01*
X561564Y591648D01*
X561879Y591823D01*
X562182Y591991D01*
X562184Y591993D01*
X562187Y591994D01*
X562475Y592199D01*
X562763Y592404D01*
X562765Y592406D01*
X562767Y592407D01*
X563290Y592875D01*
X563293Y592879D01*
X563294Y592879D01*
X564737Y594322D01*
X569125Y596140D01*
X573875Y596140D01*
X578263Y594322D01*
X579710Y592875D01*
X579712Y592873D01*
X579714Y592871D01*
X579982Y592633D01*
X580242Y592400D01*
X580244Y592399D01*
X580246Y592397D01*
X580541Y592188D01*
X580823Y591988D01*
X580825Y591987D01*
X580828Y591985D01*
X581143Y591811D01*
X581446Y591644D01*
X581449Y591642D01*
X581451Y591641D01*
X581785Y591503D01*
X582104Y591371D01*
X582107Y591370D01*
X582110Y591369D01*
X582454Y591270D01*
X582789Y591174D01*
X582792Y591174D01*
X582795Y591173D01*
X583154Y591112D01*
X583491Y591055D01*
X583494Y591055D01*
X583497Y591054D01*
X583861Y591034D01*
X584203Y591015D01*
X584206Y591015D01*
X584209Y591015D01*
X584562Y591036D01*
X584914Y591056D01*
X584917Y591056D01*
X584920Y591056D01*
X585269Y591116D01*
X585616Y591175D01*
X585619Y591176D01*
X585622Y591177D01*
X585967Y591277D01*
X586301Y591373D01*
X586303Y591374D01*
X586306Y591375D01*
X586637Y591512D01*
X586959Y591646D01*
X586961Y591647D01*
X586964Y591648D01*
X587279Y591823D01*
X587582Y591991D01*
X587584Y591993D01*
X587587Y591994D01*
X587875Y592199D01*
X588163Y592404D01*
X588165Y592406D01*
X588167Y592407D01*
X588690Y592875D01*
X588693Y592879D01*
X588694Y592879D01*
X590137Y594322D01*
X594525Y596140D01*
X599275Y596140D01*
X603663Y594322D01*
X607022Y590963D01*
X608840Y586575D01*
X608840Y581825D01*
X607022Y577437D01*
X603663Y574078D01*
X599275Y572260D01*
X594525Y572260D01*
X590137Y574078D01*
X588690Y575525D01*
X588687Y575527D01*
X588686Y575529D01*
X588428Y575759D01*
X588158Y576000D01*
X588156Y576002D01*
X588154Y576003D01*
X587873Y576202D01*
X587577Y576412D01*
X587575Y576413D01*
X587572Y576415D01*
X587259Y576588D01*
X586954Y576756D01*
X586951Y576758D01*
X586949Y576759D01*
X586630Y576891D01*
X586295Y577029D01*
X586292Y577030D01*
X586290Y577031D01*
X585962Y577125D01*
X585611Y577226D01*
X585608Y577226D01*
X585605Y577227D01*
X585249Y577287D01*
X584908Y577345D01*
X584906Y577345D01*
X584903Y577346D01*
X584539Y577366D01*
X584197Y577385D01*
X584194Y577385D01*
X584191Y577385D01*
X583838Y577364D01*
X583486Y577344D01*
X583483Y577344D01*
X583480Y577344D01*
X583131Y577284D01*
X582784Y577225D01*
X582781Y577224D01*
X582778Y577223D01*
X582437Y577125D01*
X582099Y577027D01*
X582096Y577026D01*
X582094Y577025D01*
X581763Y576888D01*
X581441Y576754D01*
X581439Y576753D01*
X581436Y576752D01*
X581134Y576584D01*
X580818Y576409D01*
X580815Y576407D01*
X580813Y576406D01*
X580532Y576206D01*
X580237Y575996D01*
X580235Y575994D01*
X580233Y575993D01*
X579710Y575525D01*
X578263Y574078D01*
X573875Y572260D01*
X569125Y572260D01*
X564737Y574078D01*
X563290Y575525D01*
X563287Y575527D01*
X563286Y575529D01*
X563028Y575759D01*
X562758Y576000D01*
X562756Y576002D01*
X562754Y576003D01*
X562473Y576202D01*
X562177Y576412D01*
X562175Y576413D01*
X562172Y576415D01*
X561859Y576588D01*
X561554Y576756D01*
X561551Y576758D01*
X561549Y576759D01*
X561230Y576891D01*
X560895Y577029D01*
X560892Y577030D01*
X560890Y577031D01*
X560562Y577125D01*
X560211Y577226D01*
X560208Y577226D01*
X560205Y577227D01*
X559849Y577287D01*
X559508Y577345D01*
X559506Y577345D01*
X559503Y577346D01*
X559139Y577366D01*
X558797Y577385D01*
X558794Y577385D01*
X558791Y577385D01*
X558438Y577364D01*
X558086Y577344D01*
X558083Y577344D01*
X558080Y577344D01*
X557731Y577284D01*
X557384Y577225D01*
X557381Y577224D01*
X557378Y577223D01*
X557037Y577125D01*
X556699Y577027D01*
X556696Y577026D01*
X556694Y577025D01*
X556363Y576888D01*
X556041Y576754D01*
X556039Y576753D01*
X556036Y576752D01*
X555734Y576584D01*
X555418Y576409D01*
X555415Y576407D01*
X555413Y576406D01*
X555132Y576206D01*
X554837Y575996D01*
X554835Y575994D01*
X554833Y575993D01*
X554310Y575525D01*
X552863Y574078D01*
X548475Y572260D01*
X543725Y572260D01*
X539894Y573847D01*
X539723Y573907D01*
X539557Y573976D01*
X539388Y574024D01*
X539221Y574083D01*
X539045Y574123D01*
X538872Y574172D01*
X538699Y574202D01*
X538527Y574241D01*
X538347Y574261D01*
X538170Y574291D01*
X537994Y574301D01*
X537819Y574321D01*
X537639Y574321D01*
X537458Y574331D01*
X537282Y574321D01*
X537106Y574320D01*
X536927Y574300D01*
X536747Y574290D01*
X536574Y574260D01*
X536398Y574241D01*
X536222Y574200D01*
X536045Y574170D01*
X535876Y574121D01*
X535704Y574082D01*
X535533Y574022D01*
X535360Y573972D01*
X535198Y573905D01*
X535032Y573846D01*
X534869Y573768D01*
X534703Y573699D01*
X534548Y573613D01*
X534390Y573537D01*
X534237Y573441D01*
X534079Y573353D01*
X533936Y573251D01*
X533787Y573157D01*
X533646Y573045D01*
X533499Y572940D01*
X533368Y572823D01*
X533230Y572713D01*
X533103Y572585D01*
X532968Y572465D01*
X532851Y572333D01*
X532727Y572209D01*
X532614Y572068D01*
X532494Y571933D01*
X532393Y571789D01*
X532283Y571651D01*
X532187Y571499D01*
X532083Y571351D01*
X531998Y571197D01*
X531904Y571048D01*
X531826Y570885D01*
X531739Y570727D01*
X531672Y570565D01*
X531596Y570406D01*
X531536Y570235D01*
X531468Y570069D01*
X531419Y569899D01*
X531361Y569733D01*
X531321Y569557D01*
X531272Y569384D01*
X531242Y569210D01*
X531203Y569038D01*
X531183Y568859D01*
X531153Y568681D01*
X531144Y568503D01*
X531124Y568330D01*
X531125Y568158D01*
X531115Y567981D01*
X531115Y537464D01*
X531115Y537461D01*
X531115Y537458D01*
X531135Y537109D01*
X531155Y536753D01*
X531155Y536750D01*
X531155Y536747D01*
X531216Y536393D01*
X531274Y536050D01*
X531275Y536048D01*
X531275Y536045D01*
X531379Y535687D01*
X531471Y535366D01*
X531473Y535363D01*
X531473Y535360D01*
X531608Y535036D01*
X531744Y534708D01*
X531746Y534705D01*
X531747Y534703D01*
X531919Y534391D01*
X532089Y534084D01*
X532091Y534082D01*
X532092Y534079D01*
X532310Y533774D01*
X532501Y533503D01*
X532503Y533501D01*
X532505Y533499D01*
X532750Y533226D01*
X532976Y532972D01*
X532979Y532970D01*
X532980Y532968D01*
X533248Y532730D01*
X533508Y532498D01*
X533510Y532496D01*
X533512Y532494D01*
X533793Y532296D01*
X534089Y532086D01*
X534092Y532084D01*
X534094Y532083D01*
X534390Y531920D01*
X534713Y531742D01*
X534716Y531741D01*
X534718Y531739D01*
X535036Y531608D01*
X535371Y531470D01*
X535374Y531469D01*
X535377Y531468D01*
X535706Y531373D01*
X536056Y531273D01*
X536059Y531272D01*
X536061Y531272D01*
X536415Y531212D01*
X536758Y531154D01*
X536761Y531154D01*
X536764Y531153D01*
X537464Y531115D01*
X700572Y531115D01*
X704399Y529529D01*
X707329Y526599D01*
X708915Y522772D01*
X708915Y74128D01*
X707329Y70301D01*
X704399Y67371D01*
X700572Y65785D01*
X188428Y65785D01*
G37*
%LPD*%
%LPC*%
G36*
X759898Y941933D02*
X759898Y941933D01*
X756014Y943542D01*
X753042Y946514D01*
X751433Y950398D01*
X751433Y954602D01*
X753042Y958486D01*
X756014Y961458D01*
X759898Y963067D01*
X764102Y963067D01*
X767986Y961458D01*
X770958Y958486D01*
X772567Y954602D01*
X772567Y950398D01*
X770958Y946514D01*
X767986Y943542D01*
X764102Y941933D01*
X759898Y941933D01*
G37*
%LPD*%
%LPC*%
G36*
X74098Y941933D02*
X74098Y941933D01*
X70214Y943542D01*
X67242Y946514D01*
X65633Y950398D01*
X65633Y954602D01*
X67242Y958486D01*
X70214Y961458D01*
X74098Y963067D01*
X78302Y963067D01*
X82186Y961458D01*
X85158Y958486D01*
X86767Y954602D01*
X86767Y950398D01*
X85158Y946514D01*
X82186Y943542D01*
X78302Y941933D01*
X74098Y941933D01*
G37*
%LPD*%
%LPC*%
G36*
X759898Y65633D02*
X759898Y65633D01*
X756014Y67242D01*
X753042Y70214D01*
X751433Y74098D01*
X751433Y78302D01*
X753042Y82186D01*
X756014Y85158D01*
X759898Y86767D01*
X764102Y86767D01*
X767986Y85158D01*
X770958Y82186D01*
X772567Y78302D01*
X772567Y74098D01*
X770958Y70214D01*
X767986Y67242D01*
X764102Y65633D01*
X759898Y65633D01*
G37*
%LPD*%
%LPC*%
G36*
X61398Y65633D02*
X61398Y65633D01*
X57514Y67242D01*
X54542Y70214D01*
X52933Y74098D01*
X52933Y78302D01*
X54542Y82186D01*
X57514Y85158D01*
X61398Y86767D01*
X65602Y86767D01*
X69486Y85158D01*
X72458Y82186D01*
X74067Y78302D01*
X74067Y74098D01*
X72458Y70214D01*
X69486Y67242D01*
X65602Y65633D01*
X61398Y65633D01*
G37*
%LPD*%
%LPC*%
G36*
X159749Y819149D02*
X159749Y819149D01*
X159749Y821151D01*
X160332Y820704D01*
X161304Y819732D01*
X161751Y819149D01*
X159749Y819149D01*
G37*
%LPD*%
%LPC*%
G36*
X145049Y819149D02*
X145049Y819149D01*
X145496Y819732D01*
X146468Y820704D01*
X147051Y821151D01*
X147051Y819149D01*
X145049Y819149D01*
G37*
%LPD*%
%LPC*%
G36*
X298449Y806451D02*
X298449Y806451D01*
X298683Y806451D01*
X298449Y806217D01*
X298449Y806451D01*
G37*
%LPD*%
%LPC*%
G36*
X298449Y666751D02*
X298449Y666751D01*
X298683Y666751D01*
X298449Y666517D01*
X298449Y666751D01*
G37*
%LPD*%
%LPC*%
G36*
X298449Y527051D02*
X298449Y527051D01*
X298683Y527051D01*
X298449Y526817D01*
X298449Y527051D01*
G37*
%LPD*%
%LPC*%
G36*
X298449Y387351D02*
X298449Y387351D01*
X298683Y387351D01*
X298449Y387117D01*
X298449Y387351D01*
G37*
%LPD*%
%LPC*%
G36*
X298449Y247651D02*
X298449Y247651D01*
X298683Y247651D01*
X298449Y247417D01*
X298449Y247651D01*
G37*
%LPD*%
%LPC*%
G36*
X298449Y107951D02*
X298449Y107951D01*
X298683Y107951D01*
X298449Y107717D01*
X298449Y107951D01*
G37*
%LPD*%
%LPC*%
G36*
X285517Y527051D02*
X285517Y527051D01*
X285751Y527051D01*
X285751Y526817D01*
X285517Y527051D01*
G37*
%LPD*%
%LPC*%
G36*
X285517Y387351D02*
X285517Y387351D01*
X285751Y387351D01*
X285751Y387117D01*
X285517Y387351D01*
G37*
%LPD*%
%LPC*%
G36*
X285517Y247651D02*
X285517Y247651D01*
X285751Y247651D01*
X285751Y247417D01*
X285517Y247651D01*
G37*
%LPD*%
%LPC*%
G36*
X285517Y107951D02*
X285517Y107951D01*
X285751Y107951D01*
X285751Y107717D01*
X285517Y107951D01*
G37*
%LPD*%
D10*
X469900Y165100D03*
X495300Y165100D03*
X520700Y165100D03*
X546100Y165100D03*
X571500Y165100D03*
X596900Y165100D03*
X469900Y304800D03*
X495300Y304800D03*
X520700Y304800D03*
X546100Y304800D03*
X571500Y304800D03*
X596900Y304800D03*
X469900Y444500D03*
X495300Y444500D03*
X520700Y444500D03*
X546100Y444500D03*
X571500Y444500D03*
X596900Y444500D03*
X469900Y584200D03*
X495300Y584200D03*
X520700Y584200D03*
X546100Y584200D03*
X571500Y584200D03*
X596900Y584200D03*
X469900Y723900D03*
X495300Y723900D03*
X520700Y723900D03*
X546100Y723900D03*
X571500Y723900D03*
X596900Y723900D03*
X469900Y863600D03*
X495300Y863600D03*
X520700Y863600D03*
X546100Y863600D03*
X571500Y863600D03*
X596900Y863600D03*
D11*
X152400Y622300D03*
D12*
X152400Y647700D03*
X152400Y673100D03*
X153400Y698500D03*
D11*
X152400Y736600D03*
D12*
X152400Y762000D03*
X152400Y787400D03*
X153400Y812800D03*
D13*
X292100Y190500D03*
X292100Y215900D03*
X292100Y673100D03*
X292100Y698500D03*
X292100Y901700D03*
X292100Y927100D03*
X292100Y812800D03*
X292100Y838200D03*
X292100Y114300D03*
X292100Y139700D03*
X292100Y330200D03*
X292100Y355600D03*
X292100Y254000D03*
X292100Y279400D03*
X292100Y469900D03*
X292100Y495300D03*
X292100Y393700D03*
X292100Y419100D03*
X292100Y609600D03*
X292100Y635000D03*
X292100Y533400D03*
X292100Y558800D03*
X292100Y749300D03*
X292100Y774700D03*
D14*
X292100Y215900D02*
X381000Y215900D01*
X431800Y165100D01*
X469900Y165100D01*
X190500Y647700D02*
X152400Y647700D01*
X190500Y647700D02*
X190500Y139700D01*
X292100Y139700D01*
X292100Y190500D01*
X292100Y355600D02*
X381000Y355600D01*
X431800Y304800D01*
X469900Y304800D01*
X292100Y838200D02*
X292100Y901700D01*
X292100Y838200D02*
X241300Y787400D01*
X152400Y787400D01*
X292100Y495300D02*
X381000Y495300D01*
X431800Y444500D01*
X469900Y444500D01*
X381000Y635000D02*
X292100Y635000D01*
X381000Y635000D02*
X431800Y584200D01*
X469900Y584200D01*
X469900Y723900D02*
X431800Y723900D01*
X381000Y774700D01*
X292100Y774700D01*
X431800Y863600D02*
X469900Y863600D01*
X431800Y863600D02*
X368300Y927100D01*
X292100Y927100D01*
X152400Y622300D02*
X152400Y596900D01*
X165100Y584200D01*
X165100Y101600D01*
X190500Y76200D01*
X698500Y76200D01*
X698500Y520700D01*
X520700Y520700D01*
X520700Y444500D01*
X520700Y304800D01*
X520700Y165100D01*
X520700Y520700D02*
X520700Y584200D01*
X520700Y723900D01*
X520700Y863600D01*
X292100Y330200D02*
X292100Y279400D01*
X215900Y673100D02*
X152400Y673100D01*
X215900Y673100D02*
X215900Y279400D01*
X292100Y279400D01*
X292100Y419100D02*
X292100Y469900D01*
X228600Y698500D02*
X153400Y698500D01*
X228600Y698500D02*
X241300Y685800D01*
X241300Y419100D02*
X292100Y419100D01*
X241300Y419100D02*
X241300Y685800D01*
X292100Y609600D02*
X292100Y558800D01*
X228600Y736600D02*
X152400Y736600D01*
X228600Y736600D02*
X266700Y698500D01*
X266700Y558800D01*
X292100Y558800D01*
X292100Y698500D02*
X292100Y749300D01*
X241300Y762000D02*
X152400Y762000D01*
X241300Y762000D02*
X292100Y711200D01*
X292100Y698500D01*
M02*
