G04 EAGLE Gerber RS-274X export*
G75*
%MOMM*%
%FSLAX34Y34*%
%LPD*%
%INSilkscreen Bottom*%
%IPPOS*%
%AMOC8*
5,1,8,0,0,1.08239X$1,22.5*%
G01*
%ADD10C,0.127000*%
%ADD11C,0.152400*%


D10*
X184900Y607300D02*
X119900Y607300D01*
X119900Y713500D01*
X184900Y713500D01*
X184900Y607300D01*
X151400Y603250D02*
X151402Y603313D01*
X151408Y603375D01*
X151418Y603437D01*
X151431Y603499D01*
X151449Y603559D01*
X151470Y603618D01*
X151495Y603676D01*
X151524Y603732D01*
X151556Y603786D01*
X151591Y603838D01*
X151629Y603887D01*
X151671Y603935D01*
X151715Y603979D01*
X151763Y604021D01*
X151812Y604059D01*
X151864Y604094D01*
X151918Y604126D01*
X151974Y604155D01*
X152032Y604180D01*
X152091Y604201D01*
X152151Y604219D01*
X152213Y604232D01*
X152275Y604242D01*
X152337Y604248D01*
X152400Y604250D01*
X152463Y604248D01*
X152525Y604242D01*
X152587Y604232D01*
X152649Y604219D01*
X152709Y604201D01*
X152768Y604180D01*
X152826Y604155D01*
X152882Y604126D01*
X152936Y604094D01*
X152988Y604059D01*
X153037Y604021D01*
X153085Y603979D01*
X153129Y603935D01*
X153171Y603887D01*
X153209Y603838D01*
X153244Y603786D01*
X153276Y603732D01*
X153305Y603676D01*
X153330Y603618D01*
X153351Y603559D01*
X153369Y603499D01*
X153382Y603437D01*
X153392Y603375D01*
X153398Y603313D01*
X153400Y603250D01*
X153398Y603187D01*
X153392Y603125D01*
X153382Y603063D01*
X153369Y603001D01*
X153351Y602941D01*
X153330Y602882D01*
X153305Y602824D01*
X153276Y602768D01*
X153244Y602714D01*
X153209Y602662D01*
X153171Y602613D01*
X153129Y602565D01*
X153085Y602521D01*
X153037Y602479D01*
X152988Y602441D01*
X152936Y602406D01*
X152882Y602374D01*
X152826Y602345D01*
X152768Y602320D01*
X152709Y602299D01*
X152649Y602281D01*
X152587Y602268D01*
X152525Y602258D01*
X152463Y602252D01*
X152400Y602250D01*
X152337Y602252D01*
X152275Y602258D01*
X152213Y602268D01*
X152151Y602281D01*
X152091Y602299D01*
X152032Y602320D01*
X151974Y602345D01*
X151918Y602374D01*
X151864Y602406D01*
X151812Y602441D01*
X151763Y602479D01*
X151715Y602521D01*
X151671Y602565D01*
X151629Y602613D01*
X151591Y602662D01*
X151556Y602714D01*
X151524Y602768D01*
X151495Y602824D01*
X151470Y602882D01*
X151449Y602941D01*
X151431Y603001D01*
X151418Y603063D01*
X151408Y603125D01*
X151402Y603187D01*
X151400Y603250D01*
D11*
X196811Y611572D02*
X209466Y611572D01*
X196811Y611572D02*
X196693Y611570D01*
X196575Y611564D01*
X196457Y611555D01*
X196339Y611541D01*
X196222Y611524D01*
X196106Y611503D01*
X195990Y611478D01*
X195875Y611449D01*
X195761Y611416D01*
X195649Y611380D01*
X195537Y611340D01*
X195427Y611297D01*
X195319Y611250D01*
X195212Y611199D01*
X195106Y611145D01*
X195003Y611088D01*
X194902Y611027D01*
X194802Y610963D01*
X194705Y610895D01*
X194610Y610825D01*
X194517Y610751D01*
X194427Y610675D01*
X194339Y610595D01*
X194254Y610513D01*
X194172Y610428D01*
X194092Y610340D01*
X194016Y610250D01*
X193942Y610157D01*
X193872Y610062D01*
X193804Y609965D01*
X193740Y609865D01*
X193679Y609764D01*
X193622Y609661D01*
X193568Y609555D01*
X193517Y609448D01*
X193470Y609340D01*
X193427Y609230D01*
X193387Y609118D01*
X193351Y609006D01*
X193318Y608892D01*
X193289Y608777D01*
X193264Y608661D01*
X193243Y608545D01*
X193226Y608428D01*
X193212Y608310D01*
X193203Y608192D01*
X193197Y608074D01*
X193195Y607956D01*
X193195Y606148D01*
X205850Y618642D02*
X209466Y623162D01*
X193195Y623162D01*
X193195Y627681D02*
X193195Y618642D01*
D10*
X184900Y721600D02*
X119900Y721600D01*
X119900Y827800D01*
X184900Y827800D01*
X184900Y721600D01*
X151400Y717550D02*
X151402Y717613D01*
X151408Y717675D01*
X151418Y717737D01*
X151431Y717799D01*
X151449Y717859D01*
X151470Y717918D01*
X151495Y717976D01*
X151524Y718032D01*
X151556Y718086D01*
X151591Y718138D01*
X151629Y718187D01*
X151671Y718235D01*
X151715Y718279D01*
X151763Y718321D01*
X151812Y718359D01*
X151864Y718394D01*
X151918Y718426D01*
X151974Y718455D01*
X152032Y718480D01*
X152091Y718501D01*
X152151Y718519D01*
X152213Y718532D01*
X152275Y718542D01*
X152337Y718548D01*
X152400Y718550D01*
X152463Y718548D01*
X152525Y718542D01*
X152587Y718532D01*
X152649Y718519D01*
X152709Y718501D01*
X152768Y718480D01*
X152826Y718455D01*
X152882Y718426D01*
X152936Y718394D01*
X152988Y718359D01*
X153037Y718321D01*
X153085Y718279D01*
X153129Y718235D01*
X153171Y718187D01*
X153209Y718138D01*
X153244Y718086D01*
X153276Y718032D01*
X153305Y717976D01*
X153330Y717918D01*
X153351Y717859D01*
X153369Y717799D01*
X153382Y717737D01*
X153392Y717675D01*
X153398Y717613D01*
X153400Y717550D01*
X153398Y717487D01*
X153392Y717425D01*
X153382Y717363D01*
X153369Y717301D01*
X153351Y717241D01*
X153330Y717182D01*
X153305Y717124D01*
X153276Y717068D01*
X153244Y717014D01*
X153209Y716962D01*
X153171Y716913D01*
X153129Y716865D01*
X153085Y716821D01*
X153037Y716779D01*
X152988Y716741D01*
X152936Y716706D01*
X152882Y716674D01*
X152826Y716645D01*
X152768Y716620D01*
X152709Y716599D01*
X152649Y716581D01*
X152587Y716568D01*
X152525Y716558D01*
X152463Y716552D01*
X152400Y716550D01*
X152337Y716552D01*
X152275Y716558D01*
X152213Y716568D01*
X152151Y716581D01*
X152091Y716599D01*
X152032Y716620D01*
X151974Y716645D01*
X151918Y716674D01*
X151864Y716706D01*
X151812Y716741D01*
X151763Y716779D01*
X151715Y716821D01*
X151671Y716865D01*
X151629Y716913D01*
X151591Y716962D01*
X151556Y717014D01*
X151524Y717068D01*
X151495Y717124D01*
X151470Y717182D01*
X151449Y717241D01*
X151431Y717301D01*
X151418Y717363D01*
X151408Y717425D01*
X151402Y717487D01*
X151400Y717550D01*
D11*
X196811Y725872D02*
X209466Y725872D01*
X196811Y725872D02*
X196693Y725870D01*
X196575Y725864D01*
X196457Y725855D01*
X196339Y725841D01*
X196222Y725824D01*
X196106Y725803D01*
X195990Y725778D01*
X195875Y725749D01*
X195761Y725716D01*
X195649Y725680D01*
X195537Y725640D01*
X195427Y725597D01*
X195319Y725550D01*
X195212Y725499D01*
X195106Y725445D01*
X195003Y725388D01*
X194902Y725327D01*
X194802Y725263D01*
X194705Y725195D01*
X194610Y725125D01*
X194517Y725051D01*
X194427Y724975D01*
X194339Y724895D01*
X194254Y724813D01*
X194172Y724728D01*
X194092Y724640D01*
X194016Y724550D01*
X193942Y724457D01*
X193872Y724362D01*
X193804Y724265D01*
X193740Y724165D01*
X193679Y724064D01*
X193622Y723961D01*
X193568Y723855D01*
X193517Y723748D01*
X193470Y723640D01*
X193427Y723530D01*
X193387Y723418D01*
X193351Y723306D01*
X193318Y723192D01*
X193289Y723077D01*
X193264Y722961D01*
X193243Y722845D01*
X193226Y722728D01*
X193212Y722610D01*
X193203Y722492D01*
X193197Y722374D01*
X193195Y722256D01*
X193195Y720448D01*
X209466Y737913D02*
X209464Y738038D01*
X209458Y738163D01*
X209449Y738288D01*
X209435Y738413D01*
X209418Y738537D01*
X209397Y738661D01*
X209372Y738783D01*
X209343Y738905D01*
X209311Y739026D01*
X209275Y739146D01*
X209235Y739265D01*
X209191Y739383D01*
X209144Y739499D01*
X209094Y739613D01*
X209040Y739726D01*
X208982Y739838D01*
X208921Y739947D01*
X208857Y740055D01*
X208789Y740160D01*
X208718Y740263D01*
X208644Y740365D01*
X208567Y740463D01*
X208487Y740560D01*
X208404Y740654D01*
X208318Y740745D01*
X208230Y740833D01*
X208139Y740919D01*
X208045Y741002D01*
X207948Y741082D01*
X207849Y741159D01*
X207748Y741233D01*
X207645Y741304D01*
X207540Y741372D01*
X207432Y741436D01*
X207323Y741497D01*
X207211Y741555D01*
X207098Y741609D01*
X206984Y741659D01*
X206868Y741706D01*
X206750Y741750D01*
X206631Y741790D01*
X206511Y741826D01*
X206390Y741858D01*
X206268Y741887D01*
X206145Y741912D01*
X206022Y741933D01*
X205898Y741950D01*
X205773Y741964D01*
X205648Y741973D01*
X205523Y741979D01*
X205398Y741981D01*
X209466Y737913D02*
X209464Y737770D01*
X209458Y737627D01*
X209448Y737485D01*
X209435Y737343D01*
X209417Y737201D01*
X209396Y737060D01*
X209371Y736919D01*
X209342Y736779D01*
X209309Y736640D01*
X209272Y736502D01*
X209231Y736365D01*
X209187Y736229D01*
X209139Y736095D01*
X209088Y735961D01*
X209033Y735830D01*
X208974Y735699D01*
X208912Y735571D01*
X208846Y735444D01*
X208777Y735319D01*
X208704Y735196D01*
X208628Y735075D01*
X208549Y734956D01*
X208466Y734839D01*
X208381Y734725D01*
X208292Y734613D01*
X208200Y734503D01*
X208106Y734396D01*
X208008Y734292D01*
X207908Y734190D01*
X207805Y734091D01*
X207699Y733995D01*
X207590Y733902D01*
X207480Y733812D01*
X207366Y733725D01*
X207251Y733641D01*
X207133Y733561D01*
X207013Y733483D01*
X206891Y733409D01*
X206766Y733338D01*
X206640Y733271D01*
X206513Y733207D01*
X206383Y733147D01*
X206252Y733090D01*
X206119Y733037D01*
X205985Y732987D01*
X205850Y732941D01*
X202234Y740625D02*
X202326Y740719D01*
X202421Y740809D01*
X202518Y740897D01*
X202618Y740982D01*
X202720Y741064D01*
X202825Y741143D01*
X202932Y741218D01*
X203041Y741291D01*
X203152Y741360D01*
X203266Y741425D01*
X203381Y741488D01*
X203498Y741546D01*
X203617Y741601D01*
X203737Y741653D01*
X203859Y741701D01*
X203983Y741745D01*
X204107Y741786D01*
X204233Y741823D01*
X204360Y741856D01*
X204487Y741885D01*
X204616Y741910D01*
X204745Y741932D01*
X204875Y741950D01*
X205005Y741963D01*
X205136Y741973D01*
X205267Y741979D01*
X205398Y741981D01*
X202234Y740625D02*
X193195Y732942D01*
X193195Y741981D01*
M02*
